G04 MADE WITH FRITZING*
G04 WWW.FRITZING.ORG*
G04 DOUBLE SIDED*
G04 HOLES PLATED*
G04 CONTOUR ON CENTER OF CONTOUR VECTOR*
%ASAXBY*%
%FSLAX23Y23*%
%MOIN*%
%OFA0B0*%
%SFA1.0B1.0*%
%ADD10C,0.082000*%
%ADD11C,0.069444*%
%ADD12C,0.070000*%
%ADD13C,0.075000*%
%ADD14C,0.074472*%
%ADD15C,0.078000*%
%ADD16C,0.039370*%
%ADD17R,0.082000X0.082000*%
%ADD18R,0.069972X0.070000*%
%ADD19R,0.074472X0.074108*%
%ADD20C,0.012000*%
%LNCOPPER1*%
G90*
G70*
G54D10*
X676Y1253D03*
X776Y1253D03*
X876Y1253D03*
G54D11*
X94Y1690D03*
X94Y1590D03*
X94Y1490D03*
G54D12*
X1717Y173D03*
X1717Y273D03*
X1717Y373D03*
X1717Y473D03*
X1717Y573D03*
X1717Y673D03*
X1717Y773D03*
X1717Y873D03*
X1717Y973D03*
X1717Y1073D03*
X1717Y1173D03*
X1717Y1273D03*
X1717Y1373D03*
X1717Y1473D03*
X1717Y1573D03*
X1117Y173D03*
X1117Y273D03*
X1117Y373D03*
X1117Y473D03*
X1117Y573D03*
X1117Y673D03*
X1117Y773D03*
X1117Y873D03*
X1117Y973D03*
X1117Y1073D03*
X1117Y1173D03*
X1117Y1273D03*
X1117Y1373D03*
X1117Y1473D03*
X1117Y1573D03*
G54D11*
X97Y1403D03*
X97Y1303D03*
X97Y1203D03*
G54D13*
X737Y463D03*
X737Y63D03*
X725Y1693D03*
X725Y1437D03*
X547Y1693D03*
X547Y1437D03*
X1005Y1693D03*
X1005Y1437D03*
X827Y1693D03*
X827Y1437D03*
G54D14*
X625Y1103D03*
X625Y1003D03*
X726Y1103D03*
X726Y1003D03*
X827Y1103D03*
X827Y1003D03*
X927Y1103D03*
X927Y1003D03*
X625Y1103D03*
X625Y1003D03*
X726Y1103D03*
X726Y1003D03*
X827Y1103D03*
X827Y1003D03*
X927Y1103D03*
X927Y1003D03*
G54D13*
X957Y463D03*
X957Y63D03*
X847Y463D03*
X847Y63D03*
G54D15*
X287Y1453D03*
X387Y1453D03*
X287Y1633D03*
X387Y1633D03*
X97Y743D03*
X97Y843D03*
X97Y943D03*
X97Y1043D03*
G54D13*
X400Y63D03*
X400Y318D03*
X577Y63D03*
X577Y318D03*
X238Y572D03*
X238Y316D03*
X61Y572D03*
X61Y316D03*
X400Y573D03*
X400Y828D03*
X577Y573D03*
X577Y828D03*
X740Y313D03*
X740Y568D03*
X917Y313D03*
X917Y568D03*
X1485Y573D03*
X1485Y317D03*
X1307Y573D03*
X1307Y317D03*
G54D16*
X558Y732D03*
X702Y852D03*
X798Y852D03*
X174Y1092D03*
X750Y384D03*
X846Y384D03*
X1014Y720D03*
X1218Y792D03*
X1506Y948D03*
X1266Y888D03*
X1446Y720D03*
X1194Y1176D03*
X810Y660D03*
G54D17*
X676Y1253D03*
G54D18*
X1717Y173D03*
G54D19*
X625Y1103D03*
X625Y1103D03*
X927Y1103D03*
G54D20*
X929Y977D02*
X966Y504D01*
X966Y504D02*
X962Y485D01*
D02*
X881Y1226D02*
X894Y1152D01*
X894Y1152D02*
X978Y1152D01*
X978Y1152D02*
X978Y1044D01*
X978Y1044D02*
X947Y1019D01*
D02*
X828Y76D02*
X798Y96D01*
X798Y96D02*
X798Y588D01*
X798Y588D02*
X750Y624D01*
X750Y624D02*
X750Y972D01*
X750Y972D02*
X742Y982D01*
D02*
X417Y844D02*
X570Y984D01*
X570Y984D02*
X570Y1152D01*
X570Y1152D02*
X618Y1152D01*
X618Y1152D02*
X618Y1308D01*
X618Y1308D02*
X918Y1308D01*
X918Y1308D02*
X1002Y1188D01*
X1002Y1188D02*
X1002Y1020D01*
X1002Y1020D02*
X1074Y828D01*
X1074Y828D02*
X1698Y840D01*
X1698Y840D02*
X1705Y852D01*
D02*
X299Y1431D02*
X306Y1416D01*
X306Y1416D02*
X522Y1368D01*
X522Y1368D02*
X930Y1368D01*
X930Y1368D02*
X1101Y1190D01*
D02*
X811Y647D02*
X822Y528D01*
X822Y528D02*
X906Y492D01*
X906Y492D02*
X906Y444D01*
X906Y444D02*
X930Y408D01*
X930Y408D02*
X1002Y408D01*
X1002Y408D02*
X1086Y624D01*
X1086Y624D02*
X1694Y671D01*
D02*
X114Y1415D02*
X150Y1440D01*
X150Y1440D02*
X138Y1632D01*
X138Y1632D02*
X107Y1673D01*
D02*
X676Y1226D02*
X678Y972D01*
X678Y972D02*
X450Y792D01*
X450Y792D02*
X438Y780D01*
X438Y780D02*
X354Y780D01*
X354Y780D02*
X342Y840D01*
X342Y840D02*
X234Y1404D01*
X234Y1404D02*
X234Y1488D01*
X234Y1488D02*
X279Y1609D01*
D02*
X122Y842D02*
X342Y840D01*
D02*
X722Y480D02*
X450Y792D01*
D02*
X1696Y282D02*
X1098Y528D01*
X1098Y528D02*
X1062Y492D01*
X1062Y492D02*
X1062Y384D01*
X1062Y384D02*
X859Y384D01*
D02*
X739Y392D02*
X522Y540D01*
X522Y540D02*
X318Y792D01*
X318Y792D02*
X54Y792D01*
X54Y792D02*
X42Y888D01*
X42Y888D02*
X54Y1092D01*
X54Y1092D02*
X161Y1092D01*
D02*
X1694Y970D02*
X1519Y950D01*
D02*
X1209Y782D02*
X1158Y720D01*
X1158Y720D02*
X1027Y720D01*
D02*
X82Y1317D02*
X42Y1356D01*
X42Y1356D02*
X42Y1512D01*
X42Y1512D02*
X82Y1573D01*
D02*
X1131Y1091D02*
X1186Y1165D01*
D02*
X745Y41D02*
X750Y24D01*
X750Y24D02*
X882Y18D01*
X882Y18D02*
X966Y276D01*
X966Y276D02*
X966Y324D01*
X966Y324D02*
X1146Y324D01*
X1146Y324D02*
X1170Y300D01*
X1170Y300D02*
X1170Y228D01*
X1170Y228D02*
X1758Y228D01*
X1758Y228D02*
X1758Y720D01*
X1758Y720D02*
X1459Y720D01*
D02*
X1258Y899D02*
X1132Y1054D01*
D02*
X524Y1439D02*
X412Y1450D01*
D02*
X776Y1226D02*
X774Y852D01*
X774Y852D02*
X785Y852D01*
D02*
X692Y844D02*
X568Y741D01*
D02*
X573Y806D02*
X561Y745D01*
D02*
X984Y1446D02*
X894Y1488D01*
X894Y1488D02*
X690Y1488D01*
X690Y1488D02*
X569Y1444D01*
D02*
X908Y590D02*
X803Y840D01*
G04 End of Copper1*
M02*