G04 MADE WITH FRITZING*
G04 WWW.FRITZING.ORG*
G04 DOUBLE SIDED*
G04 HOLES PLATED*
G04 CONTOUR ON CENTER OF CONTOUR VECTOR*
%ASAXBY*%
%FSLAX23Y23*%
%MOIN*%
%OFA0B0*%
%SFA1.0B1.0*%
%ADD10C,0.010000*%
%ADD11R,0.001000X0.001000*%
%LNSILK0*%
G90*
G70*
G54D10*
X528Y309D02*
X449Y309D01*
D02*
X607Y112D02*
X607Y279D01*
D02*
X371Y112D02*
X371Y279D01*
D02*
X528Y72D02*
X449Y72D01*
D02*
X508Y190D02*
X469Y190D01*
D02*
X489Y210D02*
X489Y171D01*
D02*
X110Y326D02*
X189Y326D01*
D02*
X31Y523D02*
X31Y355D01*
D02*
X268Y523D02*
X268Y355D01*
D02*
X110Y562D02*
X189Y562D01*
D02*
X130Y444D02*
X169Y444D01*
D02*
X149Y424D02*
X149Y464D01*
D02*
X528Y819D02*
X449Y819D01*
D02*
X607Y622D02*
X607Y789D01*
D02*
X371Y622D02*
X371Y789D01*
D02*
X528Y582D02*
X449Y582D01*
D02*
X508Y700D02*
X469Y700D01*
D02*
X489Y720D02*
X489Y681D01*
D02*
X868Y559D02*
X789Y559D01*
D02*
X868Y322D02*
X789Y322D01*
D02*
X1357Y326D02*
X1435Y326D01*
D02*
X1278Y523D02*
X1278Y356D01*
D02*
X1514Y523D02*
X1514Y356D01*
D02*
X1357Y563D02*
X1435Y563D01*
D02*
X1376Y445D02*
X1416Y445D01*
D02*
X1396Y425D02*
X1396Y464D01*
G54D11*
X0Y1746D02*
X1787Y1746D01*
X0Y1745D02*
X1787Y1745D01*
X0Y1744D02*
X1787Y1744D01*
X0Y1743D02*
X1787Y1743D01*
X0Y1742D02*
X1787Y1742D01*
X0Y1741D02*
X1787Y1741D01*
X0Y1740D02*
X1787Y1740D01*
X0Y1739D02*
X1787Y1739D01*
X0Y1738D02*
X7Y1738D01*
X1780Y1738D02*
X1787Y1738D01*
X0Y1737D02*
X7Y1737D01*
X1780Y1737D02*
X1787Y1737D01*
X0Y1736D02*
X7Y1736D01*
X1780Y1736D02*
X1787Y1736D01*
X0Y1735D02*
X7Y1735D01*
X1780Y1735D02*
X1787Y1735D01*
X0Y1734D02*
X7Y1734D01*
X1780Y1734D02*
X1787Y1734D01*
X0Y1733D02*
X7Y1733D01*
X1780Y1733D02*
X1787Y1733D01*
X0Y1732D02*
X7Y1732D01*
X1780Y1732D02*
X1787Y1732D01*
X0Y1731D02*
X7Y1731D01*
X1780Y1731D02*
X1787Y1731D01*
X0Y1730D02*
X7Y1730D01*
X1780Y1730D02*
X1787Y1730D01*
X0Y1729D02*
X7Y1729D01*
X1780Y1729D02*
X1787Y1729D01*
X0Y1728D02*
X7Y1728D01*
X1780Y1728D02*
X1787Y1728D01*
X0Y1727D02*
X7Y1727D01*
X1780Y1727D02*
X1787Y1727D01*
X0Y1726D02*
X7Y1726D01*
X1780Y1726D02*
X1787Y1726D01*
X0Y1725D02*
X7Y1725D01*
X1780Y1725D02*
X1787Y1725D01*
X0Y1724D02*
X7Y1724D01*
X1780Y1724D02*
X1787Y1724D01*
X0Y1723D02*
X7Y1723D01*
X1780Y1723D02*
X1787Y1723D01*
X0Y1722D02*
X7Y1722D01*
X1780Y1722D02*
X1787Y1722D01*
X0Y1721D02*
X7Y1721D01*
X1780Y1721D02*
X1787Y1721D01*
X0Y1720D02*
X7Y1720D01*
X1780Y1720D02*
X1787Y1720D01*
X0Y1719D02*
X7Y1719D01*
X1780Y1719D02*
X1787Y1719D01*
X0Y1718D02*
X7Y1718D01*
X1780Y1718D02*
X1787Y1718D01*
X0Y1717D02*
X7Y1717D01*
X1780Y1717D02*
X1787Y1717D01*
X0Y1716D02*
X7Y1716D01*
X1780Y1716D02*
X1787Y1716D01*
X0Y1715D02*
X7Y1715D01*
X1780Y1715D02*
X1787Y1715D01*
X0Y1714D02*
X7Y1714D01*
X1780Y1714D02*
X1787Y1714D01*
X0Y1713D02*
X7Y1713D01*
X1780Y1713D02*
X1787Y1713D01*
X0Y1712D02*
X7Y1712D01*
X1780Y1712D02*
X1787Y1712D01*
X0Y1711D02*
X7Y1711D01*
X1780Y1711D02*
X1787Y1711D01*
X0Y1710D02*
X7Y1710D01*
X1780Y1710D02*
X1787Y1710D01*
X0Y1709D02*
X7Y1709D01*
X1780Y1709D02*
X1787Y1709D01*
X0Y1708D02*
X7Y1708D01*
X1780Y1708D02*
X1787Y1708D01*
X0Y1707D02*
X7Y1707D01*
X1780Y1707D02*
X1787Y1707D01*
X0Y1706D02*
X7Y1706D01*
X1780Y1706D02*
X1787Y1706D01*
X0Y1705D02*
X7Y1705D01*
X1780Y1705D02*
X1787Y1705D01*
X0Y1704D02*
X7Y1704D01*
X1780Y1704D02*
X1787Y1704D01*
X0Y1703D02*
X7Y1703D01*
X1780Y1703D02*
X1787Y1703D01*
X0Y1702D02*
X7Y1702D01*
X1780Y1702D02*
X1787Y1702D01*
X0Y1701D02*
X7Y1701D01*
X1780Y1701D02*
X1787Y1701D01*
X0Y1700D02*
X7Y1700D01*
X1780Y1700D02*
X1787Y1700D01*
X0Y1699D02*
X7Y1699D01*
X1780Y1699D02*
X1787Y1699D01*
X0Y1698D02*
X7Y1698D01*
X1780Y1698D02*
X1787Y1698D01*
X0Y1697D02*
X7Y1697D01*
X1780Y1697D02*
X1787Y1697D01*
X0Y1696D02*
X7Y1696D01*
X1780Y1696D02*
X1787Y1696D01*
X0Y1695D02*
X7Y1695D01*
X1780Y1695D02*
X1787Y1695D01*
X0Y1694D02*
X7Y1694D01*
X1780Y1694D02*
X1787Y1694D01*
X0Y1693D02*
X7Y1693D01*
X1780Y1693D02*
X1787Y1693D01*
X0Y1692D02*
X7Y1692D01*
X1780Y1692D02*
X1787Y1692D01*
X0Y1691D02*
X7Y1691D01*
X1780Y1691D02*
X1787Y1691D01*
X0Y1690D02*
X7Y1690D01*
X1780Y1690D02*
X1787Y1690D01*
X0Y1689D02*
X7Y1689D01*
X1780Y1689D02*
X1787Y1689D01*
X0Y1688D02*
X7Y1688D01*
X1780Y1688D02*
X1787Y1688D01*
X0Y1687D02*
X7Y1687D01*
X1780Y1687D02*
X1787Y1687D01*
X0Y1686D02*
X7Y1686D01*
X1780Y1686D02*
X1787Y1686D01*
X0Y1685D02*
X7Y1685D01*
X1780Y1685D02*
X1787Y1685D01*
X0Y1684D02*
X7Y1684D01*
X1780Y1684D02*
X1787Y1684D01*
X0Y1683D02*
X7Y1683D01*
X1780Y1683D02*
X1787Y1683D01*
X0Y1682D02*
X7Y1682D01*
X1780Y1682D02*
X1787Y1682D01*
X0Y1681D02*
X7Y1681D01*
X1780Y1681D02*
X1787Y1681D01*
X0Y1680D02*
X7Y1680D01*
X1780Y1680D02*
X1787Y1680D01*
X0Y1679D02*
X7Y1679D01*
X1780Y1679D02*
X1787Y1679D01*
X0Y1678D02*
X7Y1678D01*
X1780Y1678D02*
X1787Y1678D01*
X0Y1677D02*
X7Y1677D01*
X1780Y1677D02*
X1787Y1677D01*
X0Y1676D02*
X7Y1676D01*
X1780Y1676D02*
X1787Y1676D01*
X0Y1675D02*
X7Y1675D01*
X1780Y1675D02*
X1787Y1675D01*
X0Y1674D02*
X7Y1674D01*
X1780Y1674D02*
X1787Y1674D01*
X0Y1673D02*
X7Y1673D01*
X1780Y1673D02*
X1787Y1673D01*
X0Y1672D02*
X7Y1672D01*
X1780Y1672D02*
X1787Y1672D01*
X0Y1671D02*
X7Y1671D01*
X1780Y1671D02*
X1787Y1671D01*
X0Y1670D02*
X7Y1670D01*
X1780Y1670D02*
X1787Y1670D01*
X0Y1669D02*
X7Y1669D01*
X1780Y1669D02*
X1787Y1669D01*
X0Y1668D02*
X7Y1668D01*
X1780Y1668D02*
X1787Y1668D01*
X0Y1667D02*
X7Y1667D01*
X1780Y1667D02*
X1787Y1667D01*
X0Y1666D02*
X7Y1666D01*
X1780Y1666D02*
X1787Y1666D01*
X0Y1665D02*
X7Y1665D01*
X1780Y1665D02*
X1787Y1665D01*
X0Y1664D02*
X7Y1664D01*
X1780Y1664D02*
X1787Y1664D01*
X0Y1663D02*
X7Y1663D01*
X1780Y1663D02*
X1787Y1663D01*
X0Y1662D02*
X7Y1662D01*
X1780Y1662D02*
X1787Y1662D01*
X0Y1661D02*
X7Y1661D01*
X1780Y1661D02*
X1787Y1661D01*
X0Y1660D02*
X7Y1660D01*
X1780Y1660D02*
X1787Y1660D01*
X0Y1659D02*
X7Y1659D01*
X1780Y1659D02*
X1787Y1659D01*
X0Y1658D02*
X7Y1658D01*
X1780Y1658D02*
X1787Y1658D01*
X0Y1657D02*
X7Y1657D01*
X1780Y1657D02*
X1787Y1657D01*
X0Y1656D02*
X7Y1656D01*
X1780Y1656D02*
X1787Y1656D01*
X0Y1655D02*
X7Y1655D01*
X1780Y1655D02*
X1787Y1655D01*
X0Y1654D02*
X7Y1654D01*
X1780Y1654D02*
X1787Y1654D01*
X0Y1653D02*
X7Y1653D01*
X1780Y1653D02*
X1787Y1653D01*
X0Y1652D02*
X7Y1652D01*
X1780Y1652D02*
X1787Y1652D01*
X0Y1651D02*
X7Y1651D01*
X1780Y1651D02*
X1787Y1651D01*
X0Y1650D02*
X7Y1650D01*
X1780Y1650D02*
X1787Y1650D01*
X0Y1649D02*
X7Y1649D01*
X1780Y1649D02*
X1787Y1649D01*
X0Y1648D02*
X7Y1648D01*
X1780Y1648D02*
X1787Y1648D01*
X0Y1647D02*
X7Y1647D01*
X1780Y1647D02*
X1787Y1647D01*
X0Y1646D02*
X7Y1646D01*
X1780Y1646D02*
X1787Y1646D01*
X0Y1645D02*
X7Y1645D01*
X1780Y1645D02*
X1787Y1645D01*
X0Y1644D02*
X7Y1644D01*
X1780Y1644D02*
X1787Y1644D01*
X0Y1643D02*
X7Y1643D01*
X1780Y1643D02*
X1787Y1643D01*
X0Y1642D02*
X7Y1642D01*
X1780Y1642D02*
X1787Y1642D01*
X0Y1641D02*
X7Y1641D01*
X1780Y1641D02*
X1787Y1641D01*
X0Y1640D02*
X7Y1640D01*
X1780Y1640D02*
X1787Y1640D01*
X0Y1639D02*
X7Y1639D01*
X1780Y1639D02*
X1787Y1639D01*
X0Y1638D02*
X7Y1638D01*
X1780Y1638D02*
X1787Y1638D01*
X0Y1637D02*
X7Y1637D01*
X1780Y1637D02*
X1787Y1637D01*
X0Y1636D02*
X7Y1636D01*
X1780Y1636D02*
X1787Y1636D01*
X0Y1635D02*
X7Y1635D01*
X1780Y1635D02*
X1787Y1635D01*
X0Y1634D02*
X7Y1634D01*
X1780Y1634D02*
X1787Y1634D01*
X0Y1633D02*
X7Y1633D01*
X1780Y1633D02*
X1787Y1633D01*
X0Y1632D02*
X7Y1632D01*
X1780Y1632D02*
X1787Y1632D01*
X0Y1631D02*
X7Y1631D01*
X1780Y1631D02*
X1787Y1631D01*
X0Y1630D02*
X7Y1630D01*
X1780Y1630D02*
X1787Y1630D01*
X0Y1629D02*
X7Y1629D01*
X1780Y1629D02*
X1787Y1629D01*
X0Y1628D02*
X7Y1628D01*
X1780Y1628D02*
X1787Y1628D01*
X0Y1627D02*
X7Y1627D01*
X1780Y1627D02*
X1787Y1627D01*
X0Y1626D02*
X7Y1626D01*
X1780Y1626D02*
X1787Y1626D01*
X0Y1625D02*
X7Y1625D01*
X1780Y1625D02*
X1787Y1625D01*
X0Y1624D02*
X7Y1624D01*
X1780Y1624D02*
X1787Y1624D01*
X0Y1623D02*
X7Y1623D01*
X1780Y1623D02*
X1787Y1623D01*
X0Y1622D02*
X7Y1622D01*
X1780Y1622D02*
X1787Y1622D01*
X0Y1621D02*
X7Y1621D01*
X1780Y1621D02*
X1787Y1621D01*
X0Y1620D02*
X7Y1620D01*
X1780Y1620D02*
X1787Y1620D01*
X0Y1619D02*
X7Y1619D01*
X1780Y1619D02*
X1787Y1619D01*
X0Y1618D02*
X7Y1618D01*
X1780Y1618D02*
X1787Y1618D01*
X0Y1617D02*
X7Y1617D01*
X1780Y1617D02*
X1787Y1617D01*
X0Y1616D02*
X7Y1616D01*
X1780Y1616D02*
X1787Y1616D01*
X0Y1615D02*
X7Y1615D01*
X1780Y1615D02*
X1787Y1615D01*
X0Y1614D02*
X7Y1614D01*
X1780Y1614D02*
X1787Y1614D01*
X0Y1613D02*
X7Y1613D01*
X1780Y1613D02*
X1787Y1613D01*
X0Y1612D02*
X7Y1612D01*
X1780Y1612D02*
X1787Y1612D01*
X0Y1611D02*
X7Y1611D01*
X1780Y1611D02*
X1787Y1611D01*
X0Y1610D02*
X7Y1610D01*
X1780Y1610D02*
X1787Y1610D01*
X0Y1609D02*
X7Y1609D01*
X1780Y1609D02*
X1787Y1609D01*
X0Y1608D02*
X7Y1608D01*
X1780Y1608D02*
X1787Y1608D01*
X0Y1607D02*
X7Y1607D01*
X1780Y1607D02*
X1787Y1607D01*
X0Y1606D02*
X7Y1606D01*
X1780Y1606D02*
X1787Y1606D01*
X0Y1605D02*
X7Y1605D01*
X1780Y1605D02*
X1787Y1605D01*
X0Y1604D02*
X7Y1604D01*
X1780Y1604D02*
X1787Y1604D01*
X0Y1603D02*
X7Y1603D01*
X1780Y1603D02*
X1787Y1603D01*
X0Y1602D02*
X7Y1602D01*
X1780Y1602D02*
X1787Y1602D01*
X0Y1601D02*
X7Y1601D01*
X1780Y1601D02*
X1787Y1601D01*
X0Y1600D02*
X7Y1600D01*
X1780Y1600D02*
X1787Y1600D01*
X0Y1599D02*
X7Y1599D01*
X1780Y1599D02*
X1787Y1599D01*
X0Y1598D02*
X7Y1598D01*
X1780Y1598D02*
X1787Y1598D01*
X0Y1597D02*
X7Y1597D01*
X1780Y1597D02*
X1787Y1597D01*
X0Y1596D02*
X7Y1596D01*
X1780Y1596D02*
X1787Y1596D01*
X0Y1595D02*
X7Y1595D01*
X1780Y1595D02*
X1787Y1595D01*
X0Y1594D02*
X7Y1594D01*
X1780Y1594D02*
X1787Y1594D01*
X0Y1593D02*
X7Y1593D01*
X1780Y1593D02*
X1787Y1593D01*
X0Y1592D02*
X7Y1592D01*
X1780Y1592D02*
X1787Y1592D01*
X0Y1591D02*
X7Y1591D01*
X1780Y1591D02*
X1787Y1591D01*
X0Y1590D02*
X7Y1590D01*
X1780Y1590D02*
X1787Y1590D01*
X0Y1589D02*
X7Y1589D01*
X1780Y1589D02*
X1787Y1589D01*
X0Y1588D02*
X7Y1588D01*
X1780Y1588D02*
X1787Y1588D01*
X0Y1587D02*
X7Y1587D01*
X1780Y1587D02*
X1787Y1587D01*
X0Y1586D02*
X7Y1586D01*
X1780Y1586D02*
X1787Y1586D01*
X0Y1585D02*
X7Y1585D01*
X1780Y1585D02*
X1787Y1585D01*
X0Y1584D02*
X7Y1584D01*
X1780Y1584D02*
X1787Y1584D01*
X0Y1583D02*
X7Y1583D01*
X1780Y1583D02*
X1787Y1583D01*
X0Y1582D02*
X7Y1582D01*
X1780Y1582D02*
X1787Y1582D01*
X0Y1581D02*
X7Y1581D01*
X1780Y1581D02*
X1787Y1581D01*
X0Y1580D02*
X7Y1580D01*
X1780Y1580D02*
X1787Y1580D01*
X0Y1579D02*
X7Y1579D01*
X1780Y1579D02*
X1787Y1579D01*
X0Y1578D02*
X7Y1578D01*
X1780Y1578D02*
X1787Y1578D01*
X0Y1577D02*
X7Y1577D01*
X1780Y1577D02*
X1787Y1577D01*
X0Y1576D02*
X7Y1576D01*
X1780Y1576D02*
X1787Y1576D01*
X0Y1575D02*
X7Y1575D01*
X1780Y1575D02*
X1787Y1575D01*
X0Y1574D02*
X7Y1574D01*
X1780Y1574D02*
X1787Y1574D01*
X0Y1573D02*
X7Y1573D01*
X1780Y1573D02*
X1787Y1573D01*
X0Y1572D02*
X7Y1572D01*
X1780Y1572D02*
X1787Y1572D01*
X0Y1571D02*
X7Y1571D01*
X1780Y1571D02*
X1787Y1571D01*
X0Y1570D02*
X7Y1570D01*
X1780Y1570D02*
X1787Y1570D01*
X0Y1569D02*
X7Y1569D01*
X1780Y1569D02*
X1787Y1569D01*
X0Y1568D02*
X7Y1568D01*
X1780Y1568D02*
X1787Y1568D01*
X0Y1567D02*
X7Y1567D01*
X1780Y1567D02*
X1787Y1567D01*
X0Y1566D02*
X7Y1566D01*
X1780Y1566D02*
X1787Y1566D01*
X0Y1565D02*
X7Y1565D01*
X1780Y1565D02*
X1787Y1565D01*
X0Y1564D02*
X7Y1564D01*
X1780Y1564D02*
X1787Y1564D01*
X0Y1563D02*
X7Y1563D01*
X1780Y1563D02*
X1787Y1563D01*
X0Y1562D02*
X7Y1562D01*
X1780Y1562D02*
X1787Y1562D01*
X0Y1561D02*
X7Y1561D01*
X1780Y1561D02*
X1787Y1561D01*
X0Y1560D02*
X7Y1560D01*
X1780Y1560D02*
X1787Y1560D01*
X0Y1559D02*
X7Y1559D01*
X1780Y1559D02*
X1787Y1559D01*
X0Y1558D02*
X7Y1558D01*
X1780Y1558D02*
X1787Y1558D01*
X0Y1557D02*
X7Y1557D01*
X1780Y1557D02*
X1787Y1557D01*
X0Y1556D02*
X7Y1556D01*
X1780Y1556D02*
X1787Y1556D01*
X0Y1555D02*
X7Y1555D01*
X1780Y1555D02*
X1787Y1555D01*
X0Y1554D02*
X7Y1554D01*
X1780Y1554D02*
X1787Y1554D01*
X0Y1553D02*
X7Y1553D01*
X1780Y1553D02*
X1787Y1553D01*
X0Y1552D02*
X7Y1552D01*
X1780Y1552D02*
X1787Y1552D01*
X0Y1551D02*
X7Y1551D01*
X1780Y1551D02*
X1787Y1551D01*
X0Y1550D02*
X7Y1550D01*
X1780Y1550D02*
X1787Y1550D01*
X0Y1549D02*
X7Y1549D01*
X1780Y1549D02*
X1787Y1549D01*
X0Y1548D02*
X7Y1548D01*
X1780Y1548D02*
X1787Y1548D01*
X0Y1547D02*
X7Y1547D01*
X1780Y1547D02*
X1787Y1547D01*
X0Y1546D02*
X7Y1546D01*
X1780Y1546D02*
X1787Y1546D01*
X0Y1545D02*
X7Y1545D01*
X1780Y1545D02*
X1787Y1545D01*
X0Y1544D02*
X7Y1544D01*
X1780Y1544D02*
X1787Y1544D01*
X0Y1543D02*
X7Y1543D01*
X1780Y1543D02*
X1787Y1543D01*
X0Y1542D02*
X7Y1542D01*
X1780Y1542D02*
X1787Y1542D01*
X0Y1541D02*
X7Y1541D01*
X1780Y1541D02*
X1787Y1541D01*
X0Y1540D02*
X7Y1540D01*
X1780Y1540D02*
X1787Y1540D01*
X0Y1539D02*
X7Y1539D01*
X1780Y1539D02*
X1787Y1539D01*
X0Y1538D02*
X7Y1538D01*
X1780Y1538D02*
X1787Y1538D01*
X0Y1537D02*
X7Y1537D01*
X1780Y1537D02*
X1787Y1537D01*
X0Y1536D02*
X7Y1536D01*
X1780Y1536D02*
X1787Y1536D01*
X0Y1535D02*
X7Y1535D01*
X1780Y1535D02*
X1787Y1535D01*
X0Y1534D02*
X7Y1534D01*
X1780Y1534D02*
X1787Y1534D01*
X0Y1533D02*
X7Y1533D01*
X1780Y1533D02*
X1787Y1533D01*
X0Y1532D02*
X7Y1532D01*
X1780Y1532D02*
X1787Y1532D01*
X0Y1531D02*
X7Y1531D01*
X1780Y1531D02*
X1787Y1531D01*
X0Y1530D02*
X7Y1530D01*
X1780Y1530D02*
X1787Y1530D01*
X0Y1529D02*
X7Y1529D01*
X1780Y1529D02*
X1787Y1529D01*
X0Y1528D02*
X7Y1528D01*
X1780Y1528D02*
X1787Y1528D01*
X0Y1527D02*
X7Y1527D01*
X1780Y1527D02*
X1787Y1527D01*
X0Y1526D02*
X7Y1526D01*
X1780Y1526D02*
X1787Y1526D01*
X0Y1525D02*
X7Y1525D01*
X1780Y1525D02*
X1787Y1525D01*
X0Y1524D02*
X7Y1524D01*
X1780Y1524D02*
X1787Y1524D01*
X0Y1523D02*
X7Y1523D01*
X1780Y1523D02*
X1787Y1523D01*
X0Y1522D02*
X7Y1522D01*
X1780Y1522D02*
X1787Y1522D01*
X0Y1521D02*
X7Y1521D01*
X1780Y1521D02*
X1787Y1521D01*
X0Y1520D02*
X7Y1520D01*
X1780Y1520D02*
X1787Y1520D01*
X0Y1519D02*
X7Y1519D01*
X1780Y1519D02*
X1787Y1519D01*
X0Y1518D02*
X7Y1518D01*
X1780Y1518D02*
X1787Y1518D01*
X0Y1517D02*
X7Y1517D01*
X1780Y1517D02*
X1787Y1517D01*
X0Y1516D02*
X7Y1516D01*
X1780Y1516D02*
X1787Y1516D01*
X0Y1515D02*
X7Y1515D01*
X1780Y1515D02*
X1787Y1515D01*
X0Y1514D02*
X7Y1514D01*
X1780Y1514D02*
X1787Y1514D01*
X0Y1513D02*
X7Y1513D01*
X1780Y1513D02*
X1787Y1513D01*
X0Y1512D02*
X7Y1512D01*
X1780Y1512D02*
X1787Y1512D01*
X0Y1511D02*
X7Y1511D01*
X1780Y1511D02*
X1787Y1511D01*
X0Y1510D02*
X7Y1510D01*
X1780Y1510D02*
X1787Y1510D01*
X0Y1509D02*
X7Y1509D01*
X1780Y1509D02*
X1787Y1509D01*
X0Y1508D02*
X7Y1508D01*
X1780Y1508D02*
X1787Y1508D01*
X0Y1507D02*
X7Y1507D01*
X1780Y1507D02*
X1787Y1507D01*
X0Y1506D02*
X7Y1506D01*
X1780Y1506D02*
X1787Y1506D01*
X0Y1505D02*
X7Y1505D01*
X1780Y1505D02*
X1787Y1505D01*
X0Y1504D02*
X7Y1504D01*
X1780Y1504D02*
X1787Y1504D01*
X0Y1503D02*
X7Y1503D01*
X1780Y1503D02*
X1787Y1503D01*
X0Y1502D02*
X7Y1502D01*
X1780Y1502D02*
X1787Y1502D01*
X0Y1501D02*
X7Y1501D01*
X1780Y1501D02*
X1787Y1501D01*
X0Y1500D02*
X7Y1500D01*
X1780Y1500D02*
X1787Y1500D01*
X0Y1499D02*
X7Y1499D01*
X1780Y1499D02*
X1787Y1499D01*
X0Y1498D02*
X7Y1498D01*
X1780Y1498D02*
X1787Y1498D01*
X0Y1497D02*
X7Y1497D01*
X1780Y1497D02*
X1787Y1497D01*
X0Y1496D02*
X7Y1496D01*
X1780Y1496D02*
X1787Y1496D01*
X0Y1495D02*
X7Y1495D01*
X1780Y1495D02*
X1787Y1495D01*
X0Y1494D02*
X7Y1494D01*
X1780Y1494D02*
X1787Y1494D01*
X0Y1493D02*
X7Y1493D01*
X1780Y1493D02*
X1787Y1493D01*
X0Y1492D02*
X7Y1492D01*
X1780Y1492D02*
X1787Y1492D01*
X0Y1491D02*
X7Y1491D01*
X1780Y1491D02*
X1787Y1491D01*
X0Y1490D02*
X7Y1490D01*
X1780Y1490D02*
X1787Y1490D01*
X0Y1489D02*
X7Y1489D01*
X1780Y1489D02*
X1787Y1489D01*
X0Y1488D02*
X7Y1488D01*
X1780Y1488D02*
X1787Y1488D01*
X0Y1487D02*
X7Y1487D01*
X1780Y1487D02*
X1787Y1487D01*
X0Y1486D02*
X7Y1486D01*
X1780Y1486D02*
X1787Y1486D01*
X0Y1485D02*
X7Y1485D01*
X1780Y1485D02*
X1787Y1485D01*
X0Y1484D02*
X7Y1484D01*
X1780Y1484D02*
X1787Y1484D01*
X0Y1483D02*
X7Y1483D01*
X1780Y1483D02*
X1787Y1483D01*
X0Y1482D02*
X7Y1482D01*
X1780Y1482D02*
X1787Y1482D01*
X0Y1481D02*
X7Y1481D01*
X1780Y1481D02*
X1787Y1481D01*
X0Y1480D02*
X7Y1480D01*
X1780Y1480D02*
X1787Y1480D01*
X0Y1479D02*
X7Y1479D01*
X1780Y1479D02*
X1787Y1479D01*
X0Y1478D02*
X7Y1478D01*
X1780Y1478D02*
X1787Y1478D01*
X0Y1477D02*
X7Y1477D01*
X1780Y1477D02*
X1787Y1477D01*
X0Y1476D02*
X7Y1476D01*
X1780Y1476D02*
X1787Y1476D01*
X0Y1475D02*
X7Y1475D01*
X1780Y1475D02*
X1787Y1475D01*
X0Y1474D02*
X7Y1474D01*
X1780Y1474D02*
X1787Y1474D01*
X0Y1473D02*
X7Y1473D01*
X1780Y1473D02*
X1787Y1473D01*
X0Y1472D02*
X7Y1472D01*
X1780Y1472D02*
X1787Y1472D01*
X0Y1471D02*
X7Y1471D01*
X1780Y1471D02*
X1787Y1471D01*
X0Y1470D02*
X7Y1470D01*
X1780Y1470D02*
X1787Y1470D01*
X0Y1469D02*
X7Y1469D01*
X1780Y1469D02*
X1787Y1469D01*
X0Y1468D02*
X7Y1468D01*
X1780Y1468D02*
X1787Y1468D01*
X0Y1467D02*
X7Y1467D01*
X1780Y1467D02*
X1787Y1467D01*
X0Y1466D02*
X7Y1466D01*
X1780Y1466D02*
X1787Y1466D01*
X0Y1465D02*
X7Y1465D01*
X1780Y1465D02*
X1787Y1465D01*
X0Y1464D02*
X7Y1464D01*
X1780Y1464D02*
X1787Y1464D01*
X0Y1463D02*
X7Y1463D01*
X1780Y1463D02*
X1787Y1463D01*
X0Y1462D02*
X7Y1462D01*
X1780Y1462D02*
X1787Y1462D01*
X0Y1461D02*
X7Y1461D01*
X1780Y1461D02*
X1787Y1461D01*
X0Y1460D02*
X7Y1460D01*
X1780Y1460D02*
X1787Y1460D01*
X0Y1459D02*
X7Y1459D01*
X1780Y1459D02*
X1787Y1459D01*
X0Y1458D02*
X7Y1458D01*
X1780Y1458D02*
X1787Y1458D01*
X0Y1457D02*
X7Y1457D01*
X1780Y1457D02*
X1787Y1457D01*
X0Y1456D02*
X7Y1456D01*
X1780Y1456D02*
X1787Y1456D01*
X0Y1455D02*
X7Y1455D01*
X1780Y1455D02*
X1787Y1455D01*
X0Y1454D02*
X7Y1454D01*
X1780Y1454D02*
X1787Y1454D01*
X0Y1453D02*
X7Y1453D01*
X1780Y1453D02*
X1787Y1453D01*
X0Y1452D02*
X7Y1452D01*
X1780Y1452D02*
X1787Y1452D01*
X0Y1451D02*
X7Y1451D01*
X1780Y1451D02*
X1787Y1451D01*
X0Y1450D02*
X7Y1450D01*
X1780Y1450D02*
X1787Y1450D01*
X0Y1449D02*
X7Y1449D01*
X1780Y1449D02*
X1787Y1449D01*
X0Y1448D02*
X7Y1448D01*
X1780Y1448D02*
X1787Y1448D01*
X0Y1447D02*
X7Y1447D01*
X1780Y1447D02*
X1787Y1447D01*
X0Y1446D02*
X7Y1446D01*
X1780Y1446D02*
X1787Y1446D01*
X0Y1445D02*
X7Y1445D01*
X1780Y1445D02*
X1787Y1445D01*
X0Y1444D02*
X7Y1444D01*
X1780Y1444D02*
X1787Y1444D01*
X0Y1443D02*
X7Y1443D01*
X1780Y1443D02*
X1787Y1443D01*
X0Y1442D02*
X7Y1442D01*
X1780Y1442D02*
X1787Y1442D01*
X0Y1441D02*
X7Y1441D01*
X1780Y1441D02*
X1787Y1441D01*
X0Y1440D02*
X7Y1440D01*
X1780Y1440D02*
X1787Y1440D01*
X0Y1439D02*
X7Y1439D01*
X1780Y1439D02*
X1787Y1439D01*
X0Y1438D02*
X7Y1438D01*
X1780Y1438D02*
X1787Y1438D01*
X0Y1437D02*
X7Y1437D01*
X1780Y1437D02*
X1787Y1437D01*
X0Y1436D02*
X7Y1436D01*
X1780Y1436D02*
X1787Y1436D01*
X0Y1435D02*
X7Y1435D01*
X1780Y1435D02*
X1787Y1435D01*
X0Y1434D02*
X7Y1434D01*
X1780Y1434D02*
X1787Y1434D01*
X0Y1433D02*
X7Y1433D01*
X1780Y1433D02*
X1787Y1433D01*
X0Y1432D02*
X7Y1432D01*
X1780Y1432D02*
X1787Y1432D01*
X0Y1431D02*
X7Y1431D01*
X1780Y1431D02*
X1787Y1431D01*
X0Y1430D02*
X7Y1430D01*
X1780Y1430D02*
X1787Y1430D01*
X0Y1429D02*
X7Y1429D01*
X1780Y1429D02*
X1787Y1429D01*
X0Y1428D02*
X7Y1428D01*
X1780Y1428D02*
X1787Y1428D01*
X0Y1427D02*
X7Y1427D01*
X1780Y1427D02*
X1787Y1427D01*
X0Y1426D02*
X7Y1426D01*
X1780Y1426D02*
X1787Y1426D01*
X0Y1425D02*
X7Y1425D01*
X1780Y1425D02*
X1787Y1425D01*
X0Y1424D02*
X7Y1424D01*
X1780Y1424D02*
X1787Y1424D01*
X0Y1423D02*
X7Y1423D01*
X1780Y1423D02*
X1787Y1423D01*
X0Y1422D02*
X7Y1422D01*
X1780Y1422D02*
X1787Y1422D01*
X0Y1421D02*
X7Y1421D01*
X1780Y1421D02*
X1787Y1421D01*
X0Y1420D02*
X7Y1420D01*
X1780Y1420D02*
X1787Y1420D01*
X0Y1419D02*
X7Y1419D01*
X1780Y1419D02*
X1787Y1419D01*
X0Y1418D02*
X7Y1418D01*
X1780Y1418D02*
X1787Y1418D01*
X0Y1417D02*
X7Y1417D01*
X1780Y1417D02*
X1787Y1417D01*
X0Y1416D02*
X7Y1416D01*
X1780Y1416D02*
X1787Y1416D01*
X0Y1415D02*
X7Y1415D01*
X1780Y1415D02*
X1787Y1415D01*
X0Y1414D02*
X7Y1414D01*
X1780Y1414D02*
X1787Y1414D01*
X0Y1413D02*
X7Y1413D01*
X1780Y1413D02*
X1787Y1413D01*
X0Y1412D02*
X7Y1412D01*
X1780Y1412D02*
X1787Y1412D01*
X0Y1411D02*
X7Y1411D01*
X1780Y1411D02*
X1787Y1411D01*
X0Y1410D02*
X7Y1410D01*
X1780Y1410D02*
X1787Y1410D01*
X0Y1409D02*
X7Y1409D01*
X1780Y1409D02*
X1787Y1409D01*
X0Y1408D02*
X7Y1408D01*
X1780Y1408D02*
X1787Y1408D01*
X0Y1407D02*
X7Y1407D01*
X1780Y1407D02*
X1787Y1407D01*
X0Y1406D02*
X7Y1406D01*
X1780Y1406D02*
X1787Y1406D01*
X0Y1405D02*
X7Y1405D01*
X1780Y1405D02*
X1787Y1405D01*
X0Y1404D02*
X7Y1404D01*
X1780Y1404D02*
X1787Y1404D01*
X0Y1403D02*
X7Y1403D01*
X1780Y1403D02*
X1787Y1403D01*
X0Y1402D02*
X7Y1402D01*
X1780Y1402D02*
X1787Y1402D01*
X0Y1401D02*
X7Y1401D01*
X1780Y1401D02*
X1787Y1401D01*
X0Y1400D02*
X7Y1400D01*
X1780Y1400D02*
X1787Y1400D01*
X0Y1399D02*
X7Y1399D01*
X1780Y1399D02*
X1787Y1399D01*
X0Y1398D02*
X7Y1398D01*
X1780Y1398D02*
X1787Y1398D01*
X0Y1397D02*
X7Y1397D01*
X1780Y1397D02*
X1787Y1397D01*
X0Y1396D02*
X7Y1396D01*
X1780Y1396D02*
X1787Y1396D01*
X0Y1395D02*
X7Y1395D01*
X1780Y1395D02*
X1787Y1395D01*
X0Y1394D02*
X7Y1394D01*
X1780Y1394D02*
X1787Y1394D01*
X0Y1393D02*
X7Y1393D01*
X1780Y1393D02*
X1787Y1393D01*
X0Y1392D02*
X7Y1392D01*
X1780Y1392D02*
X1787Y1392D01*
X0Y1391D02*
X7Y1391D01*
X1780Y1391D02*
X1787Y1391D01*
X0Y1390D02*
X7Y1390D01*
X1780Y1390D02*
X1787Y1390D01*
X0Y1389D02*
X7Y1389D01*
X1780Y1389D02*
X1787Y1389D01*
X0Y1388D02*
X7Y1388D01*
X1780Y1388D02*
X1787Y1388D01*
X0Y1387D02*
X7Y1387D01*
X1780Y1387D02*
X1787Y1387D01*
X0Y1386D02*
X7Y1386D01*
X1780Y1386D02*
X1787Y1386D01*
X0Y1385D02*
X7Y1385D01*
X1780Y1385D02*
X1787Y1385D01*
X0Y1384D02*
X7Y1384D01*
X1780Y1384D02*
X1787Y1384D01*
X0Y1383D02*
X7Y1383D01*
X1780Y1383D02*
X1787Y1383D01*
X0Y1382D02*
X7Y1382D01*
X1780Y1382D02*
X1787Y1382D01*
X0Y1381D02*
X7Y1381D01*
X1780Y1381D02*
X1787Y1381D01*
X0Y1380D02*
X7Y1380D01*
X1780Y1380D02*
X1787Y1380D01*
X0Y1379D02*
X7Y1379D01*
X1780Y1379D02*
X1787Y1379D01*
X0Y1378D02*
X7Y1378D01*
X1780Y1378D02*
X1787Y1378D01*
X0Y1377D02*
X7Y1377D01*
X1780Y1377D02*
X1787Y1377D01*
X0Y1376D02*
X7Y1376D01*
X1780Y1376D02*
X1787Y1376D01*
X0Y1375D02*
X7Y1375D01*
X1780Y1375D02*
X1787Y1375D01*
X0Y1374D02*
X7Y1374D01*
X1780Y1374D02*
X1787Y1374D01*
X0Y1373D02*
X7Y1373D01*
X1780Y1373D02*
X1787Y1373D01*
X0Y1372D02*
X7Y1372D01*
X1780Y1372D02*
X1787Y1372D01*
X0Y1371D02*
X7Y1371D01*
X1780Y1371D02*
X1787Y1371D01*
X0Y1370D02*
X7Y1370D01*
X1780Y1370D02*
X1787Y1370D01*
X0Y1369D02*
X7Y1369D01*
X1780Y1369D02*
X1787Y1369D01*
X0Y1368D02*
X7Y1368D01*
X1780Y1368D02*
X1787Y1368D01*
X0Y1367D02*
X7Y1367D01*
X1780Y1367D02*
X1787Y1367D01*
X0Y1366D02*
X7Y1366D01*
X1780Y1366D02*
X1787Y1366D01*
X0Y1365D02*
X7Y1365D01*
X1780Y1365D02*
X1787Y1365D01*
X0Y1364D02*
X7Y1364D01*
X1780Y1364D02*
X1787Y1364D01*
X0Y1363D02*
X7Y1363D01*
X1780Y1363D02*
X1787Y1363D01*
X0Y1362D02*
X7Y1362D01*
X1780Y1362D02*
X1787Y1362D01*
X0Y1361D02*
X7Y1361D01*
X1780Y1361D02*
X1787Y1361D01*
X0Y1360D02*
X7Y1360D01*
X1780Y1360D02*
X1787Y1360D01*
X0Y1359D02*
X7Y1359D01*
X1780Y1359D02*
X1787Y1359D01*
X0Y1358D02*
X7Y1358D01*
X1780Y1358D02*
X1787Y1358D01*
X0Y1357D02*
X7Y1357D01*
X1780Y1357D02*
X1787Y1357D01*
X0Y1356D02*
X7Y1356D01*
X1780Y1356D02*
X1787Y1356D01*
X0Y1355D02*
X7Y1355D01*
X1780Y1355D02*
X1787Y1355D01*
X0Y1354D02*
X7Y1354D01*
X1780Y1354D02*
X1787Y1354D01*
X0Y1353D02*
X7Y1353D01*
X1780Y1353D02*
X1787Y1353D01*
X0Y1352D02*
X7Y1352D01*
X1780Y1352D02*
X1787Y1352D01*
X0Y1351D02*
X7Y1351D01*
X1780Y1351D02*
X1787Y1351D01*
X0Y1350D02*
X7Y1350D01*
X1780Y1350D02*
X1787Y1350D01*
X0Y1349D02*
X7Y1349D01*
X1780Y1349D02*
X1787Y1349D01*
X0Y1348D02*
X7Y1348D01*
X1780Y1348D02*
X1787Y1348D01*
X0Y1347D02*
X7Y1347D01*
X1780Y1347D02*
X1787Y1347D01*
X0Y1346D02*
X7Y1346D01*
X1780Y1346D02*
X1787Y1346D01*
X0Y1345D02*
X7Y1345D01*
X1780Y1345D02*
X1787Y1345D01*
X0Y1344D02*
X7Y1344D01*
X1780Y1344D02*
X1787Y1344D01*
X0Y1343D02*
X7Y1343D01*
X1780Y1343D02*
X1787Y1343D01*
X0Y1342D02*
X7Y1342D01*
X1780Y1342D02*
X1787Y1342D01*
X0Y1341D02*
X7Y1341D01*
X1780Y1341D02*
X1787Y1341D01*
X0Y1340D02*
X7Y1340D01*
X1780Y1340D02*
X1787Y1340D01*
X0Y1339D02*
X7Y1339D01*
X1780Y1339D02*
X1787Y1339D01*
X0Y1338D02*
X7Y1338D01*
X1780Y1338D02*
X1787Y1338D01*
X0Y1337D02*
X7Y1337D01*
X1780Y1337D02*
X1787Y1337D01*
X0Y1336D02*
X7Y1336D01*
X1780Y1336D02*
X1787Y1336D01*
X0Y1335D02*
X7Y1335D01*
X1780Y1335D02*
X1787Y1335D01*
X0Y1334D02*
X7Y1334D01*
X1780Y1334D02*
X1787Y1334D01*
X0Y1333D02*
X7Y1333D01*
X1780Y1333D02*
X1787Y1333D01*
X0Y1332D02*
X7Y1332D01*
X1780Y1332D02*
X1787Y1332D01*
X0Y1331D02*
X7Y1331D01*
X1780Y1331D02*
X1787Y1331D01*
X0Y1330D02*
X7Y1330D01*
X1780Y1330D02*
X1787Y1330D01*
X0Y1329D02*
X7Y1329D01*
X1780Y1329D02*
X1787Y1329D01*
X0Y1328D02*
X7Y1328D01*
X1780Y1328D02*
X1787Y1328D01*
X0Y1327D02*
X7Y1327D01*
X1780Y1327D02*
X1787Y1327D01*
X0Y1326D02*
X7Y1326D01*
X1780Y1326D02*
X1787Y1326D01*
X0Y1325D02*
X7Y1325D01*
X1780Y1325D02*
X1787Y1325D01*
X0Y1324D02*
X7Y1324D01*
X1780Y1324D02*
X1787Y1324D01*
X0Y1323D02*
X7Y1323D01*
X1780Y1323D02*
X1787Y1323D01*
X0Y1322D02*
X7Y1322D01*
X1780Y1322D02*
X1787Y1322D01*
X0Y1321D02*
X7Y1321D01*
X1780Y1321D02*
X1787Y1321D01*
X0Y1320D02*
X7Y1320D01*
X1780Y1320D02*
X1787Y1320D01*
X0Y1319D02*
X7Y1319D01*
X1780Y1319D02*
X1787Y1319D01*
X0Y1318D02*
X7Y1318D01*
X1780Y1318D02*
X1787Y1318D01*
X0Y1317D02*
X7Y1317D01*
X1780Y1317D02*
X1787Y1317D01*
X0Y1316D02*
X7Y1316D01*
X1780Y1316D02*
X1787Y1316D01*
X0Y1315D02*
X7Y1315D01*
X1780Y1315D02*
X1787Y1315D01*
X0Y1314D02*
X7Y1314D01*
X1780Y1314D02*
X1787Y1314D01*
X0Y1313D02*
X7Y1313D01*
X1780Y1313D02*
X1787Y1313D01*
X0Y1312D02*
X7Y1312D01*
X1780Y1312D02*
X1787Y1312D01*
X0Y1311D02*
X7Y1311D01*
X1780Y1311D02*
X1787Y1311D01*
X0Y1310D02*
X7Y1310D01*
X1780Y1310D02*
X1787Y1310D01*
X0Y1309D02*
X7Y1309D01*
X1780Y1309D02*
X1787Y1309D01*
X0Y1308D02*
X7Y1308D01*
X1780Y1308D02*
X1787Y1308D01*
X0Y1307D02*
X7Y1307D01*
X1780Y1307D02*
X1787Y1307D01*
X0Y1306D02*
X7Y1306D01*
X1780Y1306D02*
X1787Y1306D01*
X0Y1305D02*
X7Y1305D01*
X1780Y1305D02*
X1787Y1305D01*
X0Y1304D02*
X7Y1304D01*
X1780Y1304D02*
X1787Y1304D01*
X0Y1303D02*
X7Y1303D01*
X1780Y1303D02*
X1787Y1303D01*
X0Y1302D02*
X7Y1302D01*
X1780Y1302D02*
X1787Y1302D01*
X0Y1301D02*
X7Y1301D01*
X1780Y1301D02*
X1787Y1301D01*
X0Y1300D02*
X7Y1300D01*
X1780Y1300D02*
X1787Y1300D01*
X0Y1299D02*
X7Y1299D01*
X1780Y1299D02*
X1787Y1299D01*
X0Y1298D02*
X7Y1298D01*
X1780Y1298D02*
X1787Y1298D01*
X0Y1297D02*
X7Y1297D01*
X1780Y1297D02*
X1787Y1297D01*
X0Y1296D02*
X7Y1296D01*
X1780Y1296D02*
X1787Y1296D01*
X0Y1295D02*
X7Y1295D01*
X1780Y1295D02*
X1787Y1295D01*
X0Y1294D02*
X7Y1294D01*
X1780Y1294D02*
X1787Y1294D01*
X0Y1293D02*
X7Y1293D01*
X1780Y1293D02*
X1787Y1293D01*
X0Y1292D02*
X7Y1292D01*
X1780Y1292D02*
X1787Y1292D01*
X0Y1291D02*
X7Y1291D01*
X1780Y1291D02*
X1787Y1291D01*
X0Y1290D02*
X7Y1290D01*
X1780Y1290D02*
X1787Y1290D01*
X0Y1289D02*
X7Y1289D01*
X1780Y1289D02*
X1787Y1289D01*
X0Y1288D02*
X7Y1288D01*
X1780Y1288D02*
X1787Y1288D01*
X0Y1287D02*
X7Y1287D01*
X1780Y1287D02*
X1787Y1287D01*
X0Y1286D02*
X7Y1286D01*
X1780Y1286D02*
X1787Y1286D01*
X0Y1285D02*
X7Y1285D01*
X1780Y1285D02*
X1787Y1285D01*
X0Y1284D02*
X7Y1284D01*
X1780Y1284D02*
X1787Y1284D01*
X0Y1283D02*
X7Y1283D01*
X1780Y1283D02*
X1787Y1283D01*
X0Y1282D02*
X7Y1282D01*
X1780Y1282D02*
X1787Y1282D01*
X0Y1281D02*
X7Y1281D01*
X1780Y1281D02*
X1787Y1281D01*
X0Y1280D02*
X7Y1280D01*
X1780Y1280D02*
X1787Y1280D01*
X0Y1279D02*
X7Y1279D01*
X1780Y1279D02*
X1787Y1279D01*
X0Y1278D02*
X7Y1278D01*
X1780Y1278D02*
X1787Y1278D01*
X0Y1277D02*
X7Y1277D01*
X1780Y1277D02*
X1787Y1277D01*
X0Y1276D02*
X7Y1276D01*
X1780Y1276D02*
X1787Y1276D01*
X0Y1275D02*
X7Y1275D01*
X1780Y1275D02*
X1787Y1275D01*
X0Y1274D02*
X7Y1274D01*
X1780Y1274D02*
X1787Y1274D01*
X0Y1273D02*
X7Y1273D01*
X1780Y1273D02*
X1787Y1273D01*
X0Y1272D02*
X7Y1272D01*
X1780Y1272D02*
X1787Y1272D01*
X0Y1271D02*
X7Y1271D01*
X1780Y1271D02*
X1787Y1271D01*
X0Y1270D02*
X7Y1270D01*
X1780Y1270D02*
X1787Y1270D01*
X0Y1269D02*
X7Y1269D01*
X1780Y1269D02*
X1787Y1269D01*
X0Y1268D02*
X7Y1268D01*
X1780Y1268D02*
X1787Y1268D01*
X0Y1267D02*
X7Y1267D01*
X1780Y1267D02*
X1787Y1267D01*
X0Y1266D02*
X7Y1266D01*
X1780Y1266D02*
X1787Y1266D01*
X0Y1265D02*
X7Y1265D01*
X1780Y1265D02*
X1787Y1265D01*
X0Y1264D02*
X7Y1264D01*
X1780Y1264D02*
X1787Y1264D01*
X0Y1263D02*
X7Y1263D01*
X1780Y1263D02*
X1787Y1263D01*
X0Y1262D02*
X7Y1262D01*
X1780Y1262D02*
X1787Y1262D01*
X0Y1261D02*
X7Y1261D01*
X1780Y1261D02*
X1787Y1261D01*
X0Y1260D02*
X7Y1260D01*
X1780Y1260D02*
X1787Y1260D01*
X0Y1259D02*
X7Y1259D01*
X1780Y1259D02*
X1787Y1259D01*
X0Y1258D02*
X7Y1258D01*
X1780Y1258D02*
X1787Y1258D01*
X0Y1257D02*
X7Y1257D01*
X1780Y1257D02*
X1787Y1257D01*
X0Y1256D02*
X7Y1256D01*
X1780Y1256D02*
X1787Y1256D01*
X0Y1255D02*
X7Y1255D01*
X1780Y1255D02*
X1787Y1255D01*
X0Y1254D02*
X7Y1254D01*
X1780Y1254D02*
X1787Y1254D01*
X0Y1253D02*
X7Y1253D01*
X1780Y1253D02*
X1787Y1253D01*
X0Y1252D02*
X7Y1252D01*
X1780Y1252D02*
X1787Y1252D01*
X0Y1251D02*
X7Y1251D01*
X1780Y1251D02*
X1787Y1251D01*
X0Y1250D02*
X7Y1250D01*
X1780Y1250D02*
X1787Y1250D01*
X0Y1249D02*
X7Y1249D01*
X1780Y1249D02*
X1787Y1249D01*
X0Y1248D02*
X7Y1248D01*
X1780Y1248D02*
X1787Y1248D01*
X0Y1247D02*
X7Y1247D01*
X1780Y1247D02*
X1787Y1247D01*
X0Y1246D02*
X7Y1246D01*
X1780Y1246D02*
X1787Y1246D01*
X0Y1245D02*
X7Y1245D01*
X1780Y1245D02*
X1787Y1245D01*
X0Y1244D02*
X7Y1244D01*
X1780Y1244D02*
X1787Y1244D01*
X0Y1243D02*
X7Y1243D01*
X1780Y1243D02*
X1787Y1243D01*
X0Y1242D02*
X7Y1242D01*
X1780Y1242D02*
X1787Y1242D01*
X0Y1241D02*
X7Y1241D01*
X1780Y1241D02*
X1787Y1241D01*
X0Y1240D02*
X7Y1240D01*
X1780Y1240D02*
X1787Y1240D01*
X0Y1239D02*
X7Y1239D01*
X1780Y1239D02*
X1787Y1239D01*
X0Y1238D02*
X7Y1238D01*
X1780Y1238D02*
X1787Y1238D01*
X0Y1237D02*
X7Y1237D01*
X1780Y1237D02*
X1787Y1237D01*
X0Y1236D02*
X7Y1236D01*
X1780Y1236D02*
X1787Y1236D01*
X0Y1235D02*
X7Y1235D01*
X1780Y1235D02*
X1787Y1235D01*
X0Y1234D02*
X7Y1234D01*
X1780Y1234D02*
X1787Y1234D01*
X0Y1233D02*
X7Y1233D01*
X1780Y1233D02*
X1787Y1233D01*
X0Y1232D02*
X7Y1232D01*
X1780Y1232D02*
X1787Y1232D01*
X0Y1231D02*
X7Y1231D01*
X1780Y1231D02*
X1787Y1231D01*
X0Y1230D02*
X7Y1230D01*
X1780Y1230D02*
X1787Y1230D01*
X0Y1229D02*
X7Y1229D01*
X1780Y1229D02*
X1787Y1229D01*
X0Y1228D02*
X7Y1228D01*
X1780Y1228D02*
X1787Y1228D01*
X0Y1227D02*
X7Y1227D01*
X1780Y1227D02*
X1787Y1227D01*
X0Y1226D02*
X7Y1226D01*
X1780Y1226D02*
X1787Y1226D01*
X0Y1225D02*
X7Y1225D01*
X1780Y1225D02*
X1787Y1225D01*
X0Y1224D02*
X7Y1224D01*
X1780Y1224D02*
X1787Y1224D01*
X0Y1223D02*
X7Y1223D01*
X1780Y1223D02*
X1787Y1223D01*
X0Y1222D02*
X7Y1222D01*
X1780Y1222D02*
X1787Y1222D01*
X0Y1221D02*
X7Y1221D01*
X1780Y1221D02*
X1787Y1221D01*
X0Y1220D02*
X7Y1220D01*
X1780Y1220D02*
X1787Y1220D01*
X0Y1219D02*
X7Y1219D01*
X1780Y1219D02*
X1787Y1219D01*
X0Y1218D02*
X7Y1218D01*
X1780Y1218D02*
X1787Y1218D01*
X0Y1217D02*
X7Y1217D01*
X1780Y1217D02*
X1787Y1217D01*
X0Y1216D02*
X7Y1216D01*
X1780Y1216D02*
X1787Y1216D01*
X0Y1215D02*
X7Y1215D01*
X1780Y1215D02*
X1787Y1215D01*
X0Y1214D02*
X7Y1214D01*
X1780Y1214D02*
X1787Y1214D01*
X0Y1213D02*
X7Y1213D01*
X1780Y1213D02*
X1787Y1213D01*
X0Y1212D02*
X7Y1212D01*
X1780Y1212D02*
X1787Y1212D01*
X0Y1211D02*
X7Y1211D01*
X1780Y1211D02*
X1787Y1211D01*
X0Y1210D02*
X7Y1210D01*
X1780Y1210D02*
X1787Y1210D01*
X0Y1209D02*
X7Y1209D01*
X1780Y1209D02*
X1787Y1209D01*
X0Y1208D02*
X7Y1208D01*
X1780Y1208D02*
X1787Y1208D01*
X0Y1207D02*
X7Y1207D01*
X1780Y1207D02*
X1787Y1207D01*
X0Y1206D02*
X7Y1206D01*
X1780Y1206D02*
X1787Y1206D01*
X0Y1205D02*
X7Y1205D01*
X1780Y1205D02*
X1787Y1205D01*
X0Y1204D02*
X7Y1204D01*
X1780Y1204D02*
X1787Y1204D01*
X0Y1203D02*
X7Y1203D01*
X1780Y1203D02*
X1787Y1203D01*
X0Y1202D02*
X7Y1202D01*
X1780Y1202D02*
X1787Y1202D01*
X0Y1201D02*
X7Y1201D01*
X1780Y1201D02*
X1787Y1201D01*
X0Y1200D02*
X7Y1200D01*
X1780Y1200D02*
X1787Y1200D01*
X0Y1199D02*
X7Y1199D01*
X1780Y1199D02*
X1787Y1199D01*
X0Y1198D02*
X7Y1198D01*
X1780Y1198D02*
X1787Y1198D01*
X0Y1197D02*
X7Y1197D01*
X1780Y1197D02*
X1787Y1197D01*
X0Y1196D02*
X7Y1196D01*
X1780Y1196D02*
X1787Y1196D01*
X0Y1195D02*
X7Y1195D01*
X1780Y1195D02*
X1787Y1195D01*
X0Y1194D02*
X7Y1194D01*
X1780Y1194D02*
X1787Y1194D01*
X0Y1193D02*
X7Y1193D01*
X1780Y1193D02*
X1787Y1193D01*
X0Y1192D02*
X7Y1192D01*
X1780Y1192D02*
X1787Y1192D01*
X0Y1191D02*
X7Y1191D01*
X1780Y1191D02*
X1787Y1191D01*
X0Y1190D02*
X7Y1190D01*
X1780Y1190D02*
X1787Y1190D01*
X0Y1189D02*
X7Y1189D01*
X1780Y1189D02*
X1787Y1189D01*
X0Y1188D02*
X7Y1188D01*
X1780Y1188D02*
X1787Y1188D01*
X0Y1187D02*
X7Y1187D01*
X1780Y1187D02*
X1787Y1187D01*
X0Y1186D02*
X7Y1186D01*
X1780Y1186D02*
X1787Y1186D01*
X0Y1185D02*
X7Y1185D01*
X1780Y1185D02*
X1787Y1185D01*
X0Y1184D02*
X7Y1184D01*
X1780Y1184D02*
X1787Y1184D01*
X0Y1183D02*
X7Y1183D01*
X1780Y1183D02*
X1787Y1183D01*
X0Y1182D02*
X7Y1182D01*
X1780Y1182D02*
X1787Y1182D01*
X0Y1181D02*
X7Y1181D01*
X1780Y1181D02*
X1787Y1181D01*
X0Y1180D02*
X7Y1180D01*
X1780Y1180D02*
X1787Y1180D01*
X0Y1179D02*
X7Y1179D01*
X1780Y1179D02*
X1787Y1179D01*
X0Y1178D02*
X7Y1178D01*
X1780Y1178D02*
X1787Y1178D01*
X0Y1177D02*
X7Y1177D01*
X1780Y1177D02*
X1787Y1177D01*
X0Y1176D02*
X7Y1176D01*
X1780Y1176D02*
X1787Y1176D01*
X0Y1175D02*
X7Y1175D01*
X1780Y1175D02*
X1787Y1175D01*
X0Y1174D02*
X7Y1174D01*
X1780Y1174D02*
X1787Y1174D01*
X0Y1173D02*
X7Y1173D01*
X1780Y1173D02*
X1787Y1173D01*
X0Y1172D02*
X7Y1172D01*
X1780Y1172D02*
X1787Y1172D01*
X0Y1171D02*
X7Y1171D01*
X1780Y1171D02*
X1787Y1171D01*
X0Y1170D02*
X7Y1170D01*
X1780Y1170D02*
X1787Y1170D01*
X0Y1169D02*
X7Y1169D01*
X1780Y1169D02*
X1787Y1169D01*
X0Y1168D02*
X7Y1168D01*
X1780Y1168D02*
X1787Y1168D01*
X0Y1167D02*
X7Y1167D01*
X1780Y1167D02*
X1787Y1167D01*
X0Y1166D02*
X7Y1166D01*
X1780Y1166D02*
X1787Y1166D01*
X0Y1165D02*
X7Y1165D01*
X1780Y1165D02*
X1787Y1165D01*
X0Y1164D02*
X7Y1164D01*
X1780Y1164D02*
X1787Y1164D01*
X0Y1163D02*
X7Y1163D01*
X1780Y1163D02*
X1787Y1163D01*
X0Y1162D02*
X7Y1162D01*
X1780Y1162D02*
X1787Y1162D01*
X0Y1161D02*
X7Y1161D01*
X1780Y1161D02*
X1787Y1161D01*
X0Y1160D02*
X7Y1160D01*
X1780Y1160D02*
X1787Y1160D01*
X0Y1159D02*
X7Y1159D01*
X1780Y1159D02*
X1787Y1159D01*
X0Y1158D02*
X7Y1158D01*
X1780Y1158D02*
X1787Y1158D01*
X0Y1157D02*
X7Y1157D01*
X1780Y1157D02*
X1787Y1157D01*
X0Y1156D02*
X7Y1156D01*
X1780Y1156D02*
X1787Y1156D01*
X0Y1155D02*
X7Y1155D01*
X1780Y1155D02*
X1787Y1155D01*
X0Y1154D02*
X7Y1154D01*
X1780Y1154D02*
X1787Y1154D01*
X0Y1153D02*
X7Y1153D01*
X1780Y1153D02*
X1787Y1153D01*
X0Y1152D02*
X7Y1152D01*
X1780Y1152D02*
X1787Y1152D01*
X0Y1151D02*
X7Y1151D01*
X1780Y1151D02*
X1787Y1151D01*
X0Y1150D02*
X7Y1150D01*
X1780Y1150D02*
X1787Y1150D01*
X0Y1149D02*
X7Y1149D01*
X1780Y1149D02*
X1787Y1149D01*
X0Y1148D02*
X7Y1148D01*
X1780Y1148D02*
X1787Y1148D01*
X0Y1147D02*
X7Y1147D01*
X1780Y1147D02*
X1787Y1147D01*
X0Y1146D02*
X7Y1146D01*
X1780Y1146D02*
X1787Y1146D01*
X0Y1145D02*
X7Y1145D01*
X1780Y1145D02*
X1787Y1145D01*
X0Y1144D02*
X7Y1144D01*
X1780Y1144D02*
X1787Y1144D01*
X0Y1143D02*
X7Y1143D01*
X1780Y1143D02*
X1787Y1143D01*
X0Y1142D02*
X7Y1142D01*
X1780Y1142D02*
X1787Y1142D01*
X0Y1141D02*
X7Y1141D01*
X1780Y1141D02*
X1787Y1141D01*
X0Y1140D02*
X7Y1140D01*
X1780Y1140D02*
X1787Y1140D01*
X0Y1139D02*
X7Y1139D01*
X1780Y1139D02*
X1787Y1139D01*
X0Y1138D02*
X7Y1138D01*
X1780Y1138D02*
X1787Y1138D01*
X0Y1137D02*
X7Y1137D01*
X1780Y1137D02*
X1787Y1137D01*
X0Y1136D02*
X7Y1136D01*
X1780Y1136D02*
X1787Y1136D01*
X0Y1135D02*
X7Y1135D01*
X1780Y1135D02*
X1787Y1135D01*
X0Y1134D02*
X7Y1134D01*
X1780Y1134D02*
X1787Y1134D01*
X0Y1133D02*
X7Y1133D01*
X1780Y1133D02*
X1787Y1133D01*
X0Y1132D02*
X7Y1132D01*
X1780Y1132D02*
X1787Y1132D01*
X0Y1131D02*
X7Y1131D01*
X1780Y1131D02*
X1787Y1131D01*
X0Y1130D02*
X7Y1130D01*
X1780Y1130D02*
X1787Y1130D01*
X0Y1129D02*
X7Y1129D01*
X1780Y1129D02*
X1787Y1129D01*
X0Y1128D02*
X7Y1128D01*
X1780Y1128D02*
X1787Y1128D01*
X0Y1127D02*
X7Y1127D01*
X1780Y1127D02*
X1787Y1127D01*
X0Y1126D02*
X7Y1126D01*
X1780Y1126D02*
X1787Y1126D01*
X0Y1125D02*
X7Y1125D01*
X1780Y1125D02*
X1787Y1125D01*
X0Y1124D02*
X7Y1124D01*
X1780Y1124D02*
X1787Y1124D01*
X0Y1123D02*
X7Y1123D01*
X1780Y1123D02*
X1787Y1123D01*
X0Y1122D02*
X7Y1122D01*
X1780Y1122D02*
X1787Y1122D01*
X0Y1121D02*
X7Y1121D01*
X1780Y1121D02*
X1787Y1121D01*
X0Y1120D02*
X7Y1120D01*
X1780Y1120D02*
X1787Y1120D01*
X0Y1119D02*
X7Y1119D01*
X1780Y1119D02*
X1787Y1119D01*
X0Y1118D02*
X7Y1118D01*
X1780Y1118D02*
X1787Y1118D01*
X0Y1117D02*
X7Y1117D01*
X1780Y1117D02*
X1787Y1117D01*
X0Y1116D02*
X7Y1116D01*
X1780Y1116D02*
X1787Y1116D01*
X0Y1115D02*
X7Y1115D01*
X1780Y1115D02*
X1787Y1115D01*
X0Y1114D02*
X7Y1114D01*
X1780Y1114D02*
X1787Y1114D01*
X0Y1113D02*
X7Y1113D01*
X1780Y1113D02*
X1787Y1113D01*
X0Y1112D02*
X7Y1112D01*
X1780Y1112D02*
X1787Y1112D01*
X0Y1111D02*
X7Y1111D01*
X1780Y1111D02*
X1787Y1111D01*
X0Y1110D02*
X7Y1110D01*
X1780Y1110D02*
X1787Y1110D01*
X0Y1109D02*
X7Y1109D01*
X1780Y1109D02*
X1787Y1109D01*
X0Y1108D02*
X7Y1108D01*
X1780Y1108D02*
X1787Y1108D01*
X0Y1107D02*
X7Y1107D01*
X1780Y1107D02*
X1787Y1107D01*
X0Y1106D02*
X7Y1106D01*
X1780Y1106D02*
X1787Y1106D01*
X0Y1105D02*
X7Y1105D01*
X1780Y1105D02*
X1787Y1105D01*
X0Y1104D02*
X7Y1104D01*
X1780Y1104D02*
X1787Y1104D01*
X0Y1103D02*
X7Y1103D01*
X1780Y1103D02*
X1787Y1103D01*
X0Y1102D02*
X7Y1102D01*
X1780Y1102D02*
X1787Y1102D01*
X0Y1101D02*
X7Y1101D01*
X1780Y1101D02*
X1787Y1101D01*
X0Y1100D02*
X7Y1100D01*
X1780Y1100D02*
X1787Y1100D01*
X0Y1099D02*
X7Y1099D01*
X1780Y1099D02*
X1787Y1099D01*
X0Y1098D02*
X7Y1098D01*
X1780Y1098D02*
X1787Y1098D01*
X0Y1097D02*
X7Y1097D01*
X1780Y1097D02*
X1787Y1097D01*
X0Y1096D02*
X7Y1096D01*
X1780Y1096D02*
X1787Y1096D01*
X0Y1095D02*
X7Y1095D01*
X1780Y1095D02*
X1787Y1095D01*
X0Y1094D02*
X7Y1094D01*
X1780Y1094D02*
X1787Y1094D01*
X0Y1093D02*
X7Y1093D01*
X1780Y1093D02*
X1787Y1093D01*
X0Y1092D02*
X7Y1092D01*
X1780Y1092D02*
X1787Y1092D01*
X0Y1091D02*
X7Y1091D01*
X1780Y1091D02*
X1787Y1091D01*
X0Y1090D02*
X7Y1090D01*
X1780Y1090D02*
X1787Y1090D01*
X0Y1089D02*
X7Y1089D01*
X1780Y1089D02*
X1787Y1089D01*
X0Y1088D02*
X7Y1088D01*
X1780Y1088D02*
X1787Y1088D01*
X0Y1087D02*
X7Y1087D01*
X1780Y1087D02*
X1787Y1087D01*
X0Y1086D02*
X7Y1086D01*
X1780Y1086D02*
X1787Y1086D01*
X0Y1085D02*
X7Y1085D01*
X1780Y1085D02*
X1787Y1085D01*
X0Y1084D02*
X7Y1084D01*
X1780Y1084D02*
X1787Y1084D01*
X0Y1083D02*
X7Y1083D01*
X1780Y1083D02*
X1787Y1083D01*
X0Y1082D02*
X7Y1082D01*
X1780Y1082D02*
X1787Y1082D01*
X0Y1081D02*
X7Y1081D01*
X1780Y1081D02*
X1787Y1081D01*
X0Y1080D02*
X7Y1080D01*
X1780Y1080D02*
X1787Y1080D01*
X0Y1079D02*
X7Y1079D01*
X1780Y1079D02*
X1787Y1079D01*
X0Y1078D02*
X7Y1078D01*
X1780Y1078D02*
X1787Y1078D01*
X0Y1077D02*
X7Y1077D01*
X1780Y1077D02*
X1787Y1077D01*
X0Y1076D02*
X7Y1076D01*
X1780Y1076D02*
X1787Y1076D01*
X0Y1075D02*
X7Y1075D01*
X1780Y1075D02*
X1787Y1075D01*
X0Y1074D02*
X7Y1074D01*
X1780Y1074D02*
X1787Y1074D01*
X0Y1073D02*
X7Y1073D01*
X1780Y1073D02*
X1787Y1073D01*
X0Y1072D02*
X7Y1072D01*
X1780Y1072D02*
X1787Y1072D01*
X0Y1071D02*
X7Y1071D01*
X1780Y1071D02*
X1787Y1071D01*
X0Y1070D02*
X7Y1070D01*
X1780Y1070D02*
X1787Y1070D01*
X0Y1069D02*
X7Y1069D01*
X1780Y1069D02*
X1787Y1069D01*
X0Y1068D02*
X7Y1068D01*
X1780Y1068D02*
X1787Y1068D01*
X0Y1067D02*
X7Y1067D01*
X1780Y1067D02*
X1787Y1067D01*
X0Y1066D02*
X7Y1066D01*
X1780Y1066D02*
X1787Y1066D01*
X0Y1065D02*
X7Y1065D01*
X1780Y1065D02*
X1787Y1065D01*
X0Y1064D02*
X7Y1064D01*
X1780Y1064D02*
X1787Y1064D01*
X0Y1063D02*
X7Y1063D01*
X1780Y1063D02*
X1787Y1063D01*
X0Y1062D02*
X7Y1062D01*
X1780Y1062D02*
X1787Y1062D01*
X0Y1061D02*
X7Y1061D01*
X1780Y1061D02*
X1787Y1061D01*
X0Y1060D02*
X7Y1060D01*
X1780Y1060D02*
X1787Y1060D01*
X0Y1059D02*
X7Y1059D01*
X1780Y1059D02*
X1787Y1059D01*
X0Y1058D02*
X7Y1058D01*
X1780Y1058D02*
X1787Y1058D01*
X0Y1057D02*
X7Y1057D01*
X1780Y1057D02*
X1787Y1057D01*
X0Y1056D02*
X7Y1056D01*
X1780Y1056D02*
X1787Y1056D01*
X0Y1055D02*
X7Y1055D01*
X1780Y1055D02*
X1787Y1055D01*
X0Y1054D02*
X7Y1054D01*
X1780Y1054D02*
X1787Y1054D01*
X0Y1053D02*
X7Y1053D01*
X1780Y1053D02*
X1787Y1053D01*
X0Y1052D02*
X7Y1052D01*
X1780Y1052D02*
X1787Y1052D01*
X0Y1051D02*
X7Y1051D01*
X1780Y1051D02*
X1787Y1051D01*
X0Y1050D02*
X7Y1050D01*
X1780Y1050D02*
X1787Y1050D01*
X0Y1049D02*
X7Y1049D01*
X1780Y1049D02*
X1787Y1049D01*
X0Y1048D02*
X7Y1048D01*
X1780Y1048D02*
X1787Y1048D01*
X0Y1047D02*
X7Y1047D01*
X1780Y1047D02*
X1787Y1047D01*
X0Y1046D02*
X7Y1046D01*
X1780Y1046D02*
X1787Y1046D01*
X0Y1045D02*
X7Y1045D01*
X1780Y1045D02*
X1787Y1045D01*
X0Y1044D02*
X7Y1044D01*
X1780Y1044D02*
X1787Y1044D01*
X0Y1043D02*
X7Y1043D01*
X1780Y1043D02*
X1787Y1043D01*
X0Y1042D02*
X7Y1042D01*
X1780Y1042D02*
X1787Y1042D01*
X0Y1041D02*
X7Y1041D01*
X1780Y1041D02*
X1787Y1041D01*
X0Y1040D02*
X7Y1040D01*
X1780Y1040D02*
X1787Y1040D01*
X0Y1039D02*
X7Y1039D01*
X1780Y1039D02*
X1787Y1039D01*
X0Y1038D02*
X7Y1038D01*
X1780Y1038D02*
X1787Y1038D01*
X0Y1037D02*
X7Y1037D01*
X1780Y1037D02*
X1787Y1037D01*
X0Y1036D02*
X7Y1036D01*
X1780Y1036D02*
X1787Y1036D01*
X0Y1035D02*
X7Y1035D01*
X1780Y1035D02*
X1787Y1035D01*
X0Y1034D02*
X7Y1034D01*
X1780Y1034D02*
X1787Y1034D01*
X0Y1033D02*
X7Y1033D01*
X1780Y1033D02*
X1787Y1033D01*
X0Y1032D02*
X7Y1032D01*
X1780Y1032D02*
X1787Y1032D01*
X0Y1031D02*
X7Y1031D01*
X1780Y1031D02*
X1787Y1031D01*
X0Y1030D02*
X7Y1030D01*
X1780Y1030D02*
X1787Y1030D01*
X0Y1029D02*
X7Y1029D01*
X1780Y1029D02*
X1787Y1029D01*
X0Y1028D02*
X7Y1028D01*
X1780Y1028D02*
X1787Y1028D01*
X0Y1027D02*
X7Y1027D01*
X1780Y1027D02*
X1787Y1027D01*
X0Y1026D02*
X7Y1026D01*
X1780Y1026D02*
X1787Y1026D01*
X0Y1025D02*
X7Y1025D01*
X1780Y1025D02*
X1787Y1025D01*
X0Y1024D02*
X7Y1024D01*
X1780Y1024D02*
X1787Y1024D01*
X0Y1023D02*
X7Y1023D01*
X1780Y1023D02*
X1787Y1023D01*
X0Y1022D02*
X7Y1022D01*
X1780Y1022D02*
X1787Y1022D01*
X0Y1021D02*
X7Y1021D01*
X1780Y1021D02*
X1787Y1021D01*
X0Y1020D02*
X7Y1020D01*
X1780Y1020D02*
X1787Y1020D01*
X0Y1019D02*
X7Y1019D01*
X1780Y1019D02*
X1787Y1019D01*
X0Y1018D02*
X7Y1018D01*
X1780Y1018D02*
X1787Y1018D01*
X0Y1017D02*
X7Y1017D01*
X1780Y1017D02*
X1787Y1017D01*
X0Y1016D02*
X7Y1016D01*
X1780Y1016D02*
X1787Y1016D01*
X0Y1015D02*
X7Y1015D01*
X1780Y1015D02*
X1787Y1015D01*
X0Y1014D02*
X7Y1014D01*
X1780Y1014D02*
X1787Y1014D01*
X0Y1013D02*
X7Y1013D01*
X1780Y1013D02*
X1787Y1013D01*
X0Y1012D02*
X7Y1012D01*
X1780Y1012D02*
X1787Y1012D01*
X0Y1011D02*
X7Y1011D01*
X1780Y1011D02*
X1787Y1011D01*
X0Y1010D02*
X7Y1010D01*
X1780Y1010D02*
X1787Y1010D01*
X0Y1009D02*
X7Y1009D01*
X1780Y1009D02*
X1787Y1009D01*
X0Y1008D02*
X7Y1008D01*
X1780Y1008D02*
X1787Y1008D01*
X0Y1007D02*
X7Y1007D01*
X1780Y1007D02*
X1787Y1007D01*
X0Y1006D02*
X7Y1006D01*
X1780Y1006D02*
X1787Y1006D01*
X0Y1005D02*
X7Y1005D01*
X1780Y1005D02*
X1787Y1005D01*
X0Y1004D02*
X7Y1004D01*
X1780Y1004D02*
X1787Y1004D01*
X0Y1003D02*
X7Y1003D01*
X1780Y1003D02*
X1787Y1003D01*
X0Y1002D02*
X7Y1002D01*
X1780Y1002D02*
X1787Y1002D01*
X0Y1001D02*
X7Y1001D01*
X1780Y1001D02*
X1787Y1001D01*
X0Y1000D02*
X7Y1000D01*
X1780Y1000D02*
X1787Y1000D01*
X0Y999D02*
X7Y999D01*
X1780Y999D02*
X1787Y999D01*
X0Y998D02*
X7Y998D01*
X1780Y998D02*
X1787Y998D01*
X0Y997D02*
X7Y997D01*
X1780Y997D02*
X1787Y997D01*
X0Y996D02*
X7Y996D01*
X1780Y996D02*
X1787Y996D01*
X0Y995D02*
X7Y995D01*
X1780Y995D02*
X1787Y995D01*
X0Y994D02*
X7Y994D01*
X1780Y994D02*
X1787Y994D01*
X0Y993D02*
X7Y993D01*
X1780Y993D02*
X1787Y993D01*
X0Y992D02*
X7Y992D01*
X1780Y992D02*
X1787Y992D01*
X0Y991D02*
X7Y991D01*
X1780Y991D02*
X1787Y991D01*
X0Y990D02*
X7Y990D01*
X1780Y990D02*
X1787Y990D01*
X0Y989D02*
X7Y989D01*
X1780Y989D02*
X1787Y989D01*
X0Y988D02*
X7Y988D01*
X1780Y988D02*
X1787Y988D01*
X0Y987D02*
X7Y987D01*
X1780Y987D02*
X1787Y987D01*
X0Y986D02*
X7Y986D01*
X1780Y986D02*
X1787Y986D01*
X0Y985D02*
X7Y985D01*
X1780Y985D02*
X1787Y985D01*
X0Y984D02*
X7Y984D01*
X1780Y984D02*
X1787Y984D01*
X0Y983D02*
X7Y983D01*
X1780Y983D02*
X1787Y983D01*
X0Y982D02*
X7Y982D01*
X1780Y982D02*
X1787Y982D01*
X0Y981D02*
X7Y981D01*
X1780Y981D02*
X1787Y981D01*
X0Y980D02*
X7Y980D01*
X1780Y980D02*
X1787Y980D01*
X0Y979D02*
X7Y979D01*
X1780Y979D02*
X1787Y979D01*
X0Y978D02*
X7Y978D01*
X1780Y978D02*
X1787Y978D01*
X0Y977D02*
X7Y977D01*
X1780Y977D02*
X1787Y977D01*
X0Y976D02*
X7Y976D01*
X1780Y976D02*
X1787Y976D01*
X0Y975D02*
X7Y975D01*
X1780Y975D02*
X1787Y975D01*
X0Y974D02*
X7Y974D01*
X1780Y974D02*
X1787Y974D01*
X0Y973D02*
X7Y973D01*
X1780Y973D02*
X1787Y973D01*
X0Y972D02*
X7Y972D01*
X1780Y972D02*
X1787Y972D01*
X0Y971D02*
X7Y971D01*
X1780Y971D02*
X1787Y971D01*
X0Y970D02*
X7Y970D01*
X1780Y970D02*
X1787Y970D01*
X0Y969D02*
X7Y969D01*
X1780Y969D02*
X1787Y969D01*
X0Y968D02*
X7Y968D01*
X1780Y968D02*
X1787Y968D01*
X0Y967D02*
X7Y967D01*
X1780Y967D02*
X1787Y967D01*
X0Y966D02*
X7Y966D01*
X1780Y966D02*
X1787Y966D01*
X0Y965D02*
X7Y965D01*
X1780Y965D02*
X1787Y965D01*
X0Y964D02*
X7Y964D01*
X1780Y964D02*
X1787Y964D01*
X0Y963D02*
X7Y963D01*
X1780Y963D02*
X1787Y963D01*
X0Y962D02*
X7Y962D01*
X1780Y962D02*
X1787Y962D01*
X0Y961D02*
X7Y961D01*
X1780Y961D02*
X1787Y961D01*
X0Y960D02*
X7Y960D01*
X1780Y960D02*
X1787Y960D01*
X0Y959D02*
X7Y959D01*
X1780Y959D02*
X1787Y959D01*
X0Y958D02*
X7Y958D01*
X1780Y958D02*
X1787Y958D01*
X0Y957D02*
X7Y957D01*
X1780Y957D02*
X1787Y957D01*
X0Y956D02*
X7Y956D01*
X1780Y956D02*
X1787Y956D01*
X0Y955D02*
X7Y955D01*
X1780Y955D02*
X1787Y955D01*
X0Y954D02*
X7Y954D01*
X1780Y954D02*
X1787Y954D01*
X0Y953D02*
X7Y953D01*
X1780Y953D02*
X1787Y953D01*
X0Y952D02*
X7Y952D01*
X1780Y952D02*
X1787Y952D01*
X0Y951D02*
X7Y951D01*
X1780Y951D02*
X1787Y951D01*
X0Y950D02*
X7Y950D01*
X1780Y950D02*
X1787Y950D01*
X0Y949D02*
X7Y949D01*
X1780Y949D02*
X1787Y949D01*
X0Y948D02*
X7Y948D01*
X1780Y948D02*
X1787Y948D01*
X0Y947D02*
X7Y947D01*
X1780Y947D02*
X1787Y947D01*
X0Y946D02*
X7Y946D01*
X1780Y946D02*
X1787Y946D01*
X0Y945D02*
X7Y945D01*
X1780Y945D02*
X1787Y945D01*
X0Y944D02*
X7Y944D01*
X1780Y944D02*
X1787Y944D01*
X0Y943D02*
X7Y943D01*
X1780Y943D02*
X1787Y943D01*
X0Y942D02*
X7Y942D01*
X1780Y942D02*
X1787Y942D01*
X0Y941D02*
X7Y941D01*
X1780Y941D02*
X1787Y941D01*
X0Y940D02*
X7Y940D01*
X1780Y940D02*
X1787Y940D01*
X0Y939D02*
X7Y939D01*
X1780Y939D02*
X1787Y939D01*
X0Y938D02*
X7Y938D01*
X1780Y938D02*
X1787Y938D01*
X0Y937D02*
X7Y937D01*
X1780Y937D02*
X1787Y937D01*
X0Y936D02*
X7Y936D01*
X1780Y936D02*
X1787Y936D01*
X0Y935D02*
X7Y935D01*
X1780Y935D02*
X1787Y935D01*
X0Y934D02*
X7Y934D01*
X1780Y934D02*
X1787Y934D01*
X0Y933D02*
X7Y933D01*
X1780Y933D02*
X1787Y933D01*
X0Y932D02*
X7Y932D01*
X1780Y932D02*
X1787Y932D01*
X0Y931D02*
X7Y931D01*
X1780Y931D02*
X1787Y931D01*
X0Y930D02*
X7Y930D01*
X1780Y930D02*
X1787Y930D01*
X0Y929D02*
X7Y929D01*
X1780Y929D02*
X1787Y929D01*
X0Y928D02*
X7Y928D01*
X1780Y928D02*
X1787Y928D01*
X0Y927D02*
X7Y927D01*
X1780Y927D02*
X1787Y927D01*
X0Y926D02*
X7Y926D01*
X1780Y926D02*
X1787Y926D01*
X0Y925D02*
X7Y925D01*
X1780Y925D02*
X1787Y925D01*
X0Y924D02*
X7Y924D01*
X1780Y924D02*
X1787Y924D01*
X0Y923D02*
X7Y923D01*
X1780Y923D02*
X1787Y923D01*
X0Y922D02*
X7Y922D01*
X1780Y922D02*
X1787Y922D01*
X0Y921D02*
X7Y921D01*
X1780Y921D02*
X1787Y921D01*
X0Y920D02*
X7Y920D01*
X1780Y920D02*
X1787Y920D01*
X0Y919D02*
X7Y919D01*
X1780Y919D02*
X1787Y919D01*
X0Y918D02*
X7Y918D01*
X1780Y918D02*
X1787Y918D01*
X0Y917D02*
X7Y917D01*
X1780Y917D02*
X1787Y917D01*
X0Y916D02*
X7Y916D01*
X1780Y916D02*
X1787Y916D01*
X0Y915D02*
X7Y915D01*
X1780Y915D02*
X1787Y915D01*
X0Y914D02*
X7Y914D01*
X1780Y914D02*
X1787Y914D01*
X0Y913D02*
X7Y913D01*
X1780Y913D02*
X1787Y913D01*
X0Y912D02*
X7Y912D01*
X1780Y912D02*
X1787Y912D01*
X0Y911D02*
X7Y911D01*
X1780Y911D02*
X1787Y911D01*
X0Y910D02*
X7Y910D01*
X1780Y910D02*
X1787Y910D01*
X0Y909D02*
X7Y909D01*
X1780Y909D02*
X1787Y909D01*
X0Y908D02*
X7Y908D01*
X238Y908D02*
X267Y908D01*
X290Y908D02*
X314Y908D01*
X1780Y908D02*
X1787Y908D01*
X0Y907D02*
X7Y907D01*
X237Y907D02*
X268Y907D01*
X289Y907D02*
X315Y907D01*
X1780Y907D02*
X1787Y907D01*
X0Y906D02*
X7Y906D01*
X236Y906D02*
X268Y906D01*
X287Y906D02*
X316Y906D01*
X1780Y906D02*
X1787Y906D01*
X0Y905D02*
X7Y905D01*
X235Y905D02*
X268Y905D01*
X287Y905D02*
X317Y905D01*
X1780Y905D02*
X1787Y905D01*
X0Y904D02*
X7Y904D01*
X235Y904D02*
X268Y904D01*
X286Y904D02*
X318Y904D01*
X1780Y904D02*
X1787Y904D01*
X0Y903D02*
X7Y903D01*
X235Y903D02*
X267Y903D01*
X285Y903D02*
X318Y903D01*
X1780Y903D02*
X1787Y903D01*
X0Y902D02*
X7Y902D01*
X235Y902D02*
X265Y902D01*
X285Y902D02*
X318Y902D01*
X1780Y902D02*
X1787Y902D01*
X0Y901D02*
X7Y901D01*
X235Y901D02*
X241Y901D01*
X285Y901D02*
X291Y901D01*
X312Y901D02*
X318Y901D01*
X1780Y901D02*
X1787Y901D01*
X0Y900D02*
X7Y900D01*
X235Y900D02*
X241Y900D01*
X285Y900D02*
X291Y900D01*
X312Y900D02*
X318Y900D01*
X1780Y900D02*
X1787Y900D01*
X0Y899D02*
X7Y899D01*
X235Y899D02*
X241Y899D01*
X285Y899D02*
X291Y899D01*
X311Y899D02*
X318Y899D01*
X1780Y899D02*
X1787Y899D01*
X0Y898D02*
X7Y898D01*
X235Y898D02*
X241Y898D01*
X285Y898D02*
X290Y898D01*
X310Y898D02*
X318Y898D01*
X1780Y898D02*
X1787Y898D01*
X0Y897D02*
X7Y897D01*
X235Y897D02*
X241Y897D01*
X286Y897D02*
X290Y897D01*
X309Y897D02*
X317Y897D01*
X1780Y897D02*
X1787Y897D01*
X0Y896D02*
X7Y896D01*
X235Y896D02*
X241Y896D01*
X309Y896D02*
X317Y896D01*
X1780Y896D02*
X1787Y896D01*
X0Y895D02*
X7Y895D01*
X235Y895D02*
X241Y895D01*
X308Y895D02*
X316Y895D01*
X1780Y895D02*
X1787Y895D01*
X0Y894D02*
X7Y894D01*
X235Y894D02*
X241Y894D01*
X307Y894D02*
X315Y894D01*
X1780Y894D02*
X1787Y894D01*
X0Y893D02*
X7Y893D01*
X235Y893D02*
X241Y893D01*
X306Y893D02*
X314Y893D01*
X1780Y893D02*
X1787Y893D01*
X0Y892D02*
X7Y892D01*
X235Y892D02*
X241Y892D01*
X305Y892D02*
X313Y892D01*
X1780Y892D02*
X1787Y892D01*
X0Y891D02*
X7Y891D01*
X235Y891D02*
X241Y891D01*
X305Y891D02*
X313Y891D01*
X1780Y891D02*
X1787Y891D01*
X0Y890D02*
X7Y890D01*
X235Y890D02*
X241Y890D01*
X304Y890D02*
X312Y890D01*
X1780Y890D02*
X1787Y890D01*
X0Y889D02*
X7Y889D01*
X235Y889D02*
X241Y889D01*
X303Y889D02*
X311Y889D01*
X1780Y889D02*
X1787Y889D01*
X0Y888D02*
X7Y888D01*
X235Y888D02*
X241Y888D01*
X302Y888D02*
X310Y888D01*
X1780Y888D02*
X1787Y888D01*
X0Y887D02*
X7Y887D01*
X235Y887D02*
X241Y887D01*
X302Y887D02*
X310Y887D01*
X1780Y887D02*
X1787Y887D01*
X0Y886D02*
X7Y886D01*
X235Y886D02*
X241Y886D01*
X301Y886D02*
X309Y886D01*
X1780Y886D02*
X1787Y886D01*
X0Y885D02*
X7Y885D01*
X235Y885D02*
X263Y885D01*
X300Y885D02*
X308Y885D01*
X1780Y885D02*
X1787Y885D01*
X0Y884D02*
X7Y884D01*
X235Y884D02*
X265Y884D01*
X299Y884D02*
X307Y884D01*
X1780Y884D02*
X1787Y884D01*
X0Y883D02*
X7Y883D01*
X235Y883D02*
X266Y883D01*
X298Y883D02*
X306Y883D01*
X1780Y883D02*
X1787Y883D01*
X0Y882D02*
X7Y882D01*
X236Y882D02*
X267Y882D01*
X298Y882D02*
X306Y882D01*
X1780Y882D02*
X1787Y882D01*
X0Y881D02*
X7Y881D01*
X236Y881D02*
X268Y881D01*
X297Y881D02*
X305Y881D01*
X1780Y881D02*
X1787Y881D01*
X0Y880D02*
X7Y880D01*
X237Y880D02*
X268Y880D01*
X296Y880D02*
X304Y880D01*
X1780Y880D02*
X1787Y880D01*
X0Y879D02*
X7Y879D01*
X239Y879D02*
X268Y879D01*
X295Y879D02*
X303Y879D01*
X1780Y879D02*
X1787Y879D01*
X0Y878D02*
X7Y878D01*
X262Y878D02*
X268Y878D01*
X295Y878D02*
X303Y878D01*
X1780Y878D02*
X1787Y878D01*
X0Y877D02*
X7Y877D01*
X262Y877D02*
X268Y877D01*
X294Y877D02*
X302Y877D01*
X1780Y877D02*
X1787Y877D01*
X0Y876D02*
X7Y876D01*
X262Y876D02*
X268Y876D01*
X293Y876D02*
X301Y876D01*
X1780Y876D02*
X1787Y876D01*
X0Y875D02*
X7Y875D01*
X262Y875D02*
X268Y875D01*
X292Y875D02*
X300Y875D01*
X1780Y875D02*
X1787Y875D01*
X0Y874D02*
X7Y874D01*
X262Y874D02*
X268Y874D01*
X291Y874D02*
X299Y874D01*
X1780Y874D02*
X1787Y874D01*
X0Y873D02*
X7Y873D01*
X262Y873D02*
X268Y873D01*
X291Y873D02*
X299Y873D01*
X1780Y873D02*
X1787Y873D01*
X0Y872D02*
X7Y872D01*
X262Y872D02*
X268Y872D01*
X290Y872D02*
X298Y872D01*
X1780Y872D02*
X1787Y872D01*
X0Y871D02*
X7Y871D01*
X262Y871D02*
X268Y871D01*
X289Y871D02*
X297Y871D01*
X1780Y871D02*
X1787Y871D01*
X0Y870D02*
X7Y870D01*
X262Y870D02*
X268Y870D01*
X288Y870D02*
X296Y870D01*
X1780Y870D02*
X1787Y870D01*
X0Y869D02*
X7Y869D01*
X262Y869D02*
X268Y869D01*
X288Y869D02*
X296Y869D01*
X1780Y869D02*
X1787Y869D01*
X0Y868D02*
X7Y868D01*
X262Y868D02*
X268Y868D01*
X287Y868D02*
X295Y868D01*
X1780Y868D02*
X1787Y868D01*
X0Y867D02*
X7Y867D01*
X262Y867D02*
X268Y867D01*
X286Y867D02*
X294Y867D01*
X314Y867D02*
X317Y867D01*
X1780Y867D02*
X1787Y867D01*
X0Y866D02*
X7Y866D01*
X262Y866D02*
X268Y866D01*
X286Y866D02*
X293Y866D01*
X313Y866D02*
X318Y866D01*
X1780Y866D02*
X1787Y866D01*
X0Y865D02*
X7Y865D01*
X262Y865D02*
X268Y865D01*
X285Y865D02*
X293Y865D01*
X312Y865D02*
X318Y865D01*
X1780Y865D02*
X1787Y865D01*
X0Y864D02*
X7Y864D01*
X262Y864D02*
X268Y864D01*
X285Y864D02*
X292Y864D01*
X312Y864D02*
X318Y864D01*
X1780Y864D02*
X1787Y864D01*
X0Y863D02*
X7Y863D01*
X262Y863D02*
X268Y863D01*
X285Y863D02*
X291Y863D01*
X312Y863D02*
X318Y863D01*
X1780Y863D02*
X1787Y863D01*
X0Y862D02*
X7Y862D01*
X262Y862D02*
X268Y862D01*
X285Y862D02*
X291Y862D01*
X311Y862D02*
X318Y862D01*
X1780Y862D02*
X1787Y862D01*
X0Y861D02*
X7Y861D01*
X236Y861D02*
X268Y861D01*
X285Y861D02*
X318Y861D01*
X1780Y861D02*
X1787Y861D01*
X0Y860D02*
X7Y860D01*
X235Y860D02*
X268Y860D01*
X285Y860D02*
X317Y860D01*
X1780Y860D02*
X1787Y860D01*
X0Y859D02*
X7Y859D01*
X235Y859D02*
X268Y859D01*
X286Y859D02*
X317Y859D01*
X1780Y859D02*
X1787Y859D01*
X0Y858D02*
X7Y858D01*
X235Y858D02*
X268Y858D01*
X286Y858D02*
X316Y858D01*
X1780Y858D02*
X1787Y858D01*
X0Y857D02*
X7Y857D01*
X235Y857D02*
X268Y857D01*
X287Y857D02*
X315Y857D01*
X1780Y857D02*
X1787Y857D01*
X0Y856D02*
X7Y856D01*
X236Y856D02*
X268Y856D01*
X288Y856D02*
X313Y856D01*
X1780Y856D02*
X1787Y856D01*
X0Y855D02*
X7Y855D01*
X237Y855D02*
X268Y855D01*
X291Y855D02*
X311Y855D01*
X1780Y855D02*
X1787Y855D01*
X0Y854D02*
X7Y854D01*
X1780Y854D02*
X1787Y854D01*
X0Y853D02*
X7Y853D01*
X1780Y853D02*
X1787Y853D01*
X0Y852D02*
X7Y852D01*
X1780Y852D02*
X1787Y852D01*
X0Y851D02*
X7Y851D01*
X1780Y851D02*
X1787Y851D01*
X0Y850D02*
X7Y850D01*
X1780Y850D02*
X1787Y850D01*
X0Y849D02*
X7Y849D01*
X1780Y849D02*
X1787Y849D01*
X0Y848D02*
X7Y848D01*
X1780Y848D02*
X1787Y848D01*
X0Y847D02*
X7Y847D01*
X1780Y847D02*
X1787Y847D01*
X0Y846D02*
X7Y846D01*
X1780Y846D02*
X1787Y846D01*
X0Y845D02*
X7Y845D01*
X1780Y845D02*
X1787Y845D01*
X0Y844D02*
X7Y844D01*
X1780Y844D02*
X1787Y844D01*
X0Y843D02*
X7Y843D01*
X1780Y843D02*
X1787Y843D01*
X0Y842D02*
X7Y842D01*
X1780Y842D02*
X1787Y842D01*
X0Y841D02*
X7Y841D01*
X1780Y841D02*
X1787Y841D01*
X0Y840D02*
X7Y840D01*
X1780Y840D02*
X1787Y840D01*
X0Y839D02*
X7Y839D01*
X1780Y839D02*
X1787Y839D01*
X0Y838D02*
X7Y838D01*
X1780Y838D02*
X1787Y838D01*
X0Y837D02*
X7Y837D01*
X1780Y837D02*
X1787Y837D01*
X0Y836D02*
X7Y836D01*
X1780Y836D02*
X1787Y836D01*
X0Y835D02*
X7Y835D01*
X1780Y835D02*
X1787Y835D01*
X0Y834D02*
X7Y834D01*
X1780Y834D02*
X1787Y834D01*
X0Y833D02*
X7Y833D01*
X1780Y833D02*
X1787Y833D01*
X0Y832D02*
X7Y832D01*
X1780Y832D02*
X1787Y832D01*
X0Y831D02*
X7Y831D01*
X1780Y831D02*
X1787Y831D01*
X0Y830D02*
X7Y830D01*
X1780Y830D02*
X1787Y830D01*
X0Y829D02*
X7Y829D01*
X1780Y829D02*
X1787Y829D01*
X0Y828D02*
X7Y828D01*
X1780Y828D02*
X1787Y828D01*
X0Y827D02*
X7Y827D01*
X1780Y827D02*
X1787Y827D01*
X0Y826D02*
X7Y826D01*
X1780Y826D02*
X1787Y826D01*
X0Y825D02*
X7Y825D01*
X1780Y825D02*
X1787Y825D01*
X0Y824D02*
X7Y824D01*
X1780Y824D02*
X1787Y824D01*
X0Y823D02*
X7Y823D01*
X1780Y823D02*
X1787Y823D01*
X0Y822D02*
X7Y822D01*
X1780Y822D02*
X1787Y822D01*
X0Y821D02*
X7Y821D01*
X1780Y821D02*
X1787Y821D01*
X0Y820D02*
X7Y820D01*
X1780Y820D02*
X1787Y820D01*
X0Y819D02*
X7Y819D01*
X1780Y819D02*
X1787Y819D01*
X0Y818D02*
X7Y818D01*
X1780Y818D02*
X1787Y818D01*
X0Y817D02*
X7Y817D01*
X1780Y817D02*
X1787Y817D01*
X0Y816D02*
X7Y816D01*
X1780Y816D02*
X1787Y816D01*
X0Y815D02*
X7Y815D01*
X1780Y815D02*
X1787Y815D01*
X0Y814D02*
X7Y814D01*
X1780Y814D02*
X1787Y814D01*
X0Y813D02*
X7Y813D01*
X1780Y813D02*
X1787Y813D01*
X0Y812D02*
X7Y812D01*
X1780Y812D02*
X1787Y812D01*
X0Y811D02*
X7Y811D01*
X1780Y811D02*
X1787Y811D01*
X0Y810D02*
X7Y810D01*
X1780Y810D02*
X1787Y810D01*
X0Y809D02*
X7Y809D01*
X1780Y809D02*
X1787Y809D01*
X0Y808D02*
X7Y808D01*
X1780Y808D02*
X1787Y808D01*
X0Y807D02*
X7Y807D01*
X1780Y807D02*
X1787Y807D01*
X0Y806D02*
X7Y806D01*
X1780Y806D02*
X1787Y806D01*
X0Y805D02*
X7Y805D01*
X1780Y805D02*
X1787Y805D01*
X0Y804D02*
X7Y804D01*
X1780Y804D02*
X1787Y804D01*
X0Y803D02*
X7Y803D01*
X1780Y803D02*
X1787Y803D01*
X0Y802D02*
X7Y802D01*
X1780Y802D02*
X1787Y802D01*
X0Y801D02*
X7Y801D01*
X1780Y801D02*
X1787Y801D01*
X0Y800D02*
X7Y800D01*
X1780Y800D02*
X1787Y800D01*
X0Y799D02*
X7Y799D01*
X1780Y799D02*
X1787Y799D01*
X0Y798D02*
X7Y798D01*
X1780Y798D02*
X1787Y798D01*
X0Y797D02*
X7Y797D01*
X1780Y797D02*
X1787Y797D01*
X0Y796D02*
X7Y796D01*
X1780Y796D02*
X1787Y796D01*
X0Y795D02*
X7Y795D01*
X1780Y795D02*
X1787Y795D01*
X0Y794D02*
X7Y794D01*
X1780Y794D02*
X1787Y794D01*
X0Y793D02*
X7Y793D01*
X1780Y793D02*
X1787Y793D01*
X0Y792D02*
X7Y792D01*
X1780Y792D02*
X1787Y792D01*
X0Y791D02*
X7Y791D01*
X1780Y791D02*
X1787Y791D01*
X0Y790D02*
X7Y790D01*
X1780Y790D02*
X1787Y790D01*
X0Y789D02*
X7Y789D01*
X1780Y789D02*
X1787Y789D01*
X0Y788D02*
X7Y788D01*
X1780Y788D02*
X1787Y788D01*
X0Y787D02*
X7Y787D01*
X1780Y787D02*
X1787Y787D01*
X0Y786D02*
X7Y786D01*
X1780Y786D02*
X1787Y786D01*
X0Y785D02*
X7Y785D01*
X1780Y785D02*
X1787Y785D01*
X0Y784D02*
X7Y784D01*
X1780Y784D02*
X1787Y784D01*
X0Y783D02*
X7Y783D01*
X1780Y783D02*
X1787Y783D01*
X0Y782D02*
X7Y782D01*
X1780Y782D02*
X1787Y782D01*
X0Y781D02*
X7Y781D01*
X1780Y781D02*
X1787Y781D01*
X0Y780D02*
X7Y780D01*
X1780Y780D02*
X1787Y780D01*
X0Y779D02*
X7Y779D01*
X1780Y779D02*
X1787Y779D01*
X0Y778D02*
X7Y778D01*
X1780Y778D02*
X1787Y778D01*
X0Y777D02*
X7Y777D01*
X1780Y777D02*
X1787Y777D01*
X0Y776D02*
X7Y776D01*
X1780Y776D02*
X1787Y776D01*
X0Y775D02*
X7Y775D01*
X1780Y775D02*
X1787Y775D01*
X0Y774D02*
X7Y774D01*
X1780Y774D02*
X1787Y774D01*
X0Y773D02*
X7Y773D01*
X1780Y773D02*
X1787Y773D01*
X0Y772D02*
X7Y772D01*
X1780Y772D02*
X1787Y772D01*
X0Y771D02*
X7Y771D01*
X1780Y771D02*
X1787Y771D01*
X0Y770D02*
X7Y770D01*
X1780Y770D02*
X1787Y770D01*
X0Y769D02*
X7Y769D01*
X1780Y769D02*
X1787Y769D01*
X0Y768D02*
X7Y768D01*
X1780Y768D02*
X1787Y768D01*
X0Y767D02*
X7Y767D01*
X1780Y767D02*
X1787Y767D01*
X0Y766D02*
X7Y766D01*
X1780Y766D02*
X1787Y766D01*
X0Y765D02*
X7Y765D01*
X1780Y765D02*
X1787Y765D01*
X0Y764D02*
X7Y764D01*
X1780Y764D02*
X1787Y764D01*
X0Y763D02*
X7Y763D01*
X1780Y763D02*
X1787Y763D01*
X0Y762D02*
X7Y762D01*
X1780Y762D02*
X1787Y762D01*
X0Y761D02*
X7Y761D01*
X1780Y761D02*
X1787Y761D01*
X0Y760D02*
X7Y760D01*
X1780Y760D02*
X1787Y760D01*
X0Y759D02*
X7Y759D01*
X1780Y759D02*
X1787Y759D01*
X0Y758D02*
X7Y758D01*
X1780Y758D02*
X1787Y758D01*
X0Y757D02*
X7Y757D01*
X1780Y757D02*
X1787Y757D01*
X0Y756D02*
X7Y756D01*
X1780Y756D02*
X1787Y756D01*
X0Y755D02*
X7Y755D01*
X1780Y755D02*
X1787Y755D01*
X0Y754D02*
X7Y754D01*
X1780Y754D02*
X1787Y754D01*
X0Y753D02*
X7Y753D01*
X1780Y753D02*
X1787Y753D01*
X0Y752D02*
X7Y752D01*
X1780Y752D02*
X1787Y752D01*
X0Y751D02*
X7Y751D01*
X1780Y751D02*
X1787Y751D01*
X0Y750D02*
X7Y750D01*
X1780Y750D02*
X1787Y750D01*
X0Y749D02*
X7Y749D01*
X1780Y749D02*
X1787Y749D01*
X0Y748D02*
X7Y748D01*
X1780Y748D02*
X1787Y748D01*
X0Y747D02*
X7Y747D01*
X1780Y747D02*
X1787Y747D01*
X0Y746D02*
X7Y746D01*
X1780Y746D02*
X1787Y746D01*
X0Y745D02*
X7Y745D01*
X1780Y745D02*
X1787Y745D01*
X0Y744D02*
X7Y744D01*
X1780Y744D02*
X1787Y744D01*
X0Y743D02*
X7Y743D01*
X1780Y743D02*
X1787Y743D01*
X0Y742D02*
X7Y742D01*
X1780Y742D02*
X1787Y742D01*
X0Y741D02*
X7Y741D01*
X1780Y741D02*
X1787Y741D01*
X0Y740D02*
X7Y740D01*
X1780Y740D02*
X1787Y740D01*
X0Y739D02*
X7Y739D01*
X1780Y739D02*
X1787Y739D01*
X0Y738D02*
X7Y738D01*
X1780Y738D02*
X1787Y738D01*
X0Y737D02*
X7Y737D01*
X1780Y737D02*
X1787Y737D01*
X0Y736D02*
X7Y736D01*
X1780Y736D02*
X1787Y736D01*
X0Y735D02*
X7Y735D01*
X1780Y735D02*
X1787Y735D01*
X0Y734D02*
X7Y734D01*
X1780Y734D02*
X1787Y734D01*
X0Y733D02*
X7Y733D01*
X1780Y733D02*
X1787Y733D01*
X0Y732D02*
X7Y732D01*
X1780Y732D02*
X1787Y732D01*
X0Y731D02*
X7Y731D01*
X1780Y731D02*
X1787Y731D01*
X0Y730D02*
X7Y730D01*
X1780Y730D02*
X1787Y730D01*
X0Y729D02*
X7Y729D01*
X1780Y729D02*
X1787Y729D01*
X0Y728D02*
X7Y728D01*
X1780Y728D02*
X1787Y728D01*
X0Y727D02*
X7Y727D01*
X1780Y727D02*
X1787Y727D01*
X0Y726D02*
X7Y726D01*
X1780Y726D02*
X1787Y726D01*
X0Y725D02*
X7Y725D01*
X1780Y725D02*
X1787Y725D01*
X0Y724D02*
X7Y724D01*
X1780Y724D02*
X1787Y724D01*
X0Y723D02*
X7Y723D01*
X1780Y723D02*
X1787Y723D01*
X0Y722D02*
X7Y722D01*
X1780Y722D02*
X1787Y722D01*
X0Y721D02*
X7Y721D01*
X1780Y721D02*
X1787Y721D01*
X0Y720D02*
X7Y720D01*
X1780Y720D02*
X1787Y720D01*
X0Y719D02*
X7Y719D01*
X1780Y719D02*
X1787Y719D01*
X0Y718D02*
X7Y718D01*
X1780Y718D02*
X1787Y718D01*
X0Y717D02*
X7Y717D01*
X1780Y717D02*
X1787Y717D01*
X0Y716D02*
X7Y716D01*
X1780Y716D02*
X1787Y716D01*
X0Y715D02*
X7Y715D01*
X1780Y715D02*
X1787Y715D01*
X0Y714D02*
X7Y714D01*
X1780Y714D02*
X1787Y714D01*
X0Y713D02*
X7Y713D01*
X1780Y713D02*
X1787Y713D01*
X0Y712D02*
X7Y712D01*
X1780Y712D02*
X1787Y712D01*
X0Y711D02*
X7Y711D01*
X1780Y711D02*
X1787Y711D01*
X0Y710D02*
X7Y710D01*
X1780Y710D02*
X1787Y710D01*
X0Y709D02*
X7Y709D01*
X1780Y709D02*
X1787Y709D01*
X0Y708D02*
X7Y708D01*
X1780Y708D02*
X1787Y708D01*
X0Y707D02*
X7Y707D01*
X1780Y707D02*
X1787Y707D01*
X0Y706D02*
X7Y706D01*
X1780Y706D02*
X1787Y706D01*
X0Y705D02*
X7Y705D01*
X1780Y705D02*
X1787Y705D01*
X0Y704D02*
X7Y704D01*
X1780Y704D02*
X1787Y704D01*
X0Y703D02*
X7Y703D01*
X1780Y703D02*
X1787Y703D01*
X0Y702D02*
X7Y702D01*
X1780Y702D02*
X1787Y702D01*
X0Y701D02*
X7Y701D01*
X1780Y701D02*
X1787Y701D01*
X0Y700D02*
X7Y700D01*
X1780Y700D02*
X1787Y700D01*
X0Y699D02*
X7Y699D01*
X1780Y699D02*
X1787Y699D01*
X0Y698D02*
X7Y698D01*
X1780Y698D02*
X1787Y698D01*
X0Y697D02*
X7Y697D01*
X1780Y697D02*
X1787Y697D01*
X0Y696D02*
X7Y696D01*
X1780Y696D02*
X1787Y696D01*
X0Y695D02*
X7Y695D01*
X1780Y695D02*
X1787Y695D01*
X0Y694D02*
X7Y694D01*
X1780Y694D02*
X1787Y694D01*
X0Y693D02*
X7Y693D01*
X1780Y693D02*
X1787Y693D01*
X0Y692D02*
X7Y692D01*
X1780Y692D02*
X1787Y692D01*
X0Y691D02*
X7Y691D01*
X1780Y691D02*
X1787Y691D01*
X0Y690D02*
X7Y690D01*
X1780Y690D02*
X1787Y690D01*
X0Y689D02*
X7Y689D01*
X1780Y689D02*
X1787Y689D01*
X0Y688D02*
X7Y688D01*
X1780Y688D02*
X1787Y688D01*
X0Y687D02*
X7Y687D01*
X1780Y687D02*
X1787Y687D01*
X0Y686D02*
X7Y686D01*
X1780Y686D02*
X1787Y686D01*
X0Y685D02*
X7Y685D01*
X1780Y685D02*
X1787Y685D01*
X0Y684D02*
X7Y684D01*
X1780Y684D02*
X1787Y684D01*
X0Y683D02*
X7Y683D01*
X1780Y683D02*
X1787Y683D01*
X0Y682D02*
X7Y682D01*
X1780Y682D02*
X1787Y682D01*
X0Y681D02*
X7Y681D01*
X1780Y681D02*
X1787Y681D01*
X0Y680D02*
X7Y680D01*
X1780Y680D02*
X1787Y680D01*
X0Y679D02*
X7Y679D01*
X1780Y679D02*
X1787Y679D01*
X0Y678D02*
X7Y678D01*
X1780Y678D02*
X1787Y678D01*
X0Y677D02*
X7Y677D01*
X1780Y677D02*
X1787Y677D01*
X0Y676D02*
X7Y676D01*
X1780Y676D02*
X1787Y676D01*
X0Y675D02*
X7Y675D01*
X1780Y675D02*
X1787Y675D01*
X0Y674D02*
X7Y674D01*
X1780Y674D02*
X1787Y674D01*
X0Y673D02*
X7Y673D01*
X1780Y673D02*
X1787Y673D01*
X0Y672D02*
X7Y672D01*
X1780Y672D02*
X1787Y672D01*
X0Y671D02*
X7Y671D01*
X1780Y671D02*
X1787Y671D01*
X0Y670D02*
X7Y670D01*
X1780Y670D02*
X1787Y670D01*
X0Y669D02*
X7Y669D01*
X1780Y669D02*
X1787Y669D01*
X0Y668D02*
X7Y668D01*
X1780Y668D02*
X1787Y668D01*
X0Y667D02*
X7Y667D01*
X1780Y667D02*
X1787Y667D01*
X0Y666D02*
X7Y666D01*
X1780Y666D02*
X1787Y666D01*
X0Y665D02*
X7Y665D01*
X1780Y665D02*
X1787Y665D01*
X0Y664D02*
X7Y664D01*
X1780Y664D02*
X1787Y664D01*
X0Y663D02*
X7Y663D01*
X1780Y663D02*
X1787Y663D01*
X0Y662D02*
X7Y662D01*
X1780Y662D02*
X1787Y662D01*
X0Y661D02*
X7Y661D01*
X1780Y661D02*
X1787Y661D01*
X0Y660D02*
X7Y660D01*
X1780Y660D02*
X1787Y660D01*
X0Y659D02*
X7Y659D01*
X1780Y659D02*
X1787Y659D01*
X0Y658D02*
X7Y658D01*
X1780Y658D02*
X1787Y658D01*
X0Y657D02*
X7Y657D01*
X1780Y657D02*
X1787Y657D01*
X0Y656D02*
X7Y656D01*
X1780Y656D02*
X1787Y656D01*
X0Y655D02*
X7Y655D01*
X1780Y655D02*
X1787Y655D01*
X0Y654D02*
X7Y654D01*
X1780Y654D02*
X1787Y654D01*
X0Y653D02*
X7Y653D01*
X1151Y653D02*
X1168Y653D01*
X1201Y653D02*
X1217Y653D01*
X1780Y653D02*
X1787Y653D01*
X0Y652D02*
X7Y652D01*
X1151Y652D02*
X1168Y652D01*
X1197Y652D02*
X1221Y652D01*
X1780Y652D02*
X1787Y652D01*
X0Y651D02*
X7Y651D01*
X1150Y651D02*
X1168Y651D01*
X1195Y651D02*
X1222Y651D01*
X1780Y651D02*
X1787Y651D01*
X0Y650D02*
X7Y650D01*
X1150Y650D02*
X1168Y650D01*
X1194Y650D02*
X1223Y650D01*
X1780Y650D02*
X1787Y650D01*
X0Y649D02*
X7Y649D01*
X1149Y649D02*
X1168Y649D01*
X1193Y649D02*
X1224Y649D01*
X1780Y649D02*
X1787Y649D01*
X0Y648D02*
X7Y648D01*
X602Y648D02*
X605Y648D01*
X630Y648D02*
X654Y648D01*
X1148Y648D02*
X1168Y648D01*
X1193Y648D02*
X1225Y648D01*
X1780Y648D02*
X1787Y648D01*
X0Y647D02*
X7Y647D01*
X601Y647D02*
X606Y647D01*
X628Y647D02*
X655Y647D01*
X1147Y647D02*
X1168Y647D01*
X1192Y647D02*
X1225Y647D01*
X1780Y647D02*
X1787Y647D01*
X0Y646D02*
X7Y646D01*
X601Y646D02*
X606Y646D01*
X627Y646D02*
X656Y646D01*
X1146Y646D02*
X1168Y646D01*
X1192Y646D02*
X1225Y646D01*
X1780Y646D02*
X1787Y646D01*
X0Y645D02*
X7Y645D01*
X600Y645D02*
X606Y645D01*
X626Y645D02*
X657Y645D01*
X1162Y645D02*
X1168Y645D01*
X1192Y645D02*
X1198Y645D01*
X1219Y645D02*
X1225Y645D01*
X1780Y645D02*
X1787Y645D01*
X0Y644D02*
X7Y644D01*
X600Y644D02*
X606Y644D01*
X626Y644D02*
X658Y644D01*
X1162Y644D02*
X1168Y644D01*
X1192Y644D02*
X1198Y644D01*
X1218Y644D02*
X1225Y644D01*
X1780Y644D02*
X1787Y644D01*
X0Y643D02*
X7Y643D01*
X600Y643D02*
X606Y643D01*
X625Y643D02*
X658Y643D01*
X1162Y643D02*
X1168Y643D01*
X1192Y643D02*
X1197Y643D01*
X1218Y643D02*
X1225Y643D01*
X1780Y643D02*
X1787Y643D01*
X0Y642D02*
X7Y642D01*
X581Y642D02*
X585Y642D01*
X600Y642D02*
X606Y642D01*
X625Y642D02*
X658Y642D01*
X1162Y642D02*
X1168Y642D01*
X1192Y642D02*
X1197Y642D01*
X1217Y642D02*
X1224Y642D01*
X1780Y642D02*
X1787Y642D01*
X0Y641D02*
X7Y641D01*
X580Y641D02*
X585Y641D01*
X600Y641D02*
X606Y641D01*
X625Y641D02*
X631Y641D01*
X652Y641D02*
X658Y641D01*
X1162Y641D02*
X1168Y641D01*
X1193Y641D02*
X1196Y641D01*
X1216Y641D02*
X1224Y641D01*
X1780Y641D02*
X1787Y641D01*
X0Y640D02*
X7Y640D01*
X580Y640D02*
X586Y640D01*
X600Y640D02*
X606Y640D01*
X625Y640D02*
X631Y640D01*
X652Y640D02*
X658Y640D01*
X1162Y640D02*
X1168Y640D01*
X1215Y640D02*
X1223Y640D01*
X1780Y640D02*
X1787Y640D01*
X0Y639D02*
X7Y639D01*
X580Y639D02*
X586Y639D01*
X600Y639D02*
X606Y639D01*
X625Y639D02*
X630Y639D01*
X651Y639D02*
X658Y639D01*
X1162Y639D02*
X1168Y639D01*
X1215Y639D02*
X1222Y639D01*
X1780Y639D02*
X1787Y639D01*
X0Y638D02*
X7Y638D01*
X580Y638D02*
X586Y638D01*
X600Y638D02*
X606Y638D01*
X625Y638D02*
X630Y638D01*
X650Y638D02*
X657Y638D01*
X1162Y638D02*
X1168Y638D01*
X1214Y638D02*
X1222Y638D01*
X1780Y638D02*
X1787Y638D01*
X0Y637D02*
X7Y637D01*
X580Y637D02*
X586Y637D01*
X600Y637D02*
X606Y637D01*
X626Y637D02*
X629Y637D01*
X649Y637D02*
X657Y637D01*
X1162Y637D02*
X1168Y637D01*
X1213Y637D02*
X1221Y637D01*
X1780Y637D02*
X1787Y637D01*
X0Y636D02*
X7Y636D01*
X580Y636D02*
X586Y636D01*
X600Y636D02*
X606Y636D01*
X648Y636D02*
X656Y636D01*
X1162Y636D02*
X1168Y636D01*
X1212Y636D02*
X1220Y636D01*
X1780Y636D02*
X1787Y636D01*
X0Y635D02*
X7Y635D01*
X580Y635D02*
X586Y635D01*
X600Y635D02*
X606Y635D01*
X648Y635D02*
X656Y635D01*
X1162Y635D02*
X1168Y635D01*
X1211Y635D02*
X1219Y635D01*
X1780Y635D02*
X1787Y635D01*
X0Y634D02*
X7Y634D01*
X580Y634D02*
X586Y634D01*
X600Y634D02*
X606Y634D01*
X647Y634D02*
X655Y634D01*
X1162Y634D02*
X1168Y634D01*
X1211Y634D02*
X1219Y634D01*
X1780Y634D02*
X1787Y634D01*
X0Y633D02*
X7Y633D01*
X580Y633D02*
X586Y633D01*
X600Y633D02*
X606Y633D01*
X646Y633D02*
X654Y633D01*
X1162Y633D02*
X1168Y633D01*
X1210Y633D02*
X1218Y633D01*
X1780Y633D02*
X1787Y633D01*
X0Y632D02*
X7Y632D01*
X580Y632D02*
X586Y632D01*
X600Y632D02*
X606Y632D01*
X645Y632D02*
X653Y632D01*
X1162Y632D02*
X1168Y632D01*
X1209Y632D02*
X1217Y632D01*
X1780Y632D02*
X1787Y632D01*
X0Y631D02*
X7Y631D01*
X580Y631D02*
X586Y631D01*
X600Y631D02*
X606Y631D01*
X645Y631D02*
X653Y631D01*
X1162Y631D02*
X1168Y631D01*
X1208Y631D02*
X1216Y631D01*
X1780Y631D02*
X1787Y631D01*
X0Y630D02*
X7Y630D01*
X580Y630D02*
X586Y630D01*
X600Y630D02*
X606Y630D01*
X644Y630D02*
X652Y630D01*
X1162Y630D02*
X1168Y630D01*
X1208Y630D02*
X1216Y630D01*
X1780Y630D02*
X1787Y630D01*
X0Y629D02*
X7Y629D01*
X580Y629D02*
X586Y629D01*
X600Y629D02*
X606Y629D01*
X643Y629D02*
X651Y629D01*
X1146Y629D02*
X1168Y629D01*
X1207Y629D02*
X1215Y629D01*
X1780Y629D02*
X1787Y629D01*
X0Y628D02*
X7Y628D01*
X580Y628D02*
X586Y628D01*
X600Y628D02*
X606Y628D01*
X642Y628D02*
X650Y628D01*
X1144Y628D02*
X1168Y628D01*
X1206Y628D02*
X1214Y628D01*
X1780Y628D02*
X1787Y628D01*
X0Y627D02*
X7Y627D01*
X580Y627D02*
X586Y627D01*
X600Y627D02*
X606Y627D01*
X641Y627D02*
X649Y627D01*
X1143Y627D02*
X1168Y627D01*
X1205Y627D02*
X1213Y627D01*
X1780Y627D02*
X1787Y627D01*
X0Y626D02*
X7Y626D01*
X580Y626D02*
X586Y626D01*
X600Y626D02*
X606Y626D01*
X641Y626D02*
X649Y626D01*
X1143Y626D02*
X1168Y626D01*
X1204Y626D02*
X1212Y626D01*
X1780Y626D02*
X1787Y626D01*
X0Y625D02*
X7Y625D01*
X580Y625D02*
X586Y625D01*
X600Y625D02*
X606Y625D01*
X640Y625D02*
X648Y625D01*
X1142Y625D02*
X1168Y625D01*
X1204Y625D02*
X1212Y625D01*
X1780Y625D02*
X1787Y625D01*
X0Y624D02*
X7Y624D01*
X580Y624D02*
X586Y624D01*
X600Y624D02*
X606Y624D01*
X639Y624D02*
X647Y624D01*
X1142Y624D02*
X1168Y624D01*
X1203Y624D02*
X1211Y624D01*
X1780Y624D02*
X1787Y624D01*
X0Y623D02*
X7Y623D01*
X580Y623D02*
X586Y623D01*
X600Y623D02*
X606Y623D01*
X638Y623D02*
X646Y623D01*
X1142Y623D02*
X1168Y623D01*
X1202Y623D02*
X1210Y623D01*
X1780Y623D02*
X1787Y623D01*
X0Y622D02*
X7Y622D01*
X580Y622D02*
X586Y622D01*
X600Y622D02*
X606Y622D01*
X638Y622D02*
X646Y622D01*
X1142Y622D02*
X1148Y622D01*
X1201Y622D02*
X1209Y622D01*
X1780Y622D02*
X1787Y622D01*
X0Y621D02*
X7Y621D01*
X580Y621D02*
X586Y621D01*
X600Y621D02*
X606Y621D01*
X637Y621D02*
X645Y621D01*
X1141Y621D02*
X1148Y621D01*
X1201Y621D02*
X1209Y621D01*
X1780Y621D02*
X1787Y621D01*
X0Y620D02*
X7Y620D01*
X580Y620D02*
X586Y620D01*
X600Y620D02*
X606Y620D01*
X636Y620D02*
X644Y620D01*
X1141Y620D02*
X1148Y620D01*
X1200Y620D02*
X1208Y620D01*
X1780Y620D02*
X1787Y620D01*
X0Y619D02*
X7Y619D01*
X578Y619D02*
X606Y619D01*
X635Y619D02*
X643Y619D01*
X1141Y619D02*
X1148Y619D01*
X1199Y619D02*
X1207Y619D01*
X1780Y619D02*
X1787Y619D01*
X0Y618D02*
X7Y618D01*
X577Y618D02*
X606Y618D01*
X634Y618D02*
X642Y618D01*
X1141Y618D02*
X1148Y618D01*
X1198Y618D02*
X1206Y618D01*
X1780Y618D02*
X1787Y618D01*
X0Y617D02*
X7Y617D01*
X576Y617D02*
X606Y617D01*
X634Y617D02*
X642Y617D01*
X1141Y617D02*
X1148Y617D01*
X1197Y617D02*
X1205Y617D01*
X1780Y617D02*
X1787Y617D01*
X0Y616D02*
X7Y616D01*
X576Y616D02*
X606Y616D01*
X633Y616D02*
X641Y616D01*
X1141Y616D02*
X1148Y616D01*
X1197Y616D02*
X1205Y616D01*
X1780Y616D02*
X1787Y616D01*
X0Y615D02*
X7Y615D01*
X583Y615D02*
X606Y615D01*
X632Y615D02*
X640Y615D01*
X1141Y615D02*
X1148Y615D01*
X1196Y615D02*
X1204Y615D01*
X1780Y615D02*
X1787Y615D01*
X0Y614D02*
X7Y614D01*
X588Y614D02*
X606Y614D01*
X631Y614D02*
X639Y614D01*
X1141Y614D02*
X1148Y614D01*
X1195Y614D02*
X1203Y614D01*
X1780Y614D02*
X1787Y614D01*
X0Y613D02*
X7Y613D01*
X591Y613D02*
X606Y613D01*
X631Y613D02*
X639Y613D01*
X1141Y613D02*
X1148Y613D01*
X1194Y613D02*
X1202Y613D01*
X1780Y613D02*
X1787Y613D01*
X0Y612D02*
X7Y612D01*
X630Y612D02*
X638Y612D01*
X1141Y612D02*
X1148Y612D01*
X1194Y612D02*
X1202Y612D01*
X1780Y612D02*
X1787Y612D01*
X0Y611D02*
X7Y611D01*
X629Y611D02*
X637Y611D01*
X1141Y611D02*
X1148Y611D01*
X1193Y611D02*
X1201Y611D01*
X1221Y611D02*
X1224Y611D01*
X1780Y611D02*
X1787Y611D01*
X0Y610D02*
X7Y610D01*
X628Y610D02*
X636Y610D01*
X1141Y610D02*
X1148Y610D01*
X1192Y610D02*
X1200Y610D01*
X1220Y610D02*
X1225Y610D01*
X1780Y610D02*
X1787Y610D01*
X0Y609D02*
X7Y609D01*
X627Y609D02*
X635Y609D01*
X1141Y609D02*
X1148Y609D01*
X1192Y609D02*
X1199Y609D01*
X1219Y609D02*
X1225Y609D01*
X1780Y609D02*
X1787Y609D01*
X0Y608D02*
X7Y608D01*
X627Y608D02*
X635Y608D01*
X1141Y608D02*
X1148Y608D01*
X1170Y608D02*
X1174Y608D01*
X1192Y608D02*
X1198Y608D01*
X1219Y608D02*
X1225Y608D01*
X1780Y608D02*
X1787Y608D01*
X0Y607D02*
X7Y607D01*
X626Y607D02*
X634Y607D01*
X654Y607D02*
X657Y607D01*
X1141Y607D02*
X1148Y607D01*
X1168Y607D02*
X1175Y607D01*
X1192Y607D02*
X1198Y607D01*
X1219Y607D02*
X1225Y607D01*
X1780Y607D02*
X1787Y607D01*
X0Y606D02*
X7Y606D01*
X625Y606D02*
X633Y606D01*
X653Y606D02*
X658Y606D01*
X1142Y606D02*
X1148Y606D01*
X1165Y606D02*
X1175Y606D01*
X1192Y606D02*
X1198Y606D01*
X1217Y606D02*
X1225Y606D01*
X1780Y606D02*
X1787Y606D01*
X0Y605D02*
X7Y605D01*
X625Y605D02*
X632Y605D01*
X652Y605D02*
X658Y605D01*
X1142Y605D02*
X1175Y605D01*
X1192Y605D02*
X1224Y605D01*
X1780Y605D02*
X1787Y605D01*
X0Y604D02*
X7Y604D01*
X625Y604D02*
X632Y604D01*
X652Y604D02*
X658Y604D01*
X1142Y604D02*
X1175Y604D01*
X1192Y604D02*
X1224Y604D01*
X1780Y604D02*
X1787Y604D01*
X0Y603D02*
X7Y603D01*
X625Y603D02*
X631Y603D01*
X652Y603D02*
X658Y603D01*
X1143Y603D02*
X1174Y603D01*
X1193Y603D02*
X1223Y603D01*
X1780Y603D02*
X1787Y603D01*
X0Y602D02*
X7Y602D01*
X625Y602D02*
X631Y602D01*
X651Y602D02*
X658Y602D01*
X1144Y602D02*
X1173Y602D01*
X1193Y602D02*
X1223Y602D01*
X1780Y602D02*
X1787Y602D01*
X0Y601D02*
X7Y601D01*
X625Y601D02*
X658Y601D01*
X1145Y601D02*
X1171Y601D01*
X1194Y601D02*
X1222Y601D01*
X1780Y601D02*
X1787Y601D01*
X0Y600D02*
X7Y600D01*
X625Y600D02*
X657Y600D01*
X1146Y600D02*
X1169Y600D01*
X1195Y600D02*
X1220Y600D01*
X1780Y600D02*
X1787Y600D01*
X0Y599D02*
X7Y599D01*
X626Y599D02*
X657Y599D01*
X1147Y599D02*
X1165Y599D01*
X1198Y599D02*
X1217Y599D01*
X1780Y599D02*
X1787Y599D01*
X0Y598D02*
X7Y598D01*
X626Y598D02*
X656Y598D01*
X1780Y598D02*
X1787Y598D01*
X0Y597D02*
X7Y597D01*
X627Y597D02*
X655Y597D01*
X1780Y597D02*
X1787Y597D01*
X0Y596D02*
X7Y596D01*
X628Y596D02*
X653Y596D01*
X1780Y596D02*
X1787Y596D01*
X0Y595D02*
X7Y595D01*
X631Y595D02*
X651Y595D01*
X1780Y595D02*
X1787Y595D01*
X0Y594D02*
X7Y594D01*
X1780Y594D02*
X1787Y594D01*
X0Y593D02*
X7Y593D01*
X1780Y593D02*
X1787Y593D01*
X0Y592D02*
X7Y592D01*
X1780Y592D02*
X1787Y592D01*
X0Y591D02*
X7Y591D01*
X1780Y591D02*
X1787Y591D01*
X0Y590D02*
X7Y590D01*
X1780Y590D02*
X1787Y590D01*
X0Y589D02*
X7Y589D01*
X1780Y589D02*
X1787Y589D01*
X0Y588D02*
X7Y588D01*
X1780Y588D02*
X1787Y588D01*
X0Y587D02*
X7Y587D01*
X1780Y587D02*
X1787Y587D01*
X0Y586D02*
X7Y586D01*
X1780Y586D02*
X1787Y586D01*
X0Y585D02*
X7Y585D01*
X1780Y585D02*
X1787Y585D01*
X0Y584D02*
X7Y584D01*
X1780Y584D02*
X1787Y584D01*
X0Y583D02*
X7Y583D01*
X1780Y583D02*
X1787Y583D01*
X0Y582D02*
X7Y582D01*
X1780Y582D02*
X1787Y582D01*
X0Y581D02*
X7Y581D01*
X1780Y581D02*
X1787Y581D01*
X0Y580D02*
X7Y580D01*
X1780Y580D02*
X1787Y580D01*
X0Y579D02*
X7Y579D01*
X1780Y579D02*
X1787Y579D01*
X0Y578D02*
X7Y578D01*
X1780Y578D02*
X1787Y578D01*
X0Y577D02*
X7Y577D01*
X1780Y577D02*
X1787Y577D01*
X0Y576D02*
X7Y576D01*
X1780Y576D02*
X1787Y576D01*
X0Y575D02*
X7Y575D01*
X1780Y575D02*
X1787Y575D01*
X0Y574D02*
X7Y574D01*
X1780Y574D02*
X1787Y574D01*
X0Y573D02*
X7Y573D01*
X1780Y573D02*
X1787Y573D01*
X0Y572D02*
X7Y572D01*
X1780Y572D02*
X1787Y572D01*
X0Y571D02*
X7Y571D01*
X1780Y571D02*
X1787Y571D01*
X0Y570D02*
X7Y570D01*
X1780Y570D02*
X1787Y570D01*
X0Y569D02*
X7Y569D01*
X1780Y569D02*
X1787Y569D01*
X0Y568D02*
X7Y568D01*
X1780Y568D02*
X1787Y568D01*
X0Y567D02*
X7Y567D01*
X1780Y567D02*
X1787Y567D01*
X0Y566D02*
X7Y566D01*
X1780Y566D02*
X1787Y566D01*
X0Y565D02*
X7Y565D01*
X1780Y565D02*
X1787Y565D01*
X0Y564D02*
X7Y564D01*
X1780Y564D02*
X1787Y564D01*
X0Y563D02*
X7Y563D01*
X1780Y563D02*
X1787Y563D01*
X0Y562D02*
X7Y562D01*
X1780Y562D02*
X1787Y562D01*
X0Y561D02*
X7Y561D01*
X1780Y561D02*
X1787Y561D01*
X0Y560D02*
X7Y560D01*
X1780Y560D02*
X1787Y560D01*
X0Y559D02*
X7Y559D01*
X1780Y559D02*
X1787Y559D01*
X0Y558D02*
X7Y558D01*
X1780Y558D02*
X1787Y558D01*
X0Y557D02*
X7Y557D01*
X1780Y557D02*
X1787Y557D01*
X0Y556D02*
X7Y556D01*
X1780Y556D02*
X1787Y556D01*
X0Y555D02*
X7Y555D01*
X1780Y555D02*
X1787Y555D01*
X0Y554D02*
X7Y554D01*
X1780Y554D02*
X1787Y554D01*
X0Y553D02*
X7Y553D01*
X1780Y553D02*
X1787Y553D01*
X0Y552D02*
X7Y552D01*
X1780Y552D02*
X1787Y552D01*
X0Y551D02*
X7Y551D01*
X1780Y551D02*
X1787Y551D01*
X0Y550D02*
X7Y550D01*
X1780Y550D02*
X1787Y550D01*
X0Y549D02*
X7Y549D01*
X1780Y549D02*
X1787Y549D01*
X0Y548D02*
X7Y548D01*
X1780Y548D02*
X1787Y548D01*
X0Y547D02*
X7Y547D01*
X1780Y547D02*
X1787Y547D01*
X0Y546D02*
X7Y546D01*
X1780Y546D02*
X1787Y546D01*
X0Y545D02*
X7Y545D01*
X1780Y545D02*
X1787Y545D01*
X0Y544D02*
X7Y544D01*
X1780Y544D02*
X1787Y544D01*
X0Y543D02*
X7Y543D01*
X1780Y543D02*
X1787Y543D01*
X0Y542D02*
X7Y542D01*
X1780Y542D02*
X1787Y542D01*
X0Y541D02*
X7Y541D01*
X1780Y541D02*
X1787Y541D01*
X0Y540D02*
X7Y540D01*
X1780Y540D02*
X1787Y540D01*
X0Y539D02*
X7Y539D01*
X1780Y539D02*
X1787Y539D01*
X0Y538D02*
X7Y538D01*
X1780Y538D02*
X1787Y538D01*
X0Y537D02*
X7Y537D01*
X1780Y537D02*
X1787Y537D01*
X0Y536D02*
X7Y536D01*
X1780Y536D02*
X1787Y536D01*
X0Y535D02*
X7Y535D01*
X1780Y535D02*
X1787Y535D01*
X0Y534D02*
X7Y534D01*
X1780Y534D02*
X1787Y534D01*
X0Y533D02*
X7Y533D01*
X1780Y533D02*
X1787Y533D01*
X0Y532D02*
X7Y532D01*
X1780Y532D02*
X1787Y532D01*
X0Y531D02*
X7Y531D01*
X1780Y531D02*
X1787Y531D01*
X0Y530D02*
X7Y530D01*
X1780Y530D02*
X1787Y530D01*
X0Y529D02*
X7Y529D01*
X705Y529D02*
X714Y529D01*
X942Y529D02*
X951Y529D01*
X1780Y529D02*
X1787Y529D01*
X0Y528D02*
X7Y528D01*
X705Y528D02*
X714Y528D01*
X942Y528D02*
X951Y528D01*
X1780Y528D02*
X1787Y528D01*
X0Y527D02*
X7Y527D01*
X705Y527D02*
X714Y527D01*
X942Y527D02*
X951Y527D01*
X1780Y527D02*
X1787Y527D01*
X0Y526D02*
X7Y526D01*
X705Y526D02*
X714Y526D01*
X942Y526D02*
X951Y526D01*
X1780Y526D02*
X1787Y526D01*
X0Y525D02*
X7Y525D01*
X705Y525D02*
X714Y525D01*
X942Y525D02*
X951Y525D01*
X1780Y525D02*
X1787Y525D01*
X0Y524D02*
X7Y524D01*
X705Y524D02*
X714Y524D01*
X942Y524D02*
X951Y524D01*
X1780Y524D02*
X1787Y524D01*
X0Y523D02*
X7Y523D01*
X705Y523D02*
X714Y523D01*
X942Y523D02*
X951Y523D01*
X1780Y523D02*
X1787Y523D01*
X0Y522D02*
X7Y522D01*
X705Y522D02*
X714Y522D01*
X942Y522D02*
X951Y522D01*
X1780Y522D02*
X1787Y522D01*
X0Y521D02*
X7Y521D01*
X705Y521D02*
X714Y521D01*
X942Y521D02*
X951Y521D01*
X1780Y521D02*
X1787Y521D01*
X0Y520D02*
X7Y520D01*
X705Y520D02*
X714Y520D01*
X942Y520D02*
X951Y520D01*
X1780Y520D02*
X1787Y520D01*
X0Y519D02*
X7Y519D01*
X705Y519D02*
X714Y519D01*
X942Y519D02*
X951Y519D01*
X1780Y519D02*
X1787Y519D01*
X0Y518D02*
X7Y518D01*
X705Y518D02*
X714Y518D01*
X942Y518D02*
X951Y518D01*
X1780Y518D02*
X1787Y518D01*
X0Y517D02*
X7Y517D01*
X705Y517D02*
X714Y517D01*
X942Y517D02*
X951Y517D01*
X1780Y517D02*
X1787Y517D01*
X0Y516D02*
X7Y516D01*
X705Y516D02*
X714Y516D01*
X942Y516D02*
X951Y516D01*
X1780Y516D02*
X1787Y516D01*
X0Y515D02*
X7Y515D01*
X705Y515D02*
X714Y515D01*
X942Y515D02*
X951Y515D01*
X1780Y515D02*
X1787Y515D01*
X0Y514D02*
X7Y514D01*
X705Y514D02*
X714Y514D01*
X942Y514D02*
X951Y514D01*
X1780Y514D02*
X1787Y514D01*
X0Y513D02*
X7Y513D01*
X705Y513D02*
X714Y513D01*
X942Y513D02*
X951Y513D01*
X1780Y513D02*
X1787Y513D01*
X0Y512D02*
X7Y512D01*
X705Y512D02*
X714Y512D01*
X942Y512D02*
X951Y512D01*
X1780Y512D02*
X1787Y512D01*
X0Y511D02*
X7Y511D01*
X705Y511D02*
X714Y511D01*
X942Y511D02*
X951Y511D01*
X1780Y511D02*
X1787Y511D01*
X0Y510D02*
X7Y510D01*
X705Y510D02*
X714Y510D01*
X942Y510D02*
X951Y510D01*
X1780Y510D02*
X1787Y510D01*
X0Y509D02*
X7Y509D01*
X705Y509D02*
X714Y509D01*
X942Y509D02*
X951Y509D01*
X1780Y509D02*
X1787Y509D01*
X0Y508D02*
X7Y508D01*
X705Y508D02*
X714Y508D01*
X942Y508D02*
X951Y508D01*
X1780Y508D02*
X1787Y508D01*
X0Y507D02*
X7Y507D01*
X705Y507D02*
X714Y507D01*
X942Y507D02*
X951Y507D01*
X1780Y507D02*
X1787Y507D01*
X0Y506D02*
X7Y506D01*
X705Y506D02*
X714Y506D01*
X942Y506D02*
X951Y506D01*
X1780Y506D02*
X1787Y506D01*
X0Y505D02*
X7Y505D01*
X705Y505D02*
X714Y505D01*
X942Y505D02*
X950Y505D01*
X1780Y505D02*
X1787Y505D01*
X0Y504D02*
X7Y504D01*
X705Y504D02*
X714Y504D01*
X942Y504D02*
X945Y504D01*
X1780Y504D02*
X1787Y504D01*
X0Y503D02*
X7Y503D01*
X705Y503D02*
X714Y503D01*
X942Y503D02*
X942Y503D01*
X1780Y503D02*
X1787Y503D01*
X0Y502D02*
X7Y502D01*
X705Y502D02*
X714Y502D01*
X1780Y502D02*
X1787Y502D01*
X0Y501D02*
X7Y501D01*
X705Y501D02*
X714Y501D01*
X1780Y501D02*
X1787Y501D01*
X0Y500D02*
X7Y500D01*
X705Y500D02*
X714Y500D01*
X1780Y500D02*
X1787Y500D01*
X0Y499D02*
X7Y499D01*
X705Y499D02*
X714Y499D01*
X1780Y499D02*
X1787Y499D01*
X0Y498D02*
X7Y498D01*
X705Y498D02*
X712Y498D01*
X1780Y498D02*
X1787Y498D01*
X0Y497D02*
X7Y497D01*
X705Y497D02*
X711Y497D01*
X1780Y497D02*
X1787Y497D01*
X0Y496D02*
X7Y496D01*
X705Y496D02*
X709Y496D01*
X1780Y496D02*
X1787Y496D01*
X0Y495D02*
X7Y495D01*
X705Y495D02*
X708Y495D01*
X1780Y495D02*
X1787Y495D01*
X0Y494D02*
X7Y494D01*
X705Y494D02*
X707Y494D01*
X1780Y494D02*
X1787Y494D01*
X0Y493D02*
X7Y493D01*
X705Y493D02*
X706Y493D01*
X1780Y493D02*
X1787Y493D01*
X0Y492D02*
X7Y492D01*
X705Y492D02*
X705Y492D01*
X1780Y492D02*
X1787Y492D01*
X0Y491D02*
X7Y491D01*
X1780Y491D02*
X1787Y491D01*
X0Y490D02*
X7Y490D01*
X1780Y490D02*
X1787Y490D01*
X0Y489D02*
X7Y489D01*
X1780Y489D02*
X1787Y489D01*
X0Y488D02*
X7Y488D01*
X1780Y488D02*
X1787Y488D01*
X0Y487D02*
X7Y487D01*
X1780Y487D02*
X1787Y487D01*
X0Y486D02*
X7Y486D01*
X1780Y486D02*
X1787Y486D01*
X0Y485D02*
X7Y485D01*
X1780Y485D02*
X1787Y485D01*
X0Y484D02*
X7Y484D01*
X1780Y484D02*
X1787Y484D01*
X0Y483D02*
X7Y483D01*
X1780Y483D02*
X1787Y483D01*
X0Y482D02*
X7Y482D01*
X1780Y482D02*
X1787Y482D01*
X0Y481D02*
X7Y481D01*
X1780Y481D02*
X1787Y481D01*
X0Y480D02*
X7Y480D01*
X1780Y480D02*
X1787Y480D01*
X0Y479D02*
X7Y479D01*
X1780Y479D02*
X1787Y479D01*
X0Y478D02*
X7Y478D01*
X1780Y478D02*
X1787Y478D01*
X0Y477D02*
X7Y477D01*
X1780Y477D02*
X1787Y477D01*
X0Y476D02*
X7Y476D01*
X1780Y476D02*
X1787Y476D01*
X0Y475D02*
X7Y475D01*
X1780Y475D02*
X1787Y475D01*
X0Y474D02*
X7Y474D01*
X1780Y474D02*
X1787Y474D01*
X0Y473D02*
X7Y473D01*
X1780Y473D02*
X1787Y473D01*
X0Y472D02*
X7Y472D01*
X1780Y472D02*
X1787Y472D01*
X0Y471D02*
X7Y471D01*
X1780Y471D02*
X1787Y471D01*
X0Y470D02*
X7Y470D01*
X1780Y470D02*
X1787Y470D01*
X0Y469D02*
X7Y469D01*
X1780Y469D02*
X1787Y469D01*
X0Y468D02*
X7Y468D01*
X1780Y468D02*
X1787Y468D01*
X0Y467D02*
X7Y467D01*
X1780Y467D02*
X1787Y467D01*
X0Y466D02*
X7Y466D01*
X1780Y466D02*
X1787Y466D01*
X0Y465D02*
X7Y465D01*
X1780Y465D02*
X1787Y465D01*
X0Y464D02*
X7Y464D01*
X1780Y464D02*
X1787Y464D01*
X0Y463D02*
X7Y463D01*
X1780Y463D02*
X1787Y463D01*
X0Y462D02*
X7Y462D01*
X1780Y462D02*
X1787Y462D01*
X0Y461D02*
X7Y461D01*
X1780Y461D02*
X1787Y461D01*
X0Y460D02*
X7Y460D01*
X1780Y460D02*
X1787Y460D01*
X0Y459D02*
X7Y459D01*
X1780Y459D02*
X1787Y459D01*
X0Y458D02*
X7Y458D01*
X1780Y458D02*
X1787Y458D01*
X0Y457D02*
X7Y457D01*
X1780Y457D02*
X1787Y457D01*
X0Y456D02*
X7Y456D01*
X1780Y456D02*
X1787Y456D01*
X0Y455D02*
X7Y455D01*
X1780Y455D02*
X1787Y455D01*
X0Y454D02*
X7Y454D01*
X1780Y454D02*
X1787Y454D01*
X0Y453D02*
X7Y453D01*
X1780Y453D02*
X1787Y453D01*
X0Y452D02*
X7Y452D01*
X1780Y452D02*
X1787Y452D01*
X0Y451D02*
X7Y451D01*
X1780Y451D02*
X1787Y451D01*
X0Y450D02*
X7Y450D01*
X1780Y450D02*
X1787Y450D01*
X0Y449D02*
X7Y449D01*
X1780Y449D02*
X1787Y449D01*
X0Y448D02*
X7Y448D01*
X1780Y448D02*
X1787Y448D01*
X0Y447D02*
X7Y447D01*
X1780Y447D02*
X1787Y447D01*
X0Y446D02*
X7Y446D01*
X1780Y446D02*
X1787Y446D01*
X0Y445D02*
X7Y445D01*
X1780Y445D02*
X1787Y445D01*
X0Y444D02*
X7Y444D01*
X1780Y444D02*
X1787Y444D01*
X0Y443D02*
X7Y443D01*
X809Y443D02*
X809Y443D01*
X1780Y443D02*
X1787Y443D01*
X0Y442D02*
X7Y442D01*
X809Y442D02*
X809Y442D01*
X1780Y442D02*
X1787Y442D01*
X0Y441D02*
X7Y441D01*
X809Y441D02*
X810Y441D01*
X1780Y441D02*
X1787Y441D01*
X0Y440D02*
X7Y440D01*
X809Y440D02*
X810Y440D01*
X1780Y440D02*
X1787Y440D01*
X0Y439D02*
X7Y439D01*
X809Y439D02*
X811Y439D01*
X1780Y439D02*
X1787Y439D01*
X0Y438D02*
X7Y438D01*
X809Y438D02*
X812Y438D01*
X1780Y438D02*
X1787Y438D01*
X0Y437D02*
X7Y437D01*
X809Y437D02*
X813Y437D01*
X1780Y437D02*
X1787Y437D01*
X0Y436D02*
X7Y436D01*
X809Y436D02*
X813Y436D01*
X1780Y436D02*
X1787Y436D01*
X0Y435D02*
X7Y435D01*
X1780Y435D02*
X1787Y435D01*
X0Y434D02*
X7Y434D01*
X705Y434D02*
X705Y434D01*
X1780Y434D02*
X1787Y434D01*
X0Y433D02*
X7Y433D01*
X705Y433D02*
X706Y433D01*
X1780Y433D02*
X1787Y433D01*
X0Y432D02*
X7Y432D01*
X705Y432D02*
X707Y432D01*
X1780Y432D02*
X1787Y432D01*
X0Y431D02*
X7Y431D01*
X705Y431D02*
X708Y431D01*
X1780Y431D02*
X1787Y431D01*
X0Y430D02*
X7Y430D01*
X705Y430D02*
X709Y430D01*
X1780Y430D02*
X1787Y430D01*
X0Y429D02*
X7Y429D01*
X705Y429D02*
X711Y429D01*
X1780Y429D02*
X1787Y429D01*
X0Y428D02*
X7Y428D01*
X705Y428D02*
X712Y428D01*
X1780Y428D02*
X1787Y428D01*
X0Y427D02*
X7Y427D01*
X705Y427D02*
X714Y427D01*
X823Y427D02*
X824Y427D01*
X1780Y427D02*
X1787Y427D01*
X0Y426D02*
X7Y426D01*
X705Y426D02*
X714Y426D01*
X823Y426D02*
X825Y426D01*
X1780Y426D02*
X1787Y426D01*
X0Y425D02*
X7Y425D01*
X705Y425D02*
X714Y425D01*
X823Y425D02*
X827Y425D01*
X1780Y425D02*
X1787Y425D01*
X0Y424D02*
X7Y424D01*
X705Y424D02*
X714Y424D01*
X823Y424D02*
X829Y424D01*
X1780Y424D02*
X1787Y424D01*
X0Y423D02*
X7Y423D01*
X705Y423D02*
X714Y423D01*
X823Y423D02*
X832Y423D01*
X942Y423D02*
X942Y423D01*
X1780Y423D02*
X1787Y423D01*
X0Y422D02*
X7Y422D01*
X705Y422D02*
X714Y422D01*
X823Y422D02*
X832Y422D01*
X942Y422D02*
X945Y422D01*
X1780Y422D02*
X1787Y422D01*
X0Y421D02*
X7Y421D01*
X705Y421D02*
X714Y421D01*
X942Y421D02*
X950Y421D01*
X1780Y421D02*
X1787Y421D01*
X0Y420D02*
X7Y420D01*
X705Y420D02*
X714Y420D01*
X942Y420D02*
X951Y420D01*
X1780Y420D02*
X1787Y420D01*
X0Y419D02*
X7Y419D01*
X705Y419D02*
X714Y419D01*
X942Y419D02*
X951Y419D01*
X1780Y419D02*
X1787Y419D01*
X0Y418D02*
X7Y418D01*
X705Y418D02*
X714Y418D01*
X942Y418D02*
X951Y418D01*
X1780Y418D02*
X1787Y418D01*
X0Y417D02*
X7Y417D01*
X705Y417D02*
X714Y417D01*
X942Y417D02*
X951Y417D01*
X1780Y417D02*
X1787Y417D01*
X0Y416D02*
X7Y416D01*
X705Y416D02*
X714Y416D01*
X942Y416D02*
X951Y416D01*
X1780Y416D02*
X1787Y416D01*
X0Y415D02*
X7Y415D01*
X705Y415D02*
X714Y415D01*
X942Y415D02*
X951Y415D01*
X1780Y415D02*
X1787Y415D01*
X0Y414D02*
X7Y414D01*
X705Y414D02*
X714Y414D01*
X942Y414D02*
X951Y414D01*
X1780Y414D02*
X1787Y414D01*
X0Y413D02*
X7Y413D01*
X705Y413D02*
X714Y413D01*
X942Y413D02*
X951Y413D01*
X1780Y413D02*
X1787Y413D01*
X0Y412D02*
X7Y412D01*
X705Y412D02*
X714Y412D01*
X942Y412D02*
X951Y412D01*
X1780Y412D02*
X1787Y412D01*
X0Y411D02*
X7Y411D01*
X705Y411D02*
X714Y411D01*
X942Y411D02*
X951Y411D01*
X1780Y411D02*
X1787Y411D01*
X0Y410D02*
X7Y410D01*
X705Y410D02*
X714Y410D01*
X942Y410D02*
X951Y410D01*
X1780Y410D02*
X1787Y410D01*
X0Y409D02*
X7Y409D01*
X705Y409D02*
X714Y409D01*
X942Y409D02*
X951Y409D01*
X1780Y409D02*
X1787Y409D01*
X0Y408D02*
X7Y408D01*
X705Y408D02*
X714Y408D01*
X942Y408D02*
X951Y408D01*
X1780Y408D02*
X1787Y408D01*
X0Y407D02*
X7Y407D01*
X705Y407D02*
X714Y407D01*
X942Y407D02*
X951Y407D01*
X1780Y407D02*
X1787Y407D01*
X0Y406D02*
X7Y406D01*
X705Y406D02*
X714Y406D01*
X942Y406D02*
X951Y406D01*
X1780Y406D02*
X1787Y406D01*
X0Y405D02*
X7Y405D01*
X705Y405D02*
X714Y405D01*
X942Y405D02*
X951Y405D01*
X1780Y405D02*
X1787Y405D01*
X0Y404D02*
X7Y404D01*
X705Y404D02*
X714Y404D01*
X942Y404D02*
X951Y404D01*
X1780Y404D02*
X1787Y404D01*
X0Y403D02*
X7Y403D01*
X705Y403D02*
X714Y403D01*
X942Y403D02*
X951Y403D01*
X1780Y403D02*
X1787Y403D01*
X0Y402D02*
X7Y402D01*
X705Y402D02*
X714Y402D01*
X942Y402D02*
X951Y402D01*
X1780Y402D02*
X1787Y402D01*
X0Y401D02*
X7Y401D01*
X705Y401D02*
X714Y401D01*
X942Y401D02*
X951Y401D01*
X1780Y401D02*
X1787Y401D01*
X0Y400D02*
X7Y400D01*
X705Y400D02*
X714Y400D01*
X942Y400D02*
X951Y400D01*
X1780Y400D02*
X1787Y400D01*
X0Y399D02*
X7Y399D01*
X705Y399D02*
X714Y399D01*
X942Y399D02*
X951Y399D01*
X1780Y399D02*
X1787Y399D01*
X0Y398D02*
X7Y398D01*
X238Y398D02*
X267Y398D01*
X290Y398D02*
X314Y398D01*
X705Y398D02*
X714Y398D01*
X942Y398D02*
X951Y398D01*
X1780Y398D02*
X1787Y398D01*
X0Y397D02*
X7Y397D01*
X237Y397D02*
X268Y397D01*
X288Y397D02*
X315Y397D01*
X705Y397D02*
X714Y397D01*
X942Y397D02*
X951Y397D01*
X1780Y397D02*
X1787Y397D01*
X0Y396D02*
X7Y396D01*
X236Y396D02*
X268Y396D01*
X287Y396D02*
X316Y396D01*
X705Y396D02*
X714Y396D01*
X942Y396D02*
X951Y396D01*
X1780Y396D02*
X1787Y396D01*
X0Y395D02*
X7Y395D01*
X235Y395D02*
X268Y395D01*
X286Y395D02*
X317Y395D01*
X705Y395D02*
X714Y395D01*
X942Y395D02*
X951Y395D01*
X1780Y395D02*
X1787Y395D01*
X0Y394D02*
X7Y394D01*
X235Y394D02*
X268Y394D01*
X286Y394D02*
X318Y394D01*
X705Y394D02*
X714Y394D01*
X942Y394D02*
X951Y394D01*
X1780Y394D02*
X1787Y394D01*
X0Y393D02*
X7Y393D01*
X235Y393D02*
X267Y393D01*
X285Y393D02*
X318Y393D01*
X705Y393D02*
X714Y393D01*
X942Y393D02*
X951Y393D01*
X1780Y393D02*
X1787Y393D01*
X0Y392D02*
X7Y392D01*
X235Y392D02*
X265Y392D01*
X285Y392D02*
X318Y392D01*
X705Y392D02*
X714Y392D01*
X942Y392D02*
X951Y392D01*
X1780Y392D02*
X1787Y392D01*
X0Y391D02*
X7Y391D01*
X235Y391D02*
X241Y391D01*
X285Y391D02*
X291Y391D01*
X312Y391D02*
X318Y391D01*
X705Y391D02*
X714Y391D01*
X942Y391D02*
X951Y391D01*
X1780Y391D02*
X1787Y391D01*
X0Y390D02*
X7Y390D01*
X235Y390D02*
X241Y390D01*
X285Y390D02*
X291Y390D01*
X312Y390D02*
X318Y390D01*
X705Y390D02*
X714Y390D01*
X942Y390D02*
X951Y390D01*
X1780Y390D02*
X1787Y390D01*
X0Y389D02*
X7Y389D01*
X235Y389D02*
X241Y389D01*
X285Y389D02*
X291Y389D01*
X311Y389D02*
X318Y389D01*
X705Y389D02*
X714Y389D01*
X942Y389D02*
X951Y389D01*
X1780Y389D02*
X1787Y389D01*
X0Y388D02*
X7Y388D01*
X235Y388D02*
X241Y388D01*
X285Y388D02*
X290Y388D01*
X310Y388D02*
X318Y388D01*
X705Y388D02*
X714Y388D01*
X942Y388D02*
X951Y388D01*
X1780Y388D02*
X1787Y388D01*
X0Y387D02*
X7Y387D01*
X235Y387D02*
X241Y387D01*
X286Y387D02*
X290Y387D01*
X309Y387D02*
X317Y387D01*
X705Y387D02*
X714Y387D01*
X942Y387D02*
X951Y387D01*
X1780Y387D02*
X1787Y387D01*
X0Y386D02*
X7Y386D01*
X235Y386D02*
X241Y386D01*
X309Y386D02*
X316Y386D01*
X705Y386D02*
X714Y386D01*
X942Y386D02*
X951Y386D01*
X1780Y386D02*
X1787Y386D01*
X0Y385D02*
X7Y385D01*
X235Y385D02*
X241Y385D01*
X308Y385D02*
X316Y385D01*
X705Y385D02*
X714Y385D01*
X942Y385D02*
X951Y385D01*
X1780Y385D02*
X1787Y385D01*
X0Y384D02*
X7Y384D01*
X235Y384D02*
X241Y384D01*
X307Y384D02*
X315Y384D01*
X705Y384D02*
X714Y384D01*
X942Y384D02*
X951Y384D01*
X1780Y384D02*
X1787Y384D01*
X0Y383D02*
X7Y383D01*
X235Y383D02*
X241Y383D01*
X306Y383D02*
X314Y383D01*
X705Y383D02*
X714Y383D01*
X942Y383D02*
X951Y383D01*
X1780Y383D02*
X1787Y383D01*
X0Y382D02*
X7Y382D01*
X235Y382D02*
X241Y382D01*
X305Y382D02*
X313Y382D01*
X705Y382D02*
X714Y382D01*
X942Y382D02*
X951Y382D01*
X1780Y382D02*
X1787Y382D01*
X0Y381D02*
X7Y381D01*
X235Y381D02*
X241Y381D01*
X305Y381D02*
X313Y381D01*
X705Y381D02*
X714Y381D01*
X942Y381D02*
X951Y381D01*
X1780Y381D02*
X1787Y381D01*
X0Y380D02*
X7Y380D01*
X235Y380D02*
X241Y380D01*
X304Y380D02*
X312Y380D01*
X705Y380D02*
X714Y380D01*
X942Y380D02*
X951Y380D01*
X1780Y380D02*
X1787Y380D01*
X0Y379D02*
X7Y379D01*
X235Y379D02*
X241Y379D01*
X303Y379D02*
X311Y379D01*
X705Y379D02*
X714Y379D01*
X942Y379D02*
X951Y379D01*
X1780Y379D02*
X1787Y379D01*
X0Y378D02*
X7Y378D01*
X235Y378D02*
X241Y378D01*
X302Y378D02*
X310Y378D01*
X705Y378D02*
X714Y378D01*
X942Y378D02*
X951Y378D01*
X1780Y378D02*
X1787Y378D01*
X0Y377D02*
X7Y377D01*
X235Y377D02*
X241Y377D01*
X302Y377D02*
X310Y377D01*
X705Y377D02*
X714Y377D01*
X942Y377D02*
X951Y377D01*
X1780Y377D02*
X1787Y377D01*
X0Y376D02*
X7Y376D01*
X235Y376D02*
X242Y376D01*
X301Y376D02*
X309Y376D01*
X705Y376D02*
X714Y376D01*
X942Y376D02*
X951Y376D01*
X1780Y376D02*
X1787Y376D01*
X0Y375D02*
X7Y375D01*
X235Y375D02*
X259Y375D01*
X300Y375D02*
X308Y375D01*
X705Y375D02*
X714Y375D01*
X942Y375D02*
X951Y375D01*
X1780Y375D02*
X1787Y375D01*
X0Y374D02*
X7Y374D01*
X236Y374D02*
X261Y374D01*
X299Y374D02*
X307Y374D01*
X705Y374D02*
X714Y374D01*
X942Y374D02*
X951Y374D01*
X1780Y374D02*
X1787Y374D01*
X0Y373D02*
X7Y373D01*
X237Y373D02*
X261Y373D01*
X298Y373D02*
X306Y373D01*
X705Y373D02*
X714Y373D01*
X942Y373D02*
X951Y373D01*
X1780Y373D02*
X1787Y373D01*
X0Y372D02*
X7Y372D01*
X237Y372D02*
X261Y372D01*
X298Y372D02*
X306Y372D01*
X705Y372D02*
X714Y372D01*
X942Y372D02*
X951Y372D01*
X1780Y372D02*
X1787Y372D01*
X0Y371D02*
X7Y371D01*
X237Y371D02*
X261Y371D01*
X297Y371D02*
X305Y371D01*
X705Y371D02*
X714Y371D01*
X942Y371D02*
X951Y371D01*
X1780Y371D02*
X1787Y371D01*
X0Y370D02*
X7Y370D01*
X236Y370D02*
X261Y370D01*
X296Y370D02*
X304Y370D01*
X705Y370D02*
X714Y370D01*
X942Y370D02*
X951Y370D01*
X1780Y370D02*
X1787Y370D01*
X0Y369D02*
X7Y369D01*
X236Y369D02*
X260Y369D01*
X295Y369D02*
X303Y369D01*
X705Y369D02*
X714Y369D01*
X942Y369D02*
X951Y369D01*
X1780Y369D02*
X1787Y369D01*
X0Y368D02*
X7Y368D01*
X235Y368D02*
X243Y368D01*
X295Y368D02*
X303Y368D01*
X705Y368D02*
X714Y368D01*
X942Y368D02*
X951Y368D01*
X1780Y368D02*
X1787Y368D01*
X0Y367D02*
X7Y367D01*
X235Y367D02*
X242Y367D01*
X294Y367D02*
X302Y367D01*
X705Y367D02*
X714Y367D01*
X942Y367D02*
X951Y367D01*
X1780Y367D02*
X1787Y367D01*
X0Y366D02*
X7Y366D01*
X235Y366D02*
X241Y366D01*
X293Y366D02*
X301Y366D01*
X705Y366D02*
X714Y366D01*
X942Y366D02*
X951Y366D01*
X1780Y366D02*
X1787Y366D01*
X0Y365D02*
X7Y365D01*
X235Y365D02*
X241Y365D01*
X292Y365D02*
X300Y365D01*
X705Y365D02*
X714Y365D01*
X942Y365D02*
X951Y365D01*
X1780Y365D02*
X1787Y365D01*
X0Y364D02*
X7Y364D01*
X235Y364D02*
X241Y364D01*
X291Y364D02*
X299Y364D01*
X705Y364D02*
X714Y364D01*
X942Y364D02*
X951Y364D01*
X1780Y364D02*
X1787Y364D01*
X0Y363D02*
X7Y363D01*
X235Y363D02*
X241Y363D01*
X291Y363D02*
X299Y363D01*
X705Y363D02*
X714Y363D01*
X942Y363D02*
X951Y363D01*
X1780Y363D02*
X1787Y363D01*
X0Y362D02*
X7Y362D01*
X235Y362D02*
X241Y362D01*
X290Y362D02*
X298Y362D01*
X1780Y362D02*
X1787Y362D01*
X0Y361D02*
X7Y361D01*
X235Y361D02*
X241Y361D01*
X289Y361D02*
X297Y361D01*
X1780Y361D02*
X1787Y361D01*
X0Y360D02*
X7Y360D01*
X235Y360D02*
X241Y360D01*
X288Y360D02*
X296Y360D01*
X1780Y360D02*
X1787Y360D01*
X0Y359D02*
X7Y359D01*
X235Y359D02*
X241Y359D01*
X288Y359D02*
X296Y359D01*
X1780Y359D02*
X1787Y359D01*
X0Y358D02*
X7Y358D01*
X287Y358D02*
X295Y358D01*
X1780Y358D02*
X1787Y358D01*
X0Y357D02*
X7Y357D01*
X286Y357D02*
X294Y357D01*
X314Y357D02*
X317Y357D01*
X1780Y357D02*
X1787Y357D01*
X0Y356D02*
X7Y356D01*
X285Y356D02*
X293Y356D01*
X313Y356D02*
X318Y356D01*
X1780Y356D02*
X1787Y356D01*
X0Y355D02*
X7Y355D01*
X285Y355D02*
X292Y355D01*
X312Y355D02*
X318Y355D01*
X1780Y355D02*
X1787Y355D01*
X0Y354D02*
X7Y354D01*
X285Y354D02*
X292Y354D01*
X312Y354D02*
X318Y354D01*
X1780Y354D02*
X1787Y354D01*
X0Y353D02*
X7Y353D01*
X285Y353D02*
X291Y353D01*
X312Y353D02*
X318Y353D01*
X1780Y353D02*
X1787Y353D01*
X0Y352D02*
X7Y352D01*
X285Y352D02*
X291Y352D01*
X311Y352D02*
X318Y352D01*
X1780Y352D02*
X1787Y352D01*
X0Y351D02*
X7Y351D01*
X262Y351D02*
X267Y351D01*
X285Y351D02*
X318Y351D01*
X1780Y351D02*
X1787Y351D01*
X0Y350D02*
X7Y350D01*
X264Y350D02*
X268Y350D01*
X285Y350D02*
X317Y350D01*
X1780Y350D02*
X1787Y350D01*
X0Y349D02*
X7Y349D01*
X265Y349D02*
X268Y349D01*
X286Y349D02*
X317Y349D01*
X1780Y349D02*
X1787Y349D01*
X0Y348D02*
X7Y348D01*
X266Y348D02*
X268Y348D01*
X286Y348D02*
X316Y348D01*
X1780Y348D02*
X1787Y348D01*
X0Y347D02*
X7Y347D01*
X267Y347D02*
X268Y347D01*
X287Y347D02*
X315Y347D01*
X1780Y347D02*
X1787Y347D01*
X0Y346D02*
X7Y346D01*
X288Y346D02*
X313Y346D01*
X1780Y346D02*
X1787Y346D01*
X0Y345D02*
X7Y345D01*
X291Y345D02*
X311Y345D01*
X1780Y345D02*
X1787Y345D01*
X0Y344D02*
X7Y344D01*
X1780Y344D02*
X1787Y344D01*
X0Y343D02*
X7Y343D01*
X1780Y343D02*
X1787Y343D01*
X0Y342D02*
X7Y342D01*
X1780Y342D02*
X1787Y342D01*
X0Y341D02*
X7Y341D01*
X1780Y341D02*
X1787Y341D01*
X0Y340D02*
X7Y340D01*
X1780Y340D02*
X1787Y340D01*
X0Y339D02*
X7Y339D01*
X1780Y339D02*
X1787Y339D01*
X0Y338D02*
X7Y338D01*
X1780Y338D02*
X1787Y338D01*
X0Y337D02*
X7Y337D01*
X1780Y337D02*
X1787Y337D01*
X0Y336D02*
X7Y336D01*
X1780Y336D02*
X1787Y336D01*
X0Y335D02*
X7Y335D01*
X1780Y335D02*
X1787Y335D01*
X0Y334D02*
X7Y334D01*
X1780Y334D02*
X1787Y334D01*
X0Y333D02*
X7Y333D01*
X1780Y333D02*
X1787Y333D01*
X0Y332D02*
X7Y332D01*
X1780Y332D02*
X1787Y332D01*
X0Y331D02*
X7Y331D01*
X1780Y331D02*
X1787Y331D01*
X0Y330D02*
X7Y330D01*
X1780Y330D02*
X1787Y330D01*
X0Y329D02*
X7Y329D01*
X1780Y329D02*
X1787Y329D01*
X0Y328D02*
X7Y328D01*
X1780Y328D02*
X1787Y328D01*
X0Y327D02*
X7Y327D01*
X1780Y327D02*
X1787Y327D01*
X0Y326D02*
X7Y326D01*
X1780Y326D02*
X1787Y326D01*
X0Y325D02*
X7Y325D01*
X1780Y325D02*
X1787Y325D01*
X0Y324D02*
X7Y324D01*
X1780Y324D02*
X1787Y324D01*
X0Y323D02*
X7Y323D01*
X1780Y323D02*
X1787Y323D01*
X0Y322D02*
X7Y322D01*
X1780Y322D02*
X1787Y322D01*
X0Y321D02*
X7Y321D01*
X1780Y321D02*
X1787Y321D01*
X0Y320D02*
X7Y320D01*
X1780Y320D02*
X1787Y320D01*
X0Y319D02*
X7Y319D01*
X1780Y319D02*
X1787Y319D01*
X0Y318D02*
X7Y318D01*
X1780Y318D02*
X1787Y318D01*
X0Y317D02*
X7Y317D01*
X1780Y317D02*
X1787Y317D01*
X0Y316D02*
X7Y316D01*
X1780Y316D02*
X1787Y316D01*
X0Y315D02*
X7Y315D01*
X1780Y315D02*
X1787Y315D01*
X0Y314D02*
X7Y314D01*
X1780Y314D02*
X1787Y314D01*
X0Y313D02*
X7Y313D01*
X1780Y313D02*
X1787Y313D01*
X0Y312D02*
X7Y312D01*
X1780Y312D02*
X1787Y312D01*
X0Y311D02*
X7Y311D01*
X1780Y311D02*
X1787Y311D01*
X0Y310D02*
X7Y310D01*
X1780Y310D02*
X1787Y310D01*
X0Y309D02*
X7Y309D01*
X1780Y309D02*
X1787Y309D01*
X0Y308D02*
X7Y308D01*
X1780Y308D02*
X1787Y308D01*
X0Y307D02*
X7Y307D01*
X1780Y307D02*
X1787Y307D01*
X0Y306D02*
X7Y306D01*
X1780Y306D02*
X1787Y306D01*
X0Y305D02*
X7Y305D01*
X1780Y305D02*
X1787Y305D01*
X0Y304D02*
X7Y304D01*
X1780Y304D02*
X1787Y304D01*
X0Y303D02*
X7Y303D01*
X1780Y303D02*
X1787Y303D01*
X0Y302D02*
X7Y302D01*
X1780Y302D02*
X1787Y302D01*
X0Y301D02*
X7Y301D01*
X1780Y301D02*
X1787Y301D01*
X0Y300D02*
X7Y300D01*
X1780Y300D02*
X1787Y300D01*
X0Y299D02*
X7Y299D01*
X1780Y299D02*
X1787Y299D01*
X0Y298D02*
X7Y298D01*
X1780Y298D02*
X1787Y298D01*
X0Y297D02*
X7Y297D01*
X1780Y297D02*
X1787Y297D01*
X0Y296D02*
X7Y296D01*
X1780Y296D02*
X1787Y296D01*
X0Y295D02*
X7Y295D01*
X1780Y295D02*
X1787Y295D01*
X0Y294D02*
X7Y294D01*
X1780Y294D02*
X1787Y294D01*
X0Y293D02*
X7Y293D01*
X1780Y293D02*
X1787Y293D01*
X0Y292D02*
X7Y292D01*
X1780Y292D02*
X1787Y292D01*
X0Y291D02*
X7Y291D01*
X1780Y291D02*
X1787Y291D01*
X0Y290D02*
X7Y290D01*
X1780Y290D02*
X1787Y290D01*
X0Y289D02*
X7Y289D01*
X1780Y289D02*
X1787Y289D01*
X0Y288D02*
X7Y288D01*
X1780Y288D02*
X1787Y288D01*
X0Y287D02*
X7Y287D01*
X1780Y287D02*
X1787Y287D01*
X0Y286D02*
X7Y286D01*
X1780Y286D02*
X1787Y286D01*
X0Y285D02*
X7Y285D01*
X1780Y285D02*
X1787Y285D01*
X0Y284D02*
X7Y284D01*
X1780Y284D02*
X1787Y284D01*
X0Y283D02*
X7Y283D01*
X1780Y283D02*
X1787Y283D01*
X0Y282D02*
X7Y282D01*
X1780Y282D02*
X1787Y282D01*
X0Y281D02*
X7Y281D01*
X1780Y281D02*
X1787Y281D01*
X0Y280D02*
X7Y280D01*
X1780Y280D02*
X1787Y280D01*
X0Y279D02*
X7Y279D01*
X1780Y279D02*
X1787Y279D01*
X0Y278D02*
X7Y278D01*
X1780Y278D02*
X1787Y278D01*
X0Y277D02*
X7Y277D01*
X1780Y277D02*
X1787Y277D01*
X0Y276D02*
X7Y276D01*
X1780Y276D02*
X1787Y276D01*
X0Y275D02*
X7Y275D01*
X1780Y275D02*
X1787Y275D01*
X0Y274D02*
X7Y274D01*
X1780Y274D02*
X1787Y274D01*
X0Y273D02*
X7Y273D01*
X1780Y273D02*
X1787Y273D01*
X0Y272D02*
X7Y272D01*
X1780Y272D02*
X1787Y272D01*
X0Y271D02*
X7Y271D01*
X1780Y271D02*
X1787Y271D01*
X0Y270D02*
X7Y270D01*
X1780Y270D02*
X1787Y270D01*
X0Y269D02*
X7Y269D01*
X1780Y269D02*
X1787Y269D01*
X0Y268D02*
X7Y268D01*
X1780Y268D02*
X1787Y268D01*
X0Y267D02*
X7Y267D01*
X1780Y267D02*
X1787Y267D01*
X0Y266D02*
X7Y266D01*
X1780Y266D02*
X1787Y266D01*
X0Y265D02*
X7Y265D01*
X1780Y265D02*
X1787Y265D01*
X0Y264D02*
X7Y264D01*
X1780Y264D02*
X1787Y264D01*
X0Y263D02*
X7Y263D01*
X1780Y263D02*
X1787Y263D01*
X0Y262D02*
X7Y262D01*
X1780Y262D02*
X1787Y262D01*
X0Y261D02*
X7Y261D01*
X1780Y261D02*
X1787Y261D01*
X0Y260D02*
X7Y260D01*
X1780Y260D02*
X1787Y260D01*
X0Y259D02*
X7Y259D01*
X1780Y259D02*
X1787Y259D01*
X0Y258D02*
X7Y258D01*
X1780Y258D02*
X1787Y258D01*
X0Y257D02*
X7Y257D01*
X1780Y257D02*
X1787Y257D01*
X0Y256D02*
X7Y256D01*
X1780Y256D02*
X1787Y256D01*
X0Y255D02*
X7Y255D01*
X1780Y255D02*
X1787Y255D01*
X0Y254D02*
X7Y254D01*
X1780Y254D02*
X1787Y254D01*
X0Y253D02*
X7Y253D01*
X1780Y253D02*
X1787Y253D01*
X0Y252D02*
X7Y252D01*
X1780Y252D02*
X1787Y252D01*
X0Y251D02*
X7Y251D01*
X1780Y251D02*
X1787Y251D01*
X0Y250D02*
X7Y250D01*
X1780Y250D02*
X1787Y250D01*
X0Y249D02*
X7Y249D01*
X1780Y249D02*
X1787Y249D01*
X0Y248D02*
X7Y248D01*
X1780Y248D02*
X1787Y248D01*
X0Y247D02*
X7Y247D01*
X1780Y247D02*
X1787Y247D01*
X0Y246D02*
X7Y246D01*
X1780Y246D02*
X1787Y246D01*
X0Y245D02*
X7Y245D01*
X1780Y245D02*
X1787Y245D01*
X0Y244D02*
X7Y244D01*
X1780Y244D02*
X1787Y244D01*
X0Y243D02*
X7Y243D01*
X1780Y243D02*
X1787Y243D01*
X0Y242D02*
X7Y242D01*
X1780Y242D02*
X1787Y242D01*
X0Y241D02*
X7Y241D01*
X1780Y241D02*
X1787Y241D01*
X0Y240D02*
X7Y240D01*
X1780Y240D02*
X1787Y240D01*
X0Y239D02*
X7Y239D01*
X1780Y239D02*
X1787Y239D01*
X0Y238D02*
X7Y238D01*
X1780Y238D02*
X1787Y238D01*
X0Y237D02*
X7Y237D01*
X1780Y237D02*
X1787Y237D01*
X0Y236D02*
X7Y236D01*
X1780Y236D02*
X1787Y236D01*
X0Y235D02*
X7Y235D01*
X1780Y235D02*
X1787Y235D01*
X0Y234D02*
X7Y234D01*
X1780Y234D02*
X1787Y234D01*
X0Y233D02*
X7Y233D01*
X1780Y233D02*
X1787Y233D01*
X0Y232D02*
X7Y232D01*
X1780Y232D02*
X1787Y232D01*
X0Y231D02*
X7Y231D01*
X1780Y231D02*
X1787Y231D01*
X0Y230D02*
X7Y230D01*
X1780Y230D02*
X1787Y230D01*
X0Y229D02*
X7Y229D01*
X1780Y229D02*
X1787Y229D01*
X0Y228D02*
X7Y228D01*
X1780Y228D02*
X1787Y228D01*
X0Y227D02*
X7Y227D01*
X1780Y227D02*
X1787Y227D01*
X0Y226D02*
X7Y226D01*
X1780Y226D02*
X1787Y226D01*
X0Y225D02*
X7Y225D01*
X1780Y225D02*
X1787Y225D01*
X0Y224D02*
X7Y224D01*
X1780Y224D02*
X1787Y224D01*
X0Y223D02*
X7Y223D01*
X1780Y223D02*
X1787Y223D01*
X0Y222D02*
X7Y222D01*
X1780Y222D02*
X1787Y222D01*
X0Y221D02*
X7Y221D01*
X1780Y221D02*
X1787Y221D01*
X0Y220D02*
X7Y220D01*
X1780Y220D02*
X1787Y220D01*
X0Y219D02*
X7Y219D01*
X1780Y219D02*
X1787Y219D01*
X0Y218D02*
X7Y218D01*
X1780Y218D02*
X1787Y218D01*
X0Y217D02*
X7Y217D01*
X1780Y217D02*
X1787Y217D01*
X0Y216D02*
X7Y216D01*
X1780Y216D02*
X1787Y216D01*
X0Y215D02*
X7Y215D01*
X1780Y215D02*
X1787Y215D01*
X0Y214D02*
X7Y214D01*
X1780Y214D02*
X1787Y214D01*
X0Y213D02*
X7Y213D01*
X1780Y213D02*
X1787Y213D01*
X0Y212D02*
X7Y212D01*
X1780Y212D02*
X1787Y212D01*
X0Y211D02*
X7Y211D01*
X1780Y211D02*
X1787Y211D01*
X0Y210D02*
X7Y210D01*
X1780Y210D02*
X1787Y210D01*
X0Y209D02*
X7Y209D01*
X1780Y209D02*
X1787Y209D01*
X0Y208D02*
X7Y208D01*
X1780Y208D02*
X1787Y208D01*
X0Y207D02*
X7Y207D01*
X1780Y207D02*
X1787Y207D01*
X0Y206D02*
X7Y206D01*
X1780Y206D02*
X1787Y206D01*
X0Y205D02*
X7Y205D01*
X1780Y205D02*
X1787Y205D01*
X0Y204D02*
X7Y204D01*
X1780Y204D02*
X1787Y204D01*
X0Y203D02*
X7Y203D01*
X1780Y203D02*
X1787Y203D01*
X0Y202D02*
X7Y202D01*
X1780Y202D02*
X1787Y202D01*
X0Y201D02*
X7Y201D01*
X1780Y201D02*
X1787Y201D01*
X0Y200D02*
X7Y200D01*
X1780Y200D02*
X1787Y200D01*
X0Y199D02*
X7Y199D01*
X1780Y199D02*
X1787Y199D01*
X0Y198D02*
X7Y198D01*
X1780Y198D02*
X1787Y198D01*
X0Y197D02*
X7Y197D01*
X1780Y197D02*
X1787Y197D01*
X0Y196D02*
X7Y196D01*
X1780Y196D02*
X1787Y196D01*
X0Y195D02*
X7Y195D01*
X1780Y195D02*
X1787Y195D01*
X0Y194D02*
X7Y194D01*
X1780Y194D02*
X1787Y194D01*
X0Y193D02*
X7Y193D01*
X1780Y193D02*
X1787Y193D01*
X0Y192D02*
X7Y192D01*
X1780Y192D02*
X1787Y192D01*
X0Y191D02*
X7Y191D01*
X1780Y191D02*
X1787Y191D01*
X0Y190D02*
X7Y190D01*
X1780Y190D02*
X1787Y190D01*
X0Y189D02*
X7Y189D01*
X1780Y189D02*
X1787Y189D01*
X0Y188D02*
X7Y188D01*
X1780Y188D02*
X1787Y188D01*
X0Y187D02*
X7Y187D01*
X1780Y187D02*
X1787Y187D01*
X0Y186D02*
X7Y186D01*
X1780Y186D02*
X1787Y186D01*
X0Y185D02*
X7Y185D01*
X1780Y185D02*
X1787Y185D01*
X0Y184D02*
X7Y184D01*
X1780Y184D02*
X1787Y184D01*
X0Y183D02*
X7Y183D01*
X1780Y183D02*
X1787Y183D01*
X0Y182D02*
X7Y182D01*
X1780Y182D02*
X1787Y182D01*
X0Y181D02*
X7Y181D01*
X1780Y181D02*
X1787Y181D01*
X0Y180D02*
X7Y180D01*
X1780Y180D02*
X1787Y180D01*
X0Y179D02*
X7Y179D01*
X1780Y179D02*
X1787Y179D01*
X0Y178D02*
X7Y178D01*
X1780Y178D02*
X1787Y178D01*
X0Y177D02*
X7Y177D01*
X1780Y177D02*
X1787Y177D01*
X0Y176D02*
X7Y176D01*
X1780Y176D02*
X1787Y176D01*
X0Y175D02*
X7Y175D01*
X1780Y175D02*
X1787Y175D01*
X0Y174D02*
X7Y174D01*
X1780Y174D02*
X1787Y174D01*
X0Y173D02*
X7Y173D01*
X1780Y173D02*
X1787Y173D01*
X0Y172D02*
X7Y172D01*
X1780Y172D02*
X1787Y172D01*
X0Y171D02*
X7Y171D01*
X1780Y171D02*
X1787Y171D01*
X0Y170D02*
X7Y170D01*
X1780Y170D02*
X1787Y170D01*
X0Y169D02*
X7Y169D01*
X1780Y169D02*
X1787Y169D01*
X0Y168D02*
X7Y168D01*
X1780Y168D02*
X1787Y168D01*
X0Y167D02*
X7Y167D01*
X1780Y167D02*
X1787Y167D01*
X0Y166D02*
X7Y166D01*
X1780Y166D02*
X1787Y166D01*
X0Y165D02*
X7Y165D01*
X1780Y165D02*
X1787Y165D01*
X0Y164D02*
X7Y164D01*
X1780Y164D02*
X1787Y164D01*
X0Y163D02*
X7Y163D01*
X1780Y163D02*
X1787Y163D01*
X0Y162D02*
X7Y162D01*
X1780Y162D02*
X1787Y162D01*
X0Y161D02*
X7Y161D01*
X1780Y161D02*
X1787Y161D01*
X0Y160D02*
X7Y160D01*
X1780Y160D02*
X1787Y160D01*
X0Y159D02*
X7Y159D01*
X1780Y159D02*
X1787Y159D01*
X0Y158D02*
X7Y158D01*
X1780Y158D02*
X1787Y158D01*
X0Y157D02*
X7Y157D01*
X1780Y157D02*
X1787Y157D01*
X0Y156D02*
X7Y156D01*
X1780Y156D02*
X1787Y156D01*
X0Y155D02*
X7Y155D01*
X1780Y155D02*
X1787Y155D01*
X0Y154D02*
X7Y154D01*
X1780Y154D02*
X1787Y154D01*
X0Y153D02*
X7Y153D01*
X1780Y153D02*
X1787Y153D01*
X0Y152D02*
X7Y152D01*
X1780Y152D02*
X1787Y152D01*
X0Y151D02*
X7Y151D01*
X1780Y151D02*
X1787Y151D01*
X0Y150D02*
X7Y150D01*
X1780Y150D02*
X1787Y150D01*
X0Y149D02*
X7Y149D01*
X1780Y149D02*
X1787Y149D01*
X0Y148D02*
X7Y148D01*
X1780Y148D02*
X1787Y148D01*
X0Y147D02*
X7Y147D01*
X1780Y147D02*
X1787Y147D01*
X0Y146D02*
X7Y146D01*
X1780Y146D02*
X1787Y146D01*
X0Y145D02*
X7Y145D01*
X1780Y145D02*
X1787Y145D01*
X0Y144D02*
X7Y144D01*
X1780Y144D02*
X1787Y144D01*
X0Y143D02*
X7Y143D01*
X1780Y143D02*
X1787Y143D01*
X0Y142D02*
X7Y142D01*
X1780Y142D02*
X1787Y142D01*
X0Y141D02*
X7Y141D01*
X1780Y141D02*
X1787Y141D01*
X0Y140D02*
X7Y140D01*
X1780Y140D02*
X1787Y140D01*
X0Y139D02*
X7Y139D01*
X1780Y139D02*
X1787Y139D01*
X0Y138D02*
X7Y138D01*
X1780Y138D02*
X1787Y138D01*
X0Y137D02*
X7Y137D01*
X1780Y137D02*
X1787Y137D01*
X0Y136D02*
X7Y136D01*
X1780Y136D02*
X1787Y136D01*
X0Y135D02*
X7Y135D01*
X1780Y135D02*
X1787Y135D01*
X0Y134D02*
X7Y134D01*
X1780Y134D02*
X1787Y134D01*
X0Y133D02*
X7Y133D01*
X1780Y133D02*
X1787Y133D01*
X0Y132D02*
X7Y132D01*
X1780Y132D02*
X1787Y132D01*
X0Y131D02*
X7Y131D01*
X1780Y131D02*
X1787Y131D01*
X0Y130D02*
X7Y130D01*
X1780Y130D02*
X1787Y130D01*
X0Y129D02*
X7Y129D01*
X1780Y129D02*
X1787Y129D01*
X0Y128D02*
X7Y128D01*
X1780Y128D02*
X1787Y128D01*
X0Y127D02*
X7Y127D01*
X1780Y127D02*
X1787Y127D01*
X0Y126D02*
X7Y126D01*
X1780Y126D02*
X1787Y126D01*
X0Y125D02*
X7Y125D01*
X1780Y125D02*
X1787Y125D01*
X0Y124D02*
X7Y124D01*
X1780Y124D02*
X1787Y124D01*
X0Y123D02*
X7Y123D01*
X1780Y123D02*
X1787Y123D01*
X0Y122D02*
X7Y122D01*
X1780Y122D02*
X1787Y122D01*
X0Y121D02*
X7Y121D01*
X1780Y121D02*
X1787Y121D01*
X0Y120D02*
X7Y120D01*
X1780Y120D02*
X1787Y120D01*
X0Y119D02*
X7Y119D01*
X1780Y119D02*
X1787Y119D01*
X0Y118D02*
X7Y118D01*
X1780Y118D02*
X1787Y118D01*
X0Y117D02*
X7Y117D01*
X1780Y117D02*
X1787Y117D01*
X0Y116D02*
X7Y116D01*
X1780Y116D02*
X1787Y116D01*
X0Y115D02*
X7Y115D01*
X1780Y115D02*
X1787Y115D01*
X0Y114D02*
X7Y114D01*
X1780Y114D02*
X1787Y114D01*
X0Y113D02*
X7Y113D01*
X1780Y113D02*
X1787Y113D01*
X0Y112D02*
X7Y112D01*
X1780Y112D02*
X1787Y112D01*
X0Y111D02*
X7Y111D01*
X1780Y111D02*
X1787Y111D01*
X0Y110D02*
X7Y110D01*
X1780Y110D02*
X1787Y110D01*
X0Y109D02*
X7Y109D01*
X1780Y109D02*
X1787Y109D01*
X0Y108D02*
X7Y108D01*
X1780Y108D02*
X1787Y108D01*
X0Y107D02*
X7Y107D01*
X1780Y107D02*
X1787Y107D01*
X0Y106D02*
X7Y106D01*
X1780Y106D02*
X1787Y106D01*
X0Y105D02*
X7Y105D01*
X1780Y105D02*
X1787Y105D01*
X0Y104D02*
X7Y104D01*
X1780Y104D02*
X1787Y104D01*
X0Y103D02*
X7Y103D01*
X1780Y103D02*
X1787Y103D01*
X0Y102D02*
X7Y102D01*
X1780Y102D02*
X1787Y102D01*
X0Y101D02*
X7Y101D01*
X1780Y101D02*
X1787Y101D01*
X0Y100D02*
X7Y100D01*
X1780Y100D02*
X1787Y100D01*
X0Y99D02*
X7Y99D01*
X1780Y99D02*
X1787Y99D01*
X0Y98D02*
X7Y98D01*
X1780Y98D02*
X1787Y98D01*
X0Y97D02*
X7Y97D01*
X1780Y97D02*
X1787Y97D01*
X0Y96D02*
X7Y96D01*
X1780Y96D02*
X1787Y96D01*
X0Y95D02*
X7Y95D01*
X1780Y95D02*
X1787Y95D01*
X0Y94D02*
X7Y94D01*
X1780Y94D02*
X1787Y94D01*
X0Y93D02*
X7Y93D01*
X1780Y93D02*
X1787Y93D01*
X0Y92D02*
X7Y92D01*
X1780Y92D02*
X1787Y92D01*
X0Y91D02*
X7Y91D01*
X1780Y91D02*
X1787Y91D01*
X0Y90D02*
X7Y90D01*
X1780Y90D02*
X1787Y90D01*
X0Y89D02*
X7Y89D01*
X1780Y89D02*
X1787Y89D01*
X0Y88D02*
X7Y88D01*
X1780Y88D02*
X1787Y88D01*
X0Y87D02*
X7Y87D01*
X1780Y87D02*
X1787Y87D01*
X0Y86D02*
X7Y86D01*
X1780Y86D02*
X1787Y86D01*
X0Y85D02*
X7Y85D01*
X1780Y85D02*
X1787Y85D01*
X0Y84D02*
X7Y84D01*
X1780Y84D02*
X1787Y84D01*
X0Y83D02*
X7Y83D01*
X1780Y83D02*
X1787Y83D01*
X0Y82D02*
X7Y82D01*
X1780Y82D02*
X1787Y82D01*
X0Y81D02*
X7Y81D01*
X1780Y81D02*
X1787Y81D01*
X0Y80D02*
X7Y80D01*
X1780Y80D02*
X1787Y80D01*
X0Y79D02*
X7Y79D01*
X1780Y79D02*
X1787Y79D01*
X0Y78D02*
X7Y78D01*
X1780Y78D02*
X1787Y78D01*
X0Y77D02*
X7Y77D01*
X1780Y77D02*
X1787Y77D01*
X0Y76D02*
X7Y76D01*
X1780Y76D02*
X1787Y76D01*
X0Y75D02*
X7Y75D01*
X1780Y75D02*
X1787Y75D01*
X0Y74D02*
X7Y74D01*
X1780Y74D02*
X1787Y74D01*
X0Y73D02*
X7Y73D01*
X1780Y73D02*
X1787Y73D01*
X0Y72D02*
X7Y72D01*
X1780Y72D02*
X1787Y72D01*
X0Y71D02*
X7Y71D01*
X1780Y71D02*
X1787Y71D01*
X0Y70D02*
X7Y70D01*
X1780Y70D02*
X1787Y70D01*
X0Y69D02*
X7Y69D01*
X1780Y69D02*
X1787Y69D01*
X0Y68D02*
X7Y68D01*
X1780Y68D02*
X1787Y68D01*
X0Y67D02*
X7Y67D01*
X1780Y67D02*
X1787Y67D01*
X0Y66D02*
X7Y66D01*
X1780Y66D02*
X1787Y66D01*
X0Y65D02*
X7Y65D01*
X1780Y65D02*
X1787Y65D01*
X0Y64D02*
X7Y64D01*
X1780Y64D02*
X1787Y64D01*
X0Y63D02*
X7Y63D01*
X1780Y63D02*
X1787Y63D01*
X0Y62D02*
X7Y62D01*
X1780Y62D02*
X1787Y62D01*
X0Y61D02*
X7Y61D01*
X1780Y61D02*
X1787Y61D01*
X0Y60D02*
X7Y60D01*
X1780Y60D02*
X1787Y60D01*
X0Y59D02*
X7Y59D01*
X1780Y59D02*
X1787Y59D01*
X0Y58D02*
X7Y58D01*
X1780Y58D02*
X1787Y58D01*
X0Y57D02*
X7Y57D01*
X1780Y57D02*
X1787Y57D01*
X0Y56D02*
X7Y56D01*
X1780Y56D02*
X1787Y56D01*
X0Y55D02*
X7Y55D01*
X1780Y55D02*
X1787Y55D01*
X0Y54D02*
X7Y54D01*
X1780Y54D02*
X1787Y54D01*
X0Y53D02*
X7Y53D01*
X1780Y53D02*
X1787Y53D01*
X0Y52D02*
X7Y52D01*
X1780Y52D02*
X1787Y52D01*
X0Y51D02*
X7Y51D01*
X1780Y51D02*
X1787Y51D01*
X0Y50D02*
X7Y50D01*
X1780Y50D02*
X1787Y50D01*
X0Y49D02*
X7Y49D01*
X1780Y49D02*
X1787Y49D01*
X0Y48D02*
X7Y48D01*
X1780Y48D02*
X1787Y48D01*
X0Y47D02*
X7Y47D01*
X1780Y47D02*
X1787Y47D01*
X0Y46D02*
X7Y46D01*
X1780Y46D02*
X1787Y46D01*
X0Y45D02*
X7Y45D01*
X1780Y45D02*
X1787Y45D01*
X0Y44D02*
X7Y44D01*
X1780Y44D02*
X1787Y44D01*
X0Y43D02*
X7Y43D01*
X1780Y43D02*
X1787Y43D01*
X0Y42D02*
X7Y42D01*
X1780Y42D02*
X1787Y42D01*
X0Y41D02*
X7Y41D01*
X1780Y41D02*
X1787Y41D01*
X0Y40D02*
X7Y40D01*
X1780Y40D02*
X1787Y40D01*
X0Y39D02*
X7Y39D01*
X1780Y39D02*
X1787Y39D01*
X0Y38D02*
X7Y38D01*
X1780Y38D02*
X1787Y38D01*
X0Y37D02*
X7Y37D01*
X1780Y37D02*
X1787Y37D01*
X0Y36D02*
X7Y36D01*
X1780Y36D02*
X1787Y36D01*
X0Y35D02*
X7Y35D01*
X1780Y35D02*
X1787Y35D01*
X0Y34D02*
X7Y34D01*
X1780Y34D02*
X1787Y34D01*
X0Y33D02*
X7Y33D01*
X1780Y33D02*
X1787Y33D01*
X0Y32D02*
X7Y32D01*
X1780Y32D02*
X1787Y32D01*
X0Y31D02*
X7Y31D01*
X1780Y31D02*
X1787Y31D01*
X0Y30D02*
X7Y30D01*
X1780Y30D02*
X1787Y30D01*
X0Y29D02*
X7Y29D01*
X1780Y29D02*
X1787Y29D01*
X0Y28D02*
X7Y28D01*
X1780Y28D02*
X1787Y28D01*
X0Y27D02*
X7Y27D01*
X1780Y27D02*
X1787Y27D01*
X0Y26D02*
X7Y26D01*
X1780Y26D02*
X1787Y26D01*
X0Y25D02*
X7Y25D01*
X1780Y25D02*
X1787Y25D01*
X0Y24D02*
X7Y24D01*
X1780Y24D02*
X1787Y24D01*
X0Y23D02*
X7Y23D01*
X1780Y23D02*
X1787Y23D01*
X0Y22D02*
X7Y22D01*
X1780Y22D02*
X1787Y22D01*
X0Y21D02*
X7Y21D01*
X1780Y21D02*
X1787Y21D01*
X0Y20D02*
X7Y20D01*
X1780Y20D02*
X1787Y20D01*
X0Y19D02*
X7Y19D01*
X1780Y19D02*
X1787Y19D01*
X0Y18D02*
X7Y18D01*
X1780Y18D02*
X1787Y18D01*
X0Y17D02*
X7Y17D01*
X1780Y17D02*
X1787Y17D01*
X0Y16D02*
X7Y16D01*
X1780Y16D02*
X1787Y16D01*
X0Y15D02*
X7Y15D01*
X1780Y15D02*
X1787Y15D01*
X0Y14D02*
X7Y14D01*
X1780Y14D02*
X1787Y14D01*
X0Y13D02*
X7Y13D01*
X1780Y13D02*
X1787Y13D01*
X0Y12D02*
X7Y12D01*
X1780Y12D02*
X1787Y12D01*
X0Y11D02*
X7Y11D01*
X1780Y11D02*
X1787Y11D01*
X0Y10D02*
X7Y10D01*
X1780Y10D02*
X1787Y10D01*
X0Y9D02*
X7Y9D01*
X1780Y9D02*
X1787Y9D01*
X0Y8D02*
X1787Y8D01*
X0Y7D02*
X1787Y7D01*
X0Y6D02*
X1787Y6D01*
X0Y5D02*
X1787Y5D01*
X0Y4D02*
X1787Y4D01*
X0Y3D02*
X1787Y3D01*
X0Y2D02*
X1787Y2D01*
X0Y1D02*
X1787Y1D01*
D02*
G04 End of Silk0*
M02*