; NON-PLATED HOLES START AT T1
; THROUGH (PLATED) HOLES START AT T100
M48
INCH
T1C0.125984
T100C0.038000
T101C0.015748
T102C0.030556
T103C0.042000
T104C0.040255
T105C0.036000
T106C0.035000
%
T1
X000973Y019583
X017173Y019583
X000973Y000883
X017173Y000883
T100
X007973Y001483
X003873Y017783
X009173Y002483
X007973Y002483
X000973Y008883
X000973Y010883
X000973Y009883
X000973Y011883
X003873Y015983
X009173Y001483
X002873Y015983
X002873Y017783
T101
X009277Y009587
X010273Y008183
X011871Y016682
X011973Y005683
X009772Y016682
X013073Y006183
X011873Y014183
X002473Y014483
X005473Y012983
X004873Y010083
X006573Y006183
X004873Y014483
X015573Y007683
X014873Y006183
X009277Y010381
X015573Y011183
X004872Y011178
T102
X000940Y016359
X000940Y018358
X000974Y015484
X000974Y013485
X000939Y017357
X000973Y014483
T103
X007760Y013983
X008760Y013983
X006760Y013983
T104
X006260Y012183
X009279Y011183
X008273Y012183
X006260Y011183
X008273Y011183
X009279Y012183
X007267Y012183
X007267Y011183
T105
X011173Y017183
X017173Y012183
X011173Y007183
X011173Y008183
X017173Y007183
X017173Y004183
X017173Y017183
X017173Y015183
X017173Y010183
X011173Y010183
X017173Y009183
X017173Y006183
X017173Y003183
X011173Y015183
X017173Y005183
X017173Y016183
X017173Y011183
X017173Y008183
X011173Y006183
X011173Y009183
X011173Y014183
X011173Y005183
X011173Y003183
X011173Y011183
X017173Y013183
X011173Y013183
X011173Y004183
X011173Y012183
X011173Y016183
X017173Y014183
T106
X007245Y015824
X004001Y004883
X004001Y002324
X013073Y007183
X000608Y004618
X008273Y015824
X005473Y015824
X005473Y018383
X007401Y004583
X005773Y004883
X007401Y007142
X014173Y013183
X000608Y007177
X009173Y004583
X008273Y018383
X014173Y017183
X010045Y015824
X012673Y017183
X005773Y009583
X014845Y004624
X005773Y007024
X015673Y013183
X010045Y018383
X005773Y002324
X014845Y007183
X002379Y007177
X013073Y004624
X002379Y004618
X004001Y007024
X012673Y013183
X007245Y018383
X009173Y007142
X004001Y009583
X015673Y017183
T00
M30
