G04 MADE WITH FRITZING*
G04 WWW.FRITZING.ORG*
G04 DOUBLE SIDED*
G04 HOLES PLATED*
G04 CONTOUR ON CENTER OF CONTOUR VECTOR*
%ASAXBY*%
%FSLAX23Y23*%
%MOIN*%
%OFA0B0*%
%SFA1.0B1.0*%
%ADD10C,0.075000*%
%ADD11C,0.082000*%
%ADD12C,0.069444*%
%ADD13C,0.070000*%
%ADD14C,0.074472*%
%ADD15C,0.078000*%
%ADD16C,0.039370*%
%ADD17R,0.082000X0.082000*%
%ADD18R,0.069972X0.070000*%
%ADD19R,0.074472X0.074108*%
%ADD20C,0.012000*%
%LNCOPPER1*%
G90*
G70*
G54D10*
X238Y462D03*
X238Y718D03*
X61Y462D03*
X61Y718D03*
X238Y462D03*
X238Y718D03*
X61Y462D03*
X61Y718D03*
X400Y958D03*
X400Y702D03*
X577Y958D03*
X577Y702D03*
X400Y958D03*
X400Y702D03*
X577Y958D03*
X577Y702D03*
X400Y488D03*
X400Y232D03*
X577Y488D03*
X577Y232D03*
X400Y488D03*
X400Y232D03*
X577Y488D03*
X577Y232D03*
X740Y714D03*
X740Y458D03*
X917Y714D03*
X917Y458D03*
X740Y714D03*
X740Y458D03*
X917Y714D03*
X917Y458D03*
X1485Y462D03*
X1485Y718D03*
X1307Y462D03*
X1307Y718D03*
X1485Y462D03*
X1485Y718D03*
X1307Y462D03*
X1307Y718D03*
G54D11*
X676Y1398D03*
X776Y1398D03*
X876Y1398D03*
G54D12*
X97Y1548D03*
X97Y1448D03*
X97Y1349D03*
X94Y1836D03*
X94Y1736D03*
X94Y1636D03*
G54D13*
X1717Y318D03*
X1717Y418D03*
X1717Y518D03*
X1717Y618D03*
X1717Y718D03*
X1717Y818D03*
X1717Y918D03*
X1717Y1018D03*
X1717Y1118D03*
X1717Y1218D03*
X1717Y1318D03*
X1717Y1418D03*
X1717Y1518D03*
X1717Y1618D03*
X1717Y1718D03*
X1117Y318D03*
X1117Y418D03*
X1117Y518D03*
X1117Y618D03*
X1117Y718D03*
X1117Y818D03*
X1117Y918D03*
X1117Y1018D03*
X1117Y1118D03*
X1117Y1218D03*
X1117Y1318D03*
X1117Y1418D03*
X1117Y1518D03*
X1117Y1618D03*
X1117Y1718D03*
G54D10*
X1417Y1718D03*
X1417Y1318D03*
X1567Y1718D03*
X1567Y1318D03*
X1267Y1718D03*
X1267Y1318D03*
X725Y1582D03*
X725Y1838D03*
X547Y1582D03*
X547Y1838D03*
X725Y1582D03*
X725Y1838D03*
X547Y1582D03*
X547Y1838D03*
X1005Y1582D03*
X1005Y1838D03*
X827Y1582D03*
X827Y1838D03*
X1005Y1582D03*
X1005Y1838D03*
X827Y1582D03*
X827Y1838D03*
G54D14*
X928Y1118D03*
X928Y1218D03*
X827Y1118D03*
X827Y1218D03*
X727Y1118D03*
X727Y1218D03*
X626Y1118D03*
X626Y1218D03*
X928Y1118D03*
X928Y1218D03*
X827Y1118D03*
X827Y1218D03*
X727Y1118D03*
X727Y1218D03*
X626Y1118D03*
X626Y1218D03*
G54D15*
X287Y1598D03*
X387Y1598D03*
X287Y1778D03*
X387Y1778D03*
X97Y888D03*
X97Y988D03*
X97Y1088D03*
X97Y1188D03*
G54D16*
X547Y1298D03*
X1187Y1418D03*
X1027Y818D03*
X1197Y568D03*
X1557Y768D03*
X1557Y1118D03*
X487Y1448D03*
X247Y1448D03*
X657Y618D03*
X487Y1008D03*
X1307Y618D03*
X1487Y618D03*
X928Y1038D03*
X928Y959D03*
X977Y1668D03*
X1187Y1668D03*
X487Y1118D03*
G54D15*
X797Y248D03*
X797Y148D03*
X917Y248D03*
X917Y148D03*
G54D17*
X676Y1398D03*
G54D18*
X1717Y318D03*
G54D19*
X928Y1118D03*
X928Y1118D03*
X626Y1118D03*
G54D20*
X827Y1244D02*
X827Y1299D01*
D02*
X1017Y1269D02*
X1417Y1269D01*
D02*
X1017Y1298D02*
X1017Y1269D01*
D02*
X827Y1299D02*
X1017Y1298D01*
D02*
X1417Y1269D02*
X1417Y1295D01*
D02*
X1608Y718D02*
X1608Y1219D01*
D02*
X1508Y718D02*
X1608Y718D01*
D02*
X1608Y1219D02*
X1694Y1218D01*
D02*
X687Y918D02*
X687Y1048D01*
D02*
X687Y1048D02*
X217Y1048D01*
D02*
X217Y1048D02*
X217Y1088D01*
D02*
X217Y1088D02*
X122Y1088D01*
D02*
X1094Y918D02*
X687Y918D01*
D02*
X427Y1508D02*
X427Y1338D01*
D02*
X288Y1508D02*
X427Y1508D01*
D02*
X288Y1574D02*
X288Y1508D01*
D02*
X1027Y1338D02*
X1094Y1324D01*
D02*
X427Y1338D02*
X1027Y1338D01*
D02*
X1544Y1718D02*
X1440Y1718D01*
D02*
X903Y1398D02*
X1017Y1399D01*
D02*
X1017Y1468D02*
X1417Y1468D01*
D02*
X1017Y1399D02*
X1017Y1468D01*
D02*
X1417Y1468D02*
X1417Y1695D01*
D02*
X1398Y368D02*
X1397Y1069D01*
D02*
X717Y368D02*
X1398Y368D01*
D02*
X773Y248D02*
X717Y248D01*
D02*
X717Y248D02*
X717Y368D01*
D02*
X1694Y418D02*
X1627Y419D01*
D02*
X1627Y248D02*
X942Y248D01*
D02*
X1627Y419D02*
X1627Y248D01*
D02*
X1397Y1069D02*
X1047Y1068D01*
D02*
X1047Y1219D02*
X954Y1219D01*
D02*
X1047Y1068D02*
X1047Y1219D01*
D02*
X727Y1299D02*
X561Y1298D01*
D02*
X727Y1244D02*
X727Y1299D01*
D02*
X1567Y1341D02*
X1567Y1419D01*
D02*
X1567Y1419D02*
X1201Y1418D01*
D02*
X467Y1578D02*
X467Y1598D01*
D02*
X467Y1598D02*
X412Y1598D01*
D02*
X524Y1581D02*
X467Y1578D01*
D02*
X776Y1425D02*
X777Y1499D01*
D02*
X547Y1499D02*
X547Y1559D01*
D02*
X777Y1499D02*
X547Y1499D01*
D02*
X197Y1638D02*
X197Y1688D01*
D02*
X197Y1688D02*
X388Y1688D01*
D02*
X115Y1636D02*
X197Y1638D01*
D02*
X388Y1688D02*
X387Y1623D01*
D02*
X217Y888D02*
X97Y888D01*
D02*
X217Y899D02*
X217Y888D01*
D02*
X577Y899D02*
X217Y899D01*
D02*
X577Y935D02*
X577Y899D01*
D02*
X28Y888D02*
X28Y1348D01*
D02*
X28Y1348D02*
X77Y1348D01*
D02*
X73Y888D02*
X28Y888D01*
D02*
X917Y659D02*
X627Y659D01*
D02*
X917Y691D02*
X917Y659D01*
D02*
X627Y659D02*
X595Y687D01*
D02*
X1027Y419D02*
X1027Y458D01*
D02*
X1027Y458D02*
X940Y458D01*
D02*
X1094Y418D02*
X1027Y419D01*
D02*
X1694Y819D02*
X1647Y819D01*
D02*
X1647Y819D02*
X1647Y618D01*
D02*
X1647Y618D02*
X1501Y618D01*
D02*
X1294Y618D02*
X1197Y619D01*
D02*
X1197Y619D02*
X1197Y769D01*
D02*
X1197Y769D02*
X237Y769D01*
D02*
X237Y769D02*
X238Y741D01*
D02*
X1014Y818D02*
X658Y818D01*
D02*
X658Y818D02*
X658Y1009D01*
D02*
X658Y1009D02*
X501Y1008D01*
D02*
X399Y511D02*
X397Y568D01*
D02*
X397Y568D02*
X1184Y568D01*
D02*
X1557Y782D02*
X1557Y1105D01*
D02*
X287Y1838D02*
X115Y1836D01*
D02*
X287Y1803D02*
X287Y1838D01*
D02*
X77Y1549D02*
X28Y1549D01*
D02*
X28Y1549D02*
X28Y1838D01*
D02*
X28Y1838D02*
X73Y1836D01*
D02*
X488Y1399D02*
X487Y1435D01*
D02*
X650Y1398D02*
X488Y1399D01*
D02*
X1267Y1769D02*
X1038Y1769D01*
D02*
X1267Y1741D02*
X1267Y1769D01*
D02*
X1038Y1769D02*
X1038Y1718D01*
D02*
X1038Y1718D02*
X287Y1718D01*
D02*
X287Y1718D02*
X287Y1754D01*
D02*
X1094Y618D02*
X671Y618D01*
D02*
X197Y1448D02*
X197Y1548D01*
D02*
X197Y1548D02*
X118Y1548D01*
D02*
X234Y1448D02*
X197Y1448D01*
D02*
X527Y648D02*
X562Y685D01*
D02*
X58Y648D02*
X527Y648D01*
D02*
X60Y695D02*
X58Y648D01*
D02*
X578Y399D02*
X917Y399D01*
D02*
X917Y399D02*
X917Y435D01*
D02*
X577Y465D02*
X578Y399D01*
D02*
X928Y972D02*
X928Y1025D01*
D02*
X1174Y1668D02*
X991Y1668D01*
D02*
X600Y1118D02*
X501Y1118D01*
G04 End of Copper1*
M02*