; NON-PLATED HOLES START AT T1
; THROUGH (PLATED) HOLES START AT T100
M48
INCH
T100C0.038000
T101C0.042000
T102C0.015748
T103C0.030556
T104C0.036000
T105C0.035000
T106C0.040255
%
T100
X002873Y014525
X000973Y009425
X000973Y010425
X002873Y016325
X003873Y016325
X000973Y008425
X000973Y007425
X003873Y014525
T101
X008760Y012525
X006760Y012525
X007760Y012525
T102
X005580Y007321
X007980Y008521
X008100Y006601
X007500Y003841
X008460Y003841
X010140Y007201
X012180Y007921
X007020Y008521
X001740Y010921
X012660Y008881
X014460Y007201
X011940Y011761
X015060Y009481
T103
X000973Y013025
X000974Y014026
X000939Y015898
X000940Y016900
X000974Y012027
X000940Y014900
T104
X017173Y010725
X017173Y002725
X011173Y002725
X011173Y008725
X011173Y009725
X017173Y008725
X011173Y004725
X011173Y014725
X011173Y003725
X017173Y015725
X017173Y009725
X017173Y006725
X011173Y013725
X011173Y010725
X011173Y011725
X017173Y005725
X011173Y005725
X011173Y015725
X017173Y004725
X017173Y003725
X011173Y007725
X017173Y011725
X017173Y012725
X017173Y014725
X017173Y007725
X017173Y001725
X011173Y001725
X011173Y012725
X017173Y013725
X011173Y006725
T105
X007401Y003125
X000608Y005719
X009173Y005684
X002379Y003159
X007373Y004625
X009573Y004625
X005773Y000625
X004001Y008284
X008473Y004625
X005473Y014366
X014845Y003166
X007401Y005684
X004001Y005725
X008273Y014366
X004001Y000625
X000608Y003159
X005473Y016925
X008273Y016925
X009573Y000625
X007245Y014366
X005773Y008284
X010045Y016925
X010045Y014366
X008473Y000625
X005773Y003184
X005773Y005725
X007373Y000625
X013073Y005725
X013073Y003166
X014845Y005725
X007245Y016925
X009173Y003125
X002379Y005719
X004001Y003184
T106
X009273Y011025
X009273Y010025
X007260Y011025
X006254Y010025
X008267Y011025
X008267Y010025
X006254Y011025
X007260Y010025
T00
M30
