G04 MADE WITH FRITZING*
G04 WWW.FRITZING.ORG*
G04 DOUBLE SIDED*
G04 HOLES PLATED*
G04 CONTOUR ON CENTER OF CONTOUR VECTOR*
%ASAXBY*%
%FSLAX23Y23*%
%MOIN*%
%OFA0B0*%
%SFA1.0B1.0*%
%ADD10C,0.010000*%
%ADD11R,0.001000X0.001000*%
%LNSILK0*%
G90*
G70*
G54D10*
X1359Y479D02*
X1438Y479D01*
D02*
X1359Y715D02*
X1438Y715D01*
D02*
X1379Y597D02*
X1418Y597D01*
D02*
X1398Y578D02*
X1398Y617D01*
D02*
X779Y469D02*
X858Y469D01*
D02*
X700Y666D02*
X700Y499D01*
D02*
X936Y666D02*
X936Y499D01*
D02*
X779Y705D02*
X858Y705D01*
D02*
X799Y587D02*
X838Y587D01*
D02*
X818Y568D02*
X818Y607D01*
D02*
X528Y959D02*
X449Y959D01*
D02*
X607Y762D02*
X607Y929D01*
D02*
X371Y762D02*
X371Y929D01*
D02*
X528Y723D02*
X449Y723D01*
D02*
X508Y841D02*
X469Y841D01*
D02*
X489Y861D02*
X489Y821D01*
D02*
X525Y449D02*
X446Y449D01*
D02*
X604Y253D02*
X604Y420D01*
D02*
X367Y253D02*
X367Y420D01*
D02*
X525Y213D02*
X446Y213D01*
D02*
X505Y331D02*
X466Y331D01*
D02*
X485Y351D02*
X485Y312D01*
D02*
X215Y709D02*
X136Y709D01*
D02*
X294Y513D02*
X294Y680D01*
D02*
X57Y513D02*
X57Y680D01*
D02*
X215Y473D02*
X136Y473D01*
D02*
X195Y591D02*
X156Y591D01*
D02*
X175Y611D02*
X175Y572D01*
G54D11*
X0Y2047D02*
X2046Y2047D01*
X0Y2046D02*
X2046Y2046D01*
X0Y2045D02*
X2046Y2045D01*
X0Y2044D02*
X2046Y2044D01*
X0Y2043D02*
X2046Y2043D01*
X0Y2042D02*
X2046Y2042D01*
X0Y2041D02*
X2046Y2041D01*
X0Y2040D02*
X2046Y2040D01*
X0Y2039D02*
X7Y2039D01*
X2039Y2039D02*
X2046Y2039D01*
X0Y2038D02*
X7Y2038D01*
X2039Y2038D02*
X2046Y2038D01*
X0Y2037D02*
X7Y2037D01*
X2039Y2037D02*
X2046Y2037D01*
X0Y2036D02*
X7Y2036D01*
X2039Y2036D02*
X2046Y2036D01*
X0Y2035D02*
X7Y2035D01*
X2039Y2035D02*
X2046Y2035D01*
X0Y2034D02*
X7Y2034D01*
X2039Y2034D02*
X2046Y2034D01*
X0Y2033D02*
X7Y2033D01*
X2039Y2033D02*
X2046Y2033D01*
X0Y2032D02*
X7Y2032D01*
X2039Y2032D02*
X2046Y2032D01*
X0Y2031D02*
X7Y2031D01*
X2039Y2031D02*
X2046Y2031D01*
X0Y2030D02*
X7Y2030D01*
X2039Y2030D02*
X2046Y2030D01*
X0Y2029D02*
X7Y2029D01*
X2039Y2029D02*
X2046Y2029D01*
X0Y2028D02*
X7Y2028D01*
X2039Y2028D02*
X2046Y2028D01*
X0Y2027D02*
X7Y2027D01*
X2039Y2027D02*
X2046Y2027D01*
X0Y2026D02*
X7Y2026D01*
X2039Y2026D02*
X2046Y2026D01*
X0Y2025D02*
X7Y2025D01*
X2039Y2025D02*
X2046Y2025D01*
X0Y2024D02*
X7Y2024D01*
X2039Y2024D02*
X2046Y2024D01*
X0Y2023D02*
X7Y2023D01*
X2039Y2023D02*
X2046Y2023D01*
X0Y2022D02*
X7Y2022D01*
X2039Y2022D02*
X2046Y2022D01*
X0Y2021D02*
X7Y2021D01*
X2039Y2021D02*
X2046Y2021D01*
X0Y2020D02*
X7Y2020D01*
X2039Y2020D02*
X2046Y2020D01*
X0Y2019D02*
X7Y2019D01*
X2039Y2019D02*
X2046Y2019D01*
X0Y2018D02*
X7Y2018D01*
X2039Y2018D02*
X2046Y2018D01*
X0Y2017D02*
X7Y2017D01*
X2039Y2017D02*
X2046Y2017D01*
X0Y2016D02*
X7Y2016D01*
X2039Y2016D02*
X2046Y2016D01*
X0Y2015D02*
X7Y2015D01*
X2039Y2015D02*
X2046Y2015D01*
X0Y2014D02*
X7Y2014D01*
X2039Y2014D02*
X2046Y2014D01*
X0Y2013D02*
X7Y2013D01*
X2039Y2013D02*
X2046Y2013D01*
X0Y2012D02*
X7Y2012D01*
X2039Y2012D02*
X2046Y2012D01*
X0Y2011D02*
X7Y2011D01*
X2039Y2011D02*
X2046Y2011D01*
X0Y2010D02*
X7Y2010D01*
X2039Y2010D02*
X2046Y2010D01*
X0Y2009D02*
X7Y2009D01*
X2039Y2009D02*
X2046Y2009D01*
X0Y2008D02*
X7Y2008D01*
X2039Y2008D02*
X2046Y2008D01*
X0Y2007D02*
X7Y2007D01*
X2039Y2007D02*
X2046Y2007D01*
X0Y2006D02*
X7Y2006D01*
X2039Y2006D02*
X2046Y2006D01*
X0Y2005D02*
X7Y2005D01*
X2039Y2005D02*
X2046Y2005D01*
X0Y2004D02*
X7Y2004D01*
X2039Y2004D02*
X2046Y2004D01*
X0Y2003D02*
X7Y2003D01*
X2039Y2003D02*
X2046Y2003D01*
X0Y2002D02*
X7Y2002D01*
X2039Y2002D02*
X2046Y2002D01*
X0Y2001D02*
X7Y2001D01*
X2039Y2001D02*
X2046Y2001D01*
X0Y2000D02*
X7Y2000D01*
X2039Y2000D02*
X2046Y2000D01*
X0Y1999D02*
X7Y1999D01*
X2039Y1999D02*
X2046Y1999D01*
X0Y1998D02*
X7Y1998D01*
X2039Y1998D02*
X2046Y1998D01*
X0Y1997D02*
X7Y1997D01*
X2039Y1997D02*
X2046Y1997D01*
X0Y1996D02*
X7Y1996D01*
X2039Y1996D02*
X2046Y1996D01*
X0Y1995D02*
X7Y1995D01*
X2039Y1995D02*
X2046Y1995D01*
X0Y1994D02*
X7Y1994D01*
X2039Y1994D02*
X2046Y1994D01*
X0Y1993D02*
X7Y1993D01*
X2039Y1993D02*
X2046Y1993D01*
X0Y1992D02*
X7Y1992D01*
X2039Y1992D02*
X2046Y1992D01*
X0Y1991D02*
X7Y1991D01*
X2039Y1991D02*
X2046Y1991D01*
X0Y1990D02*
X7Y1990D01*
X2039Y1990D02*
X2046Y1990D01*
X0Y1989D02*
X7Y1989D01*
X2039Y1989D02*
X2046Y1989D01*
X0Y1988D02*
X7Y1988D01*
X2039Y1988D02*
X2046Y1988D01*
X0Y1987D02*
X7Y1987D01*
X2039Y1987D02*
X2046Y1987D01*
X0Y1986D02*
X7Y1986D01*
X2039Y1986D02*
X2046Y1986D01*
X0Y1985D02*
X7Y1985D01*
X2039Y1985D02*
X2046Y1985D01*
X0Y1984D02*
X7Y1984D01*
X2039Y1984D02*
X2046Y1984D01*
X0Y1983D02*
X7Y1983D01*
X2039Y1983D02*
X2046Y1983D01*
X0Y1982D02*
X7Y1982D01*
X2039Y1982D02*
X2046Y1982D01*
X0Y1981D02*
X7Y1981D01*
X2039Y1981D02*
X2046Y1981D01*
X0Y1980D02*
X7Y1980D01*
X2039Y1980D02*
X2046Y1980D01*
X0Y1979D02*
X7Y1979D01*
X2039Y1979D02*
X2046Y1979D01*
X0Y1978D02*
X7Y1978D01*
X2039Y1978D02*
X2046Y1978D01*
X0Y1977D02*
X7Y1977D01*
X2039Y1977D02*
X2046Y1977D01*
X0Y1976D02*
X7Y1976D01*
X2039Y1976D02*
X2046Y1976D01*
X0Y1975D02*
X7Y1975D01*
X2039Y1975D02*
X2046Y1975D01*
X0Y1974D02*
X7Y1974D01*
X2039Y1974D02*
X2046Y1974D01*
X0Y1973D02*
X7Y1973D01*
X2039Y1973D02*
X2046Y1973D01*
X0Y1972D02*
X7Y1972D01*
X2039Y1972D02*
X2046Y1972D01*
X0Y1971D02*
X7Y1971D01*
X2039Y1971D02*
X2046Y1971D01*
X0Y1970D02*
X7Y1970D01*
X2039Y1970D02*
X2046Y1970D01*
X0Y1969D02*
X7Y1969D01*
X2039Y1969D02*
X2046Y1969D01*
X0Y1968D02*
X7Y1968D01*
X2039Y1968D02*
X2046Y1968D01*
X0Y1967D02*
X7Y1967D01*
X2039Y1967D02*
X2046Y1967D01*
X0Y1966D02*
X7Y1966D01*
X2039Y1966D02*
X2046Y1966D01*
X0Y1965D02*
X7Y1965D01*
X2039Y1965D02*
X2046Y1965D01*
X0Y1964D02*
X7Y1964D01*
X2039Y1964D02*
X2046Y1964D01*
X0Y1963D02*
X7Y1963D01*
X2039Y1963D02*
X2046Y1963D01*
X0Y1962D02*
X7Y1962D01*
X2039Y1962D02*
X2046Y1962D01*
X0Y1961D02*
X7Y1961D01*
X2039Y1961D02*
X2046Y1961D01*
X0Y1960D02*
X7Y1960D01*
X2039Y1960D02*
X2046Y1960D01*
X0Y1959D02*
X7Y1959D01*
X2039Y1959D02*
X2046Y1959D01*
X0Y1958D02*
X7Y1958D01*
X2039Y1958D02*
X2046Y1958D01*
X0Y1957D02*
X7Y1957D01*
X2039Y1957D02*
X2046Y1957D01*
X0Y1956D02*
X7Y1956D01*
X2039Y1956D02*
X2046Y1956D01*
X0Y1955D02*
X7Y1955D01*
X2039Y1955D02*
X2046Y1955D01*
X0Y1954D02*
X7Y1954D01*
X2039Y1954D02*
X2046Y1954D01*
X0Y1953D02*
X7Y1953D01*
X2039Y1953D02*
X2046Y1953D01*
X0Y1952D02*
X7Y1952D01*
X2039Y1952D02*
X2046Y1952D01*
X0Y1951D02*
X7Y1951D01*
X2039Y1951D02*
X2046Y1951D01*
X0Y1950D02*
X7Y1950D01*
X2039Y1950D02*
X2046Y1950D01*
X0Y1949D02*
X7Y1949D01*
X2039Y1949D02*
X2046Y1949D01*
X0Y1948D02*
X7Y1948D01*
X2039Y1948D02*
X2046Y1948D01*
X0Y1947D02*
X7Y1947D01*
X2039Y1947D02*
X2046Y1947D01*
X0Y1946D02*
X7Y1946D01*
X2039Y1946D02*
X2046Y1946D01*
X0Y1945D02*
X7Y1945D01*
X2039Y1945D02*
X2046Y1945D01*
X0Y1944D02*
X7Y1944D01*
X2039Y1944D02*
X2046Y1944D01*
X0Y1943D02*
X7Y1943D01*
X2039Y1943D02*
X2046Y1943D01*
X0Y1942D02*
X7Y1942D01*
X2039Y1942D02*
X2046Y1942D01*
X0Y1941D02*
X7Y1941D01*
X2039Y1941D02*
X2046Y1941D01*
X0Y1940D02*
X7Y1940D01*
X2039Y1940D02*
X2046Y1940D01*
X0Y1939D02*
X7Y1939D01*
X2039Y1939D02*
X2046Y1939D01*
X0Y1938D02*
X7Y1938D01*
X2039Y1938D02*
X2046Y1938D01*
X0Y1937D02*
X7Y1937D01*
X2039Y1937D02*
X2046Y1937D01*
X0Y1936D02*
X7Y1936D01*
X2039Y1936D02*
X2046Y1936D01*
X0Y1935D02*
X7Y1935D01*
X2039Y1935D02*
X2046Y1935D01*
X0Y1934D02*
X7Y1934D01*
X2039Y1934D02*
X2046Y1934D01*
X0Y1933D02*
X7Y1933D01*
X2039Y1933D02*
X2046Y1933D01*
X0Y1932D02*
X7Y1932D01*
X2039Y1932D02*
X2046Y1932D01*
X0Y1931D02*
X7Y1931D01*
X2039Y1931D02*
X2046Y1931D01*
X0Y1930D02*
X7Y1930D01*
X2039Y1930D02*
X2046Y1930D01*
X0Y1929D02*
X7Y1929D01*
X2039Y1929D02*
X2046Y1929D01*
X0Y1928D02*
X7Y1928D01*
X2039Y1928D02*
X2046Y1928D01*
X0Y1927D02*
X7Y1927D01*
X2039Y1927D02*
X2046Y1927D01*
X0Y1926D02*
X7Y1926D01*
X2039Y1926D02*
X2046Y1926D01*
X0Y1925D02*
X7Y1925D01*
X2039Y1925D02*
X2046Y1925D01*
X0Y1924D02*
X7Y1924D01*
X2039Y1924D02*
X2046Y1924D01*
X0Y1923D02*
X7Y1923D01*
X2039Y1923D02*
X2046Y1923D01*
X0Y1922D02*
X7Y1922D01*
X2039Y1922D02*
X2046Y1922D01*
X0Y1921D02*
X7Y1921D01*
X2039Y1921D02*
X2046Y1921D01*
X0Y1920D02*
X7Y1920D01*
X2039Y1920D02*
X2046Y1920D01*
X0Y1919D02*
X7Y1919D01*
X2039Y1919D02*
X2046Y1919D01*
X0Y1918D02*
X7Y1918D01*
X2039Y1918D02*
X2046Y1918D01*
X0Y1917D02*
X7Y1917D01*
X2039Y1917D02*
X2046Y1917D01*
X0Y1916D02*
X7Y1916D01*
X2039Y1916D02*
X2046Y1916D01*
X0Y1915D02*
X7Y1915D01*
X2039Y1915D02*
X2046Y1915D01*
X0Y1914D02*
X7Y1914D01*
X2039Y1914D02*
X2046Y1914D01*
X0Y1913D02*
X7Y1913D01*
X2039Y1913D02*
X2046Y1913D01*
X0Y1912D02*
X7Y1912D01*
X2039Y1912D02*
X2046Y1912D01*
X0Y1911D02*
X7Y1911D01*
X2039Y1911D02*
X2046Y1911D01*
X0Y1910D02*
X7Y1910D01*
X2039Y1910D02*
X2046Y1910D01*
X0Y1909D02*
X7Y1909D01*
X2039Y1909D02*
X2046Y1909D01*
X0Y1908D02*
X7Y1908D01*
X2039Y1908D02*
X2046Y1908D01*
X0Y1907D02*
X7Y1907D01*
X2039Y1907D02*
X2046Y1907D01*
X0Y1906D02*
X7Y1906D01*
X2039Y1906D02*
X2046Y1906D01*
X0Y1905D02*
X7Y1905D01*
X2039Y1905D02*
X2046Y1905D01*
X0Y1904D02*
X7Y1904D01*
X2039Y1904D02*
X2046Y1904D01*
X0Y1903D02*
X7Y1903D01*
X2039Y1903D02*
X2046Y1903D01*
X0Y1902D02*
X7Y1902D01*
X2039Y1902D02*
X2046Y1902D01*
X0Y1901D02*
X7Y1901D01*
X2039Y1901D02*
X2046Y1901D01*
X0Y1900D02*
X7Y1900D01*
X2039Y1900D02*
X2046Y1900D01*
X0Y1899D02*
X7Y1899D01*
X2039Y1899D02*
X2046Y1899D01*
X0Y1898D02*
X7Y1898D01*
X2039Y1898D02*
X2046Y1898D01*
X0Y1897D02*
X7Y1897D01*
X2039Y1897D02*
X2046Y1897D01*
X0Y1896D02*
X7Y1896D01*
X2039Y1896D02*
X2046Y1896D01*
X0Y1895D02*
X7Y1895D01*
X2039Y1895D02*
X2046Y1895D01*
X0Y1894D02*
X7Y1894D01*
X2039Y1894D02*
X2046Y1894D01*
X0Y1893D02*
X7Y1893D01*
X2039Y1893D02*
X2046Y1893D01*
X0Y1892D02*
X7Y1892D01*
X2039Y1892D02*
X2046Y1892D01*
X0Y1891D02*
X7Y1891D01*
X2039Y1891D02*
X2046Y1891D01*
X0Y1890D02*
X7Y1890D01*
X2039Y1890D02*
X2046Y1890D01*
X0Y1889D02*
X7Y1889D01*
X2039Y1889D02*
X2046Y1889D01*
X0Y1888D02*
X7Y1888D01*
X2039Y1888D02*
X2046Y1888D01*
X0Y1887D02*
X7Y1887D01*
X2039Y1887D02*
X2046Y1887D01*
X0Y1886D02*
X7Y1886D01*
X2039Y1886D02*
X2046Y1886D01*
X0Y1885D02*
X7Y1885D01*
X2039Y1885D02*
X2046Y1885D01*
X0Y1884D02*
X7Y1884D01*
X2039Y1884D02*
X2046Y1884D01*
X0Y1883D02*
X7Y1883D01*
X2039Y1883D02*
X2046Y1883D01*
X0Y1882D02*
X7Y1882D01*
X2039Y1882D02*
X2046Y1882D01*
X0Y1881D02*
X7Y1881D01*
X2039Y1881D02*
X2046Y1881D01*
X0Y1880D02*
X7Y1880D01*
X2039Y1880D02*
X2046Y1880D01*
X0Y1879D02*
X7Y1879D01*
X2039Y1879D02*
X2046Y1879D01*
X0Y1878D02*
X7Y1878D01*
X2039Y1878D02*
X2046Y1878D01*
X0Y1877D02*
X7Y1877D01*
X2039Y1877D02*
X2046Y1877D01*
X0Y1876D02*
X7Y1876D01*
X2039Y1876D02*
X2046Y1876D01*
X0Y1875D02*
X7Y1875D01*
X2039Y1875D02*
X2046Y1875D01*
X0Y1874D02*
X7Y1874D01*
X2039Y1874D02*
X2046Y1874D01*
X0Y1873D02*
X7Y1873D01*
X2039Y1873D02*
X2046Y1873D01*
X0Y1872D02*
X7Y1872D01*
X2039Y1872D02*
X2046Y1872D01*
X0Y1871D02*
X7Y1871D01*
X2039Y1871D02*
X2046Y1871D01*
X0Y1870D02*
X7Y1870D01*
X2039Y1870D02*
X2046Y1870D01*
X0Y1869D02*
X7Y1869D01*
X2039Y1869D02*
X2046Y1869D01*
X0Y1868D02*
X7Y1868D01*
X2039Y1868D02*
X2046Y1868D01*
X0Y1867D02*
X7Y1867D01*
X2039Y1867D02*
X2046Y1867D01*
X0Y1866D02*
X7Y1866D01*
X2039Y1866D02*
X2046Y1866D01*
X0Y1865D02*
X7Y1865D01*
X2039Y1865D02*
X2046Y1865D01*
X0Y1864D02*
X7Y1864D01*
X2039Y1864D02*
X2046Y1864D01*
X0Y1863D02*
X7Y1863D01*
X2039Y1863D02*
X2046Y1863D01*
X0Y1862D02*
X7Y1862D01*
X2039Y1862D02*
X2046Y1862D01*
X0Y1861D02*
X7Y1861D01*
X2039Y1861D02*
X2046Y1861D01*
X0Y1860D02*
X7Y1860D01*
X2039Y1860D02*
X2046Y1860D01*
X0Y1859D02*
X7Y1859D01*
X2039Y1859D02*
X2046Y1859D01*
X0Y1858D02*
X7Y1858D01*
X2039Y1858D02*
X2046Y1858D01*
X0Y1857D02*
X7Y1857D01*
X2039Y1857D02*
X2046Y1857D01*
X0Y1856D02*
X7Y1856D01*
X2039Y1856D02*
X2046Y1856D01*
X0Y1855D02*
X7Y1855D01*
X2039Y1855D02*
X2046Y1855D01*
X0Y1854D02*
X7Y1854D01*
X2039Y1854D02*
X2046Y1854D01*
X0Y1853D02*
X7Y1853D01*
X2039Y1853D02*
X2046Y1853D01*
X0Y1852D02*
X7Y1852D01*
X2039Y1852D02*
X2046Y1852D01*
X0Y1851D02*
X7Y1851D01*
X2039Y1851D02*
X2046Y1851D01*
X0Y1850D02*
X7Y1850D01*
X2039Y1850D02*
X2046Y1850D01*
X0Y1849D02*
X7Y1849D01*
X2039Y1849D02*
X2046Y1849D01*
X0Y1848D02*
X7Y1848D01*
X2039Y1848D02*
X2046Y1848D01*
X0Y1847D02*
X7Y1847D01*
X2039Y1847D02*
X2046Y1847D01*
X0Y1846D02*
X7Y1846D01*
X2039Y1846D02*
X2046Y1846D01*
X0Y1845D02*
X7Y1845D01*
X2039Y1845D02*
X2046Y1845D01*
X0Y1844D02*
X7Y1844D01*
X2039Y1844D02*
X2046Y1844D01*
X0Y1843D02*
X7Y1843D01*
X2039Y1843D02*
X2046Y1843D01*
X0Y1842D02*
X7Y1842D01*
X2039Y1842D02*
X2046Y1842D01*
X0Y1841D02*
X7Y1841D01*
X2039Y1841D02*
X2046Y1841D01*
X0Y1840D02*
X7Y1840D01*
X2039Y1840D02*
X2046Y1840D01*
X0Y1839D02*
X7Y1839D01*
X2039Y1839D02*
X2046Y1839D01*
X0Y1838D02*
X7Y1838D01*
X2039Y1838D02*
X2046Y1838D01*
X0Y1837D02*
X7Y1837D01*
X2039Y1837D02*
X2046Y1837D01*
X0Y1836D02*
X7Y1836D01*
X2039Y1836D02*
X2046Y1836D01*
X0Y1835D02*
X7Y1835D01*
X2039Y1835D02*
X2046Y1835D01*
X0Y1834D02*
X7Y1834D01*
X2039Y1834D02*
X2046Y1834D01*
X0Y1833D02*
X7Y1833D01*
X2039Y1833D02*
X2046Y1833D01*
X0Y1832D02*
X7Y1832D01*
X2039Y1832D02*
X2046Y1832D01*
X0Y1831D02*
X7Y1831D01*
X2039Y1831D02*
X2046Y1831D01*
X0Y1830D02*
X7Y1830D01*
X2039Y1830D02*
X2046Y1830D01*
X0Y1829D02*
X7Y1829D01*
X2039Y1829D02*
X2046Y1829D01*
X0Y1828D02*
X7Y1828D01*
X2039Y1828D02*
X2046Y1828D01*
X0Y1827D02*
X7Y1827D01*
X2039Y1827D02*
X2046Y1827D01*
X0Y1826D02*
X7Y1826D01*
X2039Y1826D02*
X2046Y1826D01*
X0Y1825D02*
X7Y1825D01*
X2039Y1825D02*
X2046Y1825D01*
X0Y1824D02*
X7Y1824D01*
X2039Y1824D02*
X2046Y1824D01*
X0Y1823D02*
X7Y1823D01*
X2039Y1823D02*
X2046Y1823D01*
X0Y1822D02*
X7Y1822D01*
X2039Y1822D02*
X2046Y1822D01*
X0Y1821D02*
X7Y1821D01*
X2039Y1821D02*
X2046Y1821D01*
X0Y1820D02*
X7Y1820D01*
X2039Y1820D02*
X2046Y1820D01*
X0Y1819D02*
X7Y1819D01*
X2039Y1819D02*
X2046Y1819D01*
X0Y1818D02*
X7Y1818D01*
X2039Y1818D02*
X2046Y1818D01*
X0Y1817D02*
X7Y1817D01*
X2039Y1817D02*
X2046Y1817D01*
X0Y1816D02*
X7Y1816D01*
X2039Y1816D02*
X2046Y1816D01*
X0Y1815D02*
X7Y1815D01*
X2039Y1815D02*
X2046Y1815D01*
X0Y1814D02*
X7Y1814D01*
X2039Y1814D02*
X2046Y1814D01*
X0Y1813D02*
X7Y1813D01*
X2039Y1813D02*
X2046Y1813D01*
X0Y1812D02*
X7Y1812D01*
X2039Y1812D02*
X2046Y1812D01*
X0Y1811D02*
X7Y1811D01*
X2039Y1811D02*
X2046Y1811D01*
X0Y1810D02*
X7Y1810D01*
X2039Y1810D02*
X2046Y1810D01*
X0Y1809D02*
X7Y1809D01*
X2039Y1809D02*
X2046Y1809D01*
X0Y1808D02*
X7Y1808D01*
X2039Y1808D02*
X2046Y1808D01*
X0Y1807D02*
X7Y1807D01*
X2039Y1807D02*
X2046Y1807D01*
X0Y1806D02*
X7Y1806D01*
X2039Y1806D02*
X2046Y1806D01*
X0Y1805D02*
X7Y1805D01*
X2039Y1805D02*
X2046Y1805D01*
X0Y1804D02*
X7Y1804D01*
X2039Y1804D02*
X2046Y1804D01*
X0Y1803D02*
X7Y1803D01*
X2039Y1803D02*
X2046Y1803D01*
X0Y1802D02*
X7Y1802D01*
X2039Y1802D02*
X2046Y1802D01*
X0Y1801D02*
X7Y1801D01*
X2039Y1801D02*
X2046Y1801D01*
X0Y1800D02*
X7Y1800D01*
X2039Y1800D02*
X2046Y1800D01*
X0Y1799D02*
X7Y1799D01*
X2039Y1799D02*
X2046Y1799D01*
X0Y1798D02*
X7Y1798D01*
X2039Y1798D02*
X2046Y1798D01*
X0Y1797D02*
X7Y1797D01*
X2039Y1797D02*
X2046Y1797D01*
X0Y1796D02*
X7Y1796D01*
X2039Y1796D02*
X2046Y1796D01*
X0Y1795D02*
X7Y1795D01*
X2039Y1795D02*
X2046Y1795D01*
X0Y1794D02*
X7Y1794D01*
X2039Y1794D02*
X2046Y1794D01*
X0Y1793D02*
X7Y1793D01*
X2039Y1793D02*
X2046Y1793D01*
X0Y1792D02*
X7Y1792D01*
X2039Y1792D02*
X2046Y1792D01*
X0Y1791D02*
X7Y1791D01*
X2039Y1791D02*
X2046Y1791D01*
X0Y1790D02*
X7Y1790D01*
X2039Y1790D02*
X2046Y1790D01*
X0Y1789D02*
X7Y1789D01*
X2039Y1789D02*
X2046Y1789D01*
X0Y1788D02*
X7Y1788D01*
X2039Y1788D02*
X2046Y1788D01*
X0Y1787D02*
X7Y1787D01*
X2039Y1787D02*
X2046Y1787D01*
X0Y1786D02*
X7Y1786D01*
X2039Y1786D02*
X2046Y1786D01*
X0Y1785D02*
X7Y1785D01*
X2039Y1785D02*
X2046Y1785D01*
X0Y1784D02*
X7Y1784D01*
X2039Y1784D02*
X2046Y1784D01*
X0Y1783D02*
X7Y1783D01*
X2039Y1783D02*
X2046Y1783D01*
X0Y1782D02*
X7Y1782D01*
X2039Y1782D02*
X2046Y1782D01*
X0Y1781D02*
X7Y1781D01*
X2039Y1781D02*
X2046Y1781D01*
X0Y1780D02*
X7Y1780D01*
X2039Y1780D02*
X2046Y1780D01*
X0Y1779D02*
X7Y1779D01*
X2039Y1779D02*
X2046Y1779D01*
X0Y1778D02*
X7Y1778D01*
X2039Y1778D02*
X2046Y1778D01*
X0Y1777D02*
X7Y1777D01*
X2039Y1777D02*
X2046Y1777D01*
X0Y1776D02*
X7Y1776D01*
X2039Y1776D02*
X2046Y1776D01*
X0Y1775D02*
X7Y1775D01*
X2039Y1775D02*
X2046Y1775D01*
X0Y1774D02*
X7Y1774D01*
X2039Y1774D02*
X2046Y1774D01*
X0Y1773D02*
X7Y1773D01*
X2039Y1773D02*
X2046Y1773D01*
X0Y1772D02*
X7Y1772D01*
X2039Y1772D02*
X2046Y1772D01*
X0Y1771D02*
X7Y1771D01*
X2039Y1771D02*
X2046Y1771D01*
X0Y1770D02*
X7Y1770D01*
X2039Y1770D02*
X2046Y1770D01*
X0Y1769D02*
X7Y1769D01*
X2039Y1769D02*
X2046Y1769D01*
X0Y1768D02*
X7Y1768D01*
X2039Y1768D02*
X2046Y1768D01*
X0Y1767D02*
X7Y1767D01*
X2039Y1767D02*
X2046Y1767D01*
X0Y1766D02*
X7Y1766D01*
X2039Y1766D02*
X2046Y1766D01*
X0Y1765D02*
X7Y1765D01*
X2039Y1765D02*
X2046Y1765D01*
X0Y1764D02*
X7Y1764D01*
X2039Y1764D02*
X2046Y1764D01*
X0Y1763D02*
X7Y1763D01*
X2039Y1763D02*
X2046Y1763D01*
X0Y1762D02*
X7Y1762D01*
X2039Y1762D02*
X2046Y1762D01*
X0Y1761D02*
X7Y1761D01*
X2039Y1761D02*
X2046Y1761D01*
X0Y1760D02*
X7Y1760D01*
X2039Y1760D02*
X2046Y1760D01*
X0Y1759D02*
X7Y1759D01*
X2039Y1759D02*
X2046Y1759D01*
X0Y1758D02*
X7Y1758D01*
X2039Y1758D02*
X2046Y1758D01*
X0Y1757D02*
X7Y1757D01*
X2039Y1757D02*
X2046Y1757D01*
X0Y1756D02*
X7Y1756D01*
X2039Y1756D02*
X2046Y1756D01*
X0Y1755D02*
X7Y1755D01*
X2039Y1755D02*
X2046Y1755D01*
X0Y1754D02*
X7Y1754D01*
X2039Y1754D02*
X2046Y1754D01*
X0Y1753D02*
X7Y1753D01*
X2039Y1753D02*
X2046Y1753D01*
X0Y1752D02*
X7Y1752D01*
X2039Y1752D02*
X2046Y1752D01*
X0Y1751D02*
X7Y1751D01*
X2039Y1751D02*
X2046Y1751D01*
X0Y1750D02*
X7Y1750D01*
X2039Y1750D02*
X2046Y1750D01*
X0Y1749D02*
X7Y1749D01*
X2039Y1749D02*
X2046Y1749D01*
X0Y1748D02*
X7Y1748D01*
X2039Y1748D02*
X2046Y1748D01*
X0Y1747D02*
X7Y1747D01*
X2039Y1747D02*
X2046Y1747D01*
X0Y1746D02*
X7Y1746D01*
X2039Y1746D02*
X2046Y1746D01*
X0Y1745D02*
X7Y1745D01*
X2039Y1745D02*
X2046Y1745D01*
X0Y1744D02*
X7Y1744D01*
X2039Y1744D02*
X2046Y1744D01*
X0Y1743D02*
X7Y1743D01*
X2039Y1743D02*
X2046Y1743D01*
X0Y1742D02*
X7Y1742D01*
X2039Y1742D02*
X2046Y1742D01*
X0Y1741D02*
X7Y1741D01*
X2039Y1741D02*
X2046Y1741D01*
X0Y1740D02*
X7Y1740D01*
X2039Y1740D02*
X2046Y1740D01*
X0Y1739D02*
X7Y1739D01*
X2039Y1739D02*
X2046Y1739D01*
X0Y1738D02*
X7Y1738D01*
X2039Y1738D02*
X2046Y1738D01*
X0Y1737D02*
X7Y1737D01*
X2039Y1737D02*
X2046Y1737D01*
X0Y1736D02*
X7Y1736D01*
X2039Y1736D02*
X2046Y1736D01*
X0Y1735D02*
X7Y1735D01*
X2039Y1735D02*
X2046Y1735D01*
X0Y1734D02*
X7Y1734D01*
X2039Y1734D02*
X2046Y1734D01*
X0Y1733D02*
X7Y1733D01*
X2039Y1733D02*
X2046Y1733D01*
X0Y1732D02*
X7Y1732D01*
X2039Y1732D02*
X2046Y1732D01*
X0Y1731D02*
X7Y1731D01*
X2039Y1731D02*
X2046Y1731D01*
X0Y1730D02*
X7Y1730D01*
X2039Y1730D02*
X2046Y1730D01*
X0Y1729D02*
X7Y1729D01*
X2039Y1729D02*
X2046Y1729D01*
X0Y1728D02*
X7Y1728D01*
X2039Y1728D02*
X2046Y1728D01*
X0Y1727D02*
X7Y1727D01*
X2039Y1727D02*
X2046Y1727D01*
X0Y1726D02*
X7Y1726D01*
X2039Y1726D02*
X2046Y1726D01*
X0Y1725D02*
X7Y1725D01*
X2039Y1725D02*
X2046Y1725D01*
X0Y1724D02*
X7Y1724D01*
X2039Y1724D02*
X2046Y1724D01*
X0Y1723D02*
X7Y1723D01*
X2039Y1723D02*
X2046Y1723D01*
X0Y1722D02*
X7Y1722D01*
X2039Y1722D02*
X2046Y1722D01*
X0Y1721D02*
X7Y1721D01*
X2039Y1721D02*
X2046Y1721D01*
X0Y1720D02*
X7Y1720D01*
X2039Y1720D02*
X2046Y1720D01*
X0Y1719D02*
X7Y1719D01*
X2039Y1719D02*
X2046Y1719D01*
X0Y1718D02*
X7Y1718D01*
X2039Y1718D02*
X2046Y1718D01*
X0Y1717D02*
X7Y1717D01*
X2039Y1717D02*
X2046Y1717D01*
X0Y1716D02*
X7Y1716D01*
X2039Y1716D02*
X2046Y1716D01*
X0Y1715D02*
X7Y1715D01*
X2039Y1715D02*
X2046Y1715D01*
X0Y1714D02*
X7Y1714D01*
X2039Y1714D02*
X2046Y1714D01*
X0Y1713D02*
X7Y1713D01*
X2039Y1713D02*
X2046Y1713D01*
X0Y1712D02*
X7Y1712D01*
X2039Y1712D02*
X2046Y1712D01*
X0Y1711D02*
X7Y1711D01*
X2039Y1711D02*
X2046Y1711D01*
X0Y1710D02*
X7Y1710D01*
X2039Y1710D02*
X2046Y1710D01*
X0Y1709D02*
X7Y1709D01*
X2039Y1709D02*
X2046Y1709D01*
X0Y1708D02*
X7Y1708D01*
X2039Y1708D02*
X2046Y1708D01*
X0Y1707D02*
X7Y1707D01*
X2039Y1707D02*
X2046Y1707D01*
X0Y1706D02*
X7Y1706D01*
X2039Y1706D02*
X2046Y1706D01*
X0Y1705D02*
X7Y1705D01*
X2039Y1705D02*
X2046Y1705D01*
X0Y1704D02*
X7Y1704D01*
X2039Y1704D02*
X2046Y1704D01*
X0Y1703D02*
X7Y1703D01*
X2039Y1703D02*
X2046Y1703D01*
X0Y1702D02*
X7Y1702D01*
X2039Y1702D02*
X2046Y1702D01*
X0Y1701D02*
X7Y1701D01*
X2039Y1701D02*
X2046Y1701D01*
X0Y1700D02*
X7Y1700D01*
X2039Y1700D02*
X2046Y1700D01*
X0Y1699D02*
X7Y1699D01*
X2039Y1699D02*
X2046Y1699D01*
X0Y1698D02*
X7Y1698D01*
X2039Y1698D02*
X2046Y1698D01*
X0Y1697D02*
X7Y1697D01*
X2039Y1697D02*
X2046Y1697D01*
X0Y1696D02*
X7Y1696D01*
X2039Y1696D02*
X2046Y1696D01*
X0Y1695D02*
X7Y1695D01*
X2039Y1695D02*
X2046Y1695D01*
X0Y1694D02*
X7Y1694D01*
X2039Y1694D02*
X2046Y1694D01*
X0Y1693D02*
X7Y1693D01*
X2039Y1693D02*
X2046Y1693D01*
X0Y1692D02*
X7Y1692D01*
X2039Y1692D02*
X2046Y1692D01*
X0Y1691D02*
X7Y1691D01*
X2039Y1691D02*
X2046Y1691D01*
X0Y1690D02*
X7Y1690D01*
X2039Y1690D02*
X2046Y1690D01*
X0Y1689D02*
X7Y1689D01*
X2039Y1689D02*
X2046Y1689D01*
X0Y1688D02*
X7Y1688D01*
X2039Y1688D02*
X2046Y1688D01*
X0Y1687D02*
X7Y1687D01*
X2039Y1687D02*
X2046Y1687D01*
X0Y1686D02*
X7Y1686D01*
X2039Y1686D02*
X2046Y1686D01*
X0Y1685D02*
X7Y1685D01*
X2039Y1685D02*
X2046Y1685D01*
X0Y1684D02*
X7Y1684D01*
X2039Y1684D02*
X2046Y1684D01*
X0Y1683D02*
X7Y1683D01*
X2039Y1683D02*
X2046Y1683D01*
X0Y1682D02*
X7Y1682D01*
X2039Y1682D02*
X2046Y1682D01*
X0Y1681D02*
X7Y1681D01*
X2039Y1681D02*
X2046Y1681D01*
X0Y1680D02*
X7Y1680D01*
X2039Y1680D02*
X2046Y1680D01*
X0Y1679D02*
X7Y1679D01*
X2039Y1679D02*
X2046Y1679D01*
X0Y1678D02*
X7Y1678D01*
X2039Y1678D02*
X2046Y1678D01*
X0Y1677D02*
X7Y1677D01*
X2039Y1677D02*
X2046Y1677D01*
X0Y1676D02*
X7Y1676D01*
X2039Y1676D02*
X2046Y1676D01*
X0Y1675D02*
X7Y1675D01*
X2039Y1675D02*
X2046Y1675D01*
X0Y1674D02*
X7Y1674D01*
X2039Y1674D02*
X2046Y1674D01*
X0Y1673D02*
X7Y1673D01*
X2039Y1673D02*
X2046Y1673D01*
X0Y1672D02*
X7Y1672D01*
X2039Y1672D02*
X2046Y1672D01*
X0Y1671D02*
X7Y1671D01*
X2039Y1671D02*
X2046Y1671D01*
X0Y1670D02*
X7Y1670D01*
X2039Y1670D02*
X2046Y1670D01*
X0Y1669D02*
X7Y1669D01*
X2039Y1669D02*
X2046Y1669D01*
X0Y1668D02*
X7Y1668D01*
X2039Y1668D02*
X2046Y1668D01*
X0Y1667D02*
X7Y1667D01*
X2039Y1667D02*
X2046Y1667D01*
X0Y1666D02*
X7Y1666D01*
X2039Y1666D02*
X2046Y1666D01*
X0Y1665D02*
X7Y1665D01*
X2039Y1665D02*
X2046Y1665D01*
X0Y1664D02*
X7Y1664D01*
X2039Y1664D02*
X2046Y1664D01*
X0Y1663D02*
X7Y1663D01*
X2039Y1663D02*
X2046Y1663D01*
X0Y1662D02*
X7Y1662D01*
X2039Y1662D02*
X2046Y1662D01*
X0Y1661D02*
X7Y1661D01*
X2039Y1661D02*
X2046Y1661D01*
X0Y1660D02*
X7Y1660D01*
X2039Y1660D02*
X2046Y1660D01*
X0Y1659D02*
X7Y1659D01*
X2039Y1659D02*
X2046Y1659D01*
X0Y1658D02*
X7Y1658D01*
X2039Y1658D02*
X2046Y1658D01*
X0Y1657D02*
X7Y1657D01*
X2039Y1657D02*
X2046Y1657D01*
X0Y1656D02*
X7Y1656D01*
X2039Y1656D02*
X2046Y1656D01*
X0Y1655D02*
X7Y1655D01*
X2039Y1655D02*
X2046Y1655D01*
X0Y1654D02*
X7Y1654D01*
X2039Y1654D02*
X2046Y1654D01*
X0Y1653D02*
X7Y1653D01*
X2039Y1653D02*
X2046Y1653D01*
X0Y1652D02*
X7Y1652D01*
X2039Y1652D02*
X2046Y1652D01*
X0Y1651D02*
X7Y1651D01*
X2039Y1651D02*
X2046Y1651D01*
X0Y1650D02*
X7Y1650D01*
X2039Y1650D02*
X2046Y1650D01*
X0Y1649D02*
X7Y1649D01*
X2039Y1649D02*
X2046Y1649D01*
X0Y1648D02*
X7Y1648D01*
X2039Y1648D02*
X2046Y1648D01*
X0Y1647D02*
X7Y1647D01*
X2039Y1647D02*
X2046Y1647D01*
X0Y1646D02*
X7Y1646D01*
X2039Y1646D02*
X2046Y1646D01*
X0Y1645D02*
X7Y1645D01*
X2039Y1645D02*
X2046Y1645D01*
X0Y1644D02*
X7Y1644D01*
X2039Y1644D02*
X2046Y1644D01*
X0Y1643D02*
X7Y1643D01*
X2039Y1643D02*
X2046Y1643D01*
X0Y1642D02*
X7Y1642D01*
X2039Y1642D02*
X2046Y1642D01*
X0Y1641D02*
X7Y1641D01*
X2039Y1641D02*
X2046Y1641D01*
X0Y1640D02*
X7Y1640D01*
X2039Y1640D02*
X2046Y1640D01*
X0Y1639D02*
X7Y1639D01*
X2039Y1639D02*
X2046Y1639D01*
X0Y1638D02*
X7Y1638D01*
X2039Y1638D02*
X2046Y1638D01*
X0Y1637D02*
X7Y1637D01*
X2039Y1637D02*
X2046Y1637D01*
X0Y1636D02*
X7Y1636D01*
X2039Y1636D02*
X2046Y1636D01*
X0Y1635D02*
X7Y1635D01*
X2039Y1635D02*
X2046Y1635D01*
X0Y1634D02*
X7Y1634D01*
X2039Y1634D02*
X2046Y1634D01*
X0Y1633D02*
X7Y1633D01*
X2039Y1633D02*
X2046Y1633D01*
X0Y1632D02*
X7Y1632D01*
X2039Y1632D02*
X2046Y1632D01*
X0Y1631D02*
X7Y1631D01*
X2039Y1631D02*
X2046Y1631D01*
X0Y1630D02*
X7Y1630D01*
X2039Y1630D02*
X2046Y1630D01*
X0Y1629D02*
X7Y1629D01*
X2039Y1629D02*
X2046Y1629D01*
X0Y1628D02*
X7Y1628D01*
X2039Y1628D02*
X2046Y1628D01*
X0Y1627D02*
X7Y1627D01*
X2039Y1627D02*
X2046Y1627D01*
X0Y1626D02*
X7Y1626D01*
X2039Y1626D02*
X2046Y1626D01*
X0Y1625D02*
X7Y1625D01*
X2039Y1625D02*
X2046Y1625D01*
X0Y1624D02*
X7Y1624D01*
X2039Y1624D02*
X2046Y1624D01*
X0Y1623D02*
X7Y1623D01*
X2039Y1623D02*
X2046Y1623D01*
X0Y1622D02*
X7Y1622D01*
X2039Y1622D02*
X2046Y1622D01*
X0Y1621D02*
X7Y1621D01*
X2039Y1621D02*
X2046Y1621D01*
X0Y1620D02*
X7Y1620D01*
X2039Y1620D02*
X2046Y1620D01*
X0Y1619D02*
X7Y1619D01*
X2039Y1619D02*
X2046Y1619D01*
X0Y1618D02*
X7Y1618D01*
X2039Y1618D02*
X2046Y1618D01*
X0Y1617D02*
X7Y1617D01*
X2039Y1617D02*
X2046Y1617D01*
X0Y1616D02*
X7Y1616D01*
X2039Y1616D02*
X2046Y1616D01*
X0Y1615D02*
X7Y1615D01*
X2039Y1615D02*
X2046Y1615D01*
X0Y1614D02*
X7Y1614D01*
X2039Y1614D02*
X2046Y1614D01*
X0Y1613D02*
X7Y1613D01*
X2039Y1613D02*
X2046Y1613D01*
X0Y1612D02*
X7Y1612D01*
X2039Y1612D02*
X2046Y1612D01*
X0Y1611D02*
X7Y1611D01*
X2039Y1611D02*
X2046Y1611D01*
X0Y1610D02*
X7Y1610D01*
X2039Y1610D02*
X2046Y1610D01*
X0Y1609D02*
X7Y1609D01*
X2039Y1609D02*
X2046Y1609D01*
X0Y1608D02*
X7Y1608D01*
X2039Y1608D02*
X2046Y1608D01*
X0Y1607D02*
X7Y1607D01*
X2039Y1607D02*
X2046Y1607D01*
X0Y1606D02*
X7Y1606D01*
X2039Y1606D02*
X2046Y1606D01*
X0Y1605D02*
X7Y1605D01*
X2039Y1605D02*
X2046Y1605D01*
X0Y1604D02*
X7Y1604D01*
X2039Y1604D02*
X2046Y1604D01*
X0Y1603D02*
X7Y1603D01*
X2039Y1603D02*
X2046Y1603D01*
X0Y1602D02*
X7Y1602D01*
X2039Y1602D02*
X2046Y1602D01*
X0Y1601D02*
X7Y1601D01*
X2039Y1601D02*
X2046Y1601D01*
X0Y1600D02*
X7Y1600D01*
X2039Y1600D02*
X2046Y1600D01*
X0Y1599D02*
X7Y1599D01*
X2039Y1599D02*
X2046Y1599D01*
X0Y1598D02*
X7Y1598D01*
X2039Y1598D02*
X2046Y1598D01*
X0Y1597D02*
X7Y1597D01*
X2039Y1597D02*
X2046Y1597D01*
X0Y1596D02*
X7Y1596D01*
X2039Y1596D02*
X2046Y1596D01*
X0Y1595D02*
X7Y1595D01*
X2039Y1595D02*
X2046Y1595D01*
X0Y1594D02*
X7Y1594D01*
X2039Y1594D02*
X2046Y1594D01*
X0Y1593D02*
X7Y1593D01*
X2039Y1593D02*
X2046Y1593D01*
X0Y1592D02*
X7Y1592D01*
X2039Y1592D02*
X2046Y1592D01*
X0Y1591D02*
X7Y1591D01*
X2039Y1591D02*
X2046Y1591D01*
X0Y1590D02*
X7Y1590D01*
X2039Y1590D02*
X2046Y1590D01*
X0Y1589D02*
X7Y1589D01*
X2039Y1589D02*
X2046Y1589D01*
X0Y1588D02*
X7Y1588D01*
X2039Y1588D02*
X2046Y1588D01*
X0Y1587D02*
X7Y1587D01*
X2039Y1587D02*
X2046Y1587D01*
X0Y1586D02*
X7Y1586D01*
X2039Y1586D02*
X2046Y1586D01*
X0Y1585D02*
X7Y1585D01*
X2039Y1585D02*
X2046Y1585D01*
X0Y1584D02*
X7Y1584D01*
X2039Y1584D02*
X2046Y1584D01*
X0Y1583D02*
X7Y1583D01*
X2039Y1583D02*
X2046Y1583D01*
X0Y1582D02*
X7Y1582D01*
X2039Y1582D02*
X2046Y1582D01*
X0Y1581D02*
X7Y1581D01*
X2039Y1581D02*
X2046Y1581D01*
X0Y1580D02*
X7Y1580D01*
X2039Y1580D02*
X2046Y1580D01*
X0Y1579D02*
X7Y1579D01*
X2039Y1579D02*
X2046Y1579D01*
X0Y1578D02*
X7Y1578D01*
X2039Y1578D02*
X2046Y1578D01*
X0Y1577D02*
X7Y1577D01*
X2039Y1577D02*
X2046Y1577D01*
X0Y1576D02*
X7Y1576D01*
X2039Y1576D02*
X2046Y1576D01*
X0Y1575D02*
X7Y1575D01*
X2039Y1575D02*
X2046Y1575D01*
X0Y1574D02*
X7Y1574D01*
X2039Y1574D02*
X2046Y1574D01*
X0Y1573D02*
X7Y1573D01*
X2039Y1573D02*
X2046Y1573D01*
X0Y1572D02*
X7Y1572D01*
X2039Y1572D02*
X2046Y1572D01*
X0Y1571D02*
X7Y1571D01*
X2039Y1571D02*
X2046Y1571D01*
X0Y1570D02*
X7Y1570D01*
X2039Y1570D02*
X2046Y1570D01*
X0Y1569D02*
X7Y1569D01*
X2039Y1569D02*
X2046Y1569D01*
X0Y1568D02*
X7Y1568D01*
X2039Y1568D02*
X2046Y1568D01*
X0Y1567D02*
X7Y1567D01*
X2039Y1567D02*
X2046Y1567D01*
X0Y1566D02*
X7Y1566D01*
X2039Y1566D02*
X2046Y1566D01*
X0Y1565D02*
X7Y1565D01*
X2039Y1565D02*
X2046Y1565D01*
X0Y1564D02*
X7Y1564D01*
X2039Y1564D02*
X2046Y1564D01*
X0Y1563D02*
X7Y1563D01*
X2039Y1563D02*
X2046Y1563D01*
X0Y1562D02*
X7Y1562D01*
X2039Y1562D02*
X2046Y1562D01*
X0Y1561D02*
X7Y1561D01*
X2039Y1561D02*
X2046Y1561D01*
X0Y1560D02*
X7Y1560D01*
X2039Y1560D02*
X2046Y1560D01*
X0Y1559D02*
X7Y1559D01*
X2039Y1559D02*
X2046Y1559D01*
X0Y1558D02*
X7Y1558D01*
X2039Y1558D02*
X2046Y1558D01*
X0Y1557D02*
X7Y1557D01*
X2039Y1557D02*
X2046Y1557D01*
X0Y1556D02*
X7Y1556D01*
X2039Y1556D02*
X2046Y1556D01*
X0Y1555D02*
X7Y1555D01*
X2039Y1555D02*
X2046Y1555D01*
X0Y1554D02*
X7Y1554D01*
X2039Y1554D02*
X2046Y1554D01*
X0Y1553D02*
X7Y1553D01*
X2039Y1553D02*
X2046Y1553D01*
X0Y1552D02*
X7Y1552D01*
X2039Y1552D02*
X2046Y1552D01*
X0Y1551D02*
X7Y1551D01*
X2039Y1551D02*
X2046Y1551D01*
X0Y1550D02*
X7Y1550D01*
X2039Y1550D02*
X2046Y1550D01*
X0Y1549D02*
X7Y1549D01*
X2039Y1549D02*
X2046Y1549D01*
X0Y1548D02*
X7Y1548D01*
X2039Y1548D02*
X2046Y1548D01*
X0Y1547D02*
X7Y1547D01*
X2039Y1547D02*
X2046Y1547D01*
X0Y1546D02*
X7Y1546D01*
X2039Y1546D02*
X2046Y1546D01*
X0Y1545D02*
X7Y1545D01*
X2039Y1545D02*
X2046Y1545D01*
X0Y1544D02*
X7Y1544D01*
X2039Y1544D02*
X2046Y1544D01*
X0Y1543D02*
X7Y1543D01*
X2039Y1543D02*
X2046Y1543D01*
X0Y1542D02*
X7Y1542D01*
X2039Y1542D02*
X2046Y1542D01*
X0Y1541D02*
X7Y1541D01*
X2039Y1541D02*
X2046Y1541D01*
X0Y1540D02*
X7Y1540D01*
X2039Y1540D02*
X2046Y1540D01*
X0Y1539D02*
X7Y1539D01*
X2039Y1539D02*
X2046Y1539D01*
X0Y1538D02*
X7Y1538D01*
X2039Y1538D02*
X2046Y1538D01*
X0Y1537D02*
X7Y1537D01*
X2039Y1537D02*
X2046Y1537D01*
X0Y1536D02*
X7Y1536D01*
X2039Y1536D02*
X2046Y1536D01*
X0Y1535D02*
X7Y1535D01*
X2039Y1535D02*
X2046Y1535D01*
X0Y1534D02*
X7Y1534D01*
X2039Y1534D02*
X2046Y1534D01*
X0Y1533D02*
X7Y1533D01*
X2039Y1533D02*
X2046Y1533D01*
X0Y1532D02*
X7Y1532D01*
X2039Y1532D02*
X2046Y1532D01*
X0Y1531D02*
X7Y1531D01*
X2039Y1531D02*
X2046Y1531D01*
X0Y1530D02*
X7Y1530D01*
X2039Y1530D02*
X2046Y1530D01*
X0Y1529D02*
X7Y1529D01*
X2039Y1529D02*
X2046Y1529D01*
X0Y1528D02*
X7Y1528D01*
X2039Y1528D02*
X2046Y1528D01*
X0Y1527D02*
X7Y1527D01*
X2039Y1527D02*
X2046Y1527D01*
X0Y1526D02*
X7Y1526D01*
X2039Y1526D02*
X2046Y1526D01*
X0Y1525D02*
X7Y1525D01*
X2039Y1525D02*
X2046Y1525D01*
X0Y1524D02*
X7Y1524D01*
X2039Y1524D02*
X2046Y1524D01*
X0Y1523D02*
X7Y1523D01*
X2039Y1523D02*
X2046Y1523D01*
X0Y1522D02*
X7Y1522D01*
X2039Y1522D02*
X2046Y1522D01*
X0Y1521D02*
X7Y1521D01*
X2039Y1521D02*
X2046Y1521D01*
X0Y1520D02*
X7Y1520D01*
X2039Y1520D02*
X2046Y1520D01*
X0Y1519D02*
X7Y1519D01*
X2039Y1519D02*
X2046Y1519D01*
X0Y1518D02*
X7Y1518D01*
X2039Y1518D02*
X2046Y1518D01*
X0Y1517D02*
X7Y1517D01*
X2039Y1517D02*
X2046Y1517D01*
X0Y1516D02*
X7Y1516D01*
X2039Y1516D02*
X2046Y1516D01*
X0Y1515D02*
X7Y1515D01*
X2039Y1515D02*
X2046Y1515D01*
X0Y1514D02*
X7Y1514D01*
X2039Y1514D02*
X2046Y1514D01*
X0Y1513D02*
X7Y1513D01*
X2039Y1513D02*
X2046Y1513D01*
X0Y1512D02*
X7Y1512D01*
X2039Y1512D02*
X2046Y1512D01*
X0Y1511D02*
X7Y1511D01*
X2039Y1511D02*
X2046Y1511D01*
X0Y1510D02*
X7Y1510D01*
X2039Y1510D02*
X2046Y1510D01*
X0Y1509D02*
X7Y1509D01*
X2039Y1509D02*
X2046Y1509D01*
X0Y1508D02*
X7Y1508D01*
X2039Y1508D02*
X2046Y1508D01*
X0Y1507D02*
X7Y1507D01*
X2039Y1507D02*
X2046Y1507D01*
X0Y1506D02*
X7Y1506D01*
X2039Y1506D02*
X2046Y1506D01*
X0Y1505D02*
X7Y1505D01*
X2039Y1505D02*
X2046Y1505D01*
X0Y1504D02*
X7Y1504D01*
X2039Y1504D02*
X2046Y1504D01*
X0Y1503D02*
X7Y1503D01*
X2039Y1503D02*
X2046Y1503D01*
X0Y1502D02*
X7Y1502D01*
X2039Y1502D02*
X2046Y1502D01*
X0Y1501D02*
X7Y1501D01*
X2039Y1501D02*
X2046Y1501D01*
X0Y1500D02*
X7Y1500D01*
X2039Y1500D02*
X2046Y1500D01*
X0Y1499D02*
X7Y1499D01*
X2039Y1499D02*
X2046Y1499D01*
X0Y1498D02*
X7Y1498D01*
X2039Y1498D02*
X2046Y1498D01*
X0Y1497D02*
X7Y1497D01*
X2039Y1497D02*
X2046Y1497D01*
X0Y1496D02*
X7Y1496D01*
X2039Y1496D02*
X2046Y1496D01*
X0Y1495D02*
X7Y1495D01*
X2039Y1495D02*
X2046Y1495D01*
X0Y1494D02*
X7Y1494D01*
X2039Y1494D02*
X2046Y1494D01*
X0Y1493D02*
X7Y1493D01*
X2039Y1493D02*
X2046Y1493D01*
X0Y1492D02*
X7Y1492D01*
X2039Y1492D02*
X2046Y1492D01*
X0Y1491D02*
X7Y1491D01*
X2039Y1491D02*
X2046Y1491D01*
X0Y1490D02*
X7Y1490D01*
X2039Y1490D02*
X2046Y1490D01*
X0Y1489D02*
X7Y1489D01*
X2039Y1489D02*
X2046Y1489D01*
X0Y1488D02*
X7Y1488D01*
X2039Y1488D02*
X2046Y1488D01*
X0Y1487D02*
X7Y1487D01*
X2039Y1487D02*
X2046Y1487D01*
X0Y1486D02*
X7Y1486D01*
X2039Y1486D02*
X2046Y1486D01*
X0Y1485D02*
X7Y1485D01*
X2039Y1485D02*
X2046Y1485D01*
X0Y1484D02*
X7Y1484D01*
X2039Y1484D02*
X2046Y1484D01*
X0Y1483D02*
X7Y1483D01*
X2039Y1483D02*
X2046Y1483D01*
X0Y1482D02*
X7Y1482D01*
X2039Y1482D02*
X2046Y1482D01*
X0Y1481D02*
X7Y1481D01*
X2039Y1481D02*
X2046Y1481D01*
X0Y1480D02*
X7Y1480D01*
X2039Y1480D02*
X2046Y1480D01*
X0Y1479D02*
X7Y1479D01*
X2039Y1479D02*
X2046Y1479D01*
X0Y1478D02*
X7Y1478D01*
X2039Y1478D02*
X2046Y1478D01*
X0Y1477D02*
X7Y1477D01*
X2039Y1477D02*
X2046Y1477D01*
X0Y1476D02*
X7Y1476D01*
X2039Y1476D02*
X2046Y1476D01*
X0Y1475D02*
X7Y1475D01*
X2039Y1475D02*
X2046Y1475D01*
X0Y1474D02*
X7Y1474D01*
X2039Y1474D02*
X2046Y1474D01*
X0Y1473D02*
X7Y1473D01*
X2039Y1473D02*
X2046Y1473D01*
X0Y1472D02*
X7Y1472D01*
X2039Y1472D02*
X2046Y1472D01*
X0Y1471D02*
X7Y1471D01*
X2039Y1471D02*
X2046Y1471D01*
X0Y1470D02*
X7Y1470D01*
X2039Y1470D02*
X2046Y1470D01*
X0Y1469D02*
X7Y1469D01*
X2039Y1469D02*
X2046Y1469D01*
X0Y1468D02*
X7Y1468D01*
X2039Y1468D02*
X2046Y1468D01*
X0Y1467D02*
X7Y1467D01*
X2039Y1467D02*
X2046Y1467D01*
X0Y1466D02*
X7Y1466D01*
X2039Y1466D02*
X2046Y1466D01*
X0Y1465D02*
X7Y1465D01*
X2039Y1465D02*
X2046Y1465D01*
X0Y1464D02*
X7Y1464D01*
X2039Y1464D02*
X2046Y1464D01*
X0Y1463D02*
X7Y1463D01*
X2039Y1463D02*
X2046Y1463D01*
X0Y1462D02*
X7Y1462D01*
X2039Y1462D02*
X2046Y1462D01*
X0Y1461D02*
X7Y1461D01*
X2039Y1461D02*
X2046Y1461D01*
X0Y1460D02*
X7Y1460D01*
X2039Y1460D02*
X2046Y1460D01*
X0Y1459D02*
X7Y1459D01*
X2039Y1459D02*
X2046Y1459D01*
X0Y1458D02*
X7Y1458D01*
X2039Y1458D02*
X2046Y1458D01*
X0Y1457D02*
X7Y1457D01*
X2039Y1457D02*
X2046Y1457D01*
X0Y1456D02*
X7Y1456D01*
X2039Y1456D02*
X2046Y1456D01*
X0Y1455D02*
X7Y1455D01*
X2039Y1455D02*
X2046Y1455D01*
X0Y1454D02*
X7Y1454D01*
X2039Y1454D02*
X2046Y1454D01*
X0Y1453D02*
X7Y1453D01*
X2039Y1453D02*
X2046Y1453D01*
X0Y1452D02*
X7Y1452D01*
X2039Y1452D02*
X2046Y1452D01*
X0Y1451D02*
X7Y1451D01*
X2039Y1451D02*
X2046Y1451D01*
X0Y1450D02*
X7Y1450D01*
X2039Y1450D02*
X2046Y1450D01*
X0Y1449D02*
X7Y1449D01*
X2039Y1449D02*
X2046Y1449D01*
X0Y1448D02*
X7Y1448D01*
X2039Y1448D02*
X2046Y1448D01*
X0Y1447D02*
X7Y1447D01*
X2039Y1447D02*
X2046Y1447D01*
X0Y1446D02*
X7Y1446D01*
X2039Y1446D02*
X2046Y1446D01*
X0Y1445D02*
X7Y1445D01*
X2039Y1445D02*
X2046Y1445D01*
X0Y1444D02*
X7Y1444D01*
X2039Y1444D02*
X2046Y1444D01*
X0Y1443D02*
X7Y1443D01*
X2039Y1443D02*
X2046Y1443D01*
X0Y1442D02*
X7Y1442D01*
X2039Y1442D02*
X2046Y1442D01*
X0Y1441D02*
X7Y1441D01*
X2039Y1441D02*
X2046Y1441D01*
X0Y1440D02*
X7Y1440D01*
X2039Y1440D02*
X2046Y1440D01*
X0Y1439D02*
X7Y1439D01*
X2039Y1439D02*
X2046Y1439D01*
X0Y1438D02*
X7Y1438D01*
X2039Y1438D02*
X2046Y1438D01*
X0Y1437D02*
X7Y1437D01*
X2039Y1437D02*
X2046Y1437D01*
X0Y1436D02*
X7Y1436D01*
X2039Y1436D02*
X2046Y1436D01*
X0Y1435D02*
X7Y1435D01*
X2039Y1435D02*
X2046Y1435D01*
X0Y1434D02*
X7Y1434D01*
X2039Y1434D02*
X2046Y1434D01*
X0Y1433D02*
X7Y1433D01*
X2039Y1433D02*
X2046Y1433D01*
X0Y1432D02*
X7Y1432D01*
X2039Y1432D02*
X2046Y1432D01*
X0Y1431D02*
X7Y1431D01*
X2039Y1431D02*
X2046Y1431D01*
X0Y1430D02*
X7Y1430D01*
X2039Y1430D02*
X2046Y1430D01*
X0Y1429D02*
X7Y1429D01*
X2039Y1429D02*
X2046Y1429D01*
X0Y1428D02*
X7Y1428D01*
X2039Y1428D02*
X2046Y1428D01*
X0Y1427D02*
X7Y1427D01*
X2039Y1427D02*
X2046Y1427D01*
X0Y1426D02*
X7Y1426D01*
X2039Y1426D02*
X2046Y1426D01*
X0Y1425D02*
X7Y1425D01*
X2039Y1425D02*
X2046Y1425D01*
X0Y1424D02*
X7Y1424D01*
X2039Y1424D02*
X2046Y1424D01*
X0Y1423D02*
X7Y1423D01*
X2039Y1423D02*
X2046Y1423D01*
X0Y1422D02*
X7Y1422D01*
X2039Y1422D02*
X2046Y1422D01*
X0Y1421D02*
X7Y1421D01*
X2039Y1421D02*
X2046Y1421D01*
X0Y1420D02*
X7Y1420D01*
X2039Y1420D02*
X2046Y1420D01*
X0Y1419D02*
X7Y1419D01*
X2039Y1419D02*
X2046Y1419D01*
X0Y1418D02*
X7Y1418D01*
X2039Y1418D02*
X2046Y1418D01*
X0Y1417D02*
X7Y1417D01*
X2039Y1417D02*
X2046Y1417D01*
X0Y1416D02*
X7Y1416D01*
X2039Y1416D02*
X2046Y1416D01*
X0Y1415D02*
X7Y1415D01*
X2039Y1415D02*
X2046Y1415D01*
X0Y1414D02*
X7Y1414D01*
X2039Y1414D02*
X2046Y1414D01*
X0Y1413D02*
X7Y1413D01*
X2039Y1413D02*
X2046Y1413D01*
X0Y1412D02*
X7Y1412D01*
X2039Y1412D02*
X2046Y1412D01*
X0Y1411D02*
X7Y1411D01*
X2039Y1411D02*
X2046Y1411D01*
X0Y1410D02*
X7Y1410D01*
X2039Y1410D02*
X2046Y1410D01*
X0Y1409D02*
X7Y1409D01*
X2039Y1409D02*
X2046Y1409D01*
X0Y1408D02*
X7Y1408D01*
X2039Y1408D02*
X2046Y1408D01*
X0Y1407D02*
X7Y1407D01*
X2039Y1407D02*
X2046Y1407D01*
X0Y1406D02*
X7Y1406D01*
X2039Y1406D02*
X2046Y1406D01*
X0Y1405D02*
X7Y1405D01*
X2039Y1405D02*
X2046Y1405D01*
X0Y1404D02*
X7Y1404D01*
X2039Y1404D02*
X2046Y1404D01*
X0Y1403D02*
X7Y1403D01*
X2039Y1403D02*
X2046Y1403D01*
X0Y1402D02*
X7Y1402D01*
X2039Y1402D02*
X2046Y1402D01*
X0Y1401D02*
X7Y1401D01*
X2039Y1401D02*
X2046Y1401D01*
X0Y1400D02*
X7Y1400D01*
X2039Y1400D02*
X2046Y1400D01*
X0Y1399D02*
X7Y1399D01*
X2039Y1399D02*
X2046Y1399D01*
X0Y1398D02*
X7Y1398D01*
X2039Y1398D02*
X2046Y1398D01*
X0Y1397D02*
X7Y1397D01*
X2039Y1397D02*
X2046Y1397D01*
X0Y1396D02*
X7Y1396D01*
X2039Y1396D02*
X2046Y1396D01*
X0Y1395D02*
X7Y1395D01*
X2039Y1395D02*
X2046Y1395D01*
X0Y1394D02*
X7Y1394D01*
X2039Y1394D02*
X2046Y1394D01*
X0Y1393D02*
X7Y1393D01*
X2039Y1393D02*
X2046Y1393D01*
X0Y1392D02*
X7Y1392D01*
X2039Y1392D02*
X2046Y1392D01*
X0Y1391D02*
X7Y1391D01*
X2039Y1391D02*
X2046Y1391D01*
X0Y1390D02*
X7Y1390D01*
X2039Y1390D02*
X2046Y1390D01*
X0Y1389D02*
X7Y1389D01*
X2039Y1389D02*
X2046Y1389D01*
X0Y1388D02*
X7Y1388D01*
X2039Y1388D02*
X2046Y1388D01*
X0Y1387D02*
X7Y1387D01*
X2039Y1387D02*
X2046Y1387D01*
X0Y1386D02*
X7Y1386D01*
X2039Y1386D02*
X2046Y1386D01*
X0Y1385D02*
X7Y1385D01*
X2039Y1385D02*
X2046Y1385D01*
X0Y1384D02*
X7Y1384D01*
X2039Y1384D02*
X2046Y1384D01*
X0Y1383D02*
X7Y1383D01*
X2039Y1383D02*
X2046Y1383D01*
X0Y1382D02*
X7Y1382D01*
X2039Y1382D02*
X2046Y1382D01*
X0Y1381D02*
X7Y1381D01*
X2039Y1381D02*
X2046Y1381D01*
X0Y1380D02*
X7Y1380D01*
X2039Y1380D02*
X2046Y1380D01*
X0Y1379D02*
X7Y1379D01*
X2039Y1379D02*
X2046Y1379D01*
X0Y1378D02*
X7Y1378D01*
X2039Y1378D02*
X2046Y1378D01*
X0Y1377D02*
X7Y1377D01*
X2039Y1377D02*
X2046Y1377D01*
X0Y1376D02*
X7Y1376D01*
X2039Y1376D02*
X2046Y1376D01*
X0Y1375D02*
X7Y1375D01*
X2039Y1375D02*
X2046Y1375D01*
X0Y1374D02*
X7Y1374D01*
X2039Y1374D02*
X2046Y1374D01*
X0Y1373D02*
X7Y1373D01*
X2039Y1373D02*
X2046Y1373D01*
X0Y1372D02*
X7Y1372D01*
X2039Y1372D02*
X2046Y1372D01*
X0Y1371D02*
X7Y1371D01*
X2039Y1371D02*
X2046Y1371D01*
X0Y1370D02*
X7Y1370D01*
X2039Y1370D02*
X2046Y1370D01*
X0Y1369D02*
X7Y1369D01*
X2039Y1369D02*
X2046Y1369D01*
X0Y1368D02*
X7Y1368D01*
X2039Y1368D02*
X2046Y1368D01*
X0Y1367D02*
X7Y1367D01*
X2039Y1367D02*
X2046Y1367D01*
X0Y1366D02*
X7Y1366D01*
X2039Y1366D02*
X2046Y1366D01*
X0Y1365D02*
X7Y1365D01*
X2039Y1365D02*
X2046Y1365D01*
X0Y1364D02*
X7Y1364D01*
X2039Y1364D02*
X2046Y1364D01*
X0Y1363D02*
X7Y1363D01*
X2039Y1363D02*
X2046Y1363D01*
X0Y1362D02*
X7Y1362D01*
X2039Y1362D02*
X2046Y1362D01*
X0Y1361D02*
X7Y1361D01*
X2039Y1361D02*
X2046Y1361D01*
X0Y1360D02*
X7Y1360D01*
X2039Y1360D02*
X2046Y1360D01*
X0Y1359D02*
X7Y1359D01*
X2039Y1359D02*
X2046Y1359D01*
X0Y1358D02*
X7Y1358D01*
X2039Y1358D02*
X2046Y1358D01*
X0Y1357D02*
X7Y1357D01*
X2039Y1357D02*
X2046Y1357D01*
X0Y1356D02*
X7Y1356D01*
X2039Y1356D02*
X2046Y1356D01*
X0Y1355D02*
X7Y1355D01*
X2039Y1355D02*
X2046Y1355D01*
X0Y1354D02*
X7Y1354D01*
X2039Y1354D02*
X2046Y1354D01*
X0Y1353D02*
X7Y1353D01*
X2039Y1353D02*
X2046Y1353D01*
X0Y1352D02*
X7Y1352D01*
X2039Y1352D02*
X2046Y1352D01*
X0Y1351D02*
X7Y1351D01*
X2039Y1351D02*
X2046Y1351D01*
X0Y1350D02*
X7Y1350D01*
X2039Y1350D02*
X2046Y1350D01*
X0Y1349D02*
X7Y1349D01*
X2039Y1349D02*
X2046Y1349D01*
X0Y1348D02*
X7Y1348D01*
X2039Y1348D02*
X2046Y1348D01*
X0Y1347D02*
X7Y1347D01*
X2039Y1347D02*
X2046Y1347D01*
X0Y1346D02*
X7Y1346D01*
X2039Y1346D02*
X2046Y1346D01*
X0Y1345D02*
X7Y1345D01*
X2039Y1345D02*
X2046Y1345D01*
X0Y1344D02*
X7Y1344D01*
X2039Y1344D02*
X2046Y1344D01*
X0Y1343D02*
X7Y1343D01*
X2039Y1343D02*
X2046Y1343D01*
X0Y1342D02*
X7Y1342D01*
X2039Y1342D02*
X2046Y1342D01*
X0Y1341D02*
X7Y1341D01*
X2039Y1341D02*
X2046Y1341D01*
X0Y1340D02*
X7Y1340D01*
X2039Y1340D02*
X2046Y1340D01*
X0Y1339D02*
X7Y1339D01*
X2039Y1339D02*
X2046Y1339D01*
X0Y1338D02*
X7Y1338D01*
X2039Y1338D02*
X2046Y1338D01*
X0Y1337D02*
X7Y1337D01*
X2039Y1337D02*
X2046Y1337D01*
X0Y1336D02*
X7Y1336D01*
X2039Y1336D02*
X2046Y1336D01*
X0Y1335D02*
X7Y1335D01*
X2039Y1335D02*
X2046Y1335D01*
X0Y1334D02*
X7Y1334D01*
X2039Y1334D02*
X2046Y1334D01*
X0Y1333D02*
X7Y1333D01*
X2039Y1333D02*
X2046Y1333D01*
X0Y1332D02*
X7Y1332D01*
X2039Y1332D02*
X2046Y1332D01*
X0Y1331D02*
X7Y1331D01*
X2039Y1331D02*
X2046Y1331D01*
X0Y1330D02*
X7Y1330D01*
X2039Y1330D02*
X2046Y1330D01*
X0Y1329D02*
X7Y1329D01*
X2039Y1329D02*
X2046Y1329D01*
X0Y1328D02*
X7Y1328D01*
X2039Y1328D02*
X2046Y1328D01*
X0Y1327D02*
X7Y1327D01*
X2039Y1327D02*
X2046Y1327D01*
X0Y1326D02*
X7Y1326D01*
X2039Y1326D02*
X2046Y1326D01*
X0Y1325D02*
X7Y1325D01*
X2039Y1325D02*
X2046Y1325D01*
X0Y1324D02*
X7Y1324D01*
X2039Y1324D02*
X2046Y1324D01*
X0Y1323D02*
X7Y1323D01*
X2039Y1323D02*
X2046Y1323D01*
X0Y1322D02*
X7Y1322D01*
X2039Y1322D02*
X2046Y1322D01*
X0Y1321D02*
X7Y1321D01*
X2039Y1321D02*
X2046Y1321D01*
X0Y1320D02*
X7Y1320D01*
X2039Y1320D02*
X2046Y1320D01*
X0Y1319D02*
X7Y1319D01*
X2039Y1319D02*
X2046Y1319D01*
X0Y1318D02*
X7Y1318D01*
X2039Y1318D02*
X2046Y1318D01*
X0Y1317D02*
X7Y1317D01*
X2039Y1317D02*
X2046Y1317D01*
X0Y1316D02*
X7Y1316D01*
X2039Y1316D02*
X2046Y1316D01*
X0Y1315D02*
X7Y1315D01*
X2039Y1315D02*
X2046Y1315D01*
X0Y1314D02*
X7Y1314D01*
X2039Y1314D02*
X2046Y1314D01*
X0Y1313D02*
X7Y1313D01*
X2039Y1313D02*
X2046Y1313D01*
X0Y1312D02*
X7Y1312D01*
X2039Y1312D02*
X2046Y1312D01*
X0Y1311D02*
X7Y1311D01*
X2039Y1311D02*
X2046Y1311D01*
X0Y1310D02*
X7Y1310D01*
X2039Y1310D02*
X2046Y1310D01*
X0Y1309D02*
X7Y1309D01*
X2039Y1309D02*
X2046Y1309D01*
X0Y1308D02*
X7Y1308D01*
X2039Y1308D02*
X2046Y1308D01*
X0Y1307D02*
X7Y1307D01*
X2039Y1307D02*
X2046Y1307D01*
X0Y1306D02*
X7Y1306D01*
X2039Y1306D02*
X2046Y1306D01*
X0Y1305D02*
X7Y1305D01*
X2039Y1305D02*
X2046Y1305D01*
X0Y1304D02*
X7Y1304D01*
X2039Y1304D02*
X2046Y1304D01*
X0Y1303D02*
X7Y1303D01*
X2039Y1303D02*
X2046Y1303D01*
X0Y1302D02*
X7Y1302D01*
X2039Y1302D02*
X2046Y1302D01*
X0Y1301D02*
X7Y1301D01*
X2039Y1301D02*
X2046Y1301D01*
X0Y1300D02*
X7Y1300D01*
X2039Y1300D02*
X2046Y1300D01*
X0Y1299D02*
X7Y1299D01*
X2039Y1299D02*
X2046Y1299D01*
X0Y1298D02*
X7Y1298D01*
X2039Y1298D02*
X2046Y1298D01*
X0Y1297D02*
X7Y1297D01*
X2039Y1297D02*
X2046Y1297D01*
X0Y1296D02*
X7Y1296D01*
X2039Y1296D02*
X2046Y1296D01*
X0Y1295D02*
X7Y1295D01*
X2039Y1295D02*
X2046Y1295D01*
X0Y1294D02*
X7Y1294D01*
X2039Y1294D02*
X2046Y1294D01*
X0Y1293D02*
X7Y1293D01*
X2039Y1293D02*
X2046Y1293D01*
X0Y1292D02*
X7Y1292D01*
X2039Y1292D02*
X2046Y1292D01*
X0Y1291D02*
X7Y1291D01*
X2039Y1291D02*
X2046Y1291D01*
X0Y1290D02*
X7Y1290D01*
X2039Y1290D02*
X2046Y1290D01*
X0Y1289D02*
X7Y1289D01*
X2039Y1289D02*
X2046Y1289D01*
X0Y1288D02*
X7Y1288D01*
X2039Y1288D02*
X2046Y1288D01*
X0Y1287D02*
X7Y1287D01*
X2039Y1287D02*
X2046Y1287D01*
X0Y1286D02*
X7Y1286D01*
X2039Y1286D02*
X2046Y1286D01*
X0Y1285D02*
X7Y1285D01*
X2039Y1285D02*
X2046Y1285D01*
X0Y1284D02*
X7Y1284D01*
X2039Y1284D02*
X2046Y1284D01*
X0Y1283D02*
X7Y1283D01*
X2039Y1283D02*
X2046Y1283D01*
X0Y1282D02*
X7Y1282D01*
X2039Y1282D02*
X2046Y1282D01*
X0Y1281D02*
X7Y1281D01*
X2039Y1281D02*
X2046Y1281D01*
X0Y1280D02*
X7Y1280D01*
X2039Y1280D02*
X2046Y1280D01*
X0Y1279D02*
X7Y1279D01*
X2039Y1279D02*
X2046Y1279D01*
X0Y1278D02*
X7Y1278D01*
X2039Y1278D02*
X2046Y1278D01*
X0Y1277D02*
X7Y1277D01*
X2039Y1277D02*
X2046Y1277D01*
X0Y1276D02*
X7Y1276D01*
X2039Y1276D02*
X2046Y1276D01*
X0Y1275D02*
X7Y1275D01*
X2039Y1275D02*
X2046Y1275D01*
X0Y1274D02*
X7Y1274D01*
X2039Y1274D02*
X2046Y1274D01*
X0Y1273D02*
X7Y1273D01*
X2039Y1273D02*
X2046Y1273D01*
X0Y1272D02*
X7Y1272D01*
X2039Y1272D02*
X2046Y1272D01*
X0Y1271D02*
X7Y1271D01*
X2039Y1271D02*
X2046Y1271D01*
X0Y1270D02*
X7Y1270D01*
X2039Y1270D02*
X2046Y1270D01*
X0Y1269D02*
X7Y1269D01*
X2039Y1269D02*
X2046Y1269D01*
X0Y1268D02*
X7Y1268D01*
X2039Y1268D02*
X2046Y1268D01*
X0Y1267D02*
X7Y1267D01*
X2039Y1267D02*
X2046Y1267D01*
X0Y1266D02*
X7Y1266D01*
X2039Y1266D02*
X2046Y1266D01*
X0Y1265D02*
X7Y1265D01*
X2039Y1265D02*
X2046Y1265D01*
X0Y1264D02*
X7Y1264D01*
X2039Y1264D02*
X2046Y1264D01*
X0Y1263D02*
X7Y1263D01*
X2039Y1263D02*
X2046Y1263D01*
X0Y1262D02*
X7Y1262D01*
X2039Y1262D02*
X2046Y1262D01*
X0Y1261D02*
X7Y1261D01*
X2039Y1261D02*
X2046Y1261D01*
X0Y1260D02*
X7Y1260D01*
X2039Y1260D02*
X2046Y1260D01*
X0Y1259D02*
X7Y1259D01*
X2039Y1259D02*
X2046Y1259D01*
X0Y1258D02*
X7Y1258D01*
X2039Y1258D02*
X2046Y1258D01*
X0Y1257D02*
X7Y1257D01*
X2039Y1257D02*
X2046Y1257D01*
X0Y1256D02*
X7Y1256D01*
X2039Y1256D02*
X2046Y1256D01*
X0Y1255D02*
X7Y1255D01*
X2039Y1255D02*
X2046Y1255D01*
X0Y1254D02*
X7Y1254D01*
X2039Y1254D02*
X2046Y1254D01*
X0Y1253D02*
X7Y1253D01*
X2039Y1253D02*
X2046Y1253D01*
X0Y1252D02*
X7Y1252D01*
X2039Y1252D02*
X2046Y1252D01*
X0Y1251D02*
X7Y1251D01*
X2039Y1251D02*
X2046Y1251D01*
X0Y1250D02*
X7Y1250D01*
X2039Y1250D02*
X2046Y1250D01*
X0Y1249D02*
X7Y1249D01*
X2039Y1249D02*
X2046Y1249D01*
X0Y1248D02*
X7Y1248D01*
X2039Y1248D02*
X2046Y1248D01*
X0Y1247D02*
X7Y1247D01*
X2039Y1247D02*
X2046Y1247D01*
X0Y1246D02*
X7Y1246D01*
X2039Y1246D02*
X2046Y1246D01*
X0Y1245D02*
X7Y1245D01*
X2039Y1245D02*
X2046Y1245D01*
X0Y1244D02*
X7Y1244D01*
X2039Y1244D02*
X2046Y1244D01*
X0Y1243D02*
X7Y1243D01*
X2039Y1243D02*
X2046Y1243D01*
X0Y1242D02*
X7Y1242D01*
X2039Y1242D02*
X2046Y1242D01*
X0Y1241D02*
X7Y1241D01*
X2039Y1241D02*
X2046Y1241D01*
X0Y1240D02*
X7Y1240D01*
X2039Y1240D02*
X2046Y1240D01*
X0Y1239D02*
X7Y1239D01*
X2039Y1239D02*
X2046Y1239D01*
X0Y1238D02*
X7Y1238D01*
X2039Y1238D02*
X2046Y1238D01*
X0Y1237D02*
X7Y1237D01*
X2039Y1237D02*
X2046Y1237D01*
X0Y1236D02*
X7Y1236D01*
X2039Y1236D02*
X2046Y1236D01*
X0Y1235D02*
X7Y1235D01*
X2039Y1235D02*
X2046Y1235D01*
X0Y1234D02*
X7Y1234D01*
X2039Y1234D02*
X2046Y1234D01*
X0Y1233D02*
X7Y1233D01*
X2039Y1233D02*
X2046Y1233D01*
X0Y1232D02*
X7Y1232D01*
X2039Y1232D02*
X2046Y1232D01*
X0Y1231D02*
X7Y1231D01*
X2039Y1231D02*
X2046Y1231D01*
X0Y1230D02*
X7Y1230D01*
X2039Y1230D02*
X2046Y1230D01*
X0Y1229D02*
X7Y1229D01*
X2039Y1229D02*
X2046Y1229D01*
X0Y1228D02*
X7Y1228D01*
X2039Y1228D02*
X2046Y1228D01*
X0Y1227D02*
X7Y1227D01*
X2039Y1227D02*
X2046Y1227D01*
X0Y1226D02*
X7Y1226D01*
X2039Y1226D02*
X2046Y1226D01*
X0Y1225D02*
X7Y1225D01*
X2039Y1225D02*
X2046Y1225D01*
X0Y1224D02*
X7Y1224D01*
X2039Y1224D02*
X2046Y1224D01*
X0Y1223D02*
X7Y1223D01*
X2039Y1223D02*
X2046Y1223D01*
X0Y1222D02*
X7Y1222D01*
X2039Y1222D02*
X2046Y1222D01*
X0Y1221D02*
X7Y1221D01*
X2039Y1221D02*
X2046Y1221D01*
X0Y1220D02*
X7Y1220D01*
X2039Y1220D02*
X2046Y1220D01*
X0Y1219D02*
X7Y1219D01*
X2039Y1219D02*
X2046Y1219D01*
X0Y1218D02*
X7Y1218D01*
X2039Y1218D02*
X2046Y1218D01*
X0Y1217D02*
X7Y1217D01*
X2039Y1217D02*
X2046Y1217D01*
X0Y1216D02*
X7Y1216D01*
X2039Y1216D02*
X2046Y1216D01*
X0Y1215D02*
X7Y1215D01*
X2039Y1215D02*
X2046Y1215D01*
X0Y1214D02*
X7Y1214D01*
X2039Y1214D02*
X2046Y1214D01*
X0Y1213D02*
X7Y1213D01*
X2039Y1213D02*
X2046Y1213D01*
X0Y1212D02*
X7Y1212D01*
X2039Y1212D02*
X2046Y1212D01*
X0Y1211D02*
X7Y1211D01*
X2039Y1211D02*
X2046Y1211D01*
X0Y1210D02*
X7Y1210D01*
X2039Y1210D02*
X2046Y1210D01*
X0Y1209D02*
X7Y1209D01*
X2039Y1209D02*
X2046Y1209D01*
X0Y1208D02*
X7Y1208D01*
X2039Y1208D02*
X2046Y1208D01*
X0Y1207D02*
X7Y1207D01*
X2039Y1207D02*
X2046Y1207D01*
X0Y1206D02*
X7Y1206D01*
X2039Y1206D02*
X2046Y1206D01*
X0Y1205D02*
X7Y1205D01*
X2039Y1205D02*
X2046Y1205D01*
X0Y1204D02*
X7Y1204D01*
X2039Y1204D02*
X2046Y1204D01*
X0Y1203D02*
X7Y1203D01*
X2039Y1203D02*
X2046Y1203D01*
X0Y1202D02*
X7Y1202D01*
X2039Y1202D02*
X2046Y1202D01*
X0Y1201D02*
X7Y1201D01*
X2039Y1201D02*
X2046Y1201D01*
X0Y1200D02*
X7Y1200D01*
X2039Y1200D02*
X2046Y1200D01*
X0Y1199D02*
X7Y1199D01*
X2039Y1199D02*
X2046Y1199D01*
X0Y1198D02*
X7Y1198D01*
X2039Y1198D02*
X2046Y1198D01*
X0Y1197D02*
X7Y1197D01*
X2039Y1197D02*
X2046Y1197D01*
X0Y1196D02*
X7Y1196D01*
X2039Y1196D02*
X2046Y1196D01*
X0Y1195D02*
X7Y1195D01*
X2039Y1195D02*
X2046Y1195D01*
X0Y1194D02*
X7Y1194D01*
X2039Y1194D02*
X2046Y1194D01*
X0Y1193D02*
X7Y1193D01*
X2039Y1193D02*
X2046Y1193D01*
X0Y1192D02*
X7Y1192D01*
X2039Y1192D02*
X2046Y1192D01*
X0Y1191D02*
X7Y1191D01*
X2039Y1191D02*
X2046Y1191D01*
X0Y1190D02*
X7Y1190D01*
X2039Y1190D02*
X2046Y1190D01*
X0Y1189D02*
X7Y1189D01*
X2039Y1189D02*
X2046Y1189D01*
X0Y1188D02*
X7Y1188D01*
X2039Y1188D02*
X2046Y1188D01*
X0Y1187D02*
X7Y1187D01*
X2039Y1187D02*
X2046Y1187D01*
X0Y1186D02*
X7Y1186D01*
X2039Y1186D02*
X2046Y1186D01*
X0Y1185D02*
X7Y1185D01*
X2039Y1185D02*
X2046Y1185D01*
X0Y1184D02*
X7Y1184D01*
X2039Y1184D02*
X2046Y1184D01*
X0Y1183D02*
X7Y1183D01*
X2039Y1183D02*
X2046Y1183D01*
X0Y1182D02*
X7Y1182D01*
X2039Y1182D02*
X2046Y1182D01*
X0Y1181D02*
X7Y1181D01*
X2039Y1181D02*
X2046Y1181D01*
X0Y1180D02*
X7Y1180D01*
X2039Y1180D02*
X2046Y1180D01*
X0Y1179D02*
X7Y1179D01*
X2039Y1179D02*
X2046Y1179D01*
X0Y1178D02*
X7Y1178D01*
X2039Y1178D02*
X2046Y1178D01*
X0Y1177D02*
X7Y1177D01*
X2039Y1177D02*
X2046Y1177D01*
X0Y1176D02*
X7Y1176D01*
X2039Y1176D02*
X2046Y1176D01*
X0Y1175D02*
X7Y1175D01*
X2039Y1175D02*
X2046Y1175D01*
X0Y1174D02*
X7Y1174D01*
X2039Y1174D02*
X2046Y1174D01*
X0Y1173D02*
X7Y1173D01*
X2039Y1173D02*
X2046Y1173D01*
X0Y1172D02*
X7Y1172D01*
X2039Y1172D02*
X2046Y1172D01*
X0Y1171D02*
X7Y1171D01*
X2039Y1171D02*
X2046Y1171D01*
X0Y1170D02*
X7Y1170D01*
X2039Y1170D02*
X2046Y1170D01*
X0Y1169D02*
X7Y1169D01*
X2039Y1169D02*
X2046Y1169D01*
X0Y1168D02*
X7Y1168D01*
X2039Y1168D02*
X2046Y1168D01*
X0Y1167D02*
X7Y1167D01*
X2039Y1167D02*
X2046Y1167D01*
X0Y1166D02*
X7Y1166D01*
X2039Y1166D02*
X2046Y1166D01*
X0Y1165D02*
X7Y1165D01*
X2039Y1165D02*
X2046Y1165D01*
X0Y1164D02*
X7Y1164D01*
X2039Y1164D02*
X2046Y1164D01*
X0Y1163D02*
X7Y1163D01*
X2039Y1163D02*
X2046Y1163D01*
X0Y1162D02*
X7Y1162D01*
X2039Y1162D02*
X2046Y1162D01*
X0Y1161D02*
X7Y1161D01*
X2039Y1161D02*
X2046Y1161D01*
X0Y1160D02*
X7Y1160D01*
X2039Y1160D02*
X2046Y1160D01*
X0Y1159D02*
X7Y1159D01*
X2039Y1159D02*
X2046Y1159D01*
X0Y1158D02*
X7Y1158D01*
X2039Y1158D02*
X2046Y1158D01*
X0Y1157D02*
X7Y1157D01*
X2039Y1157D02*
X2046Y1157D01*
X0Y1156D02*
X7Y1156D01*
X2039Y1156D02*
X2046Y1156D01*
X0Y1155D02*
X7Y1155D01*
X2039Y1155D02*
X2046Y1155D01*
X0Y1154D02*
X7Y1154D01*
X2039Y1154D02*
X2046Y1154D01*
X0Y1153D02*
X7Y1153D01*
X2039Y1153D02*
X2046Y1153D01*
X0Y1152D02*
X7Y1152D01*
X2039Y1152D02*
X2046Y1152D01*
X0Y1151D02*
X7Y1151D01*
X2039Y1151D02*
X2046Y1151D01*
X0Y1150D02*
X7Y1150D01*
X2039Y1150D02*
X2046Y1150D01*
X0Y1149D02*
X7Y1149D01*
X2039Y1149D02*
X2046Y1149D01*
X0Y1148D02*
X7Y1148D01*
X2039Y1148D02*
X2046Y1148D01*
X0Y1147D02*
X7Y1147D01*
X2039Y1147D02*
X2046Y1147D01*
X0Y1146D02*
X7Y1146D01*
X2039Y1146D02*
X2046Y1146D01*
X0Y1145D02*
X7Y1145D01*
X2039Y1145D02*
X2046Y1145D01*
X0Y1144D02*
X7Y1144D01*
X2039Y1144D02*
X2046Y1144D01*
X0Y1143D02*
X7Y1143D01*
X2039Y1143D02*
X2046Y1143D01*
X0Y1142D02*
X7Y1142D01*
X2039Y1142D02*
X2046Y1142D01*
X0Y1141D02*
X7Y1141D01*
X2039Y1141D02*
X2046Y1141D01*
X0Y1140D02*
X7Y1140D01*
X2039Y1140D02*
X2046Y1140D01*
X0Y1139D02*
X7Y1139D01*
X2039Y1139D02*
X2046Y1139D01*
X0Y1138D02*
X7Y1138D01*
X2039Y1138D02*
X2046Y1138D01*
X0Y1137D02*
X7Y1137D01*
X2039Y1137D02*
X2046Y1137D01*
X0Y1136D02*
X7Y1136D01*
X2039Y1136D02*
X2046Y1136D01*
X0Y1135D02*
X7Y1135D01*
X2039Y1135D02*
X2046Y1135D01*
X0Y1134D02*
X7Y1134D01*
X2039Y1134D02*
X2046Y1134D01*
X0Y1133D02*
X7Y1133D01*
X2039Y1133D02*
X2046Y1133D01*
X0Y1132D02*
X7Y1132D01*
X2039Y1132D02*
X2046Y1132D01*
X0Y1131D02*
X7Y1131D01*
X2039Y1131D02*
X2046Y1131D01*
X0Y1130D02*
X7Y1130D01*
X2039Y1130D02*
X2046Y1130D01*
X0Y1129D02*
X7Y1129D01*
X2039Y1129D02*
X2046Y1129D01*
X0Y1128D02*
X7Y1128D01*
X2039Y1128D02*
X2046Y1128D01*
X0Y1127D02*
X7Y1127D01*
X2039Y1127D02*
X2046Y1127D01*
X0Y1126D02*
X7Y1126D01*
X2039Y1126D02*
X2046Y1126D01*
X0Y1125D02*
X7Y1125D01*
X2039Y1125D02*
X2046Y1125D01*
X0Y1124D02*
X7Y1124D01*
X2039Y1124D02*
X2046Y1124D01*
X0Y1123D02*
X7Y1123D01*
X2039Y1123D02*
X2046Y1123D01*
X0Y1122D02*
X7Y1122D01*
X2039Y1122D02*
X2046Y1122D01*
X0Y1121D02*
X7Y1121D01*
X2039Y1121D02*
X2046Y1121D01*
X0Y1120D02*
X7Y1120D01*
X2039Y1120D02*
X2046Y1120D01*
X0Y1119D02*
X7Y1119D01*
X2039Y1119D02*
X2046Y1119D01*
X0Y1118D02*
X7Y1118D01*
X2039Y1118D02*
X2046Y1118D01*
X0Y1117D02*
X7Y1117D01*
X2039Y1117D02*
X2046Y1117D01*
X0Y1116D02*
X7Y1116D01*
X2039Y1116D02*
X2046Y1116D01*
X0Y1115D02*
X7Y1115D01*
X2039Y1115D02*
X2046Y1115D01*
X0Y1114D02*
X7Y1114D01*
X2039Y1114D02*
X2046Y1114D01*
X0Y1113D02*
X7Y1113D01*
X2039Y1113D02*
X2046Y1113D01*
X0Y1112D02*
X7Y1112D01*
X2039Y1112D02*
X2046Y1112D01*
X0Y1111D02*
X7Y1111D01*
X2039Y1111D02*
X2046Y1111D01*
X0Y1110D02*
X7Y1110D01*
X2039Y1110D02*
X2046Y1110D01*
X0Y1109D02*
X7Y1109D01*
X2039Y1109D02*
X2046Y1109D01*
X0Y1108D02*
X7Y1108D01*
X2039Y1108D02*
X2046Y1108D01*
X0Y1107D02*
X7Y1107D01*
X2039Y1107D02*
X2046Y1107D01*
X0Y1106D02*
X7Y1106D01*
X2039Y1106D02*
X2046Y1106D01*
X0Y1105D02*
X7Y1105D01*
X2039Y1105D02*
X2046Y1105D01*
X0Y1104D02*
X7Y1104D01*
X2039Y1104D02*
X2046Y1104D01*
X0Y1103D02*
X7Y1103D01*
X2039Y1103D02*
X2046Y1103D01*
X0Y1102D02*
X7Y1102D01*
X2039Y1102D02*
X2046Y1102D01*
X0Y1101D02*
X7Y1101D01*
X2039Y1101D02*
X2046Y1101D01*
X0Y1100D02*
X7Y1100D01*
X2039Y1100D02*
X2046Y1100D01*
X0Y1099D02*
X7Y1099D01*
X2039Y1099D02*
X2046Y1099D01*
X0Y1098D02*
X7Y1098D01*
X2039Y1098D02*
X2046Y1098D01*
X0Y1097D02*
X7Y1097D01*
X2039Y1097D02*
X2046Y1097D01*
X0Y1096D02*
X7Y1096D01*
X2039Y1096D02*
X2046Y1096D01*
X0Y1095D02*
X7Y1095D01*
X2039Y1095D02*
X2046Y1095D01*
X0Y1094D02*
X7Y1094D01*
X2039Y1094D02*
X2046Y1094D01*
X0Y1093D02*
X7Y1093D01*
X2039Y1093D02*
X2046Y1093D01*
X0Y1092D02*
X7Y1092D01*
X2039Y1092D02*
X2046Y1092D01*
X0Y1091D02*
X7Y1091D01*
X2039Y1091D02*
X2046Y1091D01*
X0Y1090D02*
X7Y1090D01*
X2039Y1090D02*
X2046Y1090D01*
X0Y1089D02*
X7Y1089D01*
X2039Y1089D02*
X2046Y1089D01*
X0Y1088D02*
X7Y1088D01*
X2039Y1088D02*
X2046Y1088D01*
X0Y1087D02*
X7Y1087D01*
X2039Y1087D02*
X2046Y1087D01*
X0Y1086D02*
X7Y1086D01*
X2039Y1086D02*
X2046Y1086D01*
X0Y1085D02*
X7Y1085D01*
X2039Y1085D02*
X2046Y1085D01*
X0Y1084D02*
X7Y1084D01*
X2039Y1084D02*
X2046Y1084D01*
X0Y1083D02*
X7Y1083D01*
X2039Y1083D02*
X2046Y1083D01*
X0Y1082D02*
X7Y1082D01*
X2039Y1082D02*
X2046Y1082D01*
X0Y1081D02*
X7Y1081D01*
X2039Y1081D02*
X2046Y1081D01*
X0Y1080D02*
X7Y1080D01*
X2039Y1080D02*
X2046Y1080D01*
X0Y1079D02*
X7Y1079D01*
X2039Y1079D02*
X2046Y1079D01*
X0Y1078D02*
X7Y1078D01*
X2039Y1078D02*
X2046Y1078D01*
X0Y1077D02*
X7Y1077D01*
X2039Y1077D02*
X2046Y1077D01*
X0Y1076D02*
X7Y1076D01*
X2039Y1076D02*
X2046Y1076D01*
X0Y1075D02*
X7Y1075D01*
X2039Y1075D02*
X2046Y1075D01*
X0Y1074D02*
X7Y1074D01*
X2039Y1074D02*
X2046Y1074D01*
X0Y1073D02*
X7Y1073D01*
X2039Y1073D02*
X2046Y1073D01*
X0Y1072D02*
X7Y1072D01*
X2039Y1072D02*
X2046Y1072D01*
X0Y1071D02*
X7Y1071D01*
X2039Y1071D02*
X2046Y1071D01*
X0Y1070D02*
X7Y1070D01*
X2039Y1070D02*
X2046Y1070D01*
X0Y1069D02*
X7Y1069D01*
X2039Y1069D02*
X2046Y1069D01*
X0Y1068D02*
X7Y1068D01*
X2039Y1068D02*
X2046Y1068D01*
X0Y1067D02*
X7Y1067D01*
X2039Y1067D02*
X2046Y1067D01*
X0Y1066D02*
X7Y1066D01*
X2039Y1066D02*
X2046Y1066D01*
X0Y1065D02*
X7Y1065D01*
X2039Y1065D02*
X2046Y1065D01*
X0Y1064D02*
X7Y1064D01*
X2039Y1064D02*
X2046Y1064D01*
X0Y1063D02*
X7Y1063D01*
X2039Y1063D02*
X2046Y1063D01*
X0Y1062D02*
X7Y1062D01*
X2039Y1062D02*
X2046Y1062D01*
X0Y1061D02*
X7Y1061D01*
X2039Y1061D02*
X2046Y1061D01*
X0Y1060D02*
X7Y1060D01*
X2039Y1060D02*
X2046Y1060D01*
X0Y1059D02*
X7Y1059D01*
X2039Y1059D02*
X2046Y1059D01*
X0Y1058D02*
X7Y1058D01*
X2039Y1058D02*
X2046Y1058D01*
X0Y1057D02*
X7Y1057D01*
X2039Y1057D02*
X2046Y1057D01*
X0Y1056D02*
X7Y1056D01*
X2039Y1056D02*
X2046Y1056D01*
X0Y1055D02*
X7Y1055D01*
X2039Y1055D02*
X2046Y1055D01*
X0Y1054D02*
X7Y1054D01*
X2039Y1054D02*
X2046Y1054D01*
X0Y1053D02*
X7Y1053D01*
X2039Y1053D02*
X2046Y1053D01*
X0Y1052D02*
X7Y1052D01*
X2039Y1052D02*
X2046Y1052D01*
X0Y1051D02*
X7Y1051D01*
X2039Y1051D02*
X2046Y1051D01*
X0Y1050D02*
X7Y1050D01*
X2039Y1050D02*
X2046Y1050D01*
X0Y1049D02*
X7Y1049D01*
X2039Y1049D02*
X2046Y1049D01*
X0Y1048D02*
X7Y1048D01*
X2039Y1048D02*
X2046Y1048D01*
X0Y1047D02*
X7Y1047D01*
X2039Y1047D02*
X2046Y1047D01*
X0Y1046D02*
X7Y1046D01*
X2039Y1046D02*
X2046Y1046D01*
X0Y1045D02*
X7Y1045D01*
X2039Y1045D02*
X2046Y1045D01*
X0Y1044D02*
X7Y1044D01*
X2039Y1044D02*
X2046Y1044D01*
X0Y1043D02*
X7Y1043D01*
X2039Y1043D02*
X2046Y1043D01*
X0Y1042D02*
X7Y1042D01*
X2039Y1042D02*
X2046Y1042D01*
X0Y1041D02*
X7Y1041D01*
X2039Y1041D02*
X2046Y1041D01*
X0Y1040D02*
X7Y1040D01*
X2039Y1040D02*
X2046Y1040D01*
X0Y1039D02*
X7Y1039D01*
X2039Y1039D02*
X2046Y1039D01*
X0Y1038D02*
X7Y1038D01*
X2039Y1038D02*
X2046Y1038D01*
X0Y1037D02*
X7Y1037D01*
X2039Y1037D02*
X2046Y1037D01*
X0Y1036D02*
X7Y1036D01*
X2039Y1036D02*
X2046Y1036D01*
X0Y1035D02*
X7Y1035D01*
X2039Y1035D02*
X2046Y1035D01*
X0Y1034D02*
X7Y1034D01*
X2039Y1034D02*
X2046Y1034D01*
X0Y1033D02*
X7Y1033D01*
X2039Y1033D02*
X2046Y1033D01*
X0Y1032D02*
X7Y1032D01*
X2039Y1032D02*
X2046Y1032D01*
X0Y1031D02*
X7Y1031D01*
X2039Y1031D02*
X2046Y1031D01*
X0Y1030D02*
X7Y1030D01*
X2039Y1030D02*
X2046Y1030D01*
X0Y1029D02*
X7Y1029D01*
X2039Y1029D02*
X2046Y1029D01*
X0Y1028D02*
X7Y1028D01*
X2039Y1028D02*
X2046Y1028D01*
X0Y1027D02*
X7Y1027D01*
X2039Y1027D02*
X2046Y1027D01*
X0Y1026D02*
X7Y1026D01*
X2039Y1026D02*
X2046Y1026D01*
X0Y1025D02*
X7Y1025D01*
X2039Y1025D02*
X2046Y1025D01*
X0Y1024D02*
X7Y1024D01*
X2039Y1024D02*
X2046Y1024D01*
X0Y1023D02*
X7Y1023D01*
X2039Y1023D02*
X2046Y1023D01*
X0Y1022D02*
X7Y1022D01*
X2039Y1022D02*
X2046Y1022D01*
X0Y1021D02*
X7Y1021D01*
X2039Y1021D02*
X2046Y1021D01*
X0Y1020D02*
X7Y1020D01*
X2039Y1020D02*
X2046Y1020D01*
X0Y1019D02*
X7Y1019D01*
X2039Y1019D02*
X2046Y1019D01*
X0Y1018D02*
X7Y1018D01*
X2039Y1018D02*
X2046Y1018D01*
X0Y1017D02*
X7Y1017D01*
X2039Y1017D02*
X2046Y1017D01*
X0Y1016D02*
X7Y1016D01*
X2039Y1016D02*
X2046Y1016D01*
X0Y1015D02*
X7Y1015D01*
X2039Y1015D02*
X2046Y1015D01*
X0Y1014D02*
X7Y1014D01*
X2039Y1014D02*
X2046Y1014D01*
X0Y1013D02*
X7Y1013D01*
X2039Y1013D02*
X2046Y1013D01*
X0Y1012D02*
X7Y1012D01*
X2039Y1012D02*
X2046Y1012D01*
X0Y1011D02*
X7Y1011D01*
X2039Y1011D02*
X2046Y1011D01*
X0Y1010D02*
X7Y1010D01*
X2039Y1010D02*
X2046Y1010D01*
X0Y1009D02*
X7Y1009D01*
X2039Y1009D02*
X2046Y1009D01*
X0Y1008D02*
X7Y1008D01*
X2039Y1008D02*
X2046Y1008D01*
X0Y1007D02*
X7Y1007D01*
X2039Y1007D02*
X2046Y1007D01*
X0Y1006D02*
X7Y1006D01*
X2039Y1006D02*
X2046Y1006D01*
X0Y1005D02*
X7Y1005D01*
X2039Y1005D02*
X2046Y1005D01*
X0Y1004D02*
X7Y1004D01*
X2039Y1004D02*
X2046Y1004D01*
X0Y1003D02*
X7Y1003D01*
X2039Y1003D02*
X2046Y1003D01*
X0Y1002D02*
X7Y1002D01*
X2039Y1002D02*
X2046Y1002D01*
X0Y1001D02*
X7Y1001D01*
X2039Y1001D02*
X2046Y1001D01*
X0Y1000D02*
X7Y1000D01*
X2039Y1000D02*
X2046Y1000D01*
X0Y999D02*
X7Y999D01*
X2039Y999D02*
X2046Y999D01*
X0Y998D02*
X7Y998D01*
X2039Y998D02*
X2046Y998D01*
X0Y997D02*
X7Y997D01*
X2039Y997D02*
X2046Y997D01*
X0Y996D02*
X7Y996D01*
X2039Y996D02*
X2046Y996D01*
X0Y995D02*
X7Y995D01*
X2039Y995D02*
X2046Y995D01*
X0Y994D02*
X7Y994D01*
X2039Y994D02*
X2046Y994D01*
X0Y993D02*
X7Y993D01*
X2039Y993D02*
X2046Y993D01*
X0Y992D02*
X7Y992D01*
X2039Y992D02*
X2046Y992D01*
X0Y991D02*
X7Y991D01*
X2039Y991D02*
X2046Y991D01*
X0Y990D02*
X7Y990D01*
X2039Y990D02*
X2046Y990D01*
X0Y989D02*
X7Y989D01*
X2039Y989D02*
X2046Y989D01*
X0Y988D02*
X7Y988D01*
X2039Y988D02*
X2046Y988D01*
X0Y987D02*
X7Y987D01*
X2039Y987D02*
X2046Y987D01*
X0Y986D02*
X7Y986D01*
X2039Y986D02*
X2046Y986D01*
X0Y985D02*
X7Y985D01*
X2039Y985D02*
X2046Y985D01*
X0Y984D02*
X7Y984D01*
X2039Y984D02*
X2046Y984D01*
X0Y983D02*
X7Y983D01*
X2039Y983D02*
X2046Y983D01*
X0Y982D02*
X7Y982D01*
X2039Y982D02*
X2046Y982D01*
X0Y981D02*
X7Y981D01*
X2039Y981D02*
X2046Y981D01*
X0Y980D02*
X7Y980D01*
X2039Y980D02*
X2046Y980D01*
X0Y979D02*
X7Y979D01*
X2039Y979D02*
X2046Y979D01*
X0Y978D02*
X7Y978D01*
X2039Y978D02*
X2046Y978D01*
X0Y977D02*
X7Y977D01*
X2039Y977D02*
X2046Y977D01*
X0Y976D02*
X7Y976D01*
X2039Y976D02*
X2046Y976D01*
X0Y975D02*
X7Y975D01*
X2039Y975D02*
X2046Y975D01*
X0Y974D02*
X7Y974D01*
X2039Y974D02*
X2046Y974D01*
X0Y973D02*
X7Y973D01*
X2039Y973D02*
X2046Y973D01*
X0Y972D02*
X7Y972D01*
X2039Y972D02*
X2046Y972D01*
X0Y971D02*
X7Y971D01*
X2039Y971D02*
X2046Y971D01*
X0Y970D02*
X7Y970D01*
X2039Y970D02*
X2046Y970D01*
X0Y969D02*
X7Y969D01*
X2039Y969D02*
X2046Y969D01*
X0Y968D02*
X7Y968D01*
X2039Y968D02*
X2046Y968D01*
X0Y967D02*
X7Y967D01*
X2039Y967D02*
X2046Y967D01*
X0Y966D02*
X7Y966D01*
X2039Y966D02*
X2046Y966D01*
X0Y965D02*
X7Y965D01*
X2039Y965D02*
X2046Y965D01*
X0Y964D02*
X7Y964D01*
X2039Y964D02*
X2046Y964D01*
X0Y963D02*
X7Y963D01*
X2039Y963D02*
X2046Y963D01*
X0Y962D02*
X7Y962D01*
X2039Y962D02*
X2046Y962D01*
X0Y961D02*
X7Y961D01*
X2039Y961D02*
X2046Y961D01*
X0Y960D02*
X7Y960D01*
X2039Y960D02*
X2046Y960D01*
X0Y959D02*
X7Y959D01*
X2039Y959D02*
X2046Y959D01*
X0Y958D02*
X7Y958D01*
X2039Y958D02*
X2046Y958D01*
X0Y957D02*
X7Y957D01*
X2039Y957D02*
X2046Y957D01*
X0Y956D02*
X7Y956D01*
X2039Y956D02*
X2046Y956D01*
X0Y955D02*
X7Y955D01*
X2039Y955D02*
X2046Y955D01*
X0Y954D02*
X7Y954D01*
X2039Y954D02*
X2046Y954D01*
X0Y953D02*
X7Y953D01*
X2039Y953D02*
X2046Y953D01*
X0Y952D02*
X7Y952D01*
X2039Y952D02*
X2046Y952D01*
X0Y951D02*
X7Y951D01*
X2039Y951D02*
X2046Y951D01*
X0Y950D02*
X7Y950D01*
X2039Y950D02*
X2046Y950D01*
X0Y949D02*
X7Y949D01*
X2039Y949D02*
X2046Y949D01*
X0Y948D02*
X7Y948D01*
X2039Y948D02*
X2046Y948D01*
X0Y947D02*
X7Y947D01*
X2039Y947D02*
X2046Y947D01*
X0Y946D02*
X7Y946D01*
X2039Y946D02*
X2046Y946D01*
X0Y945D02*
X7Y945D01*
X2039Y945D02*
X2046Y945D01*
X0Y944D02*
X7Y944D01*
X2039Y944D02*
X2046Y944D01*
X0Y943D02*
X7Y943D01*
X2039Y943D02*
X2046Y943D01*
X0Y942D02*
X7Y942D01*
X2039Y942D02*
X2046Y942D01*
X0Y941D02*
X7Y941D01*
X2039Y941D02*
X2046Y941D01*
X0Y940D02*
X7Y940D01*
X2039Y940D02*
X2046Y940D01*
X0Y939D02*
X7Y939D01*
X2039Y939D02*
X2046Y939D01*
X0Y938D02*
X7Y938D01*
X2039Y938D02*
X2046Y938D01*
X0Y937D02*
X7Y937D01*
X2039Y937D02*
X2046Y937D01*
X0Y936D02*
X7Y936D01*
X2039Y936D02*
X2046Y936D01*
X0Y935D02*
X7Y935D01*
X2039Y935D02*
X2046Y935D01*
X0Y934D02*
X7Y934D01*
X2039Y934D02*
X2046Y934D01*
X0Y933D02*
X7Y933D01*
X2039Y933D02*
X2046Y933D01*
X0Y932D02*
X7Y932D01*
X2039Y932D02*
X2046Y932D01*
X0Y931D02*
X7Y931D01*
X2039Y931D02*
X2046Y931D01*
X0Y930D02*
X7Y930D01*
X2039Y930D02*
X2046Y930D01*
X0Y929D02*
X7Y929D01*
X2039Y929D02*
X2046Y929D01*
X0Y928D02*
X7Y928D01*
X2039Y928D02*
X2046Y928D01*
X0Y927D02*
X7Y927D01*
X2039Y927D02*
X2046Y927D01*
X0Y926D02*
X7Y926D01*
X2039Y926D02*
X2046Y926D01*
X0Y925D02*
X7Y925D01*
X2039Y925D02*
X2046Y925D01*
X0Y924D02*
X7Y924D01*
X2039Y924D02*
X2046Y924D01*
X0Y923D02*
X7Y923D01*
X2039Y923D02*
X2046Y923D01*
X0Y922D02*
X7Y922D01*
X2039Y922D02*
X2046Y922D01*
X0Y921D02*
X7Y921D01*
X2039Y921D02*
X2046Y921D01*
X0Y920D02*
X7Y920D01*
X2039Y920D02*
X2046Y920D01*
X0Y919D02*
X7Y919D01*
X2039Y919D02*
X2046Y919D01*
X0Y918D02*
X7Y918D01*
X2039Y918D02*
X2046Y918D01*
X0Y917D02*
X7Y917D01*
X2039Y917D02*
X2046Y917D01*
X0Y916D02*
X7Y916D01*
X2039Y916D02*
X2046Y916D01*
X0Y915D02*
X7Y915D01*
X2039Y915D02*
X2046Y915D01*
X0Y914D02*
X7Y914D01*
X2039Y914D02*
X2046Y914D01*
X0Y913D02*
X7Y913D01*
X2039Y913D02*
X2046Y913D01*
X0Y912D02*
X7Y912D01*
X2039Y912D02*
X2046Y912D01*
X0Y911D02*
X7Y911D01*
X2039Y911D02*
X2046Y911D01*
X0Y910D02*
X7Y910D01*
X2039Y910D02*
X2046Y910D01*
X0Y909D02*
X7Y909D01*
X2039Y909D02*
X2046Y909D01*
X0Y908D02*
X7Y908D01*
X2039Y908D02*
X2046Y908D01*
X0Y907D02*
X7Y907D01*
X2039Y907D02*
X2046Y907D01*
X0Y906D02*
X7Y906D01*
X2039Y906D02*
X2046Y906D01*
X0Y905D02*
X7Y905D01*
X2039Y905D02*
X2046Y905D01*
X0Y904D02*
X7Y904D01*
X2039Y904D02*
X2046Y904D01*
X0Y903D02*
X7Y903D01*
X2039Y903D02*
X2046Y903D01*
X0Y902D02*
X7Y902D01*
X2039Y902D02*
X2046Y902D01*
X0Y901D02*
X7Y901D01*
X2039Y901D02*
X2046Y901D01*
X0Y900D02*
X7Y900D01*
X2039Y900D02*
X2046Y900D01*
X0Y899D02*
X7Y899D01*
X2039Y899D02*
X2046Y899D01*
X0Y898D02*
X7Y898D01*
X2039Y898D02*
X2046Y898D01*
X0Y897D02*
X7Y897D01*
X2039Y897D02*
X2046Y897D01*
X0Y896D02*
X7Y896D01*
X2039Y896D02*
X2046Y896D01*
X0Y895D02*
X7Y895D01*
X2039Y895D02*
X2046Y895D01*
X0Y894D02*
X7Y894D01*
X2039Y894D02*
X2046Y894D01*
X0Y893D02*
X7Y893D01*
X2039Y893D02*
X2046Y893D01*
X0Y892D02*
X7Y892D01*
X2039Y892D02*
X2046Y892D01*
X0Y891D02*
X7Y891D01*
X2039Y891D02*
X2046Y891D01*
X0Y890D02*
X7Y890D01*
X2039Y890D02*
X2046Y890D01*
X0Y889D02*
X7Y889D01*
X2039Y889D02*
X2046Y889D01*
X0Y888D02*
X7Y888D01*
X2039Y888D02*
X2046Y888D01*
X0Y887D02*
X7Y887D01*
X2039Y887D02*
X2046Y887D01*
X0Y886D02*
X7Y886D01*
X2039Y886D02*
X2046Y886D01*
X0Y885D02*
X7Y885D01*
X2039Y885D02*
X2046Y885D01*
X0Y884D02*
X7Y884D01*
X2039Y884D02*
X2046Y884D01*
X0Y883D02*
X7Y883D01*
X2039Y883D02*
X2046Y883D01*
X0Y882D02*
X7Y882D01*
X2039Y882D02*
X2046Y882D01*
X0Y881D02*
X7Y881D01*
X2039Y881D02*
X2046Y881D01*
X0Y880D02*
X7Y880D01*
X2039Y880D02*
X2046Y880D01*
X0Y879D02*
X7Y879D01*
X2039Y879D02*
X2046Y879D01*
X0Y878D02*
X7Y878D01*
X2039Y878D02*
X2046Y878D01*
X0Y877D02*
X7Y877D01*
X2039Y877D02*
X2046Y877D01*
X0Y876D02*
X7Y876D01*
X2039Y876D02*
X2046Y876D01*
X0Y875D02*
X7Y875D01*
X2039Y875D02*
X2046Y875D01*
X0Y874D02*
X7Y874D01*
X2039Y874D02*
X2046Y874D01*
X0Y873D02*
X7Y873D01*
X2039Y873D02*
X2046Y873D01*
X0Y872D02*
X7Y872D01*
X2039Y872D02*
X2046Y872D01*
X0Y871D02*
X7Y871D01*
X2039Y871D02*
X2046Y871D01*
X0Y870D02*
X7Y870D01*
X2039Y870D02*
X2046Y870D01*
X0Y869D02*
X7Y869D01*
X2039Y869D02*
X2046Y869D01*
X0Y868D02*
X7Y868D01*
X2039Y868D02*
X2046Y868D01*
X0Y867D02*
X7Y867D01*
X2039Y867D02*
X2046Y867D01*
X0Y866D02*
X7Y866D01*
X2039Y866D02*
X2046Y866D01*
X0Y865D02*
X7Y865D01*
X2039Y865D02*
X2046Y865D01*
X0Y864D02*
X7Y864D01*
X2039Y864D02*
X2046Y864D01*
X0Y863D02*
X7Y863D01*
X2039Y863D02*
X2046Y863D01*
X0Y862D02*
X7Y862D01*
X2039Y862D02*
X2046Y862D01*
X0Y861D02*
X7Y861D01*
X2039Y861D02*
X2046Y861D01*
X0Y860D02*
X7Y860D01*
X2039Y860D02*
X2046Y860D01*
X0Y859D02*
X7Y859D01*
X2039Y859D02*
X2046Y859D01*
X0Y858D02*
X7Y858D01*
X2039Y858D02*
X2046Y858D01*
X0Y857D02*
X7Y857D01*
X2039Y857D02*
X2046Y857D01*
X0Y856D02*
X7Y856D01*
X2039Y856D02*
X2046Y856D01*
X0Y855D02*
X7Y855D01*
X2039Y855D02*
X2046Y855D01*
X0Y854D02*
X7Y854D01*
X2039Y854D02*
X2046Y854D01*
X0Y853D02*
X7Y853D01*
X2039Y853D02*
X2046Y853D01*
X0Y852D02*
X7Y852D01*
X2039Y852D02*
X2046Y852D01*
X0Y851D02*
X7Y851D01*
X2039Y851D02*
X2046Y851D01*
X0Y850D02*
X7Y850D01*
X2039Y850D02*
X2046Y850D01*
X0Y849D02*
X7Y849D01*
X2039Y849D02*
X2046Y849D01*
X0Y848D02*
X7Y848D01*
X2039Y848D02*
X2046Y848D01*
X0Y847D02*
X7Y847D01*
X2039Y847D02*
X2046Y847D01*
X0Y846D02*
X7Y846D01*
X2039Y846D02*
X2046Y846D01*
X0Y845D02*
X7Y845D01*
X2039Y845D02*
X2046Y845D01*
X0Y844D02*
X7Y844D01*
X2039Y844D02*
X2046Y844D01*
X0Y843D02*
X7Y843D01*
X2039Y843D02*
X2046Y843D01*
X0Y842D02*
X7Y842D01*
X2039Y842D02*
X2046Y842D01*
X0Y841D02*
X7Y841D01*
X2039Y841D02*
X2046Y841D01*
X0Y840D02*
X7Y840D01*
X2039Y840D02*
X2046Y840D01*
X0Y839D02*
X7Y839D01*
X2039Y839D02*
X2046Y839D01*
X0Y838D02*
X7Y838D01*
X2039Y838D02*
X2046Y838D01*
X0Y837D02*
X7Y837D01*
X2039Y837D02*
X2046Y837D01*
X0Y836D02*
X7Y836D01*
X2039Y836D02*
X2046Y836D01*
X0Y835D02*
X7Y835D01*
X2039Y835D02*
X2046Y835D01*
X0Y834D02*
X7Y834D01*
X2039Y834D02*
X2046Y834D01*
X0Y833D02*
X7Y833D01*
X2039Y833D02*
X2046Y833D01*
X0Y832D02*
X7Y832D01*
X2039Y832D02*
X2046Y832D01*
X0Y831D02*
X7Y831D01*
X2039Y831D02*
X2046Y831D01*
X0Y830D02*
X7Y830D01*
X2039Y830D02*
X2046Y830D01*
X0Y829D02*
X7Y829D01*
X2039Y829D02*
X2046Y829D01*
X0Y828D02*
X7Y828D01*
X2039Y828D02*
X2046Y828D01*
X0Y827D02*
X7Y827D01*
X2039Y827D02*
X2046Y827D01*
X0Y826D02*
X7Y826D01*
X2039Y826D02*
X2046Y826D01*
X0Y825D02*
X7Y825D01*
X2039Y825D02*
X2046Y825D01*
X0Y824D02*
X7Y824D01*
X2039Y824D02*
X2046Y824D01*
X0Y823D02*
X7Y823D01*
X2039Y823D02*
X2046Y823D01*
X0Y822D02*
X7Y822D01*
X2039Y822D02*
X2046Y822D01*
X0Y821D02*
X7Y821D01*
X2039Y821D02*
X2046Y821D01*
X0Y820D02*
X7Y820D01*
X2039Y820D02*
X2046Y820D01*
X0Y819D02*
X7Y819D01*
X2039Y819D02*
X2046Y819D01*
X0Y818D02*
X7Y818D01*
X2039Y818D02*
X2046Y818D01*
X0Y817D02*
X7Y817D01*
X2039Y817D02*
X2046Y817D01*
X0Y816D02*
X7Y816D01*
X2039Y816D02*
X2046Y816D01*
X0Y815D02*
X7Y815D01*
X2039Y815D02*
X2046Y815D01*
X0Y814D02*
X7Y814D01*
X2039Y814D02*
X2046Y814D01*
X0Y813D02*
X7Y813D01*
X2039Y813D02*
X2046Y813D01*
X0Y812D02*
X7Y812D01*
X2039Y812D02*
X2046Y812D01*
X0Y811D02*
X7Y811D01*
X2039Y811D02*
X2046Y811D01*
X0Y810D02*
X7Y810D01*
X2039Y810D02*
X2046Y810D01*
X0Y809D02*
X7Y809D01*
X2039Y809D02*
X2046Y809D01*
X0Y808D02*
X7Y808D01*
X2039Y808D02*
X2046Y808D01*
X0Y807D02*
X7Y807D01*
X2039Y807D02*
X2046Y807D01*
X0Y806D02*
X7Y806D01*
X2039Y806D02*
X2046Y806D01*
X0Y805D02*
X7Y805D01*
X2039Y805D02*
X2046Y805D01*
X0Y804D02*
X7Y804D01*
X2039Y804D02*
X2046Y804D01*
X0Y803D02*
X7Y803D01*
X2039Y803D02*
X2046Y803D01*
X0Y802D02*
X7Y802D01*
X2039Y802D02*
X2046Y802D01*
X0Y801D02*
X7Y801D01*
X2039Y801D02*
X2046Y801D01*
X0Y800D02*
X7Y800D01*
X2039Y800D02*
X2046Y800D01*
X0Y799D02*
X7Y799D01*
X2039Y799D02*
X2046Y799D01*
X0Y798D02*
X7Y798D01*
X2039Y798D02*
X2046Y798D01*
X0Y797D02*
X7Y797D01*
X2039Y797D02*
X2046Y797D01*
X0Y796D02*
X7Y796D01*
X2039Y796D02*
X2046Y796D01*
X0Y795D02*
X7Y795D01*
X2039Y795D02*
X2046Y795D01*
X0Y794D02*
X7Y794D01*
X2039Y794D02*
X2046Y794D01*
X0Y793D02*
X7Y793D01*
X2039Y793D02*
X2046Y793D01*
X0Y792D02*
X7Y792D01*
X2039Y792D02*
X2046Y792D01*
X0Y791D02*
X7Y791D01*
X2039Y791D02*
X2046Y791D01*
X0Y790D02*
X7Y790D01*
X2039Y790D02*
X2046Y790D01*
X0Y789D02*
X7Y789D01*
X2039Y789D02*
X2046Y789D01*
X0Y788D02*
X7Y788D01*
X2039Y788D02*
X2046Y788D01*
X0Y787D02*
X7Y787D01*
X2039Y787D02*
X2046Y787D01*
X0Y786D02*
X7Y786D01*
X2039Y786D02*
X2046Y786D01*
X0Y785D02*
X7Y785D01*
X2039Y785D02*
X2046Y785D01*
X0Y784D02*
X7Y784D01*
X2039Y784D02*
X2046Y784D01*
X0Y783D02*
X7Y783D01*
X2039Y783D02*
X2046Y783D01*
X0Y782D02*
X7Y782D01*
X2039Y782D02*
X2046Y782D01*
X0Y781D02*
X7Y781D01*
X2039Y781D02*
X2046Y781D01*
X0Y780D02*
X7Y780D01*
X2039Y780D02*
X2046Y780D01*
X0Y779D02*
X7Y779D01*
X2039Y779D02*
X2046Y779D01*
X0Y778D02*
X7Y778D01*
X2039Y778D02*
X2046Y778D01*
X0Y777D02*
X7Y777D01*
X2039Y777D02*
X2046Y777D01*
X0Y776D02*
X7Y776D01*
X2039Y776D02*
X2046Y776D01*
X0Y775D02*
X7Y775D01*
X2039Y775D02*
X2046Y775D01*
X0Y774D02*
X7Y774D01*
X2039Y774D02*
X2046Y774D01*
X0Y773D02*
X7Y773D01*
X2039Y773D02*
X2046Y773D01*
X0Y772D02*
X7Y772D01*
X2039Y772D02*
X2046Y772D01*
X0Y771D02*
X7Y771D01*
X2039Y771D02*
X2046Y771D01*
X0Y770D02*
X7Y770D01*
X2039Y770D02*
X2046Y770D01*
X0Y769D02*
X7Y769D01*
X2039Y769D02*
X2046Y769D01*
X0Y768D02*
X7Y768D01*
X2039Y768D02*
X2046Y768D01*
X0Y767D02*
X7Y767D01*
X2039Y767D02*
X2046Y767D01*
X0Y766D02*
X7Y766D01*
X2039Y766D02*
X2046Y766D01*
X0Y765D02*
X7Y765D01*
X2039Y765D02*
X2046Y765D01*
X0Y764D02*
X7Y764D01*
X2039Y764D02*
X2046Y764D01*
X0Y763D02*
X7Y763D01*
X2039Y763D02*
X2046Y763D01*
X0Y762D02*
X7Y762D01*
X2039Y762D02*
X2046Y762D01*
X0Y761D02*
X7Y761D01*
X2039Y761D02*
X2046Y761D01*
X0Y760D02*
X7Y760D01*
X2039Y760D02*
X2046Y760D01*
X0Y759D02*
X7Y759D01*
X2039Y759D02*
X2046Y759D01*
X0Y758D02*
X7Y758D01*
X2039Y758D02*
X2046Y758D01*
X0Y757D02*
X7Y757D01*
X2039Y757D02*
X2046Y757D01*
X0Y756D02*
X7Y756D01*
X2039Y756D02*
X2046Y756D01*
X0Y755D02*
X7Y755D01*
X2039Y755D02*
X2046Y755D01*
X0Y754D02*
X7Y754D01*
X2039Y754D02*
X2046Y754D01*
X0Y753D02*
X7Y753D01*
X2039Y753D02*
X2046Y753D01*
X0Y752D02*
X7Y752D01*
X2039Y752D02*
X2046Y752D01*
X0Y751D02*
X7Y751D01*
X2039Y751D02*
X2046Y751D01*
X0Y750D02*
X7Y750D01*
X2039Y750D02*
X2046Y750D01*
X0Y749D02*
X7Y749D01*
X2039Y749D02*
X2046Y749D01*
X0Y748D02*
X7Y748D01*
X2039Y748D02*
X2046Y748D01*
X0Y747D02*
X7Y747D01*
X2039Y747D02*
X2046Y747D01*
X0Y746D02*
X7Y746D01*
X2039Y746D02*
X2046Y746D01*
X0Y745D02*
X7Y745D01*
X2039Y745D02*
X2046Y745D01*
X0Y744D02*
X7Y744D01*
X2039Y744D02*
X2046Y744D01*
X0Y743D02*
X7Y743D01*
X2039Y743D02*
X2046Y743D01*
X0Y742D02*
X7Y742D01*
X2039Y742D02*
X2046Y742D01*
X0Y741D02*
X7Y741D01*
X2039Y741D02*
X2046Y741D01*
X0Y740D02*
X7Y740D01*
X2039Y740D02*
X2046Y740D01*
X0Y739D02*
X7Y739D01*
X2039Y739D02*
X2046Y739D01*
X0Y738D02*
X7Y738D01*
X2039Y738D02*
X2046Y738D01*
X0Y737D02*
X7Y737D01*
X2039Y737D02*
X2046Y737D01*
X0Y736D02*
X7Y736D01*
X2039Y736D02*
X2046Y736D01*
X0Y735D02*
X7Y735D01*
X2039Y735D02*
X2046Y735D01*
X0Y734D02*
X7Y734D01*
X2039Y734D02*
X2046Y734D01*
X0Y733D02*
X7Y733D01*
X2039Y733D02*
X2046Y733D01*
X0Y732D02*
X7Y732D01*
X2039Y732D02*
X2046Y732D01*
X0Y731D02*
X7Y731D01*
X2039Y731D02*
X2046Y731D01*
X0Y730D02*
X7Y730D01*
X2039Y730D02*
X2046Y730D01*
X0Y729D02*
X7Y729D01*
X2039Y729D02*
X2046Y729D01*
X0Y728D02*
X7Y728D01*
X2039Y728D02*
X2046Y728D01*
X0Y727D02*
X7Y727D01*
X2039Y727D02*
X2046Y727D01*
X0Y726D02*
X7Y726D01*
X2039Y726D02*
X2046Y726D01*
X0Y725D02*
X7Y725D01*
X2039Y725D02*
X2046Y725D01*
X0Y724D02*
X7Y724D01*
X2039Y724D02*
X2046Y724D01*
X0Y723D02*
X7Y723D01*
X2039Y723D02*
X2046Y723D01*
X0Y722D02*
X7Y722D01*
X2039Y722D02*
X2046Y722D01*
X0Y721D02*
X7Y721D01*
X2039Y721D02*
X2046Y721D01*
X0Y720D02*
X7Y720D01*
X2039Y720D02*
X2046Y720D01*
X0Y719D02*
X7Y719D01*
X2039Y719D02*
X2046Y719D01*
X0Y718D02*
X7Y718D01*
X2039Y718D02*
X2046Y718D01*
X0Y717D02*
X7Y717D01*
X2039Y717D02*
X2046Y717D01*
X0Y716D02*
X7Y716D01*
X2039Y716D02*
X2046Y716D01*
X0Y715D02*
X7Y715D01*
X2039Y715D02*
X2046Y715D01*
X0Y714D02*
X7Y714D01*
X2039Y714D02*
X2046Y714D01*
X0Y713D02*
X7Y713D01*
X2039Y713D02*
X2046Y713D01*
X0Y712D02*
X7Y712D01*
X2039Y712D02*
X2046Y712D01*
X0Y711D02*
X7Y711D01*
X2039Y711D02*
X2046Y711D01*
X0Y710D02*
X7Y710D01*
X2039Y710D02*
X2046Y710D01*
X0Y709D02*
X7Y709D01*
X2039Y709D02*
X2046Y709D01*
X0Y708D02*
X7Y708D01*
X2039Y708D02*
X2046Y708D01*
X0Y707D02*
X7Y707D01*
X2039Y707D02*
X2046Y707D01*
X0Y706D02*
X7Y706D01*
X2039Y706D02*
X2046Y706D01*
X0Y705D02*
X7Y705D01*
X2039Y705D02*
X2046Y705D01*
X0Y704D02*
X7Y704D01*
X2039Y704D02*
X2046Y704D01*
X0Y703D02*
X7Y703D01*
X2039Y703D02*
X2046Y703D01*
X0Y702D02*
X7Y702D01*
X2039Y702D02*
X2046Y702D01*
X0Y701D02*
X7Y701D01*
X2039Y701D02*
X2046Y701D01*
X0Y700D02*
X7Y700D01*
X2039Y700D02*
X2046Y700D01*
X0Y699D02*
X7Y699D01*
X2039Y699D02*
X2046Y699D01*
X0Y698D02*
X7Y698D01*
X2039Y698D02*
X2046Y698D01*
X0Y697D02*
X7Y697D01*
X2039Y697D02*
X2046Y697D01*
X0Y696D02*
X7Y696D01*
X2039Y696D02*
X2046Y696D01*
X0Y695D02*
X7Y695D01*
X2039Y695D02*
X2046Y695D01*
X0Y694D02*
X7Y694D01*
X2039Y694D02*
X2046Y694D01*
X0Y693D02*
X7Y693D01*
X2039Y693D02*
X2046Y693D01*
X0Y692D02*
X7Y692D01*
X2039Y692D02*
X2046Y692D01*
X0Y691D02*
X7Y691D01*
X2039Y691D02*
X2046Y691D01*
X0Y690D02*
X7Y690D01*
X2039Y690D02*
X2046Y690D01*
X0Y689D02*
X7Y689D01*
X2039Y689D02*
X2046Y689D01*
X0Y688D02*
X7Y688D01*
X2039Y688D02*
X2046Y688D01*
X0Y687D02*
X7Y687D01*
X2039Y687D02*
X2046Y687D01*
X0Y686D02*
X7Y686D01*
X2039Y686D02*
X2046Y686D01*
X0Y685D02*
X7Y685D01*
X2039Y685D02*
X2046Y685D01*
X0Y684D02*
X7Y684D01*
X2039Y684D02*
X2046Y684D01*
X0Y683D02*
X7Y683D01*
X2039Y683D02*
X2046Y683D01*
X0Y682D02*
X7Y682D01*
X2039Y682D02*
X2046Y682D01*
X0Y681D02*
X7Y681D01*
X2039Y681D02*
X2046Y681D01*
X0Y680D02*
X7Y680D01*
X2039Y680D02*
X2046Y680D01*
X0Y679D02*
X7Y679D01*
X2039Y679D02*
X2046Y679D01*
X0Y678D02*
X7Y678D01*
X2039Y678D02*
X2046Y678D01*
X0Y677D02*
X7Y677D01*
X2039Y677D02*
X2046Y677D01*
X0Y676D02*
X7Y676D01*
X451Y676D02*
X478Y676D01*
X496Y676D02*
X499Y676D01*
X523Y676D02*
X527Y676D01*
X1275Y676D02*
X1284Y676D01*
X1511Y676D02*
X1520Y676D01*
X2039Y676D02*
X2046Y676D01*
X0Y675D02*
X7Y675D01*
X449Y675D02*
X478Y675D01*
X495Y675D02*
X500Y675D01*
X523Y675D02*
X527Y675D01*
X1275Y675D02*
X1284Y675D01*
X1511Y675D02*
X1520Y675D01*
X2039Y675D02*
X2046Y675D01*
X0Y674D02*
X7Y674D01*
X448Y674D02*
X478Y674D01*
X495Y674D02*
X500Y674D01*
X522Y674D02*
X528Y674D01*
X1275Y674D02*
X1284Y674D01*
X1511Y674D02*
X1520Y674D01*
X2039Y674D02*
X2046Y674D01*
X0Y673D02*
X7Y673D01*
X447Y673D02*
X478Y673D01*
X494Y673D02*
X500Y673D01*
X522Y673D02*
X528Y673D01*
X1275Y673D02*
X1284Y673D01*
X1511Y673D02*
X1520Y673D01*
X2039Y673D02*
X2046Y673D01*
X0Y672D02*
X7Y672D01*
X446Y672D02*
X478Y672D01*
X494Y672D02*
X500Y672D01*
X522Y672D02*
X528Y672D01*
X1275Y672D02*
X1284Y672D01*
X1511Y672D02*
X1520Y672D01*
X2039Y672D02*
X2046Y672D01*
X0Y671D02*
X7Y671D01*
X446Y671D02*
X478Y671D01*
X494Y671D02*
X500Y671D01*
X522Y671D02*
X528Y671D01*
X1275Y671D02*
X1284Y671D01*
X1511Y671D02*
X1520Y671D01*
X2039Y671D02*
X2046Y671D01*
X0Y670D02*
X7Y670D01*
X445Y670D02*
X478Y670D01*
X494Y670D02*
X500Y670D01*
X522Y670D02*
X528Y670D01*
X1275Y670D02*
X1284Y670D01*
X1511Y670D02*
X1520Y670D01*
X2039Y670D02*
X2046Y670D01*
X0Y669D02*
X7Y669D01*
X445Y669D02*
X452Y669D01*
X472Y669D02*
X478Y669D01*
X494Y669D02*
X500Y669D01*
X522Y669D02*
X528Y669D01*
X1275Y669D02*
X1284Y669D01*
X1511Y669D02*
X1520Y669D01*
X2039Y669D02*
X2046Y669D01*
X0Y668D02*
X7Y668D01*
X445Y668D02*
X451Y668D01*
X472Y668D02*
X478Y668D01*
X494Y668D02*
X500Y668D01*
X522Y668D02*
X528Y668D01*
X1275Y668D02*
X1284Y668D01*
X1511Y668D02*
X1520Y668D01*
X2039Y668D02*
X2046Y668D01*
X0Y667D02*
X7Y667D01*
X445Y667D02*
X451Y667D01*
X472Y667D02*
X478Y667D01*
X494Y667D02*
X500Y667D01*
X522Y667D02*
X528Y667D01*
X1275Y667D02*
X1284Y667D01*
X1511Y667D02*
X1520Y667D01*
X2039Y667D02*
X2046Y667D01*
X0Y666D02*
X7Y666D01*
X444Y666D02*
X450Y666D01*
X472Y666D02*
X478Y666D01*
X494Y666D02*
X500Y666D01*
X522Y666D02*
X528Y666D01*
X1275Y666D02*
X1284Y666D01*
X1511Y666D02*
X1520Y666D01*
X2039Y666D02*
X2046Y666D01*
X0Y665D02*
X7Y665D01*
X444Y665D02*
X450Y665D01*
X472Y665D02*
X478Y665D01*
X494Y665D02*
X500Y665D01*
X522Y665D02*
X528Y665D01*
X1275Y665D02*
X1284Y665D01*
X1511Y665D02*
X1520Y665D01*
X2039Y665D02*
X2046Y665D01*
X0Y664D02*
X7Y664D01*
X444Y664D02*
X450Y664D01*
X472Y664D02*
X478Y664D01*
X494Y664D02*
X500Y664D01*
X522Y664D02*
X528Y664D01*
X1275Y664D02*
X1284Y664D01*
X1511Y664D02*
X1520Y664D01*
X2039Y664D02*
X2046Y664D01*
X0Y663D02*
X7Y663D01*
X444Y663D02*
X450Y663D01*
X472Y663D02*
X478Y663D01*
X494Y663D02*
X500Y663D01*
X522Y663D02*
X528Y663D01*
X1275Y663D02*
X1284Y663D01*
X1511Y663D02*
X1520Y663D01*
X2039Y663D02*
X2046Y663D01*
X0Y662D02*
X7Y662D01*
X444Y662D02*
X450Y662D01*
X472Y662D02*
X478Y662D01*
X494Y662D02*
X500Y662D01*
X522Y662D02*
X528Y662D01*
X1275Y662D02*
X1284Y662D01*
X1511Y662D02*
X1520Y662D01*
X2039Y662D02*
X2046Y662D01*
X0Y661D02*
X7Y661D01*
X444Y661D02*
X450Y661D01*
X472Y661D02*
X478Y661D01*
X494Y661D02*
X500Y661D01*
X522Y661D02*
X528Y661D01*
X1275Y661D02*
X1284Y661D01*
X1511Y661D02*
X1520Y661D01*
X2039Y661D02*
X2046Y661D01*
X0Y660D02*
X7Y660D01*
X444Y660D02*
X450Y660D01*
X472Y660D02*
X478Y660D01*
X494Y660D02*
X500Y660D01*
X522Y660D02*
X528Y660D01*
X1275Y660D02*
X1284Y660D01*
X1511Y660D02*
X1520Y660D01*
X2039Y660D02*
X2046Y660D01*
X0Y659D02*
X7Y659D01*
X444Y659D02*
X450Y659D01*
X472Y659D02*
X478Y659D01*
X494Y659D02*
X500Y659D01*
X522Y659D02*
X528Y659D01*
X1275Y659D02*
X1284Y659D01*
X1511Y659D02*
X1520Y659D01*
X2039Y659D02*
X2046Y659D01*
X0Y658D02*
X7Y658D01*
X444Y658D02*
X450Y658D01*
X472Y658D02*
X478Y658D01*
X494Y658D02*
X500Y658D01*
X522Y658D02*
X528Y658D01*
X1275Y658D02*
X1284Y658D01*
X1511Y658D02*
X1520Y658D01*
X2039Y658D02*
X2046Y658D01*
X0Y657D02*
X7Y657D01*
X444Y657D02*
X450Y657D01*
X472Y657D02*
X478Y657D01*
X494Y657D02*
X500Y657D01*
X522Y657D02*
X528Y657D01*
X1275Y657D02*
X1284Y657D01*
X1511Y657D02*
X1520Y657D01*
X2039Y657D02*
X2046Y657D01*
X0Y656D02*
X7Y656D01*
X444Y656D02*
X450Y656D01*
X472Y656D02*
X478Y656D01*
X494Y656D02*
X500Y656D01*
X522Y656D02*
X528Y656D01*
X1275Y656D02*
X1284Y656D01*
X1511Y656D02*
X1520Y656D01*
X2039Y656D02*
X2046Y656D01*
X0Y655D02*
X7Y655D01*
X444Y655D02*
X450Y655D01*
X472Y655D02*
X478Y655D01*
X494Y655D02*
X500Y655D01*
X522Y655D02*
X528Y655D01*
X1275Y655D02*
X1284Y655D01*
X1511Y655D02*
X1520Y655D01*
X2039Y655D02*
X2046Y655D01*
X0Y654D02*
X7Y654D01*
X444Y654D02*
X450Y654D01*
X472Y654D02*
X478Y654D01*
X494Y654D02*
X500Y654D01*
X522Y654D02*
X528Y654D01*
X1275Y654D02*
X1284Y654D01*
X1511Y654D02*
X1520Y654D01*
X2039Y654D02*
X2046Y654D01*
X0Y653D02*
X7Y653D01*
X445Y653D02*
X451Y653D01*
X472Y653D02*
X478Y653D01*
X494Y653D02*
X500Y653D01*
X522Y653D02*
X528Y653D01*
X1275Y653D02*
X1284Y653D01*
X1511Y653D02*
X1520Y653D01*
X2039Y653D02*
X2046Y653D01*
X0Y652D02*
X7Y652D01*
X445Y652D02*
X451Y652D01*
X472Y652D02*
X478Y652D01*
X494Y652D02*
X500Y652D01*
X522Y652D02*
X528Y652D01*
X1275Y652D02*
X1284Y652D01*
X1511Y652D02*
X1520Y652D01*
X2039Y652D02*
X2046Y652D01*
X0Y651D02*
X7Y651D01*
X445Y651D02*
X452Y651D01*
X472Y651D02*
X478Y651D01*
X494Y651D02*
X500Y651D01*
X522Y651D02*
X528Y651D01*
X1275Y651D02*
X1284Y651D01*
X1511Y651D02*
X1520Y651D01*
X2039Y651D02*
X2046Y651D01*
X0Y650D02*
X7Y650D01*
X445Y650D02*
X478Y650D01*
X494Y650D02*
X500Y650D01*
X522Y650D02*
X528Y650D01*
X1275Y650D02*
X1284Y650D01*
X1511Y650D02*
X1520Y650D01*
X2039Y650D02*
X2046Y650D01*
X0Y649D02*
X7Y649D01*
X446Y649D02*
X478Y649D01*
X494Y649D02*
X500Y649D01*
X522Y649D02*
X528Y649D01*
X1275Y649D02*
X1284Y649D01*
X1511Y649D02*
X1520Y649D01*
X2039Y649D02*
X2046Y649D01*
X0Y648D02*
X7Y648D01*
X446Y648D02*
X478Y648D01*
X494Y648D02*
X500Y648D01*
X522Y648D02*
X528Y648D01*
X1275Y648D02*
X1284Y648D01*
X1511Y648D02*
X1520Y648D01*
X2039Y648D02*
X2046Y648D01*
X0Y647D02*
X7Y647D01*
X447Y647D02*
X478Y647D01*
X494Y647D02*
X500Y647D01*
X522Y647D02*
X528Y647D01*
X1275Y647D02*
X1284Y647D01*
X1511Y647D02*
X1520Y647D01*
X2039Y647D02*
X2046Y647D01*
X0Y646D02*
X7Y646D01*
X448Y646D02*
X478Y646D01*
X494Y646D02*
X500Y646D01*
X522Y646D02*
X528Y646D01*
X1275Y646D02*
X1284Y646D01*
X1511Y646D02*
X1520Y646D01*
X2039Y646D02*
X2046Y646D01*
X0Y645D02*
X7Y645D01*
X449Y645D02*
X478Y645D01*
X494Y645D02*
X500Y645D01*
X522Y645D02*
X528Y645D01*
X1275Y645D02*
X1284Y645D01*
X1511Y645D02*
X1520Y645D01*
X2039Y645D02*
X2046Y645D01*
X0Y644D02*
X7Y644D01*
X451Y644D02*
X478Y644D01*
X494Y644D02*
X500Y644D01*
X522Y644D02*
X528Y644D01*
X1275Y644D02*
X1284Y644D01*
X1511Y644D02*
X1520Y644D01*
X2039Y644D02*
X2046Y644D01*
X0Y643D02*
X7Y643D01*
X472Y643D02*
X478Y643D01*
X494Y643D02*
X500Y643D01*
X522Y643D02*
X528Y643D01*
X1275Y643D02*
X1284Y643D01*
X1511Y643D02*
X1520Y643D01*
X2039Y643D02*
X2046Y643D01*
X0Y642D02*
X7Y642D01*
X472Y642D02*
X478Y642D01*
X494Y642D02*
X500Y642D01*
X522Y642D02*
X528Y642D01*
X1275Y642D02*
X1284Y642D01*
X1511Y642D02*
X1520Y642D01*
X2039Y642D02*
X2046Y642D01*
X0Y641D02*
X7Y641D01*
X472Y641D02*
X478Y641D01*
X494Y641D02*
X500Y641D01*
X522Y641D02*
X528Y641D01*
X1275Y641D02*
X1284Y641D01*
X1511Y641D02*
X1520Y641D01*
X2039Y641D02*
X2046Y641D01*
X0Y640D02*
X7Y640D01*
X472Y640D02*
X478Y640D01*
X494Y640D02*
X500Y640D01*
X522Y640D02*
X528Y640D01*
X1275Y640D02*
X1284Y640D01*
X1511Y640D02*
X1520Y640D01*
X2039Y640D02*
X2046Y640D01*
X0Y639D02*
X7Y639D01*
X472Y639D02*
X478Y639D01*
X494Y639D02*
X500Y639D01*
X522Y639D02*
X528Y639D01*
X1275Y639D02*
X1284Y639D01*
X1511Y639D02*
X1520Y639D01*
X2039Y639D02*
X2046Y639D01*
X0Y638D02*
X7Y638D01*
X472Y638D02*
X478Y638D01*
X494Y638D02*
X500Y638D01*
X522Y638D02*
X528Y638D01*
X1275Y638D02*
X1283Y638D01*
X1511Y638D02*
X1520Y638D01*
X2039Y638D02*
X2046Y638D01*
X0Y637D02*
X7Y637D01*
X472Y637D02*
X478Y637D01*
X494Y637D02*
X500Y637D01*
X522Y637D02*
X528Y637D01*
X1275Y637D02*
X1283Y637D01*
X1511Y637D02*
X1520Y637D01*
X2039Y637D02*
X2046Y637D01*
X0Y636D02*
X7Y636D01*
X472Y636D02*
X478Y636D01*
X494Y636D02*
X500Y636D01*
X522Y636D02*
X528Y636D01*
X1275Y636D02*
X1283Y636D01*
X1511Y636D02*
X1520Y636D01*
X2039Y636D02*
X2046Y636D01*
X0Y635D02*
X7Y635D01*
X472Y635D02*
X478Y635D01*
X494Y635D02*
X500Y635D01*
X522Y635D02*
X528Y635D01*
X1275Y635D02*
X1282Y635D01*
X1511Y635D02*
X1520Y635D01*
X2039Y635D02*
X2046Y635D01*
X0Y634D02*
X7Y634D01*
X472Y634D02*
X478Y634D01*
X494Y634D02*
X500Y634D01*
X522Y634D02*
X528Y634D01*
X1275Y634D02*
X1282Y634D01*
X1511Y634D02*
X1520Y634D01*
X2039Y634D02*
X2046Y634D01*
X0Y633D02*
X7Y633D01*
X472Y633D02*
X478Y633D01*
X494Y633D02*
X500Y633D01*
X522Y633D02*
X528Y633D01*
X1275Y633D02*
X1282Y633D01*
X1511Y633D02*
X1520Y633D01*
X2039Y633D02*
X2046Y633D01*
X0Y632D02*
X7Y632D01*
X472Y632D02*
X478Y632D01*
X495Y632D02*
X501Y632D01*
X522Y632D02*
X528Y632D01*
X1275Y632D02*
X1282Y632D01*
X1512Y632D02*
X1520Y632D01*
X2039Y632D02*
X2046Y632D01*
X0Y631D02*
X7Y631D01*
X472Y631D02*
X478Y631D01*
X495Y631D02*
X501Y631D01*
X521Y631D02*
X528Y631D01*
X1275Y631D02*
X1282Y631D01*
X1512Y631D02*
X1520Y631D01*
X2039Y631D02*
X2046Y631D01*
X0Y630D02*
X7Y630D01*
X472Y630D02*
X478Y630D01*
X495Y630D02*
X503Y630D01*
X520Y630D02*
X528Y630D01*
X1275Y630D02*
X1282Y630D01*
X1512Y630D02*
X1520Y630D01*
X2039Y630D02*
X2046Y630D01*
X0Y629D02*
X7Y629D01*
X472Y629D02*
X478Y629D01*
X495Y629D02*
X527Y629D01*
X1275Y629D02*
X1282Y629D01*
X1512Y629D02*
X1520Y629D01*
X2039Y629D02*
X2046Y629D01*
X0Y628D02*
X7Y628D01*
X472Y628D02*
X478Y628D01*
X496Y628D02*
X527Y628D01*
X1275Y628D02*
X1282Y628D01*
X1512Y628D02*
X1520Y628D01*
X2039Y628D02*
X2046Y628D01*
X0Y627D02*
X7Y627D01*
X472Y627D02*
X478Y627D01*
X496Y627D02*
X526Y627D01*
X1275Y627D02*
X1282Y627D01*
X1512Y627D02*
X1520Y627D01*
X2039Y627D02*
X2046Y627D01*
X0Y626D02*
X7Y626D01*
X472Y626D02*
X478Y626D01*
X497Y626D02*
X525Y626D01*
X1275Y626D02*
X1282Y626D01*
X1512Y626D02*
X1520Y626D01*
X2039Y626D02*
X2046Y626D01*
X0Y625D02*
X7Y625D01*
X472Y625D02*
X478Y625D01*
X498Y625D02*
X524Y625D01*
X1275Y625D02*
X1282Y625D01*
X1511Y625D02*
X1520Y625D01*
X2039Y625D02*
X2046Y625D01*
X0Y624D02*
X7Y624D01*
X473Y624D02*
X477Y624D01*
X500Y624D02*
X523Y624D01*
X1275Y624D02*
X1282Y624D01*
X1511Y624D02*
X1520Y624D01*
X2039Y624D02*
X2046Y624D01*
X0Y623D02*
X7Y623D01*
X474Y623D02*
X476Y623D01*
X502Y623D02*
X520Y623D01*
X1275Y623D02*
X1283Y623D01*
X1511Y623D02*
X1520Y623D01*
X2039Y623D02*
X2046Y623D01*
X0Y622D02*
X7Y622D01*
X1275Y622D02*
X1283Y622D01*
X1511Y622D02*
X1520Y622D01*
X2039Y622D02*
X2046Y622D01*
X0Y621D02*
X7Y621D01*
X1275Y621D02*
X1283Y621D01*
X1511Y621D02*
X1520Y621D01*
X2039Y621D02*
X2046Y621D01*
X0Y620D02*
X7Y620D01*
X1275Y620D02*
X1284Y620D01*
X1511Y620D02*
X1520Y620D01*
X2039Y620D02*
X2046Y620D01*
X0Y619D02*
X7Y619D01*
X1275Y619D02*
X1284Y619D01*
X1511Y619D02*
X1520Y619D01*
X2039Y619D02*
X2046Y619D01*
X0Y618D02*
X7Y618D01*
X1275Y618D02*
X1284Y618D01*
X1511Y618D02*
X1520Y618D01*
X2039Y618D02*
X2046Y618D01*
X0Y617D02*
X7Y617D01*
X1275Y617D02*
X1284Y617D01*
X1511Y617D02*
X1520Y617D01*
X2039Y617D02*
X2046Y617D01*
X0Y616D02*
X7Y616D01*
X1275Y616D02*
X1284Y616D01*
X1511Y616D02*
X1520Y616D01*
X2039Y616D02*
X2046Y616D01*
X0Y615D02*
X7Y615D01*
X1275Y615D02*
X1284Y615D01*
X1511Y615D02*
X1520Y615D01*
X2039Y615D02*
X2046Y615D01*
X0Y614D02*
X7Y614D01*
X1275Y614D02*
X1284Y614D01*
X1511Y614D02*
X1520Y614D01*
X2039Y614D02*
X2046Y614D01*
X0Y613D02*
X7Y613D01*
X1275Y613D02*
X1284Y613D01*
X1511Y613D02*
X1520Y613D01*
X2039Y613D02*
X2046Y613D01*
X0Y612D02*
X7Y612D01*
X1275Y612D02*
X1284Y612D01*
X1511Y612D02*
X1520Y612D01*
X2039Y612D02*
X2046Y612D01*
X0Y611D02*
X7Y611D01*
X1275Y611D02*
X1284Y611D01*
X1511Y611D02*
X1520Y611D01*
X2039Y611D02*
X2046Y611D01*
X0Y610D02*
X7Y610D01*
X1275Y610D02*
X1284Y610D01*
X1511Y610D02*
X1520Y610D01*
X2039Y610D02*
X2046Y610D01*
X0Y609D02*
X7Y609D01*
X1275Y609D02*
X1284Y609D01*
X1511Y609D02*
X1520Y609D01*
X2039Y609D02*
X2046Y609D01*
X0Y608D02*
X7Y608D01*
X1275Y608D02*
X1284Y608D01*
X1511Y608D02*
X1520Y608D01*
X2039Y608D02*
X2046Y608D01*
X0Y607D02*
X7Y607D01*
X1275Y607D02*
X1284Y607D01*
X1511Y607D02*
X1520Y607D01*
X2039Y607D02*
X2046Y607D01*
X0Y606D02*
X7Y606D01*
X1275Y606D02*
X1284Y606D01*
X1511Y606D02*
X1520Y606D01*
X2039Y606D02*
X2046Y606D01*
X0Y605D02*
X7Y605D01*
X1275Y605D02*
X1284Y605D01*
X1511Y605D02*
X1520Y605D01*
X2039Y605D02*
X2046Y605D01*
X0Y604D02*
X7Y604D01*
X1275Y604D02*
X1284Y604D01*
X1511Y604D02*
X1520Y604D01*
X2039Y604D02*
X2046Y604D01*
X0Y603D02*
X7Y603D01*
X1275Y603D02*
X1284Y603D01*
X1511Y603D02*
X1520Y603D01*
X2039Y603D02*
X2046Y603D01*
X0Y602D02*
X7Y602D01*
X1275Y602D02*
X1284Y602D01*
X1511Y602D02*
X1520Y602D01*
X2039Y602D02*
X2046Y602D01*
X0Y601D02*
X7Y601D01*
X1275Y601D02*
X1284Y601D01*
X1511Y601D02*
X1520Y601D01*
X2039Y601D02*
X2046Y601D01*
X0Y600D02*
X7Y600D01*
X1275Y600D02*
X1284Y600D01*
X1511Y600D02*
X1520Y600D01*
X2039Y600D02*
X2046Y600D01*
X0Y599D02*
X7Y599D01*
X1275Y599D02*
X1284Y599D01*
X1511Y599D02*
X1520Y599D01*
X2039Y599D02*
X2046Y599D01*
X0Y598D02*
X7Y598D01*
X1275Y598D02*
X1284Y598D01*
X1511Y598D02*
X1520Y598D01*
X2039Y598D02*
X2046Y598D01*
X0Y597D02*
X7Y597D01*
X1275Y597D02*
X1284Y597D01*
X1511Y597D02*
X1520Y597D01*
X2039Y597D02*
X2046Y597D01*
X0Y596D02*
X7Y596D01*
X1275Y596D02*
X1284Y596D01*
X1511Y596D02*
X1520Y596D01*
X2039Y596D02*
X2046Y596D01*
X0Y595D02*
X7Y595D01*
X1275Y595D02*
X1284Y595D01*
X1511Y595D02*
X1520Y595D01*
X2039Y595D02*
X2046Y595D01*
X0Y594D02*
X7Y594D01*
X1275Y594D02*
X1284Y594D01*
X1511Y594D02*
X1520Y594D01*
X2039Y594D02*
X2046Y594D01*
X0Y593D02*
X7Y593D01*
X1275Y593D02*
X1284Y593D01*
X1511Y593D02*
X1520Y593D01*
X2039Y593D02*
X2046Y593D01*
X0Y592D02*
X7Y592D01*
X1275Y592D02*
X1284Y592D01*
X1511Y592D02*
X1520Y592D01*
X2039Y592D02*
X2046Y592D01*
X0Y591D02*
X7Y591D01*
X1275Y591D02*
X1284Y591D01*
X1511Y591D02*
X1520Y591D01*
X2039Y591D02*
X2046Y591D01*
X0Y590D02*
X7Y590D01*
X1275Y590D02*
X1284Y590D01*
X1511Y590D02*
X1520Y590D01*
X2039Y590D02*
X2046Y590D01*
X0Y589D02*
X7Y589D01*
X1275Y589D02*
X1284Y589D01*
X1511Y589D02*
X1520Y589D01*
X2039Y589D02*
X2046Y589D01*
X0Y588D02*
X7Y588D01*
X1275Y588D02*
X1284Y588D01*
X1511Y588D02*
X1520Y588D01*
X2039Y588D02*
X2046Y588D01*
X0Y587D02*
X7Y587D01*
X1275Y587D02*
X1284Y587D01*
X1511Y587D02*
X1520Y587D01*
X2039Y587D02*
X2046Y587D01*
X0Y586D02*
X7Y586D01*
X1275Y586D02*
X1284Y586D01*
X1511Y586D02*
X1520Y586D01*
X2039Y586D02*
X2046Y586D01*
X0Y585D02*
X7Y585D01*
X1275Y585D02*
X1284Y585D01*
X1511Y585D02*
X1520Y585D01*
X2039Y585D02*
X2046Y585D01*
X0Y584D02*
X7Y584D01*
X1275Y584D02*
X1284Y584D01*
X1511Y584D02*
X1520Y584D01*
X2039Y584D02*
X2046Y584D01*
X0Y583D02*
X7Y583D01*
X1275Y583D02*
X1284Y583D01*
X1511Y583D02*
X1520Y583D01*
X2039Y583D02*
X2046Y583D01*
X0Y582D02*
X7Y582D01*
X1275Y582D02*
X1284Y582D01*
X1511Y582D02*
X1520Y582D01*
X2039Y582D02*
X2046Y582D01*
X0Y581D02*
X7Y581D01*
X1275Y581D02*
X1284Y581D01*
X1511Y581D02*
X1520Y581D01*
X2039Y581D02*
X2046Y581D01*
X0Y580D02*
X7Y580D01*
X1275Y580D02*
X1284Y580D01*
X1511Y580D02*
X1520Y580D01*
X2039Y580D02*
X2046Y580D01*
X0Y579D02*
X7Y579D01*
X1275Y579D02*
X1284Y579D01*
X1511Y579D02*
X1520Y579D01*
X2039Y579D02*
X2046Y579D01*
X0Y578D02*
X7Y578D01*
X1275Y578D02*
X1284Y578D01*
X1511Y578D02*
X1520Y578D01*
X2039Y578D02*
X2046Y578D01*
X0Y577D02*
X7Y577D01*
X1275Y577D02*
X1284Y577D01*
X1511Y577D02*
X1520Y577D01*
X2039Y577D02*
X2046Y577D01*
X0Y576D02*
X7Y576D01*
X1275Y576D02*
X1284Y576D01*
X1511Y576D02*
X1520Y576D01*
X2039Y576D02*
X2046Y576D01*
X0Y575D02*
X7Y575D01*
X1275Y575D02*
X1284Y575D01*
X1511Y575D02*
X1520Y575D01*
X2039Y575D02*
X2046Y575D01*
X0Y574D02*
X7Y574D01*
X1275Y574D02*
X1284Y574D01*
X1511Y574D02*
X1520Y574D01*
X2039Y574D02*
X2046Y574D01*
X0Y573D02*
X7Y573D01*
X1275Y573D02*
X1284Y573D01*
X1511Y573D02*
X1520Y573D01*
X2039Y573D02*
X2046Y573D01*
X0Y572D02*
X7Y572D01*
X1275Y572D02*
X1284Y572D01*
X1511Y572D02*
X1520Y572D01*
X2039Y572D02*
X2046Y572D01*
X0Y571D02*
X7Y571D01*
X1275Y571D02*
X1284Y571D01*
X1511Y571D02*
X1520Y571D01*
X2039Y571D02*
X2046Y571D01*
X0Y570D02*
X7Y570D01*
X1275Y570D02*
X1284Y570D01*
X1511Y570D02*
X1520Y570D01*
X2039Y570D02*
X2046Y570D01*
X0Y569D02*
X7Y569D01*
X1275Y569D02*
X1284Y569D01*
X1511Y569D02*
X1520Y569D01*
X2039Y569D02*
X2046Y569D01*
X0Y568D02*
X7Y568D01*
X1275Y568D02*
X1284Y568D01*
X1511Y568D02*
X1520Y568D01*
X2039Y568D02*
X2046Y568D01*
X0Y567D02*
X7Y567D01*
X1275Y567D02*
X1284Y567D01*
X1511Y567D02*
X1520Y567D01*
X2039Y567D02*
X2046Y567D01*
X0Y566D02*
X7Y566D01*
X1275Y566D02*
X1284Y566D01*
X1511Y566D02*
X1520Y566D01*
X2039Y566D02*
X2046Y566D01*
X0Y565D02*
X7Y565D01*
X1275Y565D02*
X1284Y565D01*
X1511Y565D02*
X1520Y565D01*
X2039Y565D02*
X2046Y565D01*
X0Y564D02*
X7Y564D01*
X1275Y564D02*
X1284Y564D01*
X1511Y564D02*
X1520Y564D01*
X2039Y564D02*
X2046Y564D01*
X0Y563D02*
X7Y563D01*
X1275Y563D02*
X1284Y563D01*
X1511Y563D02*
X1520Y563D01*
X2039Y563D02*
X2046Y563D01*
X0Y562D02*
X7Y562D01*
X1275Y562D02*
X1284Y562D01*
X1511Y562D02*
X1520Y562D01*
X2039Y562D02*
X2046Y562D01*
X0Y561D02*
X7Y561D01*
X1275Y561D02*
X1284Y561D01*
X1511Y561D02*
X1520Y561D01*
X2039Y561D02*
X2046Y561D01*
X0Y560D02*
X7Y560D01*
X1275Y560D02*
X1284Y560D01*
X1511Y560D02*
X1520Y560D01*
X2039Y560D02*
X2046Y560D01*
X0Y559D02*
X7Y559D01*
X1275Y559D02*
X1284Y559D01*
X1511Y559D02*
X1520Y559D01*
X2039Y559D02*
X2046Y559D01*
X0Y558D02*
X7Y558D01*
X1275Y558D02*
X1284Y558D01*
X1511Y558D02*
X1520Y558D01*
X2039Y558D02*
X2046Y558D01*
X0Y557D02*
X7Y557D01*
X1275Y557D02*
X1284Y557D01*
X1511Y557D02*
X1520Y557D01*
X2039Y557D02*
X2046Y557D01*
X0Y556D02*
X7Y556D01*
X1275Y556D02*
X1284Y556D01*
X1511Y556D02*
X1520Y556D01*
X2039Y556D02*
X2046Y556D01*
X0Y555D02*
X7Y555D01*
X1275Y555D02*
X1284Y555D01*
X1511Y555D02*
X1520Y555D01*
X2039Y555D02*
X2046Y555D01*
X0Y554D02*
X7Y554D01*
X1275Y554D02*
X1284Y554D01*
X1511Y554D02*
X1520Y554D01*
X2039Y554D02*
X2046Y554D01*
X0Y553D02*
X7Y553D01*
X1275Y553D02*
X1284Y553D01*
X1511Y553D02*
X1520Y553D01*
X2039Y553D02*
X2046Y553D01*
X0Y552D02*
X7Y552D01*
X1275Y552D02*
X1284Y552D01*
X1511Y552D02*
X1520Y552D01*
X2039Y552D02*
X2046Y552D01*
X0Y551D02*
X7Y551D01*
X1275Y551D02*
X1284Y551D01*
X1511Y551D02*
X1520Y551D01*
X2039Y551D02*
X2046Y551D01*
X0Y550D02*
X7Y550D01*
X1275Y550D02*
X1284Y550D01*
X1511Y550D02*
X1520Y550D01*
X2039Y550D02*
X2046Y550D01*
X0Y549D02*
X7Y549D01*
X1275Y549D02*
X1284Y549D01*
X1511Y549D02*
X1520Y549D01*
X2039Y549D02*
X2046Y549D01*
X0Y548D02*
X7Y548D01*
X1275Y548D02*
X1284Y548D01*
X1511Y548D02*
X1520Y548D01*
X2039Y548D02*
X2046Y548D01*
X0Y547D02*
X7Y547D01*
X1275Y547D02*
X1284Y547D01*
X1511Y547D02*
X1520Y547D01*
X2039Y547D02*
X2046Y547D01*
X0Y546D02*
X7Y546D01*
X1275Y546D02*
X1284Y546D01*
X1511Y546D02*
X1520Y546D01*
X2039Y546D02*
X2046Y546D01*
X0Y545D02*
X7Y545D01*
X1275Y545D02*
X1284Y545D01*
X1511Y545D02*
X1520Y545D01*
X2039Y545D02*
X2046Y545D01*
X0Y544D02*
X7Y544D01*
X1275Y544D02*
X1284Y544D01*
X1511Y544D02*
X1520Y544D01*
X2039Y544D02*
X2046Y544D01*
X0Y543D02*
X7Y543D01*
X1275Y543D02*
X1284Y543D01*
X1511Y543D02*
X1520Y543D01*
X2039Y543D02*
X2046Y543D01*
X0Y542D02*
X7Y542D01*
X1275Y542D02*
X1284Y542D01*
X1511Y542D02*
X1520Y542D01*
X2039Y542D02*
X2046Y542D01*
X0Y541D02*
X7Y541D01*
X1275Y541D02*
X1284Y541D01*
X1511Y541D02*
X1520Y541D01*
X2039Y541D02*
X2046Y541D01*
X0Y540D02*
X7Y540D01*
X1275Y540D02*
X1284Y540D01*
X1511Y540D02*
X1520Y540D01*
X2039Y540D02*
X2046Y540D01*
X0Y539D02*
X7Y539D01*
X1275Y539D02*
X1284Y539D01*
X1511Y539D02*
X1520Y539D01*
X2039Y539D02*
X2046Y539D01*
X0Y538D02*
X7Y538D01*
X1275Y538D02*
X1284Y538D01*
X1511Y538D02*
X1520Y538D01*
X2039Y538D02*
X2046Y538D01*
X0Y537D02*
X7Y537D01*
X1275Y537D02*
X1284Y537D01*
X1511Y537D02*
X1520Y537D01*
X2039Y537D02*
X2046Y537D01*
X0Y536D02*
X7Y536D01*
X1275Y536D02*
X1284Y536D01*
X1511Y536D02*
X1520Y536D01*
X2039Y536D02*
X2046Y536D01*
X0Y535D02*
X7Y535D01*
X1275Y535D02*
X1284Y535D01*
X1511Y535D02*
X1520Y535D01*
X2039Y535D02*
X2046Y535D01*
X0Y534D02*
X7Y534D01*
X1275Y534D02*
X1284Y534D01*
X1511Y534D02*
X1520Y534D01*
X2039Y534D02*
X2046Y534D01*
X0Y533D02*
X7Y533D01*
X1275Y533D02*
X1284Y533D01*
X1511Y533D02*
X1520Y533D01*
X2039Y533D02*
X2046Y533D01*
X0Y532D02*
X7Y532D01*
X1275Y532D02*
X1284Y532D01*
X1511Y532D02*
X1520Y532D01*
X2039Y532D02*
X2046Y532D01*
X0Y531D02*
X7Y531D01*
X1275Y531D02*
X1284Y531D01*
X1511Y531D02*
X1520Y531D01*
X2039Y531D02*
X2046Y531D01*
X0Y530D02*
X7Y530D01*
X1275Y530D02*
X1284Y530D01*
X1511Y530D02*
X1520Y530D01*
X2039Y530D02*
X2046Y530D01*
X0Y529D02*
X7Y529D01*
X1275Y529D02*
X1284Y529D01*
X1511Y529D02*
X1520Y529D01*
X2039Y529D02*
X2046Y529D01*
X0Y528D02*
X7Y528D01*
X1275Y528D02*
X1284Y528D01*
X1511Y528D02*
X1520Y528D01*
X2039Y528D02*
X2046Y528D01*
X0Y527D02*
X7Y527D01*
X1275Y527D02*
X1284Y527D01*
X1511Y527D02*
X1520Y527D01*
X2039Y527D02*
X2046Y527D01*
X0Y526D02*
X7Y526D01*
X1275Y526D02*
X1284Y526D01*
X1511Y526D02*
X1520Y526D01*
X2039Y526D02*
X2046Y526D01*
X0Y525D02*
X7Y525D01*
X1275Y525D02*
X1284Y525D01*
X1511Y525D02*
X1520Y525D01*
X2039Y525D02*
X2046Y525D01*
X0Y524D02*
X7Y524D01*
X1275Y524D02*
X1284Y524D01*
X1511Y524D02*
X1520Y524D01*
X2039Y524D02*
X2046Y524D01*
X0Y523D02*
X7Y523D01*
X1275Y523D02*
X1284Y523D01*
X1511Y523D02*
X1520Y523D01*
X2039Y523D02*
X2046Y523D01*
X0Y522D02*
X7Y522D01*
X1275Y522D02*
X1284Y522D01*
X1511Y522D02*
X1520Y522D01*
X2039Y522D02*
X2046Y522D01*
X0Y521D02*
X7Y521D01*
X1275Y521D02*
X1284Y521D01*
X1511Y521D02*
X1520Y521D01*
X2039Y521D02*
X2046Y521D01*
X0Y520D02*
X7Y520D01*
X1275Y520D02*
X1284Y520D01*
X1511Y520D02*
X1520Y520D01*
X2039Y520D02*
X2046Y520D01*
X0Y519D02*
X7Y519D01*
X1275Y519D02*
X1284Y519D01*
X1511Y519D02*
X1520Y519D01*
X2039Y519D02*
X2046Y519D01*
X0Y518D02*
X7Y518D01*
X1275Y518D02*
X1284Y518D01*
X1511Y518D02*
X1520Y518D01*
X2039Y518D02*
X2046Y518D01*
X0Y517D02*
X7Y517D01*
X1275Y517D02*
X1284Y517D01*
X1511Y517D02*
X1520Y517D01*
X2039Y517D02*
X2046Y517D01*
X0Y516D02*
X7Y516D01*
X1275Y516D02*
X1284Y516D01*
X1511Y516D02*
X1520Y516D01*
X2039Y516D02*
X2046Y516D01*
X0Y515D02*
X7Y515D01*
X1275Y515D02*
X1284Y515D01*
X1511Y515D02*
X1520Y515D01*
X2039Y515D02*
X2046Y515D01*
X0Y514D02*
X7Y514D01*
X1275Y514D02*
X1284Y514D01*
X1511Y514D02*
X1520Y514D01*
X2039Y514D02*
X2046Y514D01*
X0Y513D02*
X7Y513D01*
X1275Y513D02*
X1284Y513D01*
X1511Y513D02*
X1520Y513D01*
X2039Y513D02*
X2046Y513D01*
X0Y512D02*
X7Y512D01*
X1275Y512D02*
X1284Y512D01*
X1511Y512D02*
X1520Y512D01*
X2039Y512D02*
X2046Y512D01*
X0Y511D02*
X7Y511D01*
X1275Y511D02*
X1284Y511D01*
X1511Y511D02*
X1520Y511D01*
X2039Y511D02*
X2046Y511D01*
X0Y510D02*
X7Y510D01*
X1275Y510D02*
X1284Y510D01*
X1511Y510D02*
X1520Y510D01*
X2039Y510D02*
X2046Y510D01*
X0Y509D02*
X7Y509D01*
X2039Y509D02*
X2046Y509D01*
X0Y508D02*
X7Y508D01*
X2039Y508D02*
X2046Y508D01*
X0Y507D02*
X7Y507D01*
X2039Y507D02*
X2046Y507D01*
X0Y506D02*
X7Y506D01*
X2039Y506D02*
X2046Y506D01*
X0Y505D02*
X7Y505D01*
X2039Y505D02*
X2046Y505D01*
X0Y504D02*
X7Y504D01*
X2039Y504D02*
X2046Y504D01*
X0Y503D02*
X7Y503D01*
X2039Y503D02*
X2046Y503D01*
X0Y502D02*
X7Y502D01*
X2039Y502D02*
X2046Y502D01*
X0Y501D02*
X7Y501D01*
X2039Y501D02*
X2046Y501D01*
X0Y500D02*
X7Y500D01*
X2039Y500D02*
X2046Y500D01*
X0Y499D02*
X7Y499D01*
X2039Y499D02*
X2046Y499D01*
X0Y498D02*
X7Y498D01*
X2039Y498D02*
X2046Y498D01*
X0Y497D02*
X7Y497D01*
X2039Y497D02*
X2046Y497D01*
X0Y496D02*
X7Y496D01*
X2039Y496D02*
X2046Y496D01*
X0Y495D02*
X7Y495D01*
X2039Y495D02*
X2046Y495D01*
X0Y494D02*
X7Y494D01*
X2039Y494D02*
X2046Y494D01*
X0Y493D02*
X7Y493D01*
X2039Y493D02*
X2046Y493D01*
X0Y492D02*
X7Y492D01*
X2039Y492D02*
X2046Y492D01*
X0Y491D02*
X7Y491D01*
X2039Y491D02*
X2046Y491D01*
X0Y490D02*
X7Y490D01*
X2039Y490D02*
X2046Y490D01*
X0Y489D02*
X7Y489D01*
X2039Y489D02*
X2046Y489D01*
X0Y488D02*
X7Y488D01*
X2039Y488D02*
X2046Y488D01*
X0Y487D02*
X7Y487D01*
X2039Y487D02*
X2046Y487D01*
X0Y486D02*
X7Y486D01*
X2039Y486D02*
X2046Y486D01*
X0Y485D02*
X7Y485D01*
X2039Y485D02*
X2046Y485D01*
X0Y484D02*
X7Y484D01*
X2039Y484D02*
X2046Y484D01*
X0Y483D02*
X7Y483D01*
X2039Y483D02*
X2046Y483D01*
X0Y482D02*
X7Y482D01*
X2039Y482D02*
X2046Y482D01*
X0Y481D02*
X7Y481D01*
X2039Y481D02*
X2046Y481D01*
X0Y480D02*
X7Y480D01*
X2039Y480D02*
X2046Y480D01*
X0Y479D02*
X7Y479D01*
X2039Y479D02*
X2046Y479D01*
X0Y478D02*
X7Y478D01*
X2039Y478D02*
X2046Y478D01*
X0Y477D02*
X7Y477D01*
X2039Y477D02*
X2046Y477D01*
X0Y476D02*
X7Y476D01*
X2039Y476D02*
X2046Y476D01*
X0Y475D02*
X7Y475D01*
X2039Y475D02*
X2046Y475D01*
X0Y474D02*
X7Y474D01*
X2039Y474D02*
X2046Y474D01*
X0Y473D02*
X7Y473D01*
X2039Y473D02*
X2046Y473D01*
X0Y472D02*
X7Y472D01*
X2039Y472D02*
X2046Y472D01*
X0Y471D02*
X7Y471D01*
X2039Y471D02*
X2046Y471D01*
X0Y470D02*
X7Y470D01*
X2039Y470D02*
X2046Y470D01*
X0Y469D02*
X7Y469D01*
X2039Y469D02*
X2046Y469D01*
X0Y468D02*
X7Y468D01*
X2039Y468D02*
X2046Y468D01*
X0Y467D02*
X7Y467D01*
X2039Y467D02*
X2046Y467D01*
X0Y466D02*
X7Y466D01*
X2039Y466D02*
X2046Y466D01*
X0Y465D02*
X7Y465D01*
X2039Y465D02*
X2046Y465D01*
X0Y464D02*
X7Y464D01*
X2039Y464D02*
X2046Y464D01*
X0Y463D02*
X7Y463D01*
X2039Y463D02*
X2046Y463D01*
X0Y462D02*
X7Y462D01*
X2039Y462D02*
X2046Y462D01*
X0Y461D02*
X7Y461D01*
X2039Y461D02*
X2046Y461D01*
X0Y460D02*
X7Y460D01*
X2039Y460D02*
X2046Y460D01*
X0Y459D02*
X7Y459D01*
X2039Y459D02*
X2046Y459D01*
X0Y458D02*
X7Y458D01*
X2039Y458D02*
X2046Y458D01*
X0Y457D02*
X7Y457D01*
X2039Y457D02*
X2046Y457D01*
X0Y456D02*
X7Y456D01*
X2039Y456D02*
X2046Y456D01*
X0Y455D02*
X7Y455D01*
X2039Y455D02*
X2046Y455D01*
X0Y454D02*
X7Y454D01*
X2039Y454D02*
X2046Y454D01*
X0Y453D02*
X7Y453D01*
X2039Y453D02*
X2046Y453D01*
X0Y452D02*
X7Y452D01*
X2039Y452D02*
X2046Y452D01*
X0Y451D02*
X7Y451D01*
X2039Y451D02*
X2046Y451D01*
X0Y450D02*
X7Y450D01*
X2039Y450D02*
X2046Y450D01*
X0Y449D02*
X7Y449D01*
X2039Y449D02*
X2046Y449D01*
X0Y448D02*
X7Y448D01*
X2039Y448D02*
X2046Y448D01*
X0Y447D02*
X7Y447D01*
X2039Y447D02*
X2046Y447D01*
X0Y446D02*
X7Y446D01*
X2039Y446D02*
X2046Y446D01*
X0Y445D02*
X7Y445D01*
X2039Y445D02*
X2046Y445D01*
X0Y444D02*
X7Y444D01*
X2039Y444D02*
X2046Y444D01*
X0Y443D02*
X7Y443D01*
X2039Y443D02*
X2046Y443D01*
X0Y442D02*
X7Y442D01*
X2039Y442D02*
X2046Y442D01*
X0Y441D02*
X7Y441D01*
X2039Y441D02*
X2046Y441D01*
X0Y440D02*
X7Y440D01*
X2039Y440D02*
X2046Y440D01*
X0Y439D02*
X7Y439D01*
X2039Y439D02*
X2046Y439D01*
X0Y438D02*
X7Y438D01*
X2039Y438D02*
X2046Y438D01*
X0Y437D02*
X7Y437D01*
X2039Y437D02*
X2046Y437D01*
X0Y436D02*
X7Y436D01*
X2039Y436D02*
X2046Y436D01*
X0Y435D02*
X7Y435D01*
X2039Y435D02*
X2046Y435D01*
X0Y434D02*
X7Y434D01*
X2039Y434D02*
X2046Y434D01*
X0Y433D02*
X7Y433D01*
X2039Y433D02*
X2046Y433D01*
X0Y432D02*
X7Y432D01*
X2039Y432D02*
X2046Y432D01*
X0Y431D02*
X7Y431D01*
X2039Y431D02*
X2046Y431D01*
X0Y430D02*
X7Y430D01*
X2039Y430D02*
X2046Y430D01*
X0Y429D02*
X7Y429D01*
X2039Y429D02*
X2046Y429D01*
X0Y428D02*
X7Y428D01*
X2039Y428D02*
X2046Y428D01*
X0Y427D02*
X7Y427D01*
X1260Y427D02*
X1293Y427D01*
X1312Y427D02*
X1328Y427D01*
X1362Y427D02*
X1393Y427D01*
X1439Y427D02*
X1441Y427D01*
X1462Y427D02*
X1493Y427D01*
X1517Y427D02*
X1538Y427D01*
X2039Y427D02*
X2046Y427D01*
X0Y426D02*
X7Y426D01*
X1260Y426D02*
X1293Y426D01*
X1311Y426D02*
X1330Y426D01*
X1361Y426D02*
X1393Y426D01*
X1438Y426D02*
X1443Y426D01*
X1461Y426D02*
X1493Y426D01*
X1514Y426D02*
X1540Y426D01*
X2039Y426D02*
X2046Y426D01*
X0Y425D02*
X7Y425D01*
X59Y425D02*
X69Y425D01*
X112Y425D02*
X112Y425D01*
X139Y425D02*
X140Y425D01*
X162Y425D02*
X173Y425D01*
X212Y425D02*
X240Y425D01*
X281Y425D02*
X292Y425D01*
X1260Y425D02*
X1293Y425D01*
X1310Y425D02*
X1332Y425D01*
X1360Y425D02*
X1393Y425D01*
X1438Y425D02*
X1443Y425D01*
X1460Y425D02*
X1493Y425D01*
X1513Y425D02*
X1541Y425D01*
X2039Y425D02*
X2046Y425D01*
X0Y424D02*
X7Y424D01*
X59Y424D02*
X71Y424D01*
X110Y424D02*
X114Y424D01*
X137Y424D02*
X141Y424D01*
X160Y424D02*
X177Y424D01*
X210Y424D02*
X241Y424D01*
X279Y424D02*
X292Y424D01*
X1260Y424D02*
X1293Y424D01*
X1310Y424D02*
X1333Y424D01*
X1360Y424D02*
X1393Y424D01*
X1437Y424D02*
X1443Y424D01*
X1460Y424D02*
X1493Y424D01*
X1512Y424D02*
X1542Y424D01*
X2039Y424D02*
X2046Y424D01*
X0Y423D02*
X7Y423D01*
X59Y423D02*
X74Y423D01*
X109Y423D02*
X115Y423D01*
X137Y423D02*
X142Y423D01*
X159Y423D02*
X178Y423D01*
X209Y423D02*
X242Y423D01*
X275Y423D02*
X292Y423D01*
X1260Y423D02*
X1293Y423D01*
X1310Y423D02*
X1334Y423D01*
X1360Y423D02*
X1393Y423D01*
X1437Y423D02*
X1443Y423D01*
X1460Y423D02*
X1493Y423D01*
X1511Y423D02*
X1543Y423D01*
X2039Y423D02*
X2046Y423D01*
X0Y422D02*
X7Y422D01*
X59Y422D02*
X79Y422D01*
X109Y422D02*
X115Y422D01*
X137Y422D02*
X142Y422D01*
X159Y422D02*
X179Y422D01*
X209Y422D02*
X242Y422D01*
X271Y422D02*
X292Y422D01*
X749Y422D02*
X760Y422D01*
X779Y422D02*
X810Y422D01*
X829Y422D02*
X860Y422D01*
X1260Y422D02*
X1293Y422D01*
X1310Y422D02*
X1334Y422D01*
X1360Y422D02*
X1393Y422D01*
X1437Y422D02*
X1443Y422D01*
X1460Y422D02*
X1493Y422D01*
X1511Y422D02*
X1543Y422D01*
X2039Y422D02*
X2046Y422D01*
X0Y421D02*
X7Y421D01*
X59Y421D02*
X92Y421D01*
X109Y421D02*
X115Y421D01*
X136Y421D02*
X142Y421D01*
X159Y421D02*
X180Y421D01*
X209Y421D02*
X242Y421D01*
X261Y421D02*
X292Y421D01*
X747Y421D02*
X760Y421D01*
X778Y421D02*
X810Y421D01*
X828Y421D02*
X860Y421D01*
X1260Y421D02*
X1293Y421D01*
X1311Y421D02*
X1335Y421D01*
X1361Y421D02*
X1393Y421D01*
X1437Y421D02*
X1443Y421D01*
X1461Y421D02*
X1493Y421D01*
X1510Y421D02*
X1543Y421D01*
X2039Y421D02*
X2046Y421D01*
X0Y420D02*
X7Y420D01*
X59Y420D02*
X92Y420D01*
X109Y420D02*
X115Y420D01*
X136Y420D02*
X142Y420D01*
X159Y420D02*
X181Y420D01*
X209Y420D02*
X242Y420D01*
X260Y420D02*
X292Y420D01*
X744Y420D02*
X760Y420D01*
X777Y420D02*
X810Y420D01*
X827Y420D02*
X860Y420D01*
X1260Y420D02*
X1266Y420D01*
X1274Y420D02*
X1280Y420D01*
X1287Y420D02*
X1293Y420D01*
X1328Y420D02*
X1336Y420D01*
X1387Y420D02*
X1393Y420D01*
X1437Y420D02*
X1443Y420D01*
X1487Y420D02*
X1493Y420D01*
X1510Y420D02*
X1517Y420D01*
X1537Y420D02*
X1543Y420D01*
X2039Y420D02*
X2046Y420D01*
X0Y419D02*
X7Y419D01*
X59Y419D02*
X92Y419D01*
X109Y419D02*
X115Y419D01*
X136Y419D02*
X142Y419D01*
X160Y419D02*
X182Y419D01*
X210Y419D02*
X241Y419D01*
X260Y419D02*
X292Y419D01*
X741Y419D02*
X760Y419D01*
X777Y419D02*
X810Y419D01*
X827Y419D02*
X860Y419D01*
X1260Y419D02*
X1266Y419D01*
X1274Y419D02*
X1280Y419D01*
X1287Y419D02*
X1293Y419D01*
X1329Y419D02*
X1336Y419D01*
X1387Y419D02*
X1393Y419D01*
X1437Y419D02*
X1443Y419D01*
X1487Y419D02*
X1493Y419D01*
X1510Y419D02*
X1516Y419D01*
X1537Y419D02*
X1543Y419D01*
X2039Y419D02*
X2046Y419D01*
X0Y418D02*
X7Y418D01*
X59Y418D02*
X65Y418D01*
X72Y418D02*
X79Y418D01*
X86Y418D02*
X92Y418D01*
X109Y418D02*
X115Y418D01*
X136Y418D02*
X142Y418D01*
X173Y418D02*
X182Y418D01*
X222Y418D02*
X229Y418D01*
X259Y418D02*
X268Y418D01*
X286Y418D02*
X292Y418D01*
X737Y418D02*
X760Y418D01*
X777Y418D02*
X810Y418D01*
X827Y418D02*
X860Y418D01*
X1260Y418D02*
X1266Y418D01*
X1274Y418D02*
X1280Y418D01*
X1287Y418D02*
X1293Y418D01*
X1330Y418D02*
X1336Y418D01*
X1387Y418D02*
X1393Y418D01*
X1437Y418D02*
X1443Y418D01*
X1487Y418D02*
X1493Y418D01*
X1510Y418D02*
X1516Y418D01*
X1536Y418D02*
X1543Y418D01*
X2039Y418D02*
X2046Y418D01*
X0Y417D02*
X7Y417D01*
X59Y417D02*
X65Y417D01*
X73Y417D02*
X79Y417D01*
X86Y417D02*
X92Y417D01*
X109Y417D02*
X115Y417D01*
X136Y417D02*
X142Y417D01*
X175Y417D02*
X183Y417D01*
X223Y417D02*
X229Y417D01*
X259Y417D02*
X266Y417D01*
X286Y417D02*
X292Y417D01*
X727Y417D02*
X760Y417D01*
X777Y417D02*
X810Y417D01*
X827Y417D02*
X860Y417D01*
X904Y417D02*
X910Y417D01*
X1260Y417D02*
X1266Y417D01*
X1274Y417D02*
X1280Y417D01*
X1288Y417D02*
X1293Y417D01*
X1330Y417D02*
X1337Y417D01*
X1387Y417D02*
X1393Y417D01*
X1437Y417D02*
X1443Y417D01*
X1487Y417D02*
X1493Y417D01*
X1510Y417D02*
X1516Y417D01*
X1536Y417D02*
X1543Y417D01*
X2039Y417D02*
X2046Y417D01*
X0Y416D02*
X7Y416D01*
X59Y416D02*
X65Y416D01*
X73Y416D02*
X79Y416D01*
X86Y416D02*
X92Y416D01*
X109Y416D02*
X115Y416D01*
X136Y416D02*
X142Y416D01*
X176Y416D02*
X184Y416D01*
X223Y416D02*
X229Y416D01*
X259Y416D02*
X265Y416D01*
X286Y416D02*
X292Y416D01*
X727Y416D02*
X760Y416D01*
X778Y416D02*
X810Y416D01*
X828Y416D02*
X860Y416D01*
X904Y416D02*
X910Y416D01*
X1261Y416D02*
X1265Y416D01*
X1274Y416D02*
X1280Y416D01*
X1288Y416D02*
X1293Y416D01*
X1331Y416D02*
X1337Y416D01*
X1387Y416D02*
X1393Y416D01*
X1437Y416D02*
X1443Y416D01*
X1487Y416D02*
X1493Y416D01*
X1510Y416D02*
X1515Y416D01*
X1535Y416D02*
X1543Y416D01*
X2039Y416D02*
X2046Y416D01*
X0Y415D02*
X7Y415D01*
X59Y415D02*
X65Y415D01*
X73Y415D02*
X79Y415D01*
X87Y415D02*
X92Y415D01*
X109Y415D02*
X115Y415D01*
X136Y415D02*
X142Y415D01*
X177Y415D02*
X185Y415D01*
X223Y415D02*
X229Y415D01*
X259Y415D02*
X265Y415D01*
X286Y415D02*
X292Y415D01*
X727Y415D02*
X733Y415D01*
X740Y415D02*
X747Y415D01*
X754Y415D02*
X760Y415D01*
X804Y415D02*
X810Y415D01*
X854Y415D02*
X860Y415D01*
X904Y415D02*
X910Y415D01*
X1262Y415D02*
X1264Y415D01*
X1274Y415D02*
X1280Y415D01*
X1289Y415D02*
X1292Y415D01*
X1331Y415D02*
X1338Y415D01*
X1387Y415D02*
X1393Y415D01*
X1437Y415D02*
X1443Y415D01*
X1487Y415D02*
X1493Y415D01*
X1512Y415D02*
X1514Y415D01*
X1534Y415D02*
X1542Y415D01*
X2039Y415D02*
X2046Y415D01*
X0Y414D02*
X7Y414D01*
X59Y414D02*
X64Y414D01*
X73Y414D02*
X79Y414D01*
X87Y414D02*
X92Y414D01*
X109Y414D02*
X115Y414D01*
X136Y414D02*
X142Y414D01*
X178Y414D02*
X186Y414D01*
X223Y414D02*
X229Y414D01*
X259Y414D02*
X265Y414D01*
X286Y414D02*
X292Y414D01*
X727Y414D02*
X733Y414D01*
X741Y414D02*
X747Y414D01*
X754Y414D02*
X760Y414D01*
X804Y414D02*
X810Y414D01*
X854Y414D02*
X860Y414D01*
X904Y414D02*
X910Y414D01*
X1274Y414D02*
X1280Y414D01*
X1332Y414D02*
X1338Y414D01*
X1387Y414D02*
X1393Y414D01*
X1437Y414D02*
X1443Y414D01*
X1487Y414D02*
X1493Y414D01*
X1533Y414D02*
X1541Y414D01*
X2039Y414D02*
X2046Y414D01*
X0Y413D02*
X7Y413D01*
X60Y413D02*
X64Y413D01*
X73Y413D02*
X79Y413D01*
X88Y413D02*
X91Y413D01*
X109Y413D02*
X115Y413D01*
X136Y413D02*
X142Y413D01*
X178Y413D02*
X186Y413D01*
X223Y413D02*
X229Y413D01*
X259Y413D02*
X265Y413D01*
X286Y413D02*
X292Y413D01*
X727Y413D02*
X733Y413D01*
X741Y413D02*
X747Y413D01*
X754Y413D02*
X760Y413D01*
X804Y413D02*
X810Y413D01*
X854Y413D02*
X860Y413D01*
X904Y413D02*
X910Y413D01*
X1274Y413D02*
X1280Y413D01*
X1332Y413D02*
X1339Y413D01*
X1387Y413D02*
X1393Y413D01*
X1437Y413D02*
X1443Y413D01*
X1487Y413D02*
X1493Y413D01*
X1533Y413D02*
X1541Y413D01*
X2039Y413D02*
X2046Y413D01*
X0Y412D02*
X7Y412D01*
X73Y412D02*
X79Y412D01*
X109Y412D02*
X115Y412D01*
X136Y412D02*
X142Y412D01*
X179Y412D02*
X187Y412D01*
X223Y412D02*
X229Y412D01*
X259Y412D02*
X265Y412D01*
X286Y412D02*
X292Y412D01*
X727Y412D02*
X733Y412D01*
X741Y412D02*
X747Y412D01*
X755Y412D02*
X760Y412D01*
X804Y412D02*
X810Y412D01*
X854Y412D02*
X860Y412D01*
X904Y412D02*
X910Y412D01*
X1274Y412D02*
X1280Y412D01*
X1333Y412D02*
X1339Y412D01*
X1387Y412D02*
X1393Y412D01*
X1437Y412D02*
X1443Y412D01*
X1487Y412D02*
X1493Y412D01*
X1532Y412D02*
X1540Y412D01*
X2039Y412D02*
X2046Y412D01*
X0Y411D02*
X7Y411D01*
X73Y411D02*
X79Y411D01*
X109Y411D02*
X115Y411D01*
X136Y411D02*
X142Y411D01*
X180Y411D02*
X188Y411D01*
X223Y411D02*
X229Y411D01*
X259Y411D02*
X265Y411D01*
X286Y411D02*
X292Y411D01*
X727Y411D02*
X732Y411D01*
X741Y411D02*
X747Y411D01*
X755Y411D02*
X760Y411D01*
X804Y411D02*
X810Y411D01*
X854Y411D02*
X860Y411D01*
X904Y411D02*
X910Y411D01*
X1274Y411D02*
X1280Y411D01*
X1333Y411D02*
X1340Y411D01*
X1387Y411D02*
X1393Y411D01*
X1437Y411D02*
X1443Y411D01*
X1487Y411D02*
X1493Y411D01*
X1531Y411D02*
X1539Y411D01*
X2039Y411D02*
X2046Y411D01*
X0Y410D02*
X7Y410D01*
X73Y410D02*
X79Y410D01*
X109Y410D02*
X115Y410D01*
X136Y410D02*
X142Y410D01*
X181Y410D02*
X189Y410D01*
X223Y410D02*
X229Y410D01*
X259Y410D02*
X265Y410D01*
X286Y410D02*
X292Y410D01*
X728Y410D02*
X731Y410D01*
X741Y410D02*
X747Y410D01*
X756Y410D02*
X759Y410D01*
X804Y410D02*
X810Y410D01*
X854Y410D02*
X860Y410D01*
X904Y410D02*
X910Y410D01*
X1274Y410D02*
X1280Y410D01*
X1334Y410D02*
X1340Y410D01*
X1387Y410D02*
X1393Y410D01*
X1437Y410D02*
X1443Y410D01*
X1487Y410D02*
X1493Y410D01*
X1530Y410D02*
X1538Y410D01*
X2039Y410D02*
X2046Y410D01*
X0Y409D02*
X7Y409D01*
X73Y409D02*
X79Y409D01*
X109Y409D02*
X115Y409D01*
X136Y409D02*
X142Y409D01*
X182Y409D02*
X189Y409D01*
X223Y409D02*
X229Y409D01*
X259Y409D02*
X266Y409D01*
X286Y409D02*
X292Y409D01*
X741Y409D02*
X747Y409D01*
X804Y409D02*
X810Y409D01*
X854Y409D02*
X860Y409D01*
X904Y409D02*
X910Y409D01*
X1274Y409D02*
X1280Y409D01*
X1334Y409D02*
X1341Y409D01*
X1387Y409D02*
X1393Y409D01*
X1437Y409D02*
X1443Y409D01*
X1487Y409D02*
X1493Y409D01*
X1529Y409D02*
X1537Y409D01*
X2039Y409D02*
X2046Y409D01*
X0Y408D02*
X7Y408D01*
X73Y408D02*
X79Y408D01*
X109Y408D02*
X115Y408D01*
X136Y408D02*
X142Y408D01*
X182Y408D02*
X190Y408D01*
X223Y408D02*
X229Y408D01*
X259Y408D02*
X267Y408D01*
X286Y408D02*
X292Y408D01*
X741Y408D02*
X747Y408D01*
X804Y408D02*
X810Y408D01*
X854Y408D02*
X860Y408D01*
X904Y408D02*
X910Y408D01*
X1274Y408D02*
X1280Y408D01*
X1335Y408D02*
X1341Y408D01*
X1387Y408D02*
X1393Y408D01*
X1437Y408D02*
X1443Y408D01*
X1487Y408D02*
X1493Y408D01*
X1529Y408D02*
X1537Y408D01*
X2039Y408D02*
X2046Y408D01*
X0Y407D02*
X7Y407D01*
X73Y407D02*
X79Y407D01*
X109Y407D02*
X115Y407D01*
X136Y407D02*
X142Y407D01*
X183Y407D02*
X191Y407D01*
X223Y407D02*
X229Y407D01*
X260Y407D02*
X292Y407D01*
X741Y407D02*
X747Y407D01*
X804Y407D02*
X810Y407D01*
X854Y407D02*
X860Y407D01*
X904Y407D02*
X910Y407D01*
X1274Y407D02*
X1280Y407D01*
X1335Y407D02*
X1342Y407D01*
X1387Y407D02*
X1393Y407D01*
X1437Y407D02*
X1443Y407D01*
X1487Y407D02*
X1493Y407D01*
X1528Y407D02*
X1536Y407D01*
X2039Y407D02*
X2046Y407D01*
X0Y406D02*
X7Y406D01*
X73Y406D02*
X79Y406D01*
X109Y406D02*
X115Y406D01*
X136Y406D02*
X142Y406D01*
X184Y406D02*
X191Y406D01*
X223Y406D02*
X229Y406D01*
X260Y406D02*
X292Y406D01*
X741Y406D02*
X747Y406D01*
X804Y406D02*
X810Y406D01*
X854Y406D02*
X860Y406D01*
X904Y406D02*
X910Y406D01*
X1274Y406D02*
X1280Y406D01*
X1336Y406D02*
X1342Y406D01*
X1387Y406D02*
X1393Y406D01*
X1437Y406D02*
X1443Y406D01*
X1487Y406D02*
X1493Y406D01*
X1527Y406D02*
X1535Y406D01*
X2039Y406D02*
X2046Y406D01*
X0Y405D02*
X7Y405D01*
X73Y405D02*
X79Y405D01*
X109Y405D02*
X115Y405D01*
X136Y405D02*
X142Y405D01*
X185Y405D02*
X192Y405D01*
X223Y405D02*
X229Y405D01*
X261Y405D02*
X292Y405D01*
X741Y405D02*
X747Y405D01*
X804Y405D02*
X810Y405D01*
X854Y405D02*
X860Y405D01*
X904Y405D02*
X910Y405D01*
X1274Y405D02*
X1280Y405D01*
X1336Y405D02*
X1343Y405D01*
X1387Y405D02*
X1393Y405D01*
X1437Y405D02*
X1443Y405D01*
X1487Y405D02*
X1493Y405D01*
X1526Y405D02*
X1534Y405D01*
X2039Y405D02*
X2046Y405D01*
X0Y404D02*
X7Y404D01*
X73Y404D02*
X79Y404D01*
X109Y404D02*
X115Y404D01*
X136Y404D02*
X142Y404D01*
X185Y404D02*
X192Y404D01*
X223Y404D02*
X229Y404D01*
X262Y404D02*
X292Y404D01*
X741Y404D02*
X747Y404D01*
X785Y404D02*
X810Y404D01*
X854Y404D02*
X860Y404D01*
X904Y404D02*
X910Y404D01*
X1274Y404D02*
X1280Y404D01*
X1337Y404D02*
X1343Y404D01*
X1387Y404D02*
X1393Y404D01*
X1437Y404D02*
X1443Y404D01*
X1487Y404D02*
X1493Y404D01*
X1526Y404D02*
X1534Y404D01*
X2039Y404D02*
X2046Y404D01*
X0Y403D02*
X7Y403D01*
X73Y403D02*
X79Y403D01*
X109Y403D02*
X115Y403D01*
X136Y403D02*
X142Y403D01*
X186Y403D02*
X192Y403D01*
X223Y403D02*
X229Y403D01*
X263Y403D02*
X292Y403D01*
X741Y403D02*
X747Y403D01*
X784Y403D02*
X810Y403D01*
X854Y403D02*
X860Y403D01*
X904Y403D02*
X910Y403D01*
X1274Y403D02*
X1280Y403D01*
X1337Y403D02*
X1343Y403D01*
X1375Y403D02*
X1393Y403D01*
X1437Y403D02*
X1443Y403D01*
X1475Y403D02*
X1493Y403D01*
X1525Y403D02*
X1533Y403D01*
X2039Y403D02*
X2046Y403D01*
X0Y402D02*
X7Y402D01*
X73Y402D02*
X79Y402D01*
X109Y402D02*
X115Y402D01*
X136Y402D02*
X142Y402D01*
X186Y402D02*
X192Y402D01*
X223Y402D02*
X229Y402D01*
X264Y402D02*
X292Y402D01*
X741Y402D02*
X747Y402D01*
X784Y402D02*
X810Y402D01*
X854Y402D02*
X860Y402D01*
X904Y402D02*
X910Y402D01*
X1274Y402D02*
X1280Y402D01*
X1337Y402D02*
X1343Y402D01*
X1374Y402D02*
X1393Y402D01*
X1437Y402D02*
X1443Y402D01*
X1474Y402D02*
X1493Y402D01*
X1524Y402D02*
X1532Y402D01*
X2039Y402D02*
X2046Y402D01*
X0Y401D02*
X7Y401D01*
X73Y401D02*
X79Y401D01*
X109Y401D02*
X142Y401D01*
X186Y401D02*
X192Y401D01*
X223Y401D02*
X229Y401D01*
X266Y401D02*
X292Y401D01*
X741Y401D02*
X747Y401D01*
X784Y401D02*
X810Y401D01*
X854Y401D02*
X860Y401D01*
X904Y401D02*
X910Y401D01*
X1274Y401D02*
X1280Y401D01*
X1337Y401D02*
X1343Y401D01*
X1374Y401D02*
X1393Y401D01*
X1437Y401D02*
X1443Y401D01*
X1474Y401D02*
X1493Y401D01*
X1523Y401D02*
X1531Y401D01*
X2039Y401D02*
X2046Y401D01*
X0Y400D02*
X7Y400D01*
X73Y400D02*
X79Y400D01*
X109Y400D02*
X142Y400D01*
X186Y400D02*
X192Y400D01*
X223Y400D02*
X229Y400D01*
X273Y400D02*
X280Y400D01*
X286Y400D02*
X292Y400D01*
X741Y400D02*
X747Y400D01*
X784Y400D02*
X810Y400D01*
X854Y400D02*
X860Y400D01*
X904Y400D02*
X910Y400D01*
X1274Y400D02*
X1280Y400D01*
X1337Y400D02*
X1343Y400D01*
X1374Y400D02*
X1393Y400D01*
X1437Y400D02*
X1443Y400D01*
X1474Y400D02*
X1493Y400D01*
X1522Y400D02*
X1530Y400D01*
X2039Y400D02*
X2046Y400D01*
X0Y399D02*
X7Y399D01*
X73Y399D02*
X79Y399D01*
X109Y399D02*
X142Y399D01*
X186Y399D02*
X192Y399D01*
X223Y399D02*
X229Y399D01*
X273Y399D02*
X280Y399D01*
X286Y399D02*
X292Y399D01*
X741Y399D02*
X747Y399D01*
X784Y399D02*
X810Y399D01*
X854Y399D02*
X860Y399D01*
X904Y399D02*
X910Y399D01*
X1274Y399D02*
X1280Y399D01*
X1337Y399D02*
X1343Y399D01*
X1374Y399D02*
X1393Y399D01*
X1437Y399D02*
X1443Y399D01*
X1474Y399D02*
X1493Y399D01*
X1522Y399D02*
X1530Y399D01*
X2039Y399D02*
X2046Y399D01*
X0Y398D02*
X7Y398D01*
X73Y398D02*
X79Y398D01*
X109Y398D02*
X142Y398D01*
X186Y398D02*
X192Y398D01*
X223Y398D02*
X229Y398D01*
X272Y398D02*
X279Y398D01*
X286Y398D02*
X292Y398D01*
X741Y398D02*
X747Y398D01*
X786Y398D02*
X810Y398D01*
X842Y398D02*
X860Y398D01*
X904Y398D02*
X910Y398D01*
X1274Y398D02*
X1280Y398D01*
X1337Y398D02*
X1343Y398D01*
X1375Y398D02*
X1393Y398D01*
X1437Y398D02*
X1443Y398D01*
X1475Y398D02*
X1493Y398D01*
X1521Y398D02*
X1529Y398D01*
X2039Y398D02*
X2046Y398D01*
X0Y397D02*
X7Y397D01*
X73Y397D02*
X79Y397D01*
X109Y397D02*
X142Y397D01*
X186Y397D02*
X192Y397D01*
X223Y397D02*
X229Y397D01*
X271Y397D02*
X279Y397D01*
X286Y397D02*
X292Y397D01*
X741Y397D02*
X747Y397D01*
X804Y397D02*
X810Y397D01*
X841Y397D02*
X860Y397D01*
X904Y397D02*
X910Y397D01*
X1274Y397D02*
X1280Y397D01*
X1337Y397D02*
X1343Y397D01*
X1376Y397D02*
X1393Y397D01*
X1437Y397D02*
X1443Y397D01*
X1476Y397D02*
X1493Y397D01*
X1520Y397D02*
X1528Y397D01*
X2039Y397D02*
X2046Y397D01*
X0Y396D02*
X7Y396D01*
X73Y396D02*
X79Y396D01*
X109Y396D02*
X142Y396D01*
X186Y396D02*
X192Y396D01*
X223Y396D02*
X229Y396D01*
X271Y396D02*
X278Y396D01*
X286Y396D02*
X292Y396D01*
X741Y396D02*
X747Y396D01*
X804Y396D02*
X810Y396D01*
X841Y396D02*
X860Y396D01*
X904Y396D02*
X910Y396D01*
X1274Y396D02*
X1280Y396D01*
X1336Y396D02*
X1343Y396D01*
X1387Y396D02*
X1393Y396D01*
X1437Y396D02*
X1443Y396D01*
X1487Y396D02*
X1493Y396D01*
X1519Y396D02*
X1527Y396D01*
X2039Y396D02*
X2046Y396D01*
X0Y395D02*
X7Y395D01*
X73Y395D02*
X79Y395D01*
X109Y395D02*
X142Y395D01*
X159Y395D02*
X174Y395D01*
X186Y395D02*
X192Y395D01*
X223Y395D02*
X229Y395D01*
X270Y395D02*
X277Y395D01*
X286Y395D02*
X292Y395D01*
X741Y395D02*
X747Y395D01*
X804Y395D02*
X810Y395D01*
X841Y395D02*
X860Y395D01*
X904Y395D02*
X910Y395D01*
X1274Y395D02*
X1280Y395D01*
X1336Y395D02*
X1342Y395D01*
X1387Y395D02*
X1393Y395D01*
X1437Y395D02*
X1443Y395D01*
X1487Y395D02*
X1493Y395D01*
X1519Y395D02*
X1527Y395D01*
X2039Y395D02*
X2046Y395D01*
X0Y394D02*
X7Y394D01*
X73Y394D02*
X79Y394D01*
X109Y394D02*
X115Y394D01*
X136Y394D02*
X142Y394D01*
X159Y394D02*
X175Y394D01*
X186Y394D02*
X192Y394D01*
X223Y394D02*
X229Y394D01*
X270Y394D02*
X277Y394D01*
X286Y394D02*
X292Y394D01*
X741Y394D02*
X747Y394D01*
X804Y394D02*
X810Y394D01*
X841Y394D02*
X860Y394D01*
X904Y394D02*
X910Y394D01*
X1274Y394D02*
X1280Y394D01*
X1335Y394D02*
X1342Y394D01*
X1387Y394D02*
X1393Y394D01*
X1437Y394D02*
X1443Y394D01*
X1487Y394D02*
X1493Y394D01*
X1518Y394D02*
X1526Y394D01*
X2039Y394D02*
X2046Y394D01*
X0Y393D02*
X7Y393D01*
X73Y393D02*
X79Y393D01*
X109Y393D02*
X115Y393D01*
X136Y393D02*
X142Y393D01*
X159Y393D02*
X175Y393D01*
X186Y393D02*
X192Y393D01*
X223Y393D02*
X229Y393D01*
X269Y393D02*
X276Y393D01*
X286Y393D02*
X292Y393D01*
X741Y393D02*
X747Y393D01*
X804Y393D02*
X810Y393D01*
X841Y393D02*
X860Y393D01*
X904Y393D02*
X910Y393D01*
X1274Y393D02*
X1280Y393D01*
X1335Y393D02*
X1342Y393D01*
X1387Y393D02*
X1393Y393D01*
X1437Y393D02*
X1443Y393D01*
X1487Y393D02*
X1493Y393D01*
X1517Y393D02*
X1525Y393D01*
X2039Y393D02*
X2046Y393D01*
X0Y392D02*
X7Y392D01*
X73Y392D02*
X79Y392D01*
X109Y392D02*
X115Y392D01*
X136Y392D02*
X142Y392D01*
X159Y392D02*
X175Y392D01*
X186Y392D02*
X192Y392D01*
X223Y392D02*
X229Y392D01*
X269Y392D02*
X276Y392D01*
X286Y392D02*
X292Y392D01*
X741Y392D02*
X747Y392D01*
X804Y392D02*
X810Y392D01*
X843Y392D02*
X860Y392D01*
X904Y392D02*
X910Y392D01*
X1274Y392D02*
X1280Y392D01*
X1334Y392D02*
X1341Y392D01*
X1387Y392D02*
X1393Y392D01*
X1437Y392D02*
X1443Y392D01*
X1487Y392D02*
X1493Y392D01*
X1516Y392D02*
X1524Y392D01*
X2039Y392D02*
X2046Y392D01*
X0Y391D02*
X7Y391D01*
X73Y391D02*
X79Y391D01*
X109Y391D02*
X115Y391D01*
X136Y391D02*
X142Y391D01*
X159Y391D02*
X175Y391D01*
X186Y391D02*
X192Y391D01*
X223Y391D02*
X229Y391D01*
X268Y391D02*
X275Y391D01*
X286Y391D02*
X292Y391D01*
X741Y391D02*
X747Y391D01*
X804Y391D02*
X810Y391D01*
X854Y391D02*
X860Y391D01*
X904Y391D02*
X910Y391D01*
X1274Y391D02*
X1280Y391D01*
X1334Y391D02*
X1341Y391D01*
X1387Y391D02*
X1393Y391D01*
X1437Y391D02*
X1443Y391D01*
X1487Y391D02*
X1493Y391D01*
X1515Y391D02*
X1523Y391D01*
X2039Y391D02*
X2046Y391D01*
X0Y390D02*
X7Y390D01*
X73Y390D02*
X79Y390D01*
X109Y390D02*
X115Y390D01*
X136Y390D02*
X142Y390D01*
X159Y390D02*
X174Y390D01*
X186Y390D02*
X192Y390D01*
X223Y390D02*
X229Y390D01*
X267Y390D02*
X275Y390D01*
X286Y390D02*
X292Y390D01*
X741Y390D02*
X747Y390D01*
X804Y390D02*
X810Y390D01*
X854Y390D02*
X860Y390D01*
X904Y390D02*
X910Y390D01*
X1274Y390D02*
X1280Y390D01*
X1333Y390D02*
X1340Y390D01*
X1387Y390D02*
X1393Y390D01*
X1437Y390D02*
X1443Y390D01*
X1487Y390D02*
X1493Y390D01*
X1515Y390D02*
X1523Y390D01*
X2039Y390D02*
X2046Y390D01*
X0Y389D02*
X7Y389D01*
X73Y389D02*
X79Y389D01*
X109Y389D02*
X115Y389D01*
X136Y389D02*
X142Y389D01*
X159Y389D02*
X173Y389D01*
X186Y389D02*
X192Y389D01*
X223Y389D02*
X229Y389D01*
X267Y389D02*
X274Y389D01*
X286Y389D02*
X292Y389D01*
X741Y389D02*
X747Y389D01*
X804Y389D02*
X810Y389D01*
X854Y389D02*
X860Y389D01*
X904Y389D02*
X910Y389D01*
X1274Y389D02*
X1280Y389D01*
X1333Y389D02*
X1340Y389D01*
X1387Y389D02*
X1393Y389D01*
X1437Y389D02*
X1443Y389D01*
X1487Y389D02*
X1493Y389D01*
X1514Y389D02*
X1522Y389D01*
X2039Y389D02*
X2046Y389D01*
X0Y388D02*
X7Y388D01*
X73Y388D02*
X79Y388D01*
X109Y388D02*
X115Y388D01*
X136Y388D02*
X142Y388D01*
X159Y388D02*
X165Y388D01*
X186Y388D02*
X192Y388D01*
X223Y388D02*
X229Y388D01*
X266Y388D02*
X273Y388D01*
X286Y388D02*
X292Y388D01*
X741Y388D02*
X747Y388D01*
X804Y388D02*
X810Y388D01*
X854Y388D02*
X860Y388D01*
X904Y388D02*
X910Y388D01*
X1274Y388D02*
X1280Y388D01*
X1332Y388D02*
X1339Y388D01*
X1387Y388D02*
X1393Y388D01*
X1437Y388D02*
X1443Y388D01*
X1487Y388D02*
X1493Y388D01*
X1513Y388D02*
X1521Y388D01*
X2039Y388D02*
X2046Y388D01*
X0Y387D02*
X7Y387D01*
X73Y387D02*
X79Y387D01*
X109Y387D02*
X115Y387D01*
X136Y387D02*
X142Y387D01*
X159Y387D02*
X165Y387D01*
X186Y387D02*
X192Y387D01*
X223Y387D02*
X229Y387D01*
X266Y387D02*
X273Y387D01*
X286Y387D02*
X292Y387D01*
X741Y387D02*
X747Y387D01*
X804Y387D02*
X810Y387D01*
X854Y387D02*
X860Y387D01*
X904Y387D02*
X910Y387D01*
X1274Y387D02*
X1280Y387D01*
X1332Y387D02*
X1339Y387D01*
X1387Y387D02*
X1393Y387D01*
X1437Y387D02*
X1443Y387D01*
X1487Y387D02*
X1493Y387D01*
X1512Y387D02*
X1520Y387D01*
X2039Y387D02*
X2046Y387D01*
X0Y386D02*
X7Y386D01*
X73Y386D02*
X79Y386D01*
X109Y386D02*
X115Y386D01*
X136Y386D02*
X142Y386D01*
X159Y386D02*
X165Y386D01*
X186Y386D02*
X192Y386D01*
X223Y386D02*
X229Y386D01*
X265Y386D02*
X272Y386D01*
X286Y386D02*
X292Y386D01*
X741Y386D02*
X747Y386D01*
X804Y386D02*
X810Y386D01*
X854Y386D02*
X860Y386D01*
X904Y386D02*
X910Y386D01*
X1274Y386D02*
X1280Y386D01*
X1331Y386D02*
X1338Y386D01*
X1387Y386D02*
X1393Y386D01*
X1437Y386D02*
X1443Y386D01*
X1487Y386D02*
X1493Y386D01*
X1512Y386D02*
X1520Y386D01*
X1540Y386D02*
X1541Y386D01*
X2039Y386D02*
X2046Y386D01*
X0Y385D02*
X7Y385D01*
X73Y385D02*
X79Y385D01*
X109Y385D02*
X115Y385D01*
X136Y385D02*
X142Y385D01*
X159Y385D02*
X165Y385D01*
X186Y385D02*
X192Y385D01*
X223Y385D02*
X229Y385D01*
X264Y385D02*
X272Y385D01*
X286Y385D02*
X292Y385D01*
X741Y385D02*
X747Y385D01*
X804Y385D02*
X810Y385D01*
X854Y385D02*
X860Y385D01*
X904Y385D02*
X910Y385D01*
X1274Y385D02*
X1280Y385D01*
X1331Y385D02*
X1338Y385D01*
X1387Y385D02*
X1393Y385D01*
X1437Y385D02*
X1443Y385D01*
X1487Y385D02*
X1493Y385D01*
X1511Y385D02*
X1519Y385D01*
X1538Y385D02*
X1542Y385D01*
X2039Y385D02*
X2046Y385D01*
X0Y384D02*
X7Y384D01*
X73Y384D02*
X79Y384D01*
X109Y384D02*
X115Y384D01*
X136Y384D02*
X142Y384D01*
X159Y384D02*
X165Y384D01*
X186Y384D02*
X192Y384D01*
X223Y384D02*
X229Y384D01*
X264Y384D02*
X271Y384D01*
X286Y384D02*
X292Y384D01*
X741Y384D02*
X747Y384D01*
X804Y384D02*
X810Y384D01*
X854Y384D02*
X860Y384D01*
X904Y384D02*
X910Y384D01*
X1274Y384D02*
X1280Y384D01*
X1330Y384D02*
X1337Y384D01*
X1387Y384D02*
X1393Y384D01*
X1437Y384D02*
X1443Y384D01*
X1487Y384D02*
X1493Y384D01*
X1510Y384D02*
X1518Y384D01*
X1538Y384D02*
X1543Y384D01*
X2039Y384D02*
X2046Y384D01*
X0Y383D02*
X7Y383D01*
X73Y383D02*
X79Y383D01*
X109Y383D02*
X115Y383D01*
X136Y383D02*
X142Y383D01*
X159Y383D02*
X165Y383D01*
X186Y383D02*
X192Y383D01*
X223Y383D02*
X229Y383D01*
X263Y383D02*
X270Y383D01*
X286Y383D02*
X292Y383D01*
X741Y383D02*
X747Y383D01*
X804Y383D02*
X810Y383D01*
X854Y383D02*
X860Y383D01*
X904Y383D02*
X910Y383D01*
X1274Y383D02*
X1280Y383D01*
X1330Y383D02*
X1337Y383D01*
X1387Y383D02*
X1393Y383D01*
X1437Y383D02*
X1443Y383D01*
X1487Y383D02*
X1493Y383D01*
X1510Y383D02*
X1517Y383D01*
X1537Y383D02*
X1543Y383D01*
X2039Y383D02*
X2046Y383D01*
X0Y382D02*
X7Y382D01*
X73Y382D02*
X79Y382D01*
X109Y382D02*
X115Y382D01*
X136Y382D02*
X142Y382D01*
X159Y382D02*
X165Y382D01*
X186Y382D02*
X192Y382D01*
X223Y382D02*
X229Y382D01*
X263Y382D02*
X270Y382D01*
X286Y382D02*
X292Y382D01*
X741Y382D02*
X747Y382D01*
X804Y382D02*
X810Y382D01*
X854Y382D02*
X860Y382D01*
X904Y382D02*
X910Y382D01*
X1274Y382D02*
X1280Y382D01*
X1329Y382D02*
X1336Y382D01*
X1387Y382D02*
X1393Y382D01*
X1437Y382D02*
X1443Y382D01*
X1487Y382D02*
X1493Y382D01*
X1510Y382D02*
X1517Y382D01*
X1537Y382D02*
X1543Y382D01*
X2039Y382D02*
X2046Y382D01*
X0Y381D02*
X7Y381D01*
X73Y381D02*
X79Y381D01*
X109Y381D02*
X115Y381D01*
X136Y381D02*
X142Y381D01*
X159Y381D02*
X165Y381D01*
X186Y381D02*
X192Y381D01*
X223Y381D02*
X229Y381D01*
X262Y381D02*
X269Y381D01*
X286Y381D02*
X292Y381D01*
X741Y381D02*
X747Y381D01*
X804Y381D02*
X810Y381D01*
X854Y381D02*
X860Y381D01*
X904Y381D02*
X910Y381D01*
X1274Y381D02*
X1280Y381D01*
X1328Y381D02*
X1336Y381D01*
X1387Y381D02*
X1393Y381D01*
X1437Y381D02*
X1443Y381D01*
X1487Y381D02*
X1493Y381D01*
X1510Y381D02*
X1516Y381D01*
X1537Y381D02*
X1543Y381D01*
X2039Y381D02*
X2046Y381D01*
X0Y380D02*
X7Y380D01*
X73Y380D02*
X79Y380D01*
X109Y380D02*
X115Y380D01*
X136Y380D02*
X142Y380D01*
X159Y380D02*
X165Y380D01*
X186Y380D02*
X192Y380D01*
X223Y380D02*
X229Y380D01*
X262Y380D02*
X269Y380D01*
X286Y380D02*
X292Y380D01*
X741Y380D02*
X747Y380D01*
X804Y380D02*
X810Y380D01*
X854Y380D02*
X860Y380D01*
X904Y380D02*
X910Y380D01*
X1274Y380D02*
X1280Y380D01*
X1312Y380D02*
X1335Y380D01*
X1362Y380D02*
X1393Y380D01*
X1412Y380D02*
X1443Y380D01*
X1462Y380D02*
X1493Y380D01*
X1510Y380D02*
X1543Y380D01*
X2039Y380D02*
X2046Y380D01*
X0Y379D02*
X7Y379D01*
X73Y379D02*
X79Y379D01*
X109Y379D02*
X115Y379D01*
X136Y379D02*
X142Y379D01*
X159Y379D02*
X166Y379D01*
X185Y379D02*
X192Y379D01*
X223Y379D02*
X229Y379D01*
X261Y379D02*
X268Y379D01*
X286Y379D02*
X292Y379D01*
X741Y379D02*
X747Y379D01*
X804Y379D02*
X810Y379D01*
X854Y379D02*
X860Y379D01*
X904Y379D02*
X910Y379D01*
X1274Y379D02*
X1280Y379D01*
X1311Y379D02*
X1335Y379D01*
X1361Y379D02*
X1393Y379D01*
X1411Y379D02*
X1443Y379D01*
X1461Y379D02*
X1493Y379D01*
X1510Y379D02*
X1543Y379D01*
X2039Y379D02*
X2046Y379D01*
X0Y378D02*
X7Y378D01*
X73Y378D02*
X79Y378D01*
X109Y378D02*
X115Y378D01*
X136Y378D02*
X142Y378D01*
X160Y378D02*
X169Y378D01*
X183Y378D02*
X192Y378D01*
X222Y378D02*
X229Y378D01*
X260Y378D02*
X268Y378D01*
X286Y378D02*
X292Y378D01*
X741Y378D02*
X747Y378D01*
X804Y378D02*
X810Y378D01*
X854Y378D02*
X860Y378D01*
X904Y378D02*
X910Y378D01*
X1274Y378D02*
X1280Y378D01*
X1310Y378D02*
X1334Y378D01*
X1360Y378D02*
X1393Y378D01*
X1410Y378D02*
X1443Y378D01*
X1460Y378D02*
X1493Y378D01*
X1511Y378D02*
X1542Y378D01*
X2039Y378D02*
X2046Y378D01*
X0Y377D02*
X7Y377D01*
X73Y377D02*
X79Y377D01*
X109Y377D02*
X115Y377D01*
X136Y377D02*
X142Y377D01*
X160Y377D02*
X191Y377D01*
X210Y377D02*
X241Y377D01*
X260Y377D02*
X267Y377D01*
X286Y377D02*
X292Y377D01*
X741Y377D02*
X747Y377D01*
X804Y377D02*
X810Y377D01*
X854Y377D02*
X860Y377D01*
X904Y377D02*
X910Y377D01*
X1274Y377D02*
X1280Y377D01*
X1310Y377D02*
X1333Y377D01*
X1360Y377D02*
X1393Y377D01*
X1410Y377D02*
X1443Y377D01*
X1460Y377D02*
X1493Y377D01*
X1511Y377D02*
X1541Y377D01*
X2039Y377D02*
X2046Y377D01*
X0Y376D02*
X7Y376D01*
X73Y376D02*
X79Y376D01*
X109Y376D02*
X115Y376D01*
X136Y376D02*
X142Y376D01*
X160Y376D02*
X191Y376D01*
X209Y376D02*
X242Y376D01*
X259Y376D02*
X266Y376D01*
X286Y376D02*
X292Y376D01*
X741Y376D02*
X747Y376D01*
X804Y376D02*
X810Y376D01*
X854Y376D02*
X860Y376D01*
X904Y376D02*
X910Y376D01*
X1274Y376D02*
X1280Y376D01*
X1310Y376D02*
X1332Y376D01*
X1360Y376D02*
X1393Y376D01*
X1410Y376D02*
X1443Y376D01*
X1460Y376D02*
X1493Y376D01*
X1512Y376D02*
X1541Y376D01*
X2039Y376D02*
X2046Y376D01*
X0Y375D02*
X7Y375D01*
X73Y375D02*
X79Y375D01*
X109Y375D02*
X115Y375D01*
X136Y375D02*
X142Y375D01*
X161Y375D02*
X190Y375D01*
X209Y375D02*
X242Y375D01*
X259Y375D02*
X266Y375D01*
X286Y375D02*
X292Y375D01*
X741Y375D02*
X747Y375D01*
X804Y375D02*
X810Y375D01*
X830Y375D02*
X860Y375D01*
X880Y375D02*
X910Y375D01*
X1274Y375D02*
X1279Y375D01*
X1310Y375D02*
X1331Y375D01*
X1360Y375D02*
X1393Y375D01*
X1410Y375D02*
X1443Y375D01*
X1460Y375D02*
X1493Y375D01*
X1513Y375D02*
X1539Y375D01*
X2039Y375D02*
X2046Y375D01*
X0Y374D02*
X7Y374D01*
X73Y374D02*
X79Y374D01*
X109Y374D02*
X115Y374D01*
X137Y374D02*
X142Y374D01*
X162Y374D02*
X189Y374D01*
X209Y374D02*
X242Y374D01*
X259Y374D02*
X265Y374D01*
X287Y374D02*
X292Y374D01*
X741Y374D02*
X747Y374D01*
X804Y374D02*
X810Y374D01*
X828Y374D02*
X860Y374D01*
X878Y374D02*
X910Y374D01*
X1275Y374D02*
X1278Y374D01*
X1311Y374D02*
X1329Y374D01*
X1361Y374D02*
X1393Y374D01*
X1411Y374D02*
X1443Y374D01*
X1461Y374D02*
X1493Y374D01*
X1514Y374D02*
X1538Y374D01*
X2039Y374D02*
X2046Y374D01*
X0Y373D02*
X7Y373D01*
X73Y373D02*
X78Y373D01*
X109Y373D02*
X115Y373D01*
X137Y373D02*
X142Y373D01*
X163Y373D02*
X188Y373D01*
X209Y373D02*
X242Y373D01*
X259Y373D02*
X265Y373D01*
X287Y373D02*
X292Y373D01*
X741Y373D02*
X747Y373D01*
X804Y373D02*
X810Y373D01*
X827Y373D02*
X860Y373D01*
X877Y373D02*
X910Y373D01*
X2039Y373D02*
X2046Y373D01*
X0Y372D02*
X7Y372D01*
X74Y372D02*
X78Y372D01*
X110Y372D02*
X114Y372D01*
X138Y372D02*
X141Y372D01*
X165Y372D02*
X186Y372D01*
X210Y372D02*
X241Y372D01*
X260Y372D02*
X264Y372D01*
X288Y372D02*
X291Y372D01*
X741Y372D02*
X747Y372D01*
X804Y372D02*
X810Y372D01*
X827Y372D02*
X860Y372D01*
X877Y372D02*
X910Y372D01*
X2039Y372D02*
X2046Y372D01*
X0Y371D02*
X7Y371D01*
X169Y371D02*
X182Y371D01*
X212Y371D02*
X239Y371D01*
X741Y371D02*
X747Y371D01*
X805Y371D02*
X810Y371D01*
X827Y371D02*
X860Y371D01*
X877Y371D02*
X910Y371D01*
X2039Y371D02*
X2046Y371D01*
X0Y370D02*
X7Y370D01*
X741Y370D02*
X746Y370D01*
X805Y370D02*
X810Y370D01*
X827Y370D02*
X860Y370D01*
X877Y370D02*
X910Y370D01*
X2039Y370D02*
X2046Y370D01*
X0Y369D02*
X7Y369D01*
X742Y369D02*
X745Y369D01*
X806Y369D02*
X809Y369D01*
X828Y369D02*
X860Y369D01*
X878Y369D02*
X910Y369D01*
X2039Y369D02*
X2046Y369D01*
X0Y368D02*
X7Y368D01*
X2039Y368D02*
X2046Y368D01*
X0Y367D02*
X7Y367D01*
X2039Y367D02*
X2046Y367D01*
X0Y366D02*
X7Y366D01*
X2039Y366D02*
X2046Y366D01*
X0Y365D02*
X7Y365D01*
X2039Y365D02*
X2046Y365D01*
X0Y364D02*
X7Y364D01*
X2039Y364D02*
X2046Y364D01*
X0Y363D02*
X7Y363D01*
X2039Y363D02*
X2046Y363D01*
X0Y362D02*
X7Y362D01*
X2039Y362D02*
X2046Y362D01*
X0Y361D02*
X7Y361D01*
X2039Y361D02*
X2046Y361D01*
X0Y360D02*
X7Y360D01*
X2039Y360D02*
X2046Y360D01*
X0Y359D02*
X7Y359D01*
X2039Y359D02*
X2046Y359D01*
X0Y358D02*
X7Y358D01*
X2039Y358D02*
X2046Y358D01*
X0Y357D02*
X7Y357D01*
X2039Y357D02*
X2046Y357D01*
X0Y356D02*
X7Y356D01*
X2039Y356D02*
X2046Y356D01*
X0Y355D02*
X7Y355D01*
X2039Y355D02*
X2046Y355D01*
X0Y354D02*
X7Y354D01*
X2039Y354D02*
X2046Y354D01*
X0Y353D02*
X7Y353D01*
X2039Y353D02*
X2046Y353D01*
X0Y352D02*
X7Y352D01*
X2039Y352D02*
X2046Y352D01*
X0Y351D02*
X7Y351D01*
X2039Y351D02*
X2046Y351D01*
X0Y350D02*
X7Y350D01*
X2039Y350D02*
X2046Y350D01*
X0Y349D02*
X7Y349D01*
X2039Y349D02*
X2046Y349D01*
X0Y348D02*
X7Y348D01*
X2039Y348D02*
X2046Y348D01*
X0Y347D02*
X7Y347D01*
X2039Y347D02*
X2046Y347D01*
X0Y346D02*
X7Y346D01*
X2039Y346D02*
X2046Y346D01*
X0Y345D02*
X7Y345D01*
X2039Y345D02*
X2046Y345D01*
X0Y344D02*
X7Y344D01*
X2039Y344D02*
X2046Y344D01*
X0Y343D02*
X7Y343D01*
X2039Y343D02*
X2046Y343D01*
X0Y342D02*
X7Y342D01*
X2039Y342D02*
X2046Y342D01*
X0Y341D02*
X7Y341D01*
X2039Y341D02*
X2046Y341D01*
X0Y340D02*
X7Y340D01*
X2039Y340D02*
X2046Y340D01*
X0Y339D02*
X7Y339D01*
X2039Y339D02*
X2046Y339D01*
X0Y338D02*
X7Y338D01*
X2039Y338D02*
X2046Y338D01*
X0Y337D02*
X7Y337D01*
X2039Y337D02*
X2046Y337D01*
X0Y336D02*
X7Y336D01*
X2039Y336D02*
X2046Y336D01*
X0Y335D02*
X7Y335D01*
X2039Y335D02*
X2046Y335D01*
X0Y334D02*
X7Y334D01*
X2039Y334D02*
X2046Y334D01*
X0Y333D02*
X7Y333D01*
X2039Y333D02*
X2046Y333D01*
X0Y332D02*
X7Y332D01*
X2039Y332D02*
X2046Y332D01*
X0Y331D02*
X7Y331D01*
X2039Y331D02*
X2046Y331D01*
X0Y330D02*
X7Y330D01*
X2039Y330D02*
X2046Y330D01*
X0Y329D02*
X7Y329D01*
X2039Y329D02*
X2046Y329D01*
X0Y328D02*
X7Y328D01*
X2039Y328D02*
X2046Y328D01*
X0Y327D02*
X7Y327D01*
X2039Y327D02*
X2046Y327D01*
X0Y326D02*
X7Y326D01*
X2039Y326D02*
X2046Y326D01*
X0Y325D02*
X7Y325D01*
X2039Y325D02*
X2046Y325D01*
X0Y324D02*
X7Y324D01*
X2039Y324D02*
X2046Y324D01*
X0Y323D02*
X7Y323D01*
X2039Y323D02*
X2046Y323D01*
X0Y322D02*
X7Y322D01*
X2039Y322D02*
X2046Y322D01*
X0Y321D02*
X7Y321D01*
X2039Y321D02*
X2046Y321D01*
X0Y320D02*
X7Y320D01*
X2039Y320D02*
X2046Y320D01*
X0Y319D02*
X7Y319D01*
X2039Y319D02*
X2046Y319D01*
X0Y318D02*
X7Y318D01*
X2039Y318D02*
X2046Y318D01*
X0Y317D02*
X7Y317D01*
X2039Y317D02*
X2046Y317D01*
X0Y316D02*
X7Y316D01*
X2039Y316D02*
X2046Y316D01*
X0Y315D02*
X7Y315D01*
X2039Y315D02*
X2046Y315D01*
X0Y314D02*
X7Y314D01*
X2039Y314D02*
X2046Y314D01*
X0Y313D02*
X7Y313D01*
X2039Y313D02*
X2046Y313D01*
X0Y312D02*
X7Y312D01*
X2039Y312D02*
X2046Y312D01*
X0Y311D02*
X7Y311D01*
X2039Y311D02*
X2046Y311D01*
X0Y310D02*
X7Y310D01*
X2039Y310D02*
X2046Y310D01*
X0Y309D02*
X7Y309D01*
X2039Y309D02*
X2046Y309D01*
X0Y308D02*
X7Y308D01*
X2039Y308D02*
X2046Y308D01*
X0Y307D02*
X7Y307D01*
X2039Y307D02*
X2046Y307D01*
X0Y306D02*
X7Y306D01*
X2039Y306D02*
X2046Y306D01*
X0Y305D02*
X7Y305D01*
X2039Y305D02*
X2046Y305D01*
X0Y304D02*
X7Y304D01*
X2039Y304D02*
X2046Y304D01*
X0Y303D02*
X7Y303D01*
X2039Y303D02*
X2046Y303D01*
X0Y302D02*
X7Y302D01*
X2039Y302D02*
X2046Y302D01*
X0Y301D02*
X7Y301D01*
X2039Y301D02*
X2046Y301D01*
X0Y300D02*
X7Y300D01*
X2039Y300D02*
X2046Y300D01*
X0Y299D02*
X7Y299D01*
X2039Y299D02*
X2046Y299D01*
X0Y298D02*
X7Y298D01*
X2039Y298D02*
X2046Y298D01*
X0Y297D02*
X7Y297D01*
X2039Y297D02*
X2046Y297D01*
X0Y296D02*
X7Y296D01*
X2039Y296D02*
X2046Y296D01*
X0Y295D02*
X7Y295D01*
X2039Y295D02*
X2046Y295D01*
X0Y294D02*
X7Y294D01*
X2039Y294D02*
X2046Y294D01*
X0Y293D02*
X7Y293D01*
X2039Y293D02*
X2046Y293D01*
X0Y292D02*
X7Y292D01*
X2039Y292D02*
X2046Y292D01*
X0Y291D02*
X7Y291D01*
X2039Y291D02*
X2046Y291D01*
X0Y290D02*
X7Y290D01*
X2039Y290D02*
X2046Y290D01*
X0Y289D02*
X7Y289D01*
X2039Y289D02*
X2046Y289D01*
X0Y288D02*
X7Y288D01*
X2039Y288D02*
X2046Y288D01*
X0Y287D02*
X7Y287D01*
X2039Y287D02*
X2046Y287D01*
X0Y286D02*
X7Y286D01*
X2039Y286D02*
X2046Y286D01*
X0Y285D02*
X7Y285D01*
X2039Y285D02*
X2046Y285D01*
X0Y284D02*
X7Y284D01*
X2039Y284D02*
X2046Y284D01*
X0Y283D02*
X7Y283D01*
X2039Y283D02*
X2046Y283D01*
X0Y282D02*
X7Y282D01*
X2039Y282D02*
X2046Y282D01*
X0Y281D02*
X7Y281D01*
X2039Y281D02*
X2046Y281D01*
X0Y280D02*
X7Y280D01*
X2039Y280D02*
X2046Y280D01*
X0Y279D02*
X7Y279D01*
X2039Y279D02*
X2046Y279D01*
X0Y278D02*
X7Y278D01*
X2039Y278D02*
X2046Y278D01*
X0Y277D02*
X7Y277D01*
X2039Y277D02*
X2046Y277D01*
X0Y276D02*
X7Y276D01*
X2039Y276D02*
X2046Y276D01*
X0Y275D02*
X7Y275D01*
X2039Y275D02*
X2046Y275D01*
X0Y274D02*
X7Y274D01*
X2039Y274D02*
X2046Y274D01*
X0Y273D02*
X7Y273D01*
X2039Y273D02*
X2046Y273D01*
X0Y272D02*
X7Y272D01*
X2039Y272D02*
X2046Y272D01*
X0Y271D02*
X7Y271D01*
X2039Y271D02*
X2046Y271D01*
X0Y270D02*
X7Y270D01*
X2039Y270D02*
X2046Y270D01*
X0Y269D02*
X7Y269D01*
X2039Y269D02*
X2046Y269D01*
X0Y268D02*
X7Y268D01*
X2039Y268D02*
X2046Y268D01*
X0Y267D02*
X7Y267D01*
X2039Y267D02*
X2046Y267D01*
X0Y266D02*
X7Y266D01*
X2039Y266D02*
X2046Y266D01*
X0Y265D02*
X7Y265D01*
X2039Y265D02*
X2046Y265D01*
X0Y264D02*
X7Y264D01*
X2039Y264D02*
X2046Y264D01*
X0Y263D02*
X7Y263D01*
X2039Y263D02*
X2046Y263D01*
X0Y262D02*
X7Y262D01*
X2039Y262D02*
X2046Y262D01*
X0Y261D02*
X7Y261D01*
X2039Y261D02*
X2046Y261D01*
X0Y260D02*
X7Y260D01*
X2039Y260D02*
X2046Y260D01*
X0Y259D02*
X7Y259D01*
X2039Y259D02*
X2046Y259D01*
X0Y258D02*
X7Y258D01*
X2039Y258D02*
X2046Y258D01*
X0Y257D02*
X7Y257D01*
X2039Y257D02*
X2046Y257D01*
X0Y256D02*
X7Y256D01*
X2039Y256D02*
X2046Y256D01*
X0Y255D02*
X7Y255D01*
X2039Y255D02*
X2046Y255D01*
X0Y254D02*
X7Y254D01*
X2039Y254D02*
X2046Y254D01*
X0Y253D02*
X7Y253D01*
X2039Y253D02*
X2046Y253D01*
X0Y252D02*
X7Y252D01*
X2039Y252D02*
X2046Y252D01*
X0Y251D02*
X7Y251D01*
X2039Y251D02*
X2046Y251D01*
X0Y250D02*
X7Y250D01*
X2039Y250D02*
X2046Y250D01*
X0Y249D02*
X7Y249D01*
X2039Y249D02*
X2046Y249D01*
X0Y248D02*
X7Y248D01*
X2039Y248D02*
X2046Y248D01*
X0Y247D02*
X7Y247D01*
X2039Y247D02*
X2046Y247D01*
X0Y246D02*
X7Y246D01*
X2039Y246D02*
X2046Y246D01*
X0Y245D02*
X7Y245D01*
X2039Y245D02*
X2046Y245D01*
X0Y244D02*
X7Y244D01*
X2039Y244D02*
X2046Y244D01*
X0Y243D02*
X7Y243D01*
X2039Y243D02*
X2046Y243D01*
X0Y242D02*
X7Y242D01*
X2039Y242D02*
X2046Y242D01*
X0Y241D02*
X7Y241D01*
X2039Y241D02*
X2046Y241D01*
X0Y240D02*
X7Y240D01*
X2039Y240D02*
X2046Y240D01*
X0Y239D02*
X7Y239D01*
X2039Y239D02*
X2046Y239D01*
X0Y238D02*
X7Y238D01*
X2039Y238D02*
X2046Y238D01*
X0Y237D02*
X7Y237D01*
X2039Y237D02*
X2046Y237D01*
X0Y236D02*
X7Y236D01*
X2039Y236D02*
X2046Y236D01*
X0Y235D02*
X7Y235D01*
X2039Y235D02*
X2046Y235D01*
X0Y234D02*
X7Y234D01*
X2039Y234D02*
X2046Y234D01*
X0Y233D02*
X7Y233D01*
X2039Y233D02*
X2046Y233D01*
X0Y232D02*
X7Y232D01*
X2039Y232D02*
X2046Y232D01*
X0Y231D02*
X7Y231D01*
X2039Y231D02*
X2046Y231D01*
X0Y230D02*
X7Y230D01*
X2039Y230D02*
X2046Y230D01*
X0Y229D02*
X7Y229D01*
X2039Y229D02*
X2046Y229D01*
X0Y228D02*
X7Y228D01*
X2039Y228D02*
X2046Y228D01*
X0Y227D02*
X7Y227D01*
X2039Y227D02*
X2046Y227D01*
X0Y226D02*
X7Y226D01*
X2039Y226D02*
X2046Y226D01*
X0Y225D02*
X7Y225D01*
X2039Y225D02*
X2046Y225D01*
X0Y224D02*
X7Y224D01*
X2039Y224D02*
X2046Y224D01*
X0Y223D02*
X7Y223D01*
X2039Y223D02*
X2046Y223D01*
X0Y222D02*
X7Y222D01*
X2039Y222D02*
X2046Y222D01*
X0Y221D02*
X7Y221D01*
X2039Y221D02*
X2046Y221D01*
X0Y220D02*
X7Y220D01*
X2039Y220D02*
X2046Y220D01*
X0Y219D02*
X7Y219D01*
X2039Y219D02*
X2046Y219D01*
X0Y218D02*
X7Y218D01*
X2039Y218D02*
X2046Y218D01*
X0Y217D02*
X7Y217D01*
X2039Y217D02*
X2046Y217D01*
X0Y216D02*
X7Y216D01*
X2039Y216D02*
X2046Y216D01*
X0Y215D02*
X7Y215D01*
X2039Y215D02*
X2046Y215D01*
X0Y214D02*
X7Y214D01*
X2039Y214D02*
X2046Y214D01*
X0Y213D02*
X7Y213D01*
X2039Y213D02*
X2046Y213D01*
X0Y212D02*
X7Y212D01*
X2039Y212D02*
X2046Y212D01*
X0Y211D02*
X7Y211D01*
X2039Y211D02*
X2046Y211D01*
X0Y210D02*
X7Y210D01*
X2039Y210D02*
X2046Y210D01*
X0Y209D02*
X7Y209D01*
X2039Y209D02*
X2046Y209D01*
X0Y208D02*
X7Y208D01*
X2039Y208D02*
X2046Y208D01*
X0Y207D02*
X7Y207D01*
X2039Y207D02*
X2046Y207D01*
X0Y206D02*
X7Y206D01*
X2039Y206D02*
X2046Y206D01*
X0Y205D02*
X7Y205D01*
X2039Y205D02*
X2046Y205D01*
X0Y204D02*
X7Y204D01*
X2039Y204D02*
X2046Y204D01*
X0Y203D02*
X7Y203D01*
X2039Y203D02*
X2046Y203D01*
X0Y202D02*
X7Y202D01*
X2039Y202D02*
X2046Y202D01*
X0Y201D02*
X7Y201D01*
X2039Y201D02*
X2046Y201D01*
X0Y200D02*
X7Y200D01*
X2039Y200D02*
X2046Y200D01*
X0Y199D02*
X7Y199D01*
X2039Y199D02*
X2046Y199D01*
X0Y198D02*
X7Y198D01*
X2039Y198D02*
X2046Y198D01*
X0Y197D02*
X7Y197D01*
X2039Y197D02*
X2046Y197D01*
X0Y196D02*
X7Y196D01*
X2039Y196D02*
X2046Y196D01*
X0Y195D02*
X7Y195D01*
X2039Y195D02*
X2046Y195D01*
X0Y194D02*
X7Y194D01*
X2039Y194D02*
X2046Y194D01*
X0Y193D02*
X7Y193D01*
X2039Y193D02*
X2046Y193D01*
X0Y192D02*
X7Y192D01*
X2039Y192D02*
X2046Y192D01*
X0Y191D02*
X7Y191D01*
X2039Y191D02*
X2046Y191D01*
X0Y190D02*
X7Y190D01*
X2039Y190D02*
X2046Y190D01*
X0Y189D02*
X7Y189D01*
X2039Y189D02*
X2046Y189D01*
X0Y188D02*
X7Y188D01*
X2039Y188D02*
X2046Y188D01*
X0Y187D02*
X7Y187D01*
X2039Y187D02*
X2046Y187D01*
X0Y186D02*
X7Y186D01*
X2039Y186D02*
X2046Y186D01*
X0Y185D02*
X7Y185D01*
X2039Y185D02*
X2046Y185D01*
X0Y184D02*
X7Y184D01*
X2039Y184D02*
X2046Y184D01*
X0Y183D02*
X7Y183D01*
X2039Y183D02*
X2046Y183D01*
X0Y182D02*
X7Y182D01*
X2039Y182D02*
X2046Y182D01*
X0Y181D02*
X7Y181D01*
X2039Y181D02*
X2046Y181D01*
X0Y180D02*
X7Y180D01*
X2039Y180D02*
X2046Y180D01*
X0Y179D02*
X7Y179D01*
X2039Y179D02*
X2046Y179D01*
X0Y178D02*
X7Y178D01*
X2039Y178D02*
X2046Y178D01*
X0Y177D02*
X7Y177D01*
X2039Y177D02*
X2046Y177D01*
X0Y176D02*
X7Y176D01*
X2039Y176D02*
X2046Y176D01*
X0Y175D02*
X7Y175D01*
X2039Y175D02*
X2046Y175D01*
X0Y174D02*
X7Y174D01*
X2039Y174D02*
X2046Y174D01*
X0Y173D02*
X7Y173D01*
X2039Y173D02*
X2046Y173D01*
X0Y172D02*
X7Y172D01*
X2039Y172D02*
X2046Y172D01*
X0Y171D02*
X7Y171D01*
X2039Y171D02*
X2046Y171D01*
X0Y170D02*
X7Y170D01*
X2039Y170D02*
X2046Y170D01*
X0Y169D02*
X7Y169D01*
X2039Y169D02*
X2046Y169D01*
X0Y168D02*
X7Y168D01*
X2039Y168D02*
X2046Y168D01*
X0Y167D02*
X7Y167D01*
X2039Y167D02*
X2046Y167D01*
X0Y166D02*
X7Y166D01*
X2039Y166D02*
X2046Y166D01*
X0Y165D02*
X7Y165D01*
X2039Y165D02*
X2046Y165D01*
X0Y164D02*
X7Y164D01*
X416Y164D02*
X425Y164D01*
X442Y164D02*
X446Y164D01*
X470Y164D02*
X473Y164D01*
X505Y164D02*
X511Y164D01*
X555Y164D02*
X559Y164D01*
X2039Y164D02*
X2046Y164D01*
X0Y163D02*
X7Y163D01*
X416Y163D02*
X425Y163D01*
X442Y163D02*
X447Y163D01*
X469Y163D02*
X474Y163D01*
X503Y163D02*
X513Y163D01*
X553Y163D02*
X562Y163D01*
X2039Y163D02*
X2046Y163D01*
X0Y162D02*
X7Y162D01*
X415Y162D02*
X425Y162D01*
X441Y162D02*
X447Y162D01*
X469Y162D02*
X474Y162D01*
X502Y162D02*
X514Y162D01*
X552Y162D02*
X567Y162D01*
X2039Y162D02*
X2046Y162D01*
X0Y161D02*
X7Y161D01*
X391Y161D02*
X397Y161D01*
X415Y161D02*
X425Y161D01*
X441Y161D02*
X447Y161D01*
X469Y161D02*
X475Y161D01*
X501Y161D02*
X515Y161D01*
X551Y161D02*
X575Y161D01*
X2039Y161D02*
X2046Y161D01*
X0Y160D02*
X7Y160D01*
X391Y160D02*
X397Y160D01*
X414Y160D02*
X425Y160D01*
X441Y160D02*
X447Y160D01*
X469Y160D02*
X475Y160D01*
X500Y160D02*
X515Y160D01*
X551Y160D02*
X574Y160D01*
X2039Y160D02*
X2046Y160D01*
X0Y159D02*
X7Y159D01*
X391Y159D02*
X397Y159D01*
X414Y159D02*
X425Y159D01*
X441Y159D02*
X447Y159D01*
X469Y159D02*
X475Y159D01*
X500Y159D02*
X516Y159D01*
X550Y159D02*
X574Y159D01*
X2039Y159D02*
X2046Y159D01*
X0Y158D02*
X7Y158D01*
X391Y158D02*
X397Y158D01*
X413Y158D02*
X425Y158D01*
X441Y158D02*
X447Y158D01*
X469Y158D02*
X475Y158D01*
X499Y158D02*
X516Y158D01*
X549Y158D02*
X572Y158D01*
X2039Y158D02*
X2046Y158D01*
X0Y157D02*
X7Y157D01*
X391Y157D02*
X397Y157D01*
X413Y157D02*
X425Y157D01*
X441Y157D02*
X447Y157D01*
X469Y157D02*
X475Y157D01*
X499Y157D02*
X506Y157D01*
X510Y157D02*
X517Y157D01*
X549Y157D02*
X556Y157D01*
X562Y157D02*
X568Y157D01*
X2039Y157D02*
X2046Y157D01*
X0Y156D02*
X7Y156D01*
X391Y156D02*
X397Y156D01*
X413Y156D02*
X425Y156D01*
X441Y156D02*
X447Y156D01*
X469Y156D02*
X475Y156D01*
X498Y156D02*
X505Y156D01*
X510Y156D02*
X517Y156D01*
X548Y156D02*
X555Y156D01*
X562Y156D02*
X568Y156D01*
X2039Y156D02*
X2046Y156D01*
X0Y155D02*
X7Y155D01*
X391Y155D02*
X397Y155D01*
X412Y155D02*
X425Y155D01*
X441Y155D02*
X447Y155D01*
X469Y155D02*
X475Y155D01*
X498Y155D02*
X505Y155D01*
X511Y155D02*
X518Y155D01*
X548Y155D02*
X555Y155D01*
X562Y155D02*
X568Y155D01*
X2039Y155D02*
X2046Y155D01*
X0Y154D02*
X7Y154D01*
X391Y154D02*
X397Y154D01*
X412Y154D02*
X425Y154D01*
X441Y154D02*
X447Y154D01*
X469Y154D02*
X475Y154D01*
X497Y154D02*
X504Y154D01*
X511Y154D02*
X518Y154D01*
X547Y154D02*
X554Y154D01*
X562Y154D02*
X568Y154D01*
X2039Y154D02*
X2046Y154D01*
X0Y153D02*
X7Y153D01*
X391Y153D02*
X397Y153D01*
X411Y153D02*
X425Y153D01*
X441Y153D02*
X447Y153D01*
X469Y153D02*
X475Y153D01*
X497Y153D02*
X504Y153D01*
X512Y153D02*
X519Y153D01*
X547Y153D02*
X554Y153D01*
X562Y153D02*
X568Y153D01*
X2039Y153D02*
X2046Y153D01*
X0Y152D02*
X7Y152D01*
X391Y152D02*
X397Y152D01*
X411Y152D02*
X425Y152D01*
X441Y152D02*
X447Y152D01*
X469Y152D02*
X475Y152D01*
X496Y152D02*
X503Y152D01*
X512Y152D02*
X519Y152D01*
X546Y152D02*
X553Y152D01*
X562Y152D02*
X568Y152D01*
X2039Y152D02*
X2046Y152D01*
X0Y151D02*
X7Y151D01*
X391Y151D02*
X397Y151D01*
X410Y151D02*
X417Y151D01*
X419Y151D02*
X425Y151D01*
X441Y151D02*
X447Y151D01*
X469Y151D02*
X475Y151D01*
X496Y151D02*
X503Y151D01*
X513Y151D02*
X520Y151D01*
X546Y151D02*
X553Y151D01*
X562Y151D02*
X568Y151D01*
X2039Y151D02*
X2046Y151D01*
X0Y150D02*
X7Y150D01*
X391Y150D02*
X397Y150D01*
X410Y150D02*
X417Y150D01*
X419Y150D02*
X425Y150D01*
X441Y150D02*
X447Y150D01*
X469Y150D02*
X475Y150D01*
X495Y150D02*
X502Y150D01*
X514Y150D02*
X520Y150D01*
X545Y150D02*
X552Y150D01*
X562Y150D02*
X568Y150D01*
X2039Y150D02*
X2046Y150D01*
X0Y149D02*
X7Y149D01*
X391Y149D02*
X397Y149D01*
X409Y149D02*
X416Y149D01*
X419Y149D02*
X425Y149D01*
X441Y149D02*
X447Y149D01*
X469Y149D02*
X475Y149D01*
X495Y149D02*
X502Y149D01*
X514Y149D02*
X521Y149D01*
X545Y149D02*
X552Y149D01*
X562Y149D02*
X568Y149D01*
X2039Y149D02*
X2046Y149D01*
X0Y148D02*
X7Y148D01*
X391Y148D02*
X397Y148D01*
X409Y148D02*
X416Y148D01*
X419Y148D02*
X425Y148D01*
X441Y148D02*
X447Y148D01*
X469Y148D02*
X475Y148D01*
X494Y148D02*
X501Y148D01*
X515Y148D02*
X521Y148D01*
X544Y148D02*
X551Y148D01*
X562Y148D02*
X568Y148D01*
X2039Y148D02*
X2046Y148D01*
X0Y147D02*
X7Y147D01*
X391Y147D02*
X397Y147D01*
X409Y147D02*
X415Y147D01*
X419Y147D02*
X425Y147D01*
X441Y147D02*
X447Y147D01*
X458Y147D02*
X458Y147D01*
X469Y147D02*
X475Y147D01*
X494Y147D02*
X501Y147D01*
X515Y147D02*
X522Y147D01*
X544Y147D02*
X551Y147D01*
X562Y147D02*
X568Y147D01*
X2039Y147D02*
X2046Y147D01*
X0Y146D02*
X7Y146D01*
X391Y146D02*
X397Y146D01*
X408Y146D02*
X415Y146D01*
X419Y146D02*
X425Y146D01*
X441Y146D02*
X447Y146D01*
X456Y146D02*
X460Y146D01*
X469Y146D02*
X475Y146D01*
X493Y146D02*
X500Y146D01*
X516Y146D02*
X522Y146D01*
X543Y146D02*
X550Y146D01*
X562Y146D02*
X568Y146D01*
X2039Y146D02*
X2046Y146D01*
X0Y145D02*
X7Y145D01*
X391Y145D02*
X397Y145D01*
X408Y145D02*
X414Y145D01*
X419Y145D02*
X425Y145D01*
X441Y145D02*
X447Y145D01*
X455Y145D02*
X461Y145D01*
X469Y145D02*
X475Y145D01*
X493Y145D02*
X500Y145D01*
X516Y145D02*
X523Y145D01*
X543Y145D02*
X550Y145D01*
X562Y145D02*
X568Y145D01*
X2039Y145D02*
X2046Y145D01*
X0Y144D02*
X7Y144D01*
X391Y144D02*
X397Y144D01*
X407Y144D02*
X414Y144D01*
X419Y144D02*
X425Y144D01*
X441Y144D02*
X447Y144D01*
X455Y144D02*
X461Y144D01*
X469Y144D02*
X475Y144D01*
X492Y144D02*
X499Y144D01*
X517Y144D02*
X523Y144D01*
X542Y144D02*
X549Y144D01*
X562Y144D02*
X568Y144D01*
X2039Y144D02*
X2046Y144D01*
X0Y143D02*
X7Y143D01*
X391Y143D02*
X397Y143D01*
X407Y143D02*
X414Y143D01*
X419Y143D02*
X425Y143D01*
X441Y143D02*
X447Y143D01*
X455Y143D02*
X461Y143D01*
X469Y143D02*
X475Y143D01*
X492Y143D02*
X499Y143D01*
X517Y143D02*
X524Y143D01*
X542Y143D02*
X549Y143D01*
X562Y143D02*
X568Y143D01*
X2039Y143D02*
X2046Y143D01*
X0Y142D02*
X7Y142D01*
X391Y142D02*
X397Y142D01*
X406Y142D02*
X413Y142D01*
X419Y142D02*
X425Y142D01*
X441Y142D02*
X447Y142D01*
X455Y142D02*
X461Y142D01*
X469Y142D02*
X475Y142D01*
X492Y142D02*
X498Y142D01*
X518Y142D02*
X524Y142D01*
X542Y142D02*
X548Y142D01*
X562Y142D02*
X568Y142D01*
X2039Y142D02*
X2046Y142D01*
X0Y141D02*
X7Y141D01*
X391Y141D02*
X397Y141D01*
X406Y141D02*
X413Y141D01*
X419Y141D02*
X425Y141D01*
X441Y141D02*
X447Y141D01*
X455Y141D02*
X461Y141D01*
X469Y141D02*
X475Y141D01*
X491Y141D02*
X498Y141D01*
X518Y141D02*
X524Y141D01*
X541Y141D02*
X548Y141D01*
X562Y141D02*
X568Y141D01*
X2039Y141D02*
X2046Y141D01*
X0Y140D02*
X7Y140D01*
X391Y140D02*
X397Y140D01*
X405Y140D02*
X412Y140D01*
X419Y140D02*
X425Y140D01*
X441Y140D02*
X447Y140D01*
X455Y140D02*
X461Y140D01*
X469Y140D02*
X475Y140D01*
X491Y140D02*
X497Y140D01*
X518Y140D02*
X524Y140D01*
X541Y140D02*
X547Y140D01*
X562Y140D02*
X568Y140D01*
X2039Y140D02*
X2046Y140D01*
X0Y139D02*
X7Y139D01*
X391Y139D02*
X397Y139D01*
X405Y139D02*
X412Y139D01*
X419Y139D02*
X425Y139D01*
X441Y139D02*
X447Y139D01*
X455Y139D02*
X461Y139D01*
X469Y139D02*
X475Y139D01*
X491Y139D02*
X497Y139D01*
X518Y139D02*
X525Y139D01*
X541Y139D02*
X547Y139D01*
X562Y139D02*
X568Y139D01*
X2039Y139D02*
X2046Y139D01*
X0Y138D02*
X7Y138D01*
X391Y138D02*
X397Y138D01*
X405Y138D02*
X411Y138D01*
X419Y138D02*
X425Y138D01*
X441Y138D02*
X447Y138D01*
X455Y138D02*
X461Y138D01*
X469Y138D02*
X475Y138D01*
X491Y138D02*
X497Y138D01*
X519Y138D02*
X525Y138D01*
X541Y138D02*
X547Y138D01*
X562Y138D02*
X568Y138D01*
X2039Y138D02*
X2046Y138D01*
X0Y137D02*
X7Y137D01*
X391Y137D02*
X397Y137D01*
X404Y137D02*
X411Y137D01*
X419Y137D02*
X425Y137D01*
X441Y137D02*
X447Y137D01*
X455Y137D02*
X461Y137D01*
X469Y137D02*
X475Y137D01*
X491Y137D02*
X497Y137D01*
X519Y137D02*
X525Y137D01*
X541Y137D02*
X547Y137D01*
X562Y137D02*
X568Y137D01*
X2039Y137D02*
X2046Y137D01*
X0Y136D02*
X7Y136D01*
X391Y136D02*
X397Y136D01*
X404Y136D02*
X410Y136D01*
X419Y136D02*
X425Y136D01*
X441Y136D02*
X447Y136D01*
X455Y136D02*
X461Y136D01*
X469Y136D02*
X475Y136D01*
X491Y136D02*
X497Y136D01*
X518Y136D02*
X525Y136D01*
X541Y136D02*
X547Y136D01*
X562Y136D02*
X568Y136D01*
X2039Y136D02*
X2046Y136D01*
X0Y135D02*
X7Y135D01*
X391Y135D02*
X397Y135D01*
X403Y135D02*
X410Y135D01*
X419Y135D02*
X425Y135D01*
X441Y135D02*
X447Y135D01*
X455Y135D02*
X461Y135D01*
X469Y135D02*
X475Y135D01*
X491Y135D02*
X498Y135D01*
X518Y135D02*
X524Y135D01*
X541Y135D02*
X548Y135D01*
X562Y135D02*
X568Y135D01*
X2039Y135D02*
X2046Y135D01*
X0Y134D02*
X7Y134D01*
X391Y134D02*
X397Y134D01*
X403Y134D02*
X410Y134D01*
X419Y134D02*
X425Y134D01*
X441Y134D02*
X447Y134D01*
X455Y134D02*
X461Y134D01*
X469Y134D02*
X475Y134D01*
X492Y134D02*
X498Y134D01*
X518Y134D02*
X524Y134D01*
X542Y134D02*
X548Y134D01*
X562Y134D02*
X568Y134D01*
X2039Y134D02*
X2046Y134D01*
X0Y133D02*
X7Y133D01*
X391Y133D02*
X397Y133D01*
X402Y133D02*
X409Y133D01*
X419Y133D02*
X425Y133D01*
X441Y133D02*
X447Y133D01*
X455Y133D02*
X461Y133D01*
X469Y133D02*
X475Y133D01*
X492Y133D02*
X498Y133D01*
X517Y133D02*
X524Y133D01*
X542Y133D02*
X548Y133D01*
X562Y133D02*
X568Y133D01*
X2039Y133D02*
X2046Y133D01*
X0Y132D02*
X7Y132D01*
X391Y132D02*
X397Y132D01*
X402Y132D02*
X409Y132D01*
X419Y132D02*
X425Y132D01*
X441Y132D02*
X447Y132D01*
X455Y132D02*
X461Y132D01*
X469Y132D02*
X475Y132D01*
X492Y132D02*
X499Y132D01*
X517Y132D02*
X523Y132D01*
X542Y132D02*
X549Y132D01*
X562Y132D02*
X568Y132D01*
X2039Y132D02*
X2046Y132D01*
X0Y131D02*
X7Y131D01*
X391Y131D02*
X397Y131D01*
X402Y131D02*
X408Y131D01*
X419Y131D02*
X425Y131D01*
X441Y131D02*
X447Y131D01*
X455Y131D02*
X461Y131D01*
X469Y131D02*
X475Y131D01*
X493Y131D02*
X499Y131D01*
X516Y131D02*
X523Y131D01*
X543Y131D02*
X549Y131D01*
X562Y131D02*
X568Y131D01*
X2039Y131D02*
X2046Y131D01*
X0Y130D02*
X7Y130D01*
X391Y130D02*
X397Y130D01*
X401Y130D02*
X408Y130D01*
X419Y130D02*
X425Y130D01*
X441Y130D02*
X447Y130D01*
X455Y130D02*
X461Y130D01*
X469Y130D02*
X475Y130D01*
X493Y130D02*
X500Y130D01*
X516Y130D02*
X523Y130D01*
X543Y130D02*
X550Y130D01*
X562Y130D02*
X568Y130D01*
X2039Y130D02*
X2046Y130D01*
X0Y129D02*
X7Y129D01*
X391Y129D02*
X397Y129D01*
X401Y129D02*
X407Y129D01*
X419Y129D02*
X425Y129D01*
X441Y129D02*
X447Y129D01*
X455Y129D02*
X461Y129D01*
X469Y129D02*
X475Y129D01*
X494Y129D02*
X500Y129D01*
X515Y129D02*
X522Y129D01*
X544Y129D02*
X550Y129D01*
X562Y129D02*
X568Y129D01*
X2039Y129D02*
X2046Y129D01*
X0Y128D02*
X7Y128D01*
X391Y128D02*
X397Y128D01*
X400Y128D02*
X407Y128D01*
X419Y128D02*
X425Y128D01*
X441Y128D02*
X447Y128D01*
X455Y128D02*
X461Y128D01*
X469Y128D02*
X475Y128D01*
X494Y128D02*
X501Y128D01*
X515Y128D02*
X522Y128D01*
X544Y128D02*
X551Y128D01*
X562Y128D02*
X568Y128D01*
X2039Y128D02*
X2046Y128D01*
X0Y127D02*
X7Y127D01*
X391Y127D02*
X397Y127D01*
X400Y127D02*
X407Y127D01*
X419Y127D02*
X425Y127D01*
X441Y127D02*
X447Y127D01*
X455Y127D02*
X461Y127D01*
X469Y127D02*
X475Y127D01*
X495Y127D02*
X501Y127D01*
X514Y127D02*
X521Y127D01*
X545Y127D02*
X551Y127D01*
X562Y127D02*
X568Y127D01*
X2039Y127D02*
X2046Y127D01*
X0Y126D02*
X7Y126D01*
X391Y126D02*
X397Y126D01*
X399Y126D02*
X406Y126D01*
X419Y126D02*
X425Y126D01*
X441Y126D02*
X447Y126D01*
X455Y126D02*
X461Y126D01*
X469Y126D02*
X475Y126D01*
X495Y126D02*
X502Y126D01*
X514Y126D02*
X521Y126D01*
X545Y126D02*
X552Y126D01*
X562Y126D02*
X568Y126D01*
X2039Y126D02*
X2046Y126D01*
X0Y125D02*
X7Y125D01*
X391Y125D02*
X397Y125D01*
X399Y125D02*
X406Y125D01*
X419Y125D02*
X425Y125D01*
X441Y125D02*
X447Y125D01*
X455Y125D02*
X461Y125D01*
X469Y125D02*
X475Y125D01*
X496Y125D02*
X502Y125D01*
X513Y125D02*
X520Y125D01*
X546Y125D02*
X552Y125D01*
X562Y125D02*
X568Y125D01*
X2039Y125D02*
X2046Y125D01*
X0Y124D02*
X7Y124D01*
X391Y124D02*
X405Y124D01*
X419Y124D02*
X425Y124D01*
X441Y124D02*
X447Y124D01*
X455Y124D02*
X461Y124D01*
X469Y124D02*
X475Y124D01*
X496Y124D02*
X503Y124D01*
X513Y124D02*
X520Y124D01*
X546Y124D02*
X553Y124D01*
X562Y124D02*
X568Y124D01*
X2039Y124D02*
X2046Y124D01*
X0Y123D02*
X7Y123D01*
X391Y123D02*
X405Y123D01*
X419Y123D02*
X425Y123D01*
X441Y123D02*
X447Y123D01*
X455Y123D02*
X461Y123D01*
X469Y123D02*
X475Y123D01*
X497Y123D02*
X503Y123D01*
X512Y123D02*
X519Y123D01*
X547Y123D02*
X553Y123D01*
X562Y123D02*
X568Y123D01*
X2039Y123D02*
X2046Y123D01*
X0Y122D02*
X7Y122D01*
X391Y122D02*
X404Y122D01*
X419Y122D02*
X425Y122D01*
X441Y122D02*
X447Y122D01*
X455Y122D02*
X461Y122D01*
X469Y122D02*
X475Y122D01*
X497Y122D02*
X504Y122D01*
X512Y122D02*
X519Y122D01*
X547Y122D02*
X554Y122D01*
X562Y122D02*
X568Y122D01*
X2039Y122D02*
X2046Y122D01*
X0Y121D02*
X7Y121D01*
X391Y121D02*
X404Y121D01*
X419Y121D02*
X425Y121D01*
X441Y121D02*
X447Y121D01*
X455Y121D02*
X461Y121D01*
X469Y121D02*
X475Y121D01*
X498Y121D02*
X504Y121D01*
X511Y121D02*
X518Y121D01*
X547Y121D02*
X554Y121D01*
X562Y121D02*
X568Y121D01*
X2039Y121D02*
X2046Y121D01*
X0Y120D02*
X7Y120D01*
X391Y120D02*
X403Y120D01*
X419Y120D02*
X425Y120D01*
X441Y120D02*
X448Y120D01*
X454Y120D02*
X462Y120D01*
X468Y120D02*
X475Y120D01*
X498Y120D02*
X505Y120D01*
X511Y120D02*
X518Y120D01*
X548Y120D02*
X555Y120D01*
X562Y120D02*
X568Y120D01*
X2039Y120D02*
X2046Y120D01*
X0Y119D02*
X7Y119D01*
X391Y119D02*
X403Y119D01*
X419Y119D02*
X425Y119D01*
X441Y119D02*
X448Y119D01*
X454Y119D02*
X462Y119D01*
X467Y119D02*
X474Y119D01*
X499Y119D02*
X505Y119D01*
X510Y119D02*
X517Y119D01*
X548Y119D02*
X556Y119D01*
X562Y119D02*
X568Y119D01*
X2039Y119D02*
X2046Y119D01*
X0Y118D02*
X7Y118D01*
X391Y118D02*
X403Y118D01*
X419Y118D02*
X425Y118D01*
X442Y118D02*
X449Y118D01*
X453Y118D02*
X463Y118D01*
X467Y118D02*
X474Y118D01*
X499Y118D02*
X506Y118D01*
X509Y118D02*
X517Y118D01*
X549Y118D02*
X557Y118D01*
X562Y118D02*
X568Y118D01*
X2039Y118D02*
X2046Y118D01*
X0Y117D02*
X7Y117D01*
X391Y117D02*
X402Y117D01*
X419Y117D02*
X425Y117D01*
X442Y117D02*
X473Y117D01*
X500Y117D02*
X516Y117D01*
X549Y117D02*
X573Y117D01*
X2039Y117D02*
X2046Y117D01*
X0Y116D02*
X7Y116D01*
X391Y116D02*
X402Y116D01*
X419Y116D02*
X425Y116D01*
X443Y116D02*
X473Y116D01*
X500Y116D02*
X516Y116D01*
X550Y116D02*
X574Y116D01*
X2039Y116D02*
X2046Y116D01*
X0Y115D02*
X7Y115D01*
X391Y115D02*
X401Y115D01*
X419Y115D02*
X425Y115D01*
X443Y115D02*
X472Y115D01*
X501Y115D02*
X515Y115D01*
X551Y115D02*
X574Y115D01*
X2039Y115D02*
X2046Y115D01*
X0Y114D02*
X7Y114D01*
X391Y114D02*
X401Y114D01*
X419Y114D02*
X425Y114D01*
X444Y114D02*
X472Y114D01*
X501Y114D02*
X514Y114D01*
X551Y114D02*
X575Y114D01*
X2039Y114D02*
X2046Y114D01*
X0Y113D02*
X7Y113D01*
X391Y113D02*
X400Y113D01*
X419Y113D02*
X424Y113D01*
X445Y113D02*
X471Y113D01*
X502Y113D02*
X513Y113D01*
X553Y113D02*
X574Y113D01*
X2039Y113D02*
X2046Y113D01*
X0Y112D02*
X7Y112D01*
X391Y112D02*
X400Y112D01*
X419Y112D02*
X424Y112D01*
X445Y112D02*
X457Y112D01*
X459Y112D02*
X470Y112D01*
X504Y112D02*
X512Y112D01*
X554Y112D02*
X574Y112D01*
X2039Y112D02*
X2046Y112D01*
X0Y111D02*
X7Y111D01*
X391Y111D02*
X399Y111D01*
X421Y111D02*
X423Y111D01*
X447Y111D02*
X455Y111D01*
X460Y111D02*
X469Y111D01*
X506Y111D02*
X510Y111D01*
X557Y111D02*
X573Y111D01*
X2039Y111D02*
X2046Y111D01*
X0Y110D02*
X7Y110D01*
X2039Y110D02*
X2046Y110D01*
X0Y109D02*
X7Y109D01*
X2039Y109D02*
X2046Y109D01*
X0Y108D02*
X7Y108D01*
X2039Y108D02*
X2046Y108D01*
X0Y107D02*
X7Y107D01*
X2039Y107D02*
X2046Y107D01*
X0Y106D02*
X7Y106D01*
X2039Y106D02*
X2046Y106D01*
X0Y105D02*
X7Y105D01*
X2039Y105D02*
X2046Y105D01*
X0Y104D02*
X7Y104D01*
X2039Y104D02*
X2046Y104D01*
X0Y103D02*
X7Y103D01*
X2039Y103D02*
X2046Y103D01*
X0Y102D02*
X7Y102D01*
X2039Y102D02*
X2046Y102D01*
X0Y101D02*
X7Y101D01*
X2039Y101D02*
X2046Y101D01*
X0Y100D02*
X7Y100D01*
X2039Y100D02*
X2046Y100D01*
X0Y99D02*
X7Y99D01*
X2039Y99D02*
X2046Y99D01*
X0Y98D02*
X7Y98D01*
X2039Y98D02*
X2046Y98D01*
X0Y97D02*
X7Y97D01*
X2039Y97D02*
X2046Y97D01*
X0Y96D02*
X7Y96D01*
X2039Y96D02*
X2046Y96D01*
X0Y95D02*
X7Y95D01*
X2039Y95D02*
X2046Y95D01*
X0Y94D02*
X7Y94D01*
X2039Y94D02*
X2046Y94D01*
X0Y93D02*
X7Y93D01*
X2039Y93D02*
X2046Y93D01*
X0Y92D02*
X7Y92D01*
X2039Y92D02*
X2046Y92D01*
X0Y91D02*
X7Y91D01*
X2039Y91D02*
X2046Y91D01*
X0Y90D02*
X7Y90D01*
X2039Y90D02*
X2046Y90D01*
X0Y89D02*
X7Y89D01*
X2039Y89D02*
X2046Y89D01*
X0Y88D02*
X7Y88D01*
X2039Y88D02*
X2046Y88D01*
X0Y87D02*
X7Y87D01*
X2039Y87D02*
X2046Y87D01*
X0Y86D02*
X7Y86D01*
X2039Y86D02*
X2046Y86D01*
X0Y85D02*
X7Y85D01*
X2039Y85D02*
X2046Y85D01*
X0Y84D02*
X7Y84D01*
X2039Y84D02*
X2046Y84D01*
X0Y83D02*
X7Y83D01*
X2039Y83D02*
X2046Y83D01*
X0Y82D02*
X7Y82D01*
X2039Y82D02*
X2046Y82D01*
X0Y81D02*
X7Y81D01*
X2039Y81D02*
X2046Y81D01*
X0Y80D02*
X7Y80D01*
X2039Y80D02*
X2046Y80D01*
X0Y79D02*
X7Y79D01*
X2039Y79D02*
X2046Y79D01*
X0Y78D02*
X7Y78D01*
X2039Y78D02*
X2046Y78D01*
X0Y77D02*
X7Y77D01*
X2039Y77D02*
X2046Y77D01*
X0Y76D02*
X7Y76D01*
X2039Y76D02*
X2046Y76D01*
X0Y75D02*
X7Y75D01*
X2039Y75D02*
X2046Y75D01*
X0Y74D02*
X7Y74D01*
X2039Y74D02*
X2046Y74D01*
X0Y73D02*
X7Y73D01*
X2039Y73D02*
X2046Y73D01*
X0Y72D02*
X7Y72D01*
X2039Y72D02*
X2046Y72D01*
X0Y71D02*
X7Y71D01*
X2039Y71D02*
X2046Y71D01*
X0Y70D02*
X7Y70D01*
X2039Y70D02*
X2046Y70D01*
X0Y69D02*
X7Y69D01*
X2039Y69D02*
X2046Y69D01*
X0Y68D02*
X7Y68D01*
X2039Y68D02*
X2046Y68D01*
X0Y67D02*
X7Y67D01*
X2039Y67D02*
X2046Y67D01*
X0Y66D02*
X7Y66D01*
X2039Y66D02*
X2046Y66D01*
X0Y65D02*
X7Y65D01*
X2039Y65D02*
X2046Y65D01*
X0Y64D02*
X7Y64D01*
X2039Y64D02*
X2046Y64D01*
X0Y63D02*
X7Y63D01*
X2039Y63D02*
X2046Y63D01*
X0Y62D02*
X7Y62D01*
X2039Y62D02*
X2046Y62D01*
X0Y61D02*
X7Y61D01*
X2039Y61D02*
X2046Y61D01*
X0Y60D02*
X7Y60D01*
X2039Y60D02*
X2046Y60D01*
X0Y59D02*
X7Y59D01*
X2039Y59D02*
X2046Y59D01*
X0Y58D02*
X7Y58D01*
X2039Y58D02*
X2046Y58D01*
X0Y57D02*
X7Y57D01*
X2039Y57D02*
X2046Y57D01*
X0Y56D02*
X7Y56D01*
X2039Y56D02*
X2046Y56D01*
X0Y55D02*
X7Y55D01*
X2039Y55D02*
X2046Y55D01*
X0Y54D02*
X7Y54D01*
X2039Y54D02*
X2046Y54D01*
X0Y53D02*
X7Y53D01*
X2039Y53D02*
X2046Y53D01*
X0Y52D02*
X7Y52D01*
X2039Y52D02*
X2046Y52D01*
X0Y51D02*
X7Y51D01*
X2039Y51D02*
X2046Y51D01*
X0Y50D02*
X7Y50D01*
X2039Y50D02*
X2046Y50D01*
X0Y49D02*
X7Y49D01*
X2039Y49D02*
X2046Y49D01*
X0Y48D02*
X7Y48D01*
X2039Y48D02*
X2046Y48D01*
X0Y47D02*
X7Y47D01*
X2039Y47D02*
X2046Y47D01*
X0Y46D02*
X7Y46D01*
X2039Y46D02*
X2046Y46D01*
X0Y45D02*
X7Y45D01*
X2039Y45D02*
X2046Y45D01*
X0Y44D02*
X7Y44D01*
X2039Y44D02*
X2046Y44D01*
X0Y43D02*
X7Y43D01*
X2039Y43D02*
X2046Y43D01*
X0Y42D02*
X7Y42D01*
X2039Y42D02*
X2046Y42D01*
X0Y41D02*
X7Y41D01*
X2039Y41D02*
X2046Y41D01*
X0Y40D02*
X7Y40D01*
X2039Y40D02*
X2046Y40D01*
X0Y39D02*
X7Y39D01*
X2039Y39D02*
X2046Y39D01*
X0Y38D02*
X7Y38D01*
X2039Y38D02*
X2046Y38D01*
X0Y37D02*
X7Y37D01*
X2039Y37D02*
X2046Y37D01*
X0Y36D02*
X7Y36D01*
X2039Y36D02*
X2046Y36D01*
X0Y35D02*
X7Y35D01*
X2039Y35D02*
X2046Y35D01*
X0Y34D02*
X7Y34D01*
X2039Y34D02*
X2046Y34D01*
X0Y33D02*
X7Y33D01*
X2039Y33D02*
X2046Y33D01*
X0Y32D02*
X7Y32D01*
X2039Y32D02*
X2046Y32D01*
X0Y31D02*
X7Y31D01*
X2039Y31D02*
X2046Y31D01*
X0Y30D02*
X7Y30D01*
X2039Y30D02*
X2046Y30D01*
X0Y29D02*
X7Y29D01*
X2039Y29D02*
X2046Y29D01*
X0Y28D02*
X7Y28D01*
X2039Y28D02*
X2046Y28D01*
X0Y27D02*
X7Y27D01*
X2039Y27D02*
X2046Y27D01*
X0Y26D02*
X7Y26D01*
X2039Y26D02*
X2046Y26D01*
X0Y25D02*
X7Y25D01*
X2039Y25D02*
X2046Y25D01*
X0Y24D02*
X7Y24D01*
X2039Y24D02*
X2046Y24D01*
X0Y23D02*
X7Y23D01*
X2039Y23D02*
X2046Y23D01*
X0Y22D02*
X7Y22D01*
X2039Y22D02*
X2046Y22D01*
X0Y21D02*
X7Y21D01*
X2039Y21D02*
X2046Y21D01*
X0Y20D02*
X7Y20D01*
X2039Y20D02*
X2046Y20D01*
X0Y19D02*
X7Y19D01*
X2039Y19D02*
X2046Y19D01*
X0Y18D02*
X7Y18D01*
X2039Y18D02*
X2046Y18D01*
X0Y17D02*
X7Y17D01*
X2039Y17D02*
X2046Y17D01*
X0Y16D02*
X7Y16D01*
X2039Y16D02*
X2046Y16D01*
X0Y15D02*
X7Y15D01*
X2039Y15D02*
X2046Y15D01*
X0Y14D02*
X7Y14D01*
X2039Y14D02*
X2046Y14D01*
X0Y13D02*
X7Y13D01*
X2039Y13D02*
X2046Y13D01*
X0Y12D02*
X7Y12D01*
X2039Y12D02*
X2046Y12D01*
X0Y11D02*
X7Y11D01*
X2039Y11D02*
X2046Y11D01*
X0Y10D02*
X7Y10D01*
X2039Y10D02*
X2046Y10D01*
X0Y9D02*
X7Y9D01*
X2039Y9D02*
X2046Y9D01*
X0Y8D02*
X2046Y8D01*
X0Y7D02*
X2046Y7D01*
X0Y6D02*
X2046Y6D01*
X0Y5D02*
X2046Y5D01*
X0Y4D02*
X2046Y4D01*
X0Y3D02*
X2046Y3D01*
X0Y2D02*
X2046Y2D01*
X0Y1D02*
X2046Y1D01*
D02*
G04 End of Silk0*
M02*