; NON-PLATED HOLES START AT T1
; THROUGH (PLATED) HOLES START AT T100
M48
INCH
T1C0.125984
T100C0.036000
T101C0.035000
T102C0.040255
T103C0.038000
T104C0.042000
T105C0.015748
T106C0.030556
%
T1
X000968Y019593
X000973Y000988
X019573Y000988
X019568Y019593
T100
X011573Y003288
X011573Y011288
X011573Y004288
X011573Y008288
X017573Y006288
X011573Y005288
X017573Y014288
X011573Y007288
X011573Y013288
X011573Y014288
X017573Y011288
X017573Y004288
X011573Y009288
X017573Y005288
X017573Y009288
X017573Y003288
X011573Y006288
X017573Y015288
X017573Y010288
X017573Y008288
X011573Y015288
X017573Y007288
X011573Y012288
X017573Y012288
X011573Y017288
X017573Y017288
X011573Y016288
X011573Y010288
X017573Y016288
X017573Y013288
T101
X013873Y013288
X002640Y007193
X013096Y007252
X007296Y004593
X007296Y007152
X005773Y007129
X008272Y018691
X005740Y002034
X013096Y004693
X003968Y004593
X007244Y018691
X007244Y016132
X000868Y007193
X005472Y018691
X004001Y007129
X014868Y007252
X013873Y017288
X009068Y004593
X005472Y016132
X008272Y016132
X005740Y004593
X005773Y009688
X004001Y009688
X002640Y004634
X000868Y004634
X003968Y002034
X010044Y018691
X009068Y007152
X010044Y016132
X014868Y004693
T102
X008268Y011293
X006255Y011293
X009274Y012293
X007262Y012293
X006255Y012293
X007262Y011293
X008268Y012293
X009274Y011293
T103
X000973Y009988
X010068Y001493
X003873Y016088
X003873Y017888
X000973Y010988
X002873Y017888
X006968Y001493
X000973Y011988
X008668Y002493
X000973Y008988
X002873Y016088
X008668Y001493
X010068Y002493
X006968Y002493
T104
X007768Y014293
X008768Y014293
X006768Y014293
T105
X012273Y005788
X014873Y006288
X015573Y011288
X003164Y008791
X008268Y009693
X006573Y006288
X010273Y008288
X008268Y008893
X014773Y008288
X002473Y014588
X005473Y013088
X015573Y007788
X013073Y006288
X004873Y014588
T106
X000973Y014588
X000940Y018463
X000940Y016463
X000939Y017461
X000974Y015589
X000974Y013590
T00
M30
