; NON-PLATED HOLES START AT T1
; THROUGH (PLATED) HOLES START AT T100
M48
INCH
T1C0.125984
T100C0.040255
T101C0.036000
T102C0.030556
T103C0.035000
T104C0.042000
T105C0.015748
T106C0.038000
%
T1
X017173Y019583
X017173Y000883
X000973Y000883
X000973Y019583
T100
X008273Y011183
X006260Y011183
X007267Y011183
X009279Y012183
X007267Y012183
X006260Y012183
X009279Y011183
X008273Y012183
T101
X011173Y017183
X011173Y009183
X017173Y003183
X017173Y014183
X017173Y013183
X011173Y011183
X017173Y017183
X011173Y006183
X017173Y004183
X017173Y015183
X011173Y013183
X011173Y010183
X011173Y015183
X017173Y008183
X017173Y012183
X017173Y009183
X011173Y007183
X011173Y014183
X017173Y016183
X017173Y005183
X017173Y011183
X011173Y008183
X011173Y005183
X017173Y010183
X011173Y004183
X017173Y007183
X011173Y012183
X011173Y016183
X017173Y006183
X011173Y003183
T102
X000974Y015484
X000974Y013485
X000939Y017357
X000940Y018358
X000973Y014483
X000940Y016359
T103
X004001Y002324
X000608Y007177
X010045Y018383
X005473Y015824
X013073Y004624
X002379Y004618
X014845Y007183
X002379Y007177
X005773Y009583
X007245Y015824
X004001Y004883
X007245Y018383
X014845Y004624
X005773Y004883
X012673Y017183
X013073Y007183
X009173Y007142
X010045Y015824
X005473Y018383
X012673Y013183
X005773Y002324
X008273Y018383
X005773Y007024
X004001Y009583
X009173Y004583
X004001Y007024
X008273Y015824
X007401Y007142
X007401Y004583
X000608Y004618
T104
X008760Y013983
X006760Y013983
X007760Y013983
T105
X015573Y007683
X002473Y014483
X013073Y006183
X014773Y008183
X004873Y014483
X008073Y010183
X011973Y005683
X015573Y011183
X014873Y006183
X004872Y011178
X005473Y012983
X010273Y008183
X004873Y010083
X006573Y006183
T106
X006773Y002483
X000973Y010883
X003873Y015983
X009773Y002483
X006773Y001483
X009773Y001483
X000973Y011883
X003873Y017783
X002873Y017783
X008473Y002483
X002873Y015983
X000973Y009883
X008473Y001483
X000973Y008883
T00
M30
