G04 MADE WITH FRITZING*
G04 WWW.FRITZING.ORG*
G04 DOUBLE SIDED*
G04 HOLES PLATED*
G04 CONTOUR ON CENTER OF CONTOUR VECTOR*
%ASAXBY*%
%FSLAX23Y23*%
%MOIN*%
%OFA0B0*%
%SFA1.0B1.0*%
%ADD10C,0.075000*%
%ADD11C,0.039370*%
%ADD12C,0.078000*%
%ADD13C,0.082000*%
%ADD14C,0.069444*%
%ADD15C,0.074472*%
%ADD16C,0.070000*%
%ADD17R,0.082000X0.082000*%
%ADD18R,0.074472X0.074108*%
%ADD19R,0.069972X0.070000*%
%ADD20C,0.012000*%
%LNCOPPER0*%
G90*
G70*
G54D10*
X1487Y469D03*
X1487Y725D03*
X1310Y469D03*
X1310Y725D03*
X1487Y469D03*
X1487Y725D03*
X1310Y469D03*
X1310Y725D03*
G54D11*
X1477Y829D03*
G54D12*
X697Y249D03*
X697Y149D03*
X867Y249D03*
X867Y149D03*
X1007Y249D03*
X1007Y149D03*
G54D10*
X907Y459D03*
X907Y715D03*
X730Y459D03*
X730Y715D03*
X907Y459D03*
X907Y715D03*
X730Y459D03*
X730Y715D03*
X400Y969D03*
X400Y713D03*
X577Y969D03*
X577Y713D03*
X400Y969D03*
X400Y713D03*
X577Y969D03*
X577Y713D03*
X397Y459D03*
X397Y203D03*
X574Y459D03*
X574Y203D03*
X397Y459D03*
X397Y203D03*
X574Y459D03*
X574Y203D03*
X87Y719D03*
X87Y463D03*
X264Y719D03*
X264Y463D03*
X87Y719D03*
X87Y463D03*
X264Y719D03*
X264Y463D03*
G54D13*
X677Y1429D03*
X777Y1429D03*
X877Y1429D03*
G54D14*
X97Y1559D03*
X97Y1459D03*
X97Y1359D03*
X94Y1846D03*
X94Y1746D03*
X94Y1646D03*
G54D10*
X1387Y1729D03*
X1387Y1329D03*
X724Y1613D03*
X724Y1869D03*
X547Y1613D03*
X547Y1869D03*
X724Y1613D03*
X724Y1869D03*
X547Y1613D03*
X547Y1869D03*
X1004Y1613D03*
X1004Y1869D03*
X827Y1613D03*
X827Y1869D03*
X1004Y1613D03*
X1004Y1869D03*
X827Y1613D03*
X827Y1869D03*
G54D15*
X927Y1129D03*
X927Y1229D03*
X827Y1129D03*
X827Y1229D03*
X726Y1129D03*
X726Y1229D03*
X626Y1129D03*
X626Y1229D03*
G54D12*
X287Y1609D03*
X387Y1609D03*
X287Y1789D03*
X387Y1789D03*
X97Y899D03*
X97Y999D03*
X97Y1099D03*
X97Y1199D03*
G54D11*
X547Y1309D03*
X1027Y829D03*
X1227Y579D03*
X1557Y779D03*
X1557Y1129D03*
X487Y1459D03*
X247Y1459D03*
X657Y629D03*
X827Y889D03*
X1307Y629D03*
X1487Y629D03*
X827Y969D03*
X316Y879D03*
G54D16*
X1757Y329D03*
X1757Y429D03*
X1757Y529D03*
X1757Y629D03*
X1757Y729D03*
X1757Y829D03*
X1757Y929D03*
X1757Y1029D03*
X1757Y1129D03*
X1757Y1229D03*
X1757Y1329D03*
X1757Y1429D03*
X1757Y1529D03*
X1757Y1629D03*
X1757Y1729D03*
X1157Y329D03*
X1157Y429D03*
X1157Y529D03*
X1157Y629D03*
X1157Y729D03*
X1157Y829D03*
X1157Y929D03*
X1157Y1029D03*
X1157Y1129D03*
X1157Y1229D03*
X1157Y1329D03*
X1157Y1429D03*
X1157Y1529D03*
X1157Y1629D03*
X1157Y1729D03*
G54D17*
X677Y1429D03*
G54D18*
X927Y1129D03*
X626Y1129D03*
G54D19*
X1757Y329D03*
G54D20*
X1648Y729D02*
X1734Y729D01*
D02*
X1648Y828D02*
X1648Y729D01*
D02*
X1491Y829D02*
X1648Y828D01*
D02*
X657Y349D02*
X657Y615D01*
D02*
X696Y350D02*
X657Y349D01*
D02*
X697Y274D02*
X696Y350D01*
D02*
X927Y1059D02*
X576Y1059D01*
D02*
X927Y1104D02*
X927Y1059D01*
D02*
X747Y1145D02*
X777Y1169D01*
D02*
X777Y1169D02*
X777Y1310D01*
D02*
X777Y1310D02*
X937Y1310D01*
D02*
X937Y1310D02*
X937Y1519D01*
D02*
X827Y1519D02*
X827Y1590D01*
D02*
X937Y1519D02*
X827Y1519D01*
D02*
X400Y946D02*
X396Y810D01*
D02*
X397Y810D02*
X917Y810D01*
D02*
X1017Y979D02*
X1647Y979D01*
D02*
X1017Y909D02*
X1017Y979D01*
D02*
X1647Y1029D02*
X1734Y1029D01*
D02*
X1647Y979D02*
X1647Y1029D01*
D02*
X316Y866D02*
X317Y779D01*
D02*
X1647Y929D02*
X1734Y929D01*
D02*
X1647Y879D02*
X1647Y929D01*
D02*
X547Y1322D02*
X547Y1519D01*
D02*
X727Y1519D02*
X725Y1590D01*
D02*
X547Y1519D02*
X727Y1519D01*
D02*
X386Y1870D02*
X524Y1869D01*
D02*
X387Y1813D02*
X386Y1870D01*
D02*
X77Y1359D02*
X28Y1359D01*
D02*
X28Y1359D02*
X28Y1649D01*
D02*
X28Y1649D02*
X73Y1647D01*
D02*
X1307Y429D02*
X1181Y429D01*
D02*
X1308Y446D02*
X1307Y429D01*
D02*
X197Y1459D02*
X197Y1709D01*
D02*
X118Y1459D02*
X197Y1459D01*
D02*
X197Y1709D02*
X1067Y1710D01*
D02*
X1067Y1710D02*
X1067Y1230D01*
D02*
X1067Y1230D02*
X1134Y1229D01*
D02*
X197Y1749D02*
X197Y1709D01*
D02*
X115Y1747D02*
X197Y1749D01*
D02*
X1734Y329D02*
X1627Y328D01*
D02*
X1627Y328D02*
X1627Y150D01*
D02*
X1627Y150D02*
X1031Y149D01*
D02*
X937Y150D02*
X936Y340D01*
D02*
X936Y340D02*
X1027Y340D01*
D02*
X1027Y340D02*
X1027Y815D01*
D02*
X891Y149D02*
X937Y150D01*
D02*
X1227Y592D02*
X1227Y778D01*
D02*
X1227Y778D02*
X1544Y779D01*
D02*
X1571Y1129D02*
X1734Y1129D01*
D02*
X73Y999D02*
X28Y999D01*
D02*
X28Y999D02*
X28Y1289D01*
D02*
X28Y1289D02*
X247Y1289D01*
D02*
X247Y1289D02*
X247Y1445D01*
D02*
X644Y629D02*
X197Y630D01*
D02*
X197Y999D02*
X122Y999D01*
D02*
X197Y630D02*
X197Y999D01*
D02*
X827Y956D02*
X827Y903D01*
D02*
X261Y1459D02*
X474Y1459D01*
D02*
X547Y1929D02*
X1007Y1929D01*
D02*
X1007Y1929D02*
X1006Y1892D01*
D02*
X547Y1892D02*
X547Y1929D01*
D02*
X1321Y629D02*
X1474Y629D01*
D02*
X627Y1350D02*
X626Y1255D01*
D02*
X777Y1350D02*
X627Y1350D01*
D02*
X777Y1403D02*
X777Y1350D01*
D02*
X266Y539D02*
X157Y539D01*
D02*
X157Y539D02*
X157Y799D01*
D02*
X157Y799D02*
X97Y799D01*
D02*
X97Y799D02*
X97Y874D01*
D02*
X265Y486D02*
X266Y539D01*
D02*
X956Y880D02*
X1647Y879D01*
D02*
X956Y779D02*
X956Y880D01*
D02*
X317Y779D02*
X956Y779D01*
D02*
X917Y909D02*
X1017Y909D01*
D02*
X917Y810D02*
X917Y909D01*
D02*
X466Y1059D02*
X466Y849D01*
D02*
X877Y849D02*
X877Y949D01*
D02*
X877Y949D02*
X967Y949D01*
D02*
X967Y949D02*
X967Y1030D01*
D02*
X466Y849D02*
X877Y849D01*
D02*
X317Y1059D02*
X466Y1059D01*
D02*
X317Y1199D02*
X317Y1059D01*
D02*
X967Y1030D02*
X1134Y1029D01*
D02*
X122Y1199D02*
X317Y1199D01*
D02*
X576Y1059D02*
X577Y992D01*
G04 End of Copper0*
M02*