G04 MADE WITH FRITZING*
G04 WWW.FRITZING.ORG*
G04 DOUBLE SIDED*
G04 HOLES PLATED*
G04 CONTOUR ON CENTER OF CONTOUR VECTOR*
%ASAXBY*%
%FSLAX23Y23*%
%MOIN*%
%OFA0B0*%
%SFA1.0B1.0*%
%ADD10C,0.075000*%
%ADD11C,0.039370*%
%ADD12C,0.078000*%
%ADD13C,0.082000*%
%ADD14C,0.069444*%
%ADD15C,0.074472*%
%ADD16C,0.070000*%
%ADD17R,0.082000X0.082000*%
%ADD18R,0.074472X0.074108*%
%ADD19R,0.069972X0.070000*%
%ADD20C,0.012000*%
%LNCOPPER1*%
G90*
G70*
G54D10*
X1487Y469D03*
X1487Y725D03*
X1310Y469D03*
X1310Y725D03*
X1487Y469D03*
X1487Y725D03*
X1310Y469D03*
X1310Y725D03*
G54D11*
X1477Y829D03*
G54D12*
X697Y249D03*
X697Y149D03*
X867Y249D03*
X867Y149D03*
X1007Y249D03*
X1007Y149D03*
G54D10*
X907Y459D03*
X907Y715D03*
X730Y459D03*
X730Y715D03*
X907Y459D03*
X907Y715D03*
X730Y459D03*
X730Y715D03*
X400Y969D03*
X400Y713D03*
X577Y969D03*
X577Y713D03*
X400Y969D03*
X400Y713D03*
X577Y969D03*
X577Y713D03*
X397Y459D03*
X397Y203D03*
X574Y459D03*
X574Y203D03*
X397Y459D03*
X397Y203D03*
X574Y459D03*
X574Y203D03*
X87Y719D03*
X87Y463D03*
X264Y719D03*
X264Y463D03*
X87Y719D03*
X87Y463D03*
X264Y719D03*
X264Y463D03*
G54D13*
X677Y1429D03*
X777Y1429D03*
X877Y1429D03*
G54D14*
X97Y1559D03*
X97Y1459D03*
X97Y1359D03*
X94Y1846D03*
X94Y1746D03*
X94Y1646D03*
G54D10*
X1387Y1729D03*
X1387Y1329D03*
X724Y1613D03*
X724Y1869D03*
X547Y1613D03*
X547Y1869D03*
X724Y1613D03*
X724Y1869D03*
X547Y1613D03*
X547Y1869D03*
X1004Y1613D03*
X1004Y1869D03*
X827Y1613D03*
X827Y1869D03*
X1004Y1613D03*
X1004Y1869D03*
X827Y1613D03*
X827Y1869D03*
G54D15*
X927Y1129D03*
X927Y1229D03*
X827Y1129D03*
X827Y1229D03*
X726Y1129D03*
X726Y1229D03*
X626Y1129D03*
X626Y1229D03*
X927Y1129D03*
X927Y1229D03*
X827Y1129D03*
X827Y1229D03*
X726Y1129D03*
X726Y1229D03*
X626Y1129D03*
X626Y1229D03*
G54D12*
X287Y1609D03*
X387Y1609D03*
X287Y1789D03*
X387Y1789D03*
X97Y899D03*
X97Y999D03*
X97Y1099D03*
X97Y1199D03*
G54D11*
X547Y1309D03*
X1027Y829D03*
X1227Y579D03*
X1557Y779D03*
X1557Y1129D03*
X487Y1459D03*
X247Y1459D03*
X657Y629D03*
X827Y889D03*
X1307Y629D03*
X1487Y629D03*
X827Y969D03*
X316Y879D03*
G54D16*
X1757Y329D03*
X1757Y429D03*
X1757Y529D03*
X1757Y629D03*
X1757Y729D03*
X1757Y829D03*
X1757Y929D03*
X1757Y1029D03*
X1757Y1129D03*
X1757Y1229D03*
X1757Y1329D03*
X1757Y1429D03*
X1757Y1529D03*
X1757Y1629D03*
X1757Y1729D03*
X1157Y329D03*
X1157Y429D03*
X1157Y529D03*
X1157Y629D03*
X1157Y729D03*
X1157Y829D03*
X1157Y929D03*
X1157Y1029D03*
X1157Y1129D03*
X1157Y1229D03*
X1157Y1329D03*
X1157Y1429D03*
X1157Y1529D03*
X1157Y1629D03*
X1157Y1729D03*
G54D17*
X677Y1429D03*
G54D18*
X927Y1129D03*
X927Y1129D03*
X626Y1129D03*
G54D19*
X1757Y329D03*
G54D20*
X809Y1211D02*
X777Y1179D01*
D02*
X1387Y1306D02*
X1387Y1228D01*
D02*
X672Y149D02*
X577Y150D01*
D02*
X577Y150D02*
X575Y180D01*
D02*
X186Y1930D02*
X187Y1849D01*
D02*
X1386Y1930D02*
X186Y1930D01*
D02*
X1477Y842D02*
X1477Y1519D01*
D02*
X287Y1708D02*
X287Y1764D01*
D02*
X1067Y1710D02*
X287Y1708D01*
D02*
X1067Y1779D02*
X1067Y1710D01*
D02*
X1227Y1518D02*
X1227Y1779D01*
D02*
X1477Y1519D02*
X1227Y1518D01*
D02*
X677Y1179D02*
X644Y1211D01*
D02*
X777Y1179D02*
X677Y1179D01*
D02*
X1387Y1228D02*
X1181Y1229D01*
D02*
X1387Y1752D02*
X1386Y1930D01*
D02*
X187Y1849D02*
X115Y1847D01*
D02*
X1227Y1779D02*
X1067Y1779D01*
D02*
X1608Y729D02*
X1608Y1229D01*
D02*
X1510Y726D02*
X1608Y729D01*
D02*
X1608Y1229D02*
X1734Y1229D01*
D02*
X427Y1529D02*
X427Y1349D01*
D02*
X287Y1529D02*
X427Y1529D01*
D02*
X287Y1584D02*
X287Y1529D01*
D02*
X1018Y1329D02*
X1134Y1329D01*
D02*
X1018Y1349D02*
X1018Y1329D01*
D02*
X427Y1349D02*
X1018Y1349D01*
D02*
X1397Y378D02*
X1397Y1079D01*
D02*
X1057Y379D02*
X1397Y378D01*
D02*
X1057Y340D02*
X1057Y379D01*
D02*
X867Y340D02*
X1057Y340D01*
D02*
X867Y274D02*
X867Y340D01*
D02*
X1627Y429D02*
X1627Y250D01*
D02*
X1627Y250D02*
X1031Y249D01*
D02*
X1734Y429D02*
X1627Y429D01*
D02*
X1397Y1079D02*
X1047Y1079D01*
D02*
X1047Y1229D02*
X953Y1229D01*
D02*
X1047Y1079D02*
X1047Y1229D01*
D02*
X727Y1309D02*
X561Y1309D01*
D02*
X726Y1255D02*
X727Y1309D01*
D02*
X487Y1609D02*
X412Y1609D01*
D02*
X524Y1612D02*
X487Y1609D01*
D02*
X197Y1648D02*
X198Y1679D01*
D02*
X198Y1679D02*
X387Y1679D01*
D02*
X115Y1647D02*
X197Y1648D01*
D02*
X387Y1679D02*
X387Y1633D01*
D02*
X28Y898D02*
X28Y1359D01*
D02*
X28Y1359D02*
X77Y1359D01*
D02*
X73Y899D02*
X28Y898D01*
D02*
X267Y799D02*
X576Y800D01*
D02*
X265Y742D02*
X267Y799D01*
D02*
X576Y800D02*
X577Y736D01*
D02*
X1026Y429D02*
X1027Y380D01*
D02*
X266Y380D02*
X265Y440D01*
D02*
X1027Y380D02*
X577Y380D01*
D02*
X1134Y429D02*
X1026Y429D01*
D02*
X1734Y829D02*
X1647Y829D01*
D02*
X1647Y829D02*
X1647Y629D01*
D02*
X1647Y629D02*
X1501Y629D01*
D02*
X1294Y629D02*
X1227Y629D01*
D02*
X1227Y629D02*
X1227Y778D01*
D02*
X1227Y778D02*
X906Y779D01*
D02*
X906Y779D02*
X907Y738D01*
D02*
X1014Y829D02*
X827Y830D01*
D02*
X827Y830D02*
X827Y876D01*
D02*
X397Y482D02*
X397Y579D01*
D02*
X397Y579D02*
X1214Y579D01*
D02*
X1557Y792D02*
X1557Y1115D01*
D02*
X77Y1559D02*
X28Y1559D01*
D02*
X28Y1559D02*
X28Y1848D01*
D02*
X28Y1848D02*
X73Y1847D01*
D02*
X487Y1429D02*
X487Y1445D01*
D02*
X650Y1429D02*
X487Y1429D01*
D02*
X1134Y629D02*
X671Y629D01*
D02*
X197Y1459D02*
X197Y1558D01*
D02*
X197Y1558D02*
X118Y1559D01*
D02*
X234Y1459D02*
X197Y1459D01*
D02*
X707Y715D02*
X600Y713D01*
D02*
X626Y1104D02*
X627Y1059D01*
D02*
X303Y879D02*
X196Y879D01*
D02*
X547Y1519D02*
X877Y1519D01*
D02*
X877Y1519D02*
X877Y1456D01*
D02*
X547Y1590D02*
X547Y1519D01*
D02*
X87Y800D02*
X87Y742D01*
D02*
X196Y800D02*
X87Y800D01*
D02*
X196Y879D02*
X196Y800D01*
D02*
X697Y1030D02*
X466Y1030D01*
D02*
X1134Y929D02*
X697Y929D01*
D02*
X697Y929D02*
X697Y1030D01*
D02*
X577Y380D02*
X575Y436D01*
D02*
X577Y380D02*
X266Y380D01*
D02*
X317Y1100D02*
X122Y1099D01*
D02*
X317Y1059D02*
X317Y1100D01*
D02*
X827Y1059D02*
X827Y983D01*
D02*
X627Y1059D02*
X827Y1059D01*
D02*
X466Y1059D02*
X317Y1059D01*
D02*
X466Y1030D02*
X466Y1059D01*
G04 End of Copper1*
M02*