G04 MADE WITH FRITZING*
G04 WWW.FRITZING.ORG*
G04 DOUBLE SIDED*
G04 HOLES PLATED*
G04 CONTOUR ON CENTER OF CONTOUR VECTOR*
%ASAXBY*%
%FSLAX23Y23*%
%MOIN*%
%OFA0B0*%
%SFA1.0B1.0*%
%ADD10C,0.088000*%
%ADD11C,0.085000*%
%ADD12C,0.092000*%
%ADD13C,0.079444*%
%ADD14C,0.080000*%
%ADD15C,0.084472*%
%ADD16C,0.049370*%
%ADD17C,0.135984*%
%ADD18R,0.092000X0.092000*%
%ADD19R,0.079972X0.080000*%
%ADD20R,0.084472X0.084108*%
%LNMASK0*%
G90*
G70*
G54D10*
X797Y248D03*
X797Y148D03*
X917Y248D03*
X917Y148D03*
G54D11*
X238Y462D03*
X238Y718D03*
X61Y462D03*
X61Y718D03*
X238Y462D03*
X238Y718D03*
X61Y462D03*
X61Y718D03*
X400Y958D03*
X400Y702D03*
X577Y958D03*
X577Y702D03*
X400Y958D03*
X400Y702D03*
X577Y958D03*
X577Y702D03*
X400Y488D03*
X400Y232D03*
X577Y488D03*
X577Y232D03*
X400Y488D03*
X400Y232D03*
X577Y488D03*
X577Y232D03*
X740Y714D03*
X740Y458D03*
X917Y714D03*
X917Y458D03*
X740Y714D03*
X740Y458D03*
X917Y714D03*
X917Y458D03*
X1485Y462D03*
X1485Y718D03*
X1307Y462D03*
X1307Y718D03*
X1485Y462D03*
X1485Y718D03*
X1307Y462D03*
X1307Y718D03*
G54D12*
X676Y1398D03*
X776Y1398D03*
X876Y1398D03*
G54D13*
X97Y1548D03*
X97Y1448D03*
X97Y1349D03*
X94Y1836D03*
X94Y1736D03*
X94Y1636D03*
G54D14*
X1717Y318D03*
X1717Y418D03*
X1717Y518D03*
X1717Y618D03*
X1717Y718D03*
X1717Y818D03*
X1717Y918D03*
X1717Y1018D03*
X1717Y1118D03*
X1717Y1218D03*
X1717Y1318D03*
X1717Y1418D03*
X1717Y1518D03*
X1717Y1618D03*
X1717Y1718D03*
X1117Y318D03*
X1117Y418D03*
X1117Y518D03*
X1117Y618D03*
X1117Y718D03*
X1117Y818D03*
X1117Y918D03*
X1117Y1018D03*
X1117Y1118D03*
X1117Y1218D03*
X1117Y1318D03*
X1117Y1418D03*
X1117Y1518D03*
X1117Y1618D03*
X1117Y1718D03*
G54D11*
X1417Y1718D03*
X1417Y1318D03*
X1567Y1718D03*
X1567Y1318D03*
X1267Y1718D03*
X1267Y1318D03*
X725Y1582D03*
X725Y1838D03*
X547Y1582D03*
X547Y1838D03*
X725Y1582D03*
X725Y1838D03*
X547Y1582D03*
X547Y1838D03*
X1005Y1582D03*
X1005Y1838D03*
X827Y1582D03*
X827Y1838D03*
X1005Y1582D03*
X1005Y1838D03*
X827Y1582D03*
X827Y1838D03*
G54D15*
X928Y1118D03*
X928Y1218D03*
X827Y1118D03*
X827Y1218D03*
X727Y1118D03*
X727Y1218D03*
X626Y1118D03*
X626Y1218D03*
G54D10*
X287Y1598D03*
X387Y1598D03*
X287Y1778D03*
X387Y1778D03*
X97Y888D03*
X97Y988D03*
X97Y1088D03*
X97Y1188D03*
G54D16*
X547Y1298D03*
X1187Y1418D03*
X1027Y818D03*
X1197Y568D03*
X1557Y768D03*
X1557Y1118D03*
X487Y1448D03*
X247Y1448D03*
X657Y618D03*
G54D17*
X1717Y88D03*
X1717Y1958D03*
X97Y1958D03*
X97Y88D03*
G54D16*
X487Y1008D03*
X1307Y618D03*
X1487Y618D03*
X928Y1038D03*
X928Y959D03*
X977Y1668D03*
X1187Y1668D03*
X487Y1118D03*
G54D18*
X676Y1398D03*
G54D19*
X1717Y318D03*
G54D20*
X928Y1118D03*
X626Y1118D03*
G04 End of Mask0*
M02*